<?xml version="1.0" encoding="UTF-8"?>
<svg id="Capa_1" data-name="Capa 1" xmlns="http://www.w3.org/2000/svg" viewBox="0 0 240.23 240.63">
  <defs>
    <style>
      .cls-1 {
        fill: #fff;
      }
    </style>
  </defs>
  <path class="cls-1" d="M234.37,98.76h-111.07v43.9h65.19c-1.31,10.91-8.41,27.34-24.18,38.38h0c-9.99,6.97-23.4,11.83-41.01,11.83-31.28,0-57.83-20.64-67.3-49.16h0c-2.5-7.36-3.94-15.25-3.94-23.4s1.45-16.04,3.81-23.4h0c9.6-28.52,36.15-49.16,67.43-49.16,22.21,0,37.2,9.59,45.74,17.61l33.39-32.6C181.93,13.72,155.25,2.02,123.31,2.02c-46.27,0-86.22,26.55-105.68,65.19-8.02,16.04-12.62,34.04-12.62,53.1s4.6,37.06,12.62,53.1h0c19.45,38.64,59.41,65.19,105.68,65.19,31.94,0,58.75-10.52,78.34-28.65h0s0,0,0,0c22.34-20.64,35.23-51,35.23-87.01,0-9.73-.79-16.82-2.5-24.18Z"/>
</svg>