<?xml version="1.0" encoding="UTF-8"?>
<svg id="Capa_1" data-name="Capa 1" xmlns="http://www.w3.org/2000/svg" xmlns:xlink="http://www.w3.org/1999/xlink" viewBox="0 0 753.81 883.08">
  <defs>
    <style>
      .cls-1 {
        fill: url(#Degradado_sin_nombre_13-2);
      }

      .cls-2 {
        fill: #777;
      }

      .cls-3 {
        fill: #3f3f3f;
      }

      .cls-4, .cls-5 {
        fill: #fff;
      }

      .cls-6 {
        fill: #303030;
      }

      .cls-7 {
        letter-spacing: 0em;
      }

      .cls-8 {
        letter-spacing: 0em;
      }

      .cls-9 {
        fill: url(#Degradado_sin_nombre_13);
      }

      .cls-10 {
        fill: #80b9d6;
      }

      .cls-11 {
        fill: #515151;
      }

      .cls-12 {
        fill: #2b3180;
      }

      .cls-13 {
        letter-spacing: 0em;
      }

      .cls-14 {
        letter-spacing: -.02em;
      }

      .cls-15 {
        fill: url(#Degradado_sin_nombre_14);
      }

      .cls-5 {
        font-family: Montserrat-ExtraBold, Montserrat;
        font-size: 68.42px;
        font-weight: 700;
      }

      .cls-16 {
        letter-spacing: -.01em;
      }

      .cls-17 {
        fill: #6c6d6d;
      }

      .cls-18 {
        letter-spacing: -.01em;
      }

      .cls-19 {
        filter: url(#drop-shadow-48);
      }
    </style>
    <linearGradient id="Degradado_sin_nombre_14" data-name="Degradado sin nombre 14" x1="367.64" y1="178.69" x2="364.86" y2="1167.33" gradientUnits="userSpaceOnUse">
      <stop offset="0" stop-color="#000"/>
      <stop offset=".73" stop-color="#2b3180"/>
    </linearGradient>
    <linearGradient id="Degradado_sin_nombre_13" data-name="Degradado sin nombre 13" x1="39.97" y1="228.53" x2="46.42" y2="292.43" gradientUnits="userSpaceOnUse">
      <stop offset="0" stop-color="#00aefb"/>
      <stop offset="1" stop-color="#1b1464"/>
    </linearGradient>
    <linearGradient id="Degradado_sin_nombre_13-2" data-name="Degradado sin nombre 13" x1="348.58" y1="481.68" x2="345.79" y2="1398.67" xlink:href="#Degradado_sin_nombre_13"/>
    <filter id="drop-shadow-48" x="263.89" y="362.44" width="163" height="403" filterUnits="userSpaceOnUse">
      <feOffset dx="0" dy="0"/>
      <feGaussianBlur result="blur" stdDeviation="3"/>
      <feFlood flood-color="#000" flood-opacity=".45"/>
      <feComposite in2="blur" operator="in"/>
      <feComposite in="SourceGraphic"/>
    </filter>
  </defs>
  <rect class="cls-15" x="58.41" y="16.19" width="616.97" height="855.69" rx="41.66" ry="41.66"/>
  <g>
    <path class="cls-12" d="M718.71,230.44c-232.53,0-465.07,0-697.6,0v-87.53h732.71c-11.7,29.18-23.4,58.35-35.1,87.53Z"/>
    <path class="cls-9" d="M21.11,230.44c12.71,20.23,25.41,40.46,38.12,60.69v-60.69H21.11Z"/>
  </g>
  <text class="cls-5" transform="translate(84.41 121.82)"><tspan class="cls-7" x="0" y="0">M</tspan><tspan class="cls-16" x="65.14" y="0">V</tspan><tspan x="116.52" y="0">P </tspan><tspan x="0" y="82">D</tspan><tspan class="cls-13" x="56.51" y="82">E</tspan><tspan class="cls-14" x="101.81" y="82">V</tspan><tspan x="153.19" y="82">E</tspan><tspan class="cls-18" x="199.17" y="82">L</tspan><tspan x="240.15" y="82">O</tspan><tspan class="cls-8" x="298.03" y="82">P</tspan><tspan x="347.77" y="82">MENT</tspan></text>
  <g>
    <path class="cls-4" d="M366.25,307.41c33.11,0,65.22,6.48,95.45,19.27,29.2,12.35,55.43,30.03,77.95,52.55s40.2,48.75,52.55,77.95c12.79,30.23,19.27,62.35,19.27,95.45s-6.48,65.22-19.27,95.45c-12.35,29.2-30.03,55.43-52.55,77.95s-48.75,40.2-77.95,52.55c-30.23,12.79-62.35,19.27-95.45,19.27s-65.22-6.48-95.45-19.27c-29.2-12.35-55.43-30.03-77.95-52.55-22.52-22.52-40.2-48.75-52.55-77.95-12.79-30.23-19.27-62.35-19.27-95.45s6.48-65.22,19.27-95.45c12.35-29.2,30.03-55.43,52.55-77.95,22.52-22.52,48.75-40.2,77.95-52.55,30.23-12.79,62.35-19.27,95.45-19.27M366.25,306.41c-135.98,0-246.22,110.24-246.22,246.22s110.24,246.22,246.22,246.22,246.22-110.24,246.22-246.22-110.24-246.22-246.22-246.22h0Z"/>
    <path class="cls-4" d="M365.13,339.82c28.73,0,56.6,5.63,82.84,16.72,25.34,10.72,48.1,26.06,67.65,45.61,19.54,19.54,34.89,42.3,45.61,67.65,11.1,26.24,16.72,54.11,16.72,82.84s-5.63,56.6-16.72,82.84c-10.72,25.34-26.06,48.1-45.61,67.65-19.54,19.54-42.3,34.89-67.65,45.61-26.24,11.1-54.11,16.72-82.84,16.72s-56.6-5.63-82.84-16.72c-25.34-10.72-48.1-26.06-67.65-45.61-19.54-19.54-34.89-42.3-45.61-67.65-11.1-26.24-16.72-54.11-16.72-82.84s5.63-56.6,16.72-82.84c10.72-25.34,26.06-48.1,45.61-67.65,19.54-19.54,42.3-34.89,67.65-45.61,26.24-11.1,54.11-16.72,82.84-16.72M365.13,338.82c-118.09,0-213.81,95.73-213.81,213.81s95.73,213.81,213.81,213.81,213.81-95.73,213.81-213.81-95.73-213.81-213.81-213.81h0Z"/>
  </g>
  <g>
    <path class="cls-17" d="M502.4,464.1v63.89c0,1.74-1.21,3.21-2.84,3.6h-2.41v-71.09h2.41c1.63.39,2.84,1.85,2.84,3.6h0Z"/>
    <path class="cls-17" d="M502.4,402.04v39.44c0,1.74-1.21,3.21-2.84,3.6h-2.41v-46.64h2.41c1.63.39,2.84,1.85,2.84,3.6h0Z"/>
    <path class="cls-17" d="M194.28,420.94v39.44c0,1.74,1.21,3.21,2.84,3.6h2.41v-46.64h-2.41c-1.63.39-2.84,1.85-2.84,3.6h0Z"/>
    <path class="cls-2" d="M197.17,417.5v-106.76c0-27.63,22.48-50.11,50.11-50.11h202.17c27.63,0,50.11,22.48,50.11,50.11v485.09c0,27.63-22.48,50.11-50.11,50.11h-202.17c-27.63,0-50.11-22.48-50.11-50.11v-378.33Z"/>
    <path d="M495.6,310.74v485.09c0,25.47-20.68,46.15-46.15,46.15h-202.17c-25.47,0-46.15-20.68-46.15-46.15v-485.09c0-25.47,20.68-46.15,46.15-46.15h202.17c25.47,0,46.15,20.68,46.15,46.15h0Z"/>
    <path class="cls-1" d="M485.03,310.74v485.09c0,19.63-15.94,35.58-35.58,35.58h-202.17c-19.63,0-35.58-15.94-35.58-35.58v-485.09c0-19.63,15.94-35.57,35.57-35.57h202.17c19.63,0,35.57,15.94,35.57,35.57h0Z"/>
    <circle class="cls-6" cx="348.36" cy="305.43" r="8.91"/>
    <circle class="cls-3" cx="348.36" cy="305.43" r="6.45"/>
    <circle class="cls-11" cx="351.64" cy="302.16" r="2.61"/>
    <circle class="cls-11" cx="346.65" cy="307.15" r="1.72"/>
    <path class="cls-10" d="M387,811.97h-77.28c-1.7,0-3.08-1.38-3.08-3.08s1.38-3.08,3.08-3.08h77.28c1.7,0,3.08,1.38,3.08,3.08s-1.38,3.08-3.08,3.08Z"/>
  </g>
  <g class="cls-19">
    <path class="cls-4" d="M391.95,613.28c-.82,20.94-13.25,69.14-13.25,69.14,22.99-16.98,24.06,23.9,24.06,23.9,37.59-118.62-10.81-93.04-10.81-93.04Z"/>
    <path class="cls-4" d="M288.14,706.32s1.07-40.88,24.06-23.9c0,0-12.43-48.2-13.25-69.14,0,0-48.4-25.58-10.81,93.04Z"/>
    <path class="cls-4" d="M370.75,466.86h.02s-.02-.03-.03-.05c.01-.05.03-.11.03-.16,0-.32-.23-.63-.66-.93-3.89-6.86-23.75-43.98-24.66-87.43,1.68-.03,3.03-1.39,3.03-3.07s-1.38-3.08-3.08-3.08-3.08,1.38-3.08,3.08,1.35,3.05,3.03,3.07c-.91,43.38-20.7,80.44-24.64,87.39-.46.31-.72.64-.72.97,0,.07.01.14.03.21-2.13,2.17-20.84,23.02-20.81,84.51.03,65.19,17.51,128.84,17.51,128.84h28.75s28.75-.03,28.75-.03c0,0,17.42-63.66,17.4-128.85-.03-61.3-18.64-82.19-20.86-84.47ZM345.39,494.37c8.26,0,14.96,6.69,14.96,14.95,0,8.26-6.69,14.96-14.95,14.97-8.26,0-14.96-6.69-14.96-14.95,0-8.26,6.69-14.96,14.95-14.96ZM345.41,547.68c8.26,0,14.96,6.69,14.96,14.95,0,8.26-6.69,14.96-14.95,14.96-8.26,0-14.96-6.69-14.96-14.95,0-8.26,6.69-14.96,14.95-14.96ZM345.45,630.92c-8.26,0-14.96-6.69-14.96-14.95,0-8.26,6.69-14.96,14.95-14.96,8.26,0,14.96,6.69,14.96,14.95,0,8.26-6.69,14.96-14.95,14.97Z"/>
    <path class="cls-4" d="M362.29,688.63s4.19,11.43-1.28,22.85c0,0,.72-3.28-1.3-4.89-.34-.27-.77-.5-1.29-.65-3.58-1.04.24,14.19-12.91,28.39-13.16-14.18-9.36-29.42-12.94-28.38-.52.15-.95.38-1.29.65-2.01,1.61-1.29,4.89-1.29,4.89-5.48-11.41-1.31-22.84-1.3-22.85h-8.12s-6.19,16.96,1.93,33.89c0,0-1.08-4.87,1.91-7.25.51-.41,1.14-.74,1.92-.97,5.31-1.54-.33,21.05,19.19,42.09,19.5-21.06,13.84-43.64,19.15-42.1.78.22,1.41.56,1.92.96,2.99,2.38,1.92,7.25,1.92,7.25,8.11-16.94,1.91-33.89,1.91-33.89h-8.12Z"/>
  </g>
</svg>