<?xml version="1.0" encoding="UTF-8"?>
<svg id="Capa_1" xmlns="http://www.w3.org/2000/svg" version="1.1" viewBox="0 0 457.61 381.18">
  <!-- Generator: Adobe Illustrator 29.8.3, SVG Export Plug-In . SVG Version: 2.1.1 Build 3)  -->
  <defs>
    <style>
      .st0 {
        fill: #fff;
      }
    </style>
  </defs>
  <g>
    <path class="st0" d="M240.22,154.77h-21.5c.03,2.5.53,4.7,1.51,6.6.98,1.91,2.28,3.34,3.91,4.31,1.62.97,3.42,1.45,5.38,1.45,1.32,0,2.52-.15,3.6-.46,1.09-.31,2.14-.79,3.16-1.45s1.96-1.36,2.82-2.11,1.97-1.77,3.34-3.06c.56-.48,1.37-.72,2.42-.72,1.13,0,2.04.31,2.74.93.7.62,1.05,1.49,1.05,2.62,0,.99-.39,2.15-1.17,3.48s-1.95,2.6-3.52,3.83-3.54,2.23-5.92,3.04-5.11,1.21-8.19,1.21c-7.06,0-12.55-2.01-16.47-6.04s-5.88-9.49-5.88-16.39c0-3.25.48-6.26,1.45-9.04s2.38-5.16,4.23-7.15c1.85-1.99,4.13-3.51,6.85-4.57,2.71-1.06,5.72-1.59,9.02-1.59,4.29,0,7.98.91,11.05,2.72s5.38,4.15,6.91,7.03c1.53,2.87,2.3,5.8,2.3,8.78,0,2.77-.79,4.56-2.38,5.38-1.58.82-3.81,1.23-6.68,1.23l-.03-.03ZM218.72,148.53h19.93c-.27-3.76-1.28-6.57-3.04-8.44s-4.07-2.8-6.95-2.8-4.99.95-6.75,2.84-2.83,4.69-3.2,8.4h0Z"/>
    <path class="st0" d="M267.61,119.66v16.79c2.07-2.15,4.17-3.79,6.32-4.93s4.81-1.71,7.97-1.71c3.65,0,6.85.87,9.6,2.6,2.75,1.73,4.89,4.24,6.4,7.53,1.52,3.29,2.28,7.19,2.28,11.7,0,3.33-.42,6.38-1.27,9.16-.85,2.78-2.07,5.19-3.68,7.23s-3.56,3.62-5.86,4.73c-2.29,1.11-4.83,1.67-7.59,1.67-1.69,0-3.28-.2-4.77-.6-1.49-.4-2.76-.93-3.8-1.59-1.05-.66-1.94-1.33-2.68-2.03s-1.71-1.74-2.92-3.14v1.09c0,2.07-.5,3.63-1.49,4.69s-2.25,1.59-3.79,1.59-2.8-.53-3.72-1.59c-.93-1.06-1.39-2.62-1.39-4.69v-48c0-2.23.45-3.91,1.35-5.05s2.15-1.71,3.76-1.71c1.69,0,2.99.54,3.91,1.63.91,1.09,1.37,2.64,1.37,4.65v-.02ZM268.13,152.32c0,4.38,1,7.74,3,10.09,2,2.35,4.62,3.52,7.87,3.52,2.76,0,5.15-1.2,7.15-3.6,2-2.4,3-5.84,3-10.33,0-2.9-.42-5.4-1.25-7.49-.83-2.09-2.01-3.71-3.54-4.85s-3.32-1.71-5.36-1.71-3.96.57-5.6,1.71-2.93,2.79-3.87,4.95-1.41,4.73-1.41,7.71h.01Z"/>
  </g>
  <g>
    <path class="st0" d="M237.13,240.56c-2.66,2.07-5.23,3.62-7.71,4.65-2.48,1.03-5.27,1.55-8.36,1.55-2.82,0-5.3-.56-7.43-1.67-2.13-1.11-3.78-2.62-4.93-4.53s-1.73-3.97-1.73-6.2c0-3.01.95-5.57,2.86-7.69s4.52-3.54,7.85-4.27c.7-.16,2.43-.52,5.19-1.09,2.76-.56,5.13-1.08,7.11-1.55,1.97-.47,4.11-1.04,6.42-1.71-.13-2.9-.72-5.03-1.75-6.38-1.03-1.36-3.17-2.03-6.42-2.03-2.79,0-4.89.39-6.3,1.17s-2.62,1.95-3.62,3.5c-1.01,1.56-1.72,2.58-2.13,3.08-.42.5-1.31.74-2.68.74-1.23,0-2.3-.4-3.2-1.19-.9-.79-1.35-1.81-1.35-3.04,0-1.93.68-3.81,2.05-5.64,1.37-1.83,3.5-3.33,6.4-4.51s6.51-1.77,10.83-1.77c4.83,0,8.63.57,11.4,1.71,2.76,1.14,4.72,2.95,5.86,5.42s1.71,5.74,1.71,9.82c0,2.58,0,4.77-.02,6.56,0,1.8-.03,3.8-.06,6,0,2.07.34,4.22,1.03,6.46.68,2.24,1.03,3.68,1.03,4.33,0,1.13-.53,2.15-1.59,3.08-1.06.93-2.26,1.39-3.6,1.39-1.13,0-2.24-.53-3.34-1.59-1.1-1.06-2.27-2.6-3.5-4.61h-.02ZM236.41,224.65c-1.61.59-3.95,1.21-7.03,1.87-3.07.66-5.2,1.14-6.38,1.45-1.18.31-2.31.91-3.38,1.81s-1.61,2.15-1.61,3.76.63,3.08,1.89,4.25,2.91,1.75,4.95,1.75c2.17,0,4.18-.48,6.02-1.43,1.84-.95,3.19-2.18,4.05-3.68.99-1.66,1.49-4.4,1.49-8.21v-1.57h0Z"/>
    <path class="st0" d="M293.75,232.38c0,3.03-.74,5.63-2.21,7.79-1.48,2.16-3.66,3.8-6.54,4.91-2.89,1.11-6.4,1.67-10.53,1.67s-7.33-.6-10.15-1.81c-2.82-1.21-4.9-2.72-6.24-4.53s-2.01-3.63-2.01-5.46c0-1.21.43-2.24,1.29-3.1s1.95-1.29,3.26-1.29c1.15,0,2.04.28,2.66.85.62.56,1.21,1.36,1.77,2.38,1.13,1.96,2.48,3.42,4.05,4.39,1.57.97,3.71,1.45,6.42,1.45,2.2,0,4.01-.49,5.42-1.47s2.11-2.1,2.11-3.36c0-1.93-.73-3.34-2.19-4.23s-3.87-1.73-7.23-2.54c-3.79-.94-6.87-1.93-9.24-2.96-2.38-1.03-4.28-2.4-5.7-4.09s-2.13-3.77-2.13-6.24c0-2.2.66-4.28,1.97-6.24,1.32-1.96,3.25-3.52,5.82-4.69,2.56-1.17,5.66-1.75,9.28-1.75,2.84,0,5.4.3,7.67.89,2.27.59,4.16,1.38,5.68,2.38,1.52.99,2.67,2.09,3.46,3.3.79,1.21,1.19,2.39,1.19,3.54,0,1.26-.42,2.3-1.27,3.1-.85.81-2.05,1.21-3.6,1.21-1.13,0-2.09-.32-2.88-.97-.79-.64-1.7-1.61-2.72-2.9-.83-1.07-1.81-1.93-2.94-2.58-1.13-.64-2.66-.97-4.59-.97s-3.64.42-4.95,1.27c-1.32.85-1.97,1.9-1.97,3.16,0,1.15.48,2.1,1.45,2.84.97.74,2.27,1.35,3.91,1.83s3.89,1.07,6.76,1.77c3.41.83,6.19,1.83,8.36,2.98,2.16,1.15,3.8,2.52,4.91,4.09,1.11,1.57,1.67,3.36,1.67,5.38h-.02Z"/>
    <path class="st0" d="M303.65,203.03h1.21v-6.6c0-1.77.05-3.16.14-4.17.09-1.01.36-1.87.79-2.6.43-.75,1.05-1.36,1.85-1.83.81-.47,1.7-.7,2.7-.7,1.4,0,2.66.52,3.79,1.57.75.7,1.23,1.55,1.43,2.56.2,1.01.3,2.44.3,4.29v7.49h4.03c1.56,0,2.74.37,3.56,1.11s1.23,1.69,1.23,2.84c0,1.48-.58,2.51-1.75,3.1-1.17.59-2.84.89-5.01.89h-2.05v20.21c0,1.72.06,3.04.18,3.97s.44,1.68.97,2.25c.52.58,1.38.87,2.56.87.64,0,1.52-.11,2.62-.34s1.96-.34,2.58-.34c.89,0,1.68.36,2.4,1.07.71.71,1.07,1.59,1.07,2.64,0,1.77-.97,3.13-2.9,4.07s-4.71,1.41-8.34,1.41c-3.44,0-6.04-.58-7.81-1.73s-2.93-2.75-3.48-4.79c-.55-2.04-.83-4.76-.83-8.17v-21.1h-1.45c-1.58,0-2.79-.38-3.62-1.13s-1.25-1.7-1.25-2.86.44-2.1,1.31-2.84c.87-.74,2.14-1.11,3.8-1.11l-.03-.03Z"/>
    <path class="st0" d="M362.92,227.11h-21.5c.03,2.5.53,4.7,1.51,6.6.98,1.91,2.28,3.34,3.91,4.31,1.62.97,3.42,1.45,5.38,1.45,1.32,0,2.52-.15,3.6-.46,1.09-.31,2.14-.79,3.16-1.45s1.96-1.36,2.82-2.11c.86-.75,1.97-1.77,3.34-3.06.56-.48,1.37-.72,2.42-.72,1.13,0,2.04.31,2.74.93.7.62,1.05,1.49,1.05,2.62,0,.99-.39,2.15-1.17,3.48s-1.95,2.6-3.52,3.83c-1.57,1.22-3.54,2.23-5.92,3.04s-5.11,1.21-8.19,1.21c-7.06,0-12.55-2.01-16.47-6.04s-5.88-9.49-5.88-16.39c0-3.25.48-6.26,1.45-9.04s2.38-5.16,4.23-7.15c1.85-1.99,4.13-3.51,6.85-4.57,2.71-1.06,5.72-1.59,9.02-1.59,4.29,0,7.98.91,11.05,2.72,3.07,1.81,5.38,4.15,6.91,7.03,1.53,2.87,2.3,5.8,2.3,8.78,0,2.77-.79,4.56-2.38,5.38-1.58.82-3.81,1.23-6.68,1.23l-.03-.03ZM341.42,220.86h19.93c-.27-3.76-1.28-6.57-3.04-8.44s-4.07-2.8-6.95-2.8-4.99.95-6.75,2.84-2.83,4.69-3.2,8.4h.01Z"/>
    <path class="st0" d="M392.16,230.89v9.18c0,2.23-.52,3.9-1.57,5.01-1.05,1.11-2.38,1.67-3.99,1.67s-2.89-.56-3.91-1.69-1.53-2.79-1.53-4.99v-30.6c0-4.94,1.79-7.41,5.36-7.41,1.83,0,3.14.58,3.95,1.73s1.25,2.86,1.33,5.11c1.31-2.25,2.66-3.96,4.05-5.11,1.38-1.15,3.23-1.73,5.54-1.73s4.55.58,6.72,1.73,3.26,2.68,3.26,4.59c0,1.34-.46,2.45-1.39,3.32-.93.87-1.93,1.31-3,1.31-.4,0-1.38-.25-2.92-.75s-2.91-.74-4.09-.74c-1.61,0-2.93.42-3.95,1.27-1.02.85-1.81,2.1-2.38,3.77-.56,1.66-.95,3.64-1.17,5.94s-.32,5.09-.32,8.4h.01Z"/>
  </g>
  <path class="st0" d="M318.8,174.3c-4.84,0-8.77-3.93-8.77-8.77s3.93-8.77,8.77-8.77,8.77,3.93,8.77,8.77-3.93,8.77-8.77,8.77Z"/>
  <g>
    <path class="st0" d="M398.09,167.57c-.53,0-.78.58-.75,1.69.02.64.1,1.1.25,1.39s.37.43.67.42c.54,0,.79-.61.76-1.8-.03-1.15-.34-1.72-.93-1.7h0Z"/>
    <path class="st0" d="M267.65,103.89c18.84-4.11,35.91-4.77,50.84-1.69l2.67-.87c.46-.15.95.1,1.1.56l.02.06c.13.39-.04.81-.38,1.02,2.28.57,4.51,1.23,6.68,1.99,1.73.55,3.42,1.15,5.07,1.81l2.85-.92c.46-.15.95.1,1.1.56l.02.06c.15.46-.1.95-.56,1.1l-.88.28c4.04,1.81,7.82,3.97,11.33,6.47l3.87-1.25c.46-.15.95.1,1.1.56l.02.06c.15.46-.1.95-.56,1.1l-2.64.86c3.94,3.01,7.53,6.49,10.79,10.42l5.28-1.71c.46-.15.95.1,1.1.56l.02.06c.15.46-.1.95-.56,1.1l-4.63,1.5c3.05,3.89,5.79,8.2,8.22,12.93l6.67-2.16c.46-.15.95.1,1.1.56l.02.06c.15.46-.1.95-.56,1.1l-6.41,2.08c1.96,4,3.71,8.29,5.25,12.86.38,1.05.76,2.12,1.12,3.2.05-.02.1-.05.16-.06l8.05-1.85c.47-.11.94.19,1.04.65v.06c.12.47-.17.94-.64,1.04l-8.05,1.85h-.02c1.47,4.61,2.75,9.49,3.84,14.67l30.99-.5c-20.81-79.31-78.76-87.88-144.44-70.14v-.04ZM391.46,172.98l-.11-4.09c-.02-.67-.24-1-.67-.98-.44,0-.65.35-.64,1l.11,4.11-2.19.06-.11-4.21c0-.26-.07-.47-.19-.63s-.28-.24-.46-.24c-.2,0-.35.09-.46.25s-.17.38-.16.66l.11,4.2-2.18.06-.19-6.93,2.18-.06.02.85c.6-.74,1.23-1.13,1.87-1.14.77-.02,1.28.36,1.53,1.16.34-.43.66-.74.96-.94s.65-.3,1.06-.32c1.02-.03,1.55.67,1.59,2.1l.14,5.03-2.19.06h-.02ZM400.67,171.95c-.38.68-.88,1.03-1.51,1.05-.65.02-1.22-.34-1.71-1.08h-.04l.02.9-2.18.06-.29-10.61,2.18-.06.12,4.52h.04c.26-.37.5-.65.73-.83.23-.18.53-.27.89-.28.61-.02,1.13.29,1.56.92s.66,1.54.69,2.74c.03,1.1-.14,2-.52,2.68h.02ZM406.42,172.11c-.46.46-1.06.71-1.79.73-.79.02-1.65-.23-2.57-.77l.71-1.64c.76.42,1.31.63,1.64.62.18,0,.33-.06.45-.15.12-.1.18-.21.17-.34,0-.14-.06-.24-.16-.3s-.48-.23-1.14-.5c-.53-.22-.91-.48-1.15-.79s-.37-.69-.38-1.16c-.02-.67.2-1.22.64-1.67.45-.44,1.03-.68,1.74-.7.69-.02,1.55.23,2.57.76l-.8,1.58c-.66-.38-1.2-.57-1.62-.56-.36,0-.54.16-.53.45,0,.14.07.26.21.36s.38.21.74.32c.66.21,1.15.48,1.46.79s.47.72.48,1.21c.02.7-.2,1.29-.66,1.75h-.01Z"/>
  </g>
  <g>
    <polygon class="st0" points="96.43 124.87 75.4 59.75 41.81 59.75 79.81 177.4 96.43 124.87"/>
    <polygon class="st0" points="179.84 185.85 163.22 238.38 184.22 303.38 217.81 303.38 179.84 185.85"/>
    <polygon class="st0" points="143.5 177.33 160.11 124.79 147.67 86.29 131.06 138.82 143.5 177.33"/>
    <polygon class="st0" points="178.01 181 216.36 59.78 184.04 59.78 145.7 181 178.01 181"/>
    <polygon class="st0" points="144.84 183.71 115.06 277.84 147.38 277.84 177.15 183.71 144.84 183.71"/>
    <polygon class="st0" points="116.16 185.92 99.54 238.45 111.98 276.95 128.6 224.42 116.16 185.92"/>
    <path class="st0" d="M113.35,184.16h-32.31l-37.78,119.43h32.31l20.86-65.94-.09-.29c.09-.06.17-.13.25-.2l16.76-52.99h0Z"/>
    <polygon class="st0" points="144.56 85.52 112.24 85.52 81.9 181.45 114.21 181.45 144.56 85.52"/>
  </g>
  <path class="st0" d="M365.28,161.23c-12.91-.34-25.82-.68-38.73-1.01.47.75,1.2,2.11,1.47,3.97.3,2.13-.15,3.84-.45,4.7,12.57-2.55,25.14-5.11,37.71-7.66h0Z"/>
</svg>