<?xml version="1.0" encoding="UTF-8"?>
<svg id="Capa_1" data-name="Capa 1" xmlns="http://www.w3.org/2000/svg" viewBox="0 0 201.18 193.76">
  <path d="M100.59,14.18c-42.92,0-77.78,34.86-77.78,77.78s34.86,77.78,77.78,77.78,77.78-34.86,77.78-77.78S143.51,14.18,100.59,14.18ZM100.59,20.94c39.26,0,71.02,31.76,71.02,71.02s-31.76,71.02-71.02,71.02S29.57,131.22,29.57,91.96,61.33,20.94,100.59,20.94ZM100.54,31.04c-1.87.03-3.35,1.56-3.33,3.43v47.93c-4.05,1.43-6.76,5.26-6.76,9.56,0,1.51.34,3,1,4.37l-20.3,20.3c-1.35,1.29-1.39,3.43-.1,4.78,1.29,1.35,3.43,1.39,4.78.1.03-.03.07-.06.1-.1l20.3-20.3c1.36.65,2.85.99,4.37,1,5.6,0,10.15-4.54,10.15-10.15,0-4.29-2.72-8.12-6.76-9.55v-47.94c.03-1.87-1.47-3.4-3.34-3.43-.03,0-.07,0-.1,0Z"/>
</svg>