<?xml version="1.0" encoding="UTF-8"?>
<svg id="Capa_1" data-name="Capa 1" xmlns="http://www.w3.org/2000/svg" viewBox="0 0 201.18 193.76">
  <path d="M162.38,30.56h-3.16l.52-13.25c.17-4.48-1.73-8.67-5.22-11.48-3.49-2.81-7.98-3.79-12.32-2.67L33.77,31.08h0c-11.1,2.33-19.47,12.19-19.47,23.97v94.27c0,13.51,10.99,24.49,24.49,24.49h123.58c13.51,0,24.49-10.99,24.49-24.49V55.05c0-13.51-10.99-24.49-24.49-24.49ZM181.46,132.58h-18.48c-14.7.98-28.22-9.39-30.14-23.05-1-7.13,1.3-14.63,6.31-20.59,5.36-6.38,13.22-10.19,21.47-10.45h20.84v54.1ZM143.55,8.4c2.67-.69,5.43-.09,7.58,1.64,2.15,1.73,3.31,4.31,3.21,7.06l-.53,13.46H57.5l86.04-22.16ZM162.38,168.41H38.8c-10.52,0-19.08-8.56-19.08-19.08V55.05c0-10.52,8.56-19.08,19.08-19.08h123.58c10.52,0,19.08,8.56,19.08,19.08v18.02h-20.93c-9.87.32-19.17,4.83-25.52,12.38-6,7.13-8.74,16.18-7.53,24.83,2.21,15.71,17.06,27.78,33.51,27.78.72,0,1.44-.02,2.17-.07h18.3v11.33c0,10.52-8.56,19.08-19.08,19.08Z"/>
  <path d="M155.97,119.38c-6.39,0-11.59-5.2-11.59-11.59s5.2-11.59,11.59-11.59,11.59,5.2,11.59,11.59-5.2,11.59-11.59,11.59ZM155.97,101.61c-3.41,0-6.18,2.77-6.18,6.18s2.77,6.18,6.18,6.18,6.18-2.77,6.18-6.18-2.77-6.18-6.18-6.18Z"/>
  <rect x="25.81" y="50.11" width="16.92" height="9.03"/>
  <rect x="48.09" y="50.11" width="16.92" height="9.03"/>
  <rect x="70.37" y="50.11" width="16.92" height="9.03"/>
  <rect x="92.65" y="50.11" width="16.92" height="9.03"/>
  <rect x="114.93" y="50.11" width="16.92" height="9.03"/>
  <rect x="137.21" y="50.11" width="16.92" height="9.03"/>
  <rect x="159.49" y="50.11" width="16.92" height="9.03"/>
  <rect x="25.81" y="145.16" width="16.92" height="9.03"/>
  <rect x="48.09" y="145.16" width="16.92" height="9.03"/>
  <rect x="70.37" y="145.16" width="16.92" height="9.03"/>
  <rect x="92.65" y="145.16" width="16.92" height="9.03"/>
  <rect x="114.93" y="145.16" width="16.92" height="9.03"/>
  <rect x="137.21" y="145.16" width="16.92" height="9.03"/>
  <rect x="159.49" y="145.16" width="16.92" height="9.03"/>
</svg>