<?xml version="1.0" encoding="UTF-8"?>
<svg id="Capa_1" data-name="Capa 1" xmlns="http://www.w3.org/2000/svg" viewBox="0 0 201.18 193.76">
  <rect x="94.04" y="83.75" width="33.87" height="8.21"/>
  <rect x="94.04" y="102.99" width="62.72" height="8.21"/>
  <rect x="94.04" y="122.24" width="62.72" height="8.21"/>
  <path d="M189.56,40.76v-17.08c.16-3.23-.38-6.29-1.6-9.1-3.85-8.86-13.01-12.52-19.68-12.97-9.78-.64-19.27,4.71-23.13,13.05-1.46,3.17-2.09,6.65-1.87,10.35v15.74h-10.05v51.2h64.99v-51.2h-8.66ZM152.31,17.98c2.47-5.35,8.98-8.9,15.44-8.49,4.82.32,10.7,3,12.97,8.24.74,1.71,1.06,3.61.95,5.64v17.39h-30.5v-16.13c-.17-2.42.22-4.65,1.14-6.65ZM190.33,84.07h-49.21v-35.42h49.21v35.42Z"/>
  <path d="M66.39,135.9v-7.06c7.95-1.38,12.31-6.64,12.31-12.8s-3.32-10.03-11.55-12.93c-5.88-2.21-8.3-3.67-8.3-5.95,0-1.94,1.45-3.87,5.95-3.87,4.98,0,8.16,1.59,9.96,2.35l2-7.82c-2.28-1.11-5.4-2.08-10.03-2.28v-6.09h-6.78v6.57c-7.4,1.45-11.69,6.22-11.69,12.31,0,6.71,5.05,10.17,12.45,12.66,5.12,1.73,7.33,3.39,7.33,6.02,0,2.77-2.7,4.29-6.64,4.29-4.5,0-8.58-1.45-11.48-3.04l-2.08,8.09c2.63,1.52,7.12,2.77,11.76,2.97v6.57h6.78Z"/>
  <path d="M182.82,99.79h-7.89v54.27H27V51.61h98.4v-7.89H19.11v110.34H4.22v37.46h193.99v-37.46h-15.4v-54.27ZM190.33,161.95v21.68H12.11v-21.68h6.99v.32h53.76v2.44c0,1.11.9,2.01,2.01,2.01h52.17c1.11,0,2.01-.9,2.01-2.01v-2.44h53.76v-.32h7.51Z"/>
</svg>