<?xml version="1.0" encoding="UTF-8"?>
<svg id="Capa_1" data-name="Capa 1" xmlns="http://www.w3.org/2000/svg" xmlns:xlink="http://www.w3.org/1999/xlink" viewBox="0 0 387.45 382.65">
  <defs>
    <style>
      .cls-1 {
        fill: #fff;
      }

      .cls-2 {
        fill: none;
      }

      .cls-3 {
        clip-path: url(#clippath);
      }
    </style>
    <clipPath id="clippath">
      <path class="cls-2" d="M-15.48,75.3C11.06,36.21,72.25-20.01,140.52-4.47c40.72,9.27,65.74,39.92,75.77,53.96-11.55,7.43-23.11,14.86-34.66,22.29-.44,83.53-.88,167.05-1.31,250.58-40.68,47.83-93.13,70.24-133.72,56.1-33.56-11.69-48.53-44.71-62.07-74.6-11.66-25.73-62.12-137.09,0-228.57Z"/>
    </clipPath>
  </defs>
  <g>
    <path class="cls-1" d="M181.63,70.97c40.19-23.18,80.39-46.36,120.58-69.53V0c-40.52,23.34-81.04,46.68-121.56,70.02l-.33.19v260.04h1.36c-.02-.44-.03-.89-.05-1.33V70.97Z"/>
    <g>
      <path class="cls-1" d="M257.4,154.88l-66.74-38.91v-26.14l66.74,38.87v26.18ZM191.97,115.22l64.11,37.38v-23.14l-64.11-37.34v23.1Z"/>
      <path class="cls-1" d="M253.76,148.55l-59.47-34.67v-17.72l59.47,34.63v17.76ZM195.61,113.13l56.84,33.14v-14.72l-56.84-33.1v14.68Z"/>
      <g>
        <path class="cls-1" d="M228.22,131.18l-31.78-18.53v-12.76l31.78,18.5v12.78ZM197.1,112.27l30.46,17.76v-11.26l-30.46-17.74v11.24Z"/>
        <path class="cls-1" d="M251.62,144.82l-20.87-12.17v-12.78l20.87,12.15v12.79ZM231.4,132.27l19.56,11.4v-11.27l-19.56-11.39v11.26Z"/>
      </g>
      <polygon class="cls-1" points="236.9 125.58 233 123.31 233 127.15 236.9 129.42 236.9 125.58"/>
      <polygon class="cls-1" points="249.08 132.53 245.19 130.26 245.19 134.1 249.08 136.37 249.08 132.53"/>
      <polygon class="cls-1" points="243.02 129.08 239.12 126.81 239.12 130.65 243.02 132.92 243.02 129.08"/>
      <polygon class="cls-1" points="236.9 130.88 233 128.62 233 132.45 236.9 134.72 236.9 130.88"/>
      <polygon class="cls-1" points="249.08 137.84 245.19 135.57 245.19 139.41 249.08 141.68 249.08 137.84"/>
      <polygon class="cls-1" points="243.02 134.39 239.12 132.12 239.12 135.96 243.02 138.23 243.02 134.39"/>
      <g>
        <path class="cls-1" d="M203.39,110.03c0,1.04-.73,1.46-1.64.93-.91-.52-1.64-1.79-1.64-2.83s.73-1.46,1.64-.94c.91.52,1.64,1.79,1.64,2.83Z"/>
        <path class="cls-1" d="M208.17,112.75c0,1.04-.73,1.46-1.64.93-.91-.52-1.64-1.79-1.64-2.83s.73-1.46,1.64-.94c.91.52,1.64,1.79,1.64,2.83Z"/>
        <path class="cls-1" d="M213.17,115.78c0,1.04-.73,1.46-1.64.94-.91-.52-1.64-1.79-1.64-2.83s.73-1.46,1.64-.94c.91.52,1.64,1.79,1.64,2.83Z"/>
      </g>
    </g>
    <g>
      <path class="cls-1" d="M257.4,196.71l-66.74-38.91v-26.14l66.74,38.87v26.18ZM191.97,157.05l64.11,37.38v-23.14l-64.11-37.34v23.1Z"/>
      <path class="cls-1" d="M253.76,190.39l-59.47-34.67v-17.72l59.47,34.63v17.76ZM195.61,154.96l56.84,33.14v-14.72l-56.84-33.1v14.68Z"/>
      <g>
        <path class="cls-1" d="M228.22,173.01l-31.78-18.53v-12.76l31.78,18.5v12.78ZM197.1,154.11l30.46,17.76v-11.26l-30.46-17.74v11.24Z"/>
        <path class="cls-1" d="M251.62,186.65l-20.87-12.17v-12.78l20.87,12.15v12.79ZM231.4,174.11l19.56,11.4v-11.27l-19.56-11.39v11.26Z"/>
      </g>
      <polygon class="cls-1" points="236.9 167.41 233 165.14 233 168.98 236.9 171.25 236.9 167.41"/>
      <polygon class="cls-1" points="249.08 174.37 245.19 172.1 245.19 175.93 249.08 178.21 249.08 174.37"/>
      <polygon class="cls-1" points="243.02 170.92 239.12 168.65 239.12 172.49 243.02 174.76 243.02 170.92"/>
      <polygon class="cls-1" points="236.9 172.72 233 170.45 233 174.29 236.9 176.56 236.9 172.72"/>
      <polygon class="cls-1" points="249.08 179.67 245.19 177.4 245.19 181.24 249.08 183.51 249.08 179.67"/>
      <polygon class="cls-1" points="243.02 176.22 239.12 173.95 239.12 177.79 243.02 180.06 243.02 176.22"/>
      <g>
        <path class="cls-1" d="M203.39,151.86c0,1.04-.73,1.46-1.64.93-.91-.52-1.64-1.79-1.64-2.83s.73-1.46,1.64-.94c.91.52,1.64,1.79,1.64,2.83Z"/>
        <path class="cls-1" d="M208.17,154.59c0,1.04-.73,1.46-1.64.93-.91-.52-1.64-1.79-1.64-2.83s.73-1.46,1.64-.94c.91.52,1.64,1.79,1.64,2.83Z"/>
        <path class="cls-1" d="M213.17,157.62c0,1.04-.73,1.46-1.64.94-.91-.52-1.64-1.79-1.64-2.83s.73-1.46,1.64-.94c.91.52,1.64,1.79,1.64,2.83Z"/>
      </g>
    </g>
    <g>
      <path class="cls-1" d="M257.4,236.75l-66.74-38.91v-26.14l66.74,38.87v26.18ZM191.97,197.09l64.11,37.38v-23.14l-64.11-37.34v23.1Z"/>
      <path class="cls-1" d="M253.76,230.42l-59.47-34.67v-17.72l59.47,34.63v17.76ZM195.61,195l56.84,33.14v-14.72l-56.84-33.1v14.68Z"/>
      <g>
        <path class="cls-1" d="M228.22,213.04l-31.78-18.53v-12.76l31.78,18.5v12.78ZM197.1,194.14l30.46,17.76v-11.26l-30.46-17.74v11.24Z"/>
        <path class="cls-1" d="M251.62,226.69l-20.87-12.17v-12.78l20.87,12.15v12.79ZM231.4,214.14l19.56,11.4v-11.27l-19.56-11.39v11.26Z"/>
      </g>
      <polygon class="cls-1" points="236.9 207.44 233 205.18 233 209.01 236.9 211.28 236.9 207.44"/>
      <polygon class="cls-1" points="249.08 214.4 245.19 212.13 245.19 215.97 249.08 218.24 249.08 214.4"/>
      <polygon class="cls-1" points="243.02 210.95 239.12 208.68 239.12 212.52 243.02 214.79 243.02 210.95"/>
      <polygon class="cls-1" points="236.9 212.75 233 210.48 233 214.32 236.9 216.59 236.9 212.75"/>
      <polygon class="cls-1" points="249.08 219.71 245.19 217.44 245.19 221.27 249.08 223.55 249.08 219.71"/>
      <polygon class="cls-1" points="243.02 216.26 239.12 213.99 239.12 217.83 243.02 220.1 243.02 216.26"/>
      <g>
        <path class="cls-1" d="M203.39,191.89c0,1.04-.73,1.46-1.64.93-.91-.52-1.64-1.79-1.64-2.83s.73-1.46,1.64-.94c.91.52,1.64,1.79,1.64,2.83Z"/>
        <path class="cls-1" d="M208.17,194.62c0,1.04-.73,1.46-1.64.93-.91-.52-1.64-1.79-1.64-2.83s.73-1.46,1.64-.94c.91.52,1.64,1.79,1.64,2.83Z"/>
        <path class="cls-1" d="M213.17,197.65c0,1.04-.73,1.46-1.64.94-.91-.52-1.64-1.79-1.64-2.83s.73-1.46,1.64-.94c.91.52,1.64,1.79,1.64,2.83Z"/>
      </g>
    </g>
    <g>
      <path class="cls-1" d="M257.4,278.58l-66.74-38.91v-26.14l66.74,38.87v26.18ZM191.97,238.92l64.11,37.38v-23.14l-64.11-37.34v23.1Z"/>
      <path class="cls-1" d="M253.76,272.25l-59.47-34.67v-17.72l59.47,34.63v17.76ZM195.61,236.83l56.84,33.14v-14.72l-56.84-33.1v14.68Z"/>
      <g>
        <path class="cls-1" d="M228.22,254.88l-31.78-18.53v-12.76l31.78,18.5v12.78ZM197.1,235.98l30.46,17.76v-11.26l-30.46-17.74v11.24Z"/>
        <path class="cls-1" d="M251.62,268.52l-20.87-12.17v-12.78l20.87,12.15v12.79ZM231.4,255.97l19.56,11.4v-11.27l-19.56-11.39v11.26Z"/>
      </g>
      <polygon class="cls-1" points="236.9 249.28 233 247.01 233 250.85 236.9 253.12 236.9 249.28"/>
      <polygon class="cls-1" points="249.08 256.23 245.19 253.97 245.19 257.8 249.08 260.07 249.08 256.23"/>
      <polygon class="cls-1" points="243.02 252.78 239.12 250.52 239.12 254.35 243.02 256.62 243.02 252.78"/>
      <polygon class="cls-1" points="236.9 254.59 233 252.32 233 256.15 236.9 258.43 236.9 254.59"/>
      <polygon class="cls-1" points="249.08 261.54 245.19 259.27 245.19 263.11 249.08 265.38 249.08 261.54"/>
      <polygon class="cls-1" points="243.02 258.09 239.12 255.82 239.12 259.66 243.02 261.93 243.02 258.09"/>
      <g>
        <path class="cls-1" d="M203.39,233.73c0,1.04-.73,1.46-1.64.93-.91-.52-1.64-1.79-1.64-2.83s.73-1.46,1.64-.94c.91.52,1.64,1.79,1.64,2.83Z"/>
        <path class="cls-1" d="M208.17,236.46c0,1.04-.73,1.46-1.64.93-.91-.52-1.64-1.79-1.64-2.83s.73-1.46,1.64-.94c.91.52,1.64,1.79,1.64,2.83Z"/>
        <path class="cls-1" d="M213.17,239.48c0,1.04-.73,1.46-1.64.94-.91-.52-1.64-1.79-1.64-2.83s.73-1.46,1.64-.94c.91.52,1.64,1.79,1.64,2.83Z"/>
      </g>
    </g>
    <g>
      <path class="cls-1" d="M257.4,318.47l-66.74-38.91v-26.14l66.74,38.87v26.18ZM191.97,278.81l64.11,37.38v-23.14l-64.11-37.34v23.1Z"/>
      <path class="cls-1" d="M253.76,312.14l-59.47-34.67v-17.72l59.47,34.63v17.76ZM195.61,276.72l56.84,33.14v-14.72l-56.84-33.1v14.68Z"/>
      <g>
        <path class="cls-1" d="M228.22,294.76l-31.78-18.53v-12.76l31.78,18.5v12.78ZM197.1,275.86l30.46,17.76v-11.26l-30.46-17.74v11.24Z"/>
        <path class="cls-1" d="M251.62,308.4l-20.87-12.17v-12.78l20.87,12.15v12.79ZM231.4,295.86l19.56,11.4v-11.27l-19.56-11.39v11.26Z"/>
      </g>
      <polygon class="cls-1" points="236.9 289.16 233 286.9 233 290.73 236.9 293 236.9 289.16"/>
      <polygon class="cls-1" points="249.08 296.12 245.19 293.85 245.19 297.69 249.08 299.96 249.08 296.12"/>
      <polygon class="cls-1" points="243.02 292.67 239.12 290.4 239.12 294.24 243.02 296.51 243.02 292.67"/>
      <polygon class="cls-1" points="236.9 294.47 233 292.2 233 296.04 236.9 298.31 236.9 294.47"/>
      <polygon class="cls-1" points="249.08 301.42 245.19 299.16 245.19 302.99 249.08 305.26 249.08 301.42"/>
      <polygon class="cls-1" points="243.02 297.98 239.12 295.71 239.12 299.54 243.02 301.81 243.02 297.98"/>
      <g>
        <path class="cls-1" d="M203.39,273.61c0,1.04-.73,1.46-1.64.93-.91-.52-1.64-1.79-1.64-2.83s.73-1.46,1.64-.94c.91.52,1.64,1.79,1.64,2.83Z"/>
        <path class="cls-1" d="M208.17,276.34c0,1.04-.73,1.46-1.64.93-.91-.52-1.64-1.79-1.64-2.83s.73-1.46,1.64-.94c.91.52,1.64,1.79,1.64,2.83Z"/>
        <path class="cls-1" d="M213.17,279.37c0,1.04-.73,1.46-1.64.94-.91-.52-1.64-1.79-1.64-2.83s.73-1.46,1.64-.94c.91.52,1.64,1.79,1.64,2.83Z"/>
      </g>
    </g>
    <g>
      <path class="cls-1" d="M257.4,360.3l-66.74-38.91v-26.14l66.74,38.87v26.18ZM191.97,320.64l64.11,37.38v-23.14l-64.11-37.34v23.1Z"/>
      <path class="cls-1" d="M253.76,353.97l-59.47-34.67v-17.72l59.47,34.63v17.76ZM195.61,318.55l56.84,33.14v-14.72l-56.84-33.1v14.68Z"/>
      <g>
        <path class="cls-1" d="M228.22,336.6l-31.78-18.53v-12.76l31.78,18.5v12.78ZM197.1,317.7l30.46,17.76v-11.26l-30.46-17.74v11.24Z"/>
        <path class="cls-1" d="M251.62,350.24l-20.87-12.17v-12.78l20.87,12.15v12.79ZM231.4,337.69l19.56,11.4v-11.27l-19.56-11.39v11.26Z"/>
      </g>
      <polygon class="cls-1" points="236.9 331 233 328.73 233 332.57 236.9 334.84 236.9 331"/>
      <polygon class="cls-1" points="249.08 337.95 245.19 335.68 245.19 339.52 249.08 341.79 249.08 337.95"/>
      <polygon class="cls-1" points="243.02 334.5 239.12 332.24 239.12 336.07 243.02 338.34 243.02 334.5"/>
      <polygon class="cls-1" points="236.9 336.3 233 334.04 233 337.87 236.9 340.14 236.9 336.3"/>
      <polygon class="cls-1" points="249.08 343.26 245.19 340.99 245.19 344.83 249.08 347.1 249.08 343.26"/>
      <polygon class="cls-1" points="243.02 339.81 239.12 337.54 239.12 341.38 243.02 343.65 243.02 339.81"/>
      <g>
        <path class="cls-1" d="M203.39,315.45c0,1.04-.73,1.46-1.64.93-.91-.52-1.64-1.79-1.64-2.83s.73-1.46,1.64-.94c.91.52,1.64,1.79,1.64,2.83Z"/>
        <path class="cls-1" d="M208.17,318.17c0,1.04-.73,1.46-1.64.93-.91-.52-1.64-1.79-1.64-2.83s.73-1.46,1.64-.94c.91.52,1.64,1.79,1.64,2.83Z"/>
        <path class="cls-1" d="M213.17,321.2c0,1.04-.73,1.46-1.64.94-.91-.52-1.64-1.79-1.64-2.83s.73-1.46,1.64-.94c.91.52,1.64,1.79,1.64,2.83Z"/>
      </g>
    </g>
    <path class="cls-1" d="M262.7,378.46c-.26-86.89-.53-173.77-.79-260.66l.33-.19,122.21-70.4v260.98l-.33.19c-40.47,23.36-80.95,46.72-121.42,70.07ZM263.22,118.57v257.95l119.91-69.07V49.49l-119.91,69.07Z"/>
    <path class="cls-1" d="M279.48,284.95c-1.81,0-3.28-1.47-3.28-3.28v-141.62c0-3.02,1.62-5.83,4.24-7.34l84.8-48.85c.5-.29,1.07-.44,1.63-.44,1.81,0,3.28,1.47,3.28,3.28v141.62c0,3.02-1.62,5.83-4.24,7.34l-84.8,48.85c-.5.29-1.07.44-1.63.44ZM366.88,85.24c-.25,0-.5.07-.72.2l-84.8,48.85c-2.05,1.18-3.33,3.39-3.33,5.76v141.62c0,1.23,1.33,1.76,2.18,1.26l84.8-48.85c2.05-1.18,3.33-3.39,3.33-5.76V86.7c0-.9-.76-1.46-1.46-1.46Z"/>
    <path class="cls-1" d="M279.48,284.95c-.56,0-1.13-.15-1.64-.44l.91-1.57c.45.26,1,.26,1.45,0l84.8-48.85c2.05-1.18,3.33-3.39,3.33-5.76V86.7c0-.73-.48-1.18-.92-1.36l.67-1.69c1.25.5,2.06,1.7,2.06,3.04v141.62c0,3.02-1.62,5.83-4.24,7.34l-84.8,48.85c-.51.29-1.07.44-1.63.44Z"/>
    <path class="cls-1" d="M262.61,118.83l-.28-.16c-27.34-16.39-54.68-32.78-82.02-49.16C220.9,46.37,261.48,23.25,302.07.12c27.46,15.7,54.92,31.4,82.38,47.1-40.61,23.87-81.23,47.74-121.84,71.61ZM182.08,70.65l80.53,46.9,120.07-69.19L302.06,1.4l-119.99,69.24Z"/>
    <path class="cls-1" d="M262.7,378.46c.18-.25.36-.48.56-.71V117.81l-82.95-48.31v260.94l81.96,47.78.42.25ZM261.95,376.51l-80.33-46.82V71.78l80.33,46.78v257.95Z"/>
    <g>
      <g>
        <g>
          <path class="cls-1" d="M278.65,305.42c-.32,0-.64-.08-.93-.25-.58-.34-.93-.94-.93-1.62v-.85c0-1.46.79-2.82,2.05-3.56l37.33-21.5c.58-.34,1.28-.34,1.87,0,.58.34.93.94.93,1.62v.85c0,1.46-.79,2.82-2.06,3.56l-37.33,21.5c-.29.17-.61.25-.93.25ZM317.1,278.05c-.21,0-.42.05-.6.16l-37.33,21.5c-1.07.61-1.73,1.76-1.73,2.99v.85c0,.44.23.83.6,1.05.38.22.83.22,1.21,0l37.33-21.5c1.07-.61,1.73-1.76,1.73-2.99v-.85c0-.44-.23-.83-.6-1.05-.19-.11-.4-.16-.61-.16Z"/>
          <path class="cls-1" d="M329.43,276.18c-.32,0-.64-.08-.94-.25-.58-.34-.93-.94-.93-1.62v-.85c0-1.46.79-2.82,2.05-3.56l37.17-21.41c.58-.34,1.28-.34,1.86,0,.59.34.94.94.94,1.62v.85c0,1.46-.79,2.82-2.05,3.56l-37.16,21.41c-.29.17-.61.25-.93.25ZM367.71,248.9c-.21,0-.42.05-.6.16l-37.17,21.41c-1.06.61-1.73,1.76-1.73,2.99v.85c0,.44.23.83.6,1.05.38.22.83.22,1.21,0l37.16-21.41c1.06-.61,1.73-1.76,1.73-2.99v-.85c0-.44-.23-.83-.61-1.05-.19-.11-.39-.16-.6-.16Z"/>
        </g>
        <g>
          <path class="cls-1" d="M278.66,305.42c-.61,0-1.2-.3-1.56-.84l-.32-.48.57-.03c.21-.01.38-.06.54-.15l37.33-21.51c1.07-.61,1.73-1.76,1.73-2.98v-.85c0-.24-.07-.46-.21-.67l-.32-.48.57-.03c.52,0,1.02.16,1.4.52.37.35.57.83.57,1.34v.85c0,1.46-.79,2.82-2.06,3.56l-37.33,21.5c-.29.17-.61.25-.92.25ZM278.03,304.58c.34.21.79.27,1.23.02l37.33-21.5c1.07-.62,1.73-1.76,1.73-2.99v-.85c0-.33-.13-.64-.37-.86-.12-.11-.25-.19-.39-.25.03.14.05.28.05.43v.85c0,1.46-.79,2.82-2.06,3.55l-37.33,21.51c-.06.04-.13.07-.19.09Z"/>
          <path class="cls-1" d="M329.42,276.18c-.6,0-1.19-.3-1.55-.84l-.32-.48.57-.03c.21-.01.38-.06.54-.15l37.16-21.41c1.06-.61,1.73-1.76,1.73-2.99v-.85c0-.24-.07-.46-.21-.67l-.32-.48.57-.03c.48-.04,1.02.16,1.39.51.37.35.57.83.57,1.35v.85c0,1.46-.79,2.82-2.05,3.56l-37.16,21.41c-.3.17-.62.25-.94.25ZM328.8,275.34c.34.21.79.27,1.23.02l37.16-21.41c1.06-.61,1.73-1.76,1.73-2.99v-.85c0-.33-.13-.64-.37-.87-.12-.11-.25-.19-.39-.25.03.14.05.29.05.44v.85c0,1.46-.79,2.82-2.05,3.56l-37.16,21.41c-.06.04-.13.07-.19.09Z"/>
        </g>
      </g>
      <g>
        <g>
          <path class="cls-1" d="M278.65,315.2c-.32,0-.64-.08-.94-.25-.58-.34-.93-.94-.93-1.62v-.85c0-1.46.79-2.82,2.05-3.55l37.33-21.51c.58-.34,1.28-.34,1.87,0,.58.34.93.94.93,1.62v.85c0,1.46-.79,2.82-2.06,3.56l-37.33,21.51c-.29.17-.61.25-.93.25ZM317.1,287.82c-.21,0-.42.05-.6.16l-37.33,21.51c-1.07.61-1.73,1.76-1.73,2.98v.85c0,.44.23.83.6,1.05.38.22.83.22,1.21,0l37.33-21.51c1.07-.61,1.73-1.76,1.73-2.99v-.85c0-.44-.23-.83-.6-1.05-.19-.11-.4-.16-.61-.16Z"/>
          <path class="cls-1" d="M329.43,285.95c-.32,0-.64-.08-.94-.25-.58-.34-.93-.94-.93-1.62v-.85c0-1.46.79-2.82,2.05-3.55l37.17-21.41c.58-.33,1.28-.34,1.87,0s.93.94.93,1.62v.85c0,1.46-.79,2.82-2.05,3.55l-37.16,21.41c-.29.17-.61.25-.93.25ZM367.71,258.67c-.21,0-.42.06-.6.16l-37.17,21.41c-1.06.61-1.73,1.75-1.73,2.98v.85c0,.44.23.83.6,1.05s.83.22,1.21,0l37.16-21.41c1.06-.61,1.73-1.75,1.73-2.98v-.85c0-.44-.23-.83-.6-1.05-.19-.11-.4-.17-.61-.17Z"/>
        </g>
        <g>
          <path class="cls-1" d="M278.66,315.19c-.61,0-1.2-.29-1.56-.83l-.32-.48.57-.03c.21-.01.38-.06.54-.15l37.33-21.51c1.07-.62,1.73-1.76,1.73-2.99v-.85c0-.24-.07-.46-.21-.66l-.32-.48.57-.03c.48-.04,1.02.16,1.4.52.37.35.57.83.57,1.34v.85c0,1.46-.79,2.82-2.06,3.56l-37.33,21.51c-.29.16-.61.24-.92.24ZM278.03,314.36c.34.21.79.27,1.23.02l37.33-21.51c1.07-.62,1.73-1.76,1.73-2.99v-.85c0-.33-.13-.64-.37-.86-.11-.11-.25-.19-.39-.25.03.14.05.28.05.43v.85c0,1.46-.79,2.82-2.06,3.56l-37.33,21.51c-.06.04-.13.07-.19.09Z"/>
          <path class="cls-1" d="M329.43,285.95c-.6,0-1.19-.3-1.55-.84l-.32-.48.57-.03c.2-.01.38-.06.54-.15l37.16-21.41c1.06-.61,1.73-1.75,1.73-2.98v-.85c0-.24-.07-.46-.21-.67l-.32-.48.57-.03c.5,0,1.02.16,1.4.52.37.35.57.83.57,1.34v.85c0,1.46-.79,2.82-2.05,3.55l-37.16,21.41c-.3.17-.62.25-.93.25ZM328.8,285.11c.34.21.79.27,1.23.02l37.16-21.41c1.06-.61,1.73-1.76,1.73-2.98v-.85c0-.33-.13-.64-.37-.87-.12-.11-.25-.19-.39-.25.03.14.05.28.05.43v.85c0,1.46-.79,2.82-2.05,3.55l-37.16,21.41c-.06.04-.13.07-.19.09Z"/>
        </g>
      </g>
      <g>
        <g>
          <path class="cls-1" d="M278.65,324.97c-.32,0-.64-.08-.93-.25-.58-.34-.93-.94-.93-1.62v-.85c0-1.46.79-2.82,2.05-3.56l37.33-21.51c.59-.34,1.28-.34,1.87,0s.93.94.93,1.62v.85c0,1.46-.79,2.82-2.06,3.55l-37.33,21.51c-.29.17-.61.25-.93.25ZM316.5,297.76l-37.33,21.51c-1.07.61-1.73,1.76-1.73,2.99v.85c0,.44.23.83.6,1.05.38.22.83.22,1.21,0l37.33-21.51c1.07-.61,1.73-1.76,1.73-2.98v-.85c0-.44-.23-.83-.6-1.05-.38-.22-.84-.22-1.21,0h0Z"/>
          <path class="cls-1" d="M329.43,295.72c-.32,0-.64-.08-.94-.25-.58-.34-.93-.94-.93-1.62v-.85c0-1.46.79-2.82,2.05-3.56l37.17-21.41c.58-.34,1.28-.34,1.87,0s.93.94.93,1.62v.85c0,1.46-.79,2.82-2.05,3.56l-37.16,21.41c-.29.17-.61.25-.93.25ZM367.71,268.45c-.21,0-.42.05-.6.16l-37.17,21.41c-1.06.61-1.73,1.76-1.73,2.99v.85c0,.44.23.83.6,1.05.38.22.83.22,1.21,0l37.16-21.41c1.06-.61,1.73-1.76,1.73-2.99v-.85c0-.44-.23-.83-.6-1.05-.19-.11-.4-.16-.6-.16Z"/>
        </g>
        <g>
          <path class="cls-1" d="M278.66,324.96c-.61,0-1.2-.3-1.56-.84l-.32-.48.57-.03c.21-.01.38-.06.54-.15l37.33-21.51c1.07-.62,1.73-1.76,1.73-2.98v-.85c0-.24-.07-.46-.21-.67l-.32-.48.57-.03s.07,0,.1,0c.48,0,.95.19,1.3.52.37.35.57.83.57,1.34v.85c0,1.46-.79,2.82-2.06,3.55l-37.33,21.51c-.29.17-.61.25-.92.25ZM278.03,324.13c.34.22.79.27,1.23.02l37.33-21.51c1.07-.62,1.73-1.76,1.73-2.98v-.85c0-.33-.13-.64-.37-.86-.12-.11-.25-.19-.39-.25.03.14.05.28.05.43v.85c0,1.46-.79,2.82-2.06,3.55l-37.33,21.51c-.06.04-.13.07-.19.09Z"/>
          <path class="cls-1" d="M329.42,295.72c-.6,0-1.19-.3-1.55-.84l-.32-.48.57-.03c.21-.01.38-.06.54-.15l37.16-21.41c1.06-.61,1.73-1.76,1.73-2.99v-.85c0-.24-.07-.46-.21-.66l-.32-.48.57-.03c.48-.03,1.02.16,1.39.51.37.35.57.83.57,1.34v.85c0,1.46-.79,2.82-2.05,3.56l-37.16,21.41c-.3.17-.62.25-.94.25ZM328.8,294.88c.34.21.79.27,1.23.02l37.16-21.41c1.06-.61,1.73-1.76,1.73-2.99v-.85c0-.33-.13-.64-.37-.87-.11-.11-.25-.19-.39-.25.03.14.05.28.05.43v.85c0,1.46-.79,2.82-2.05,3.56l-37.16,21.41c-.06.04-.13.07-.19.09Z"/>
        </g>
      </g>
      <g>
        <g>
          <path class="cls-1" d="M278.65,334.74c-.32,0-.64-.08-.94-.25-.58-.34-.93-.94-.93-1.62v-.85c0-1.46.79-2.82,2.06-3.55l37.33-21.51c.58-.34,1.28-.34,1.87,0,.58.34.93.94.93,1.62v.85c0,1.46-.79,2.82-2.06,3.56l-37.33,21.51c-.29.17-.61.25-.93.25ZM317.1,307.37c-.21,0-.42.05-.6.16l-37.33,21.51c-1.07.61-1.73,1.75-1.73,2.98v.85c0,.44.23.83.6,1.05.38.22.83.22,1.21,0l37.33-21.51c1.07-.61,1.73-1.76,1.73-2.99v-.85c0-.44-.23-.83-.6-1.05-.19-.11-.4-.16-.61-.16Z"/>
          <path class="cls-1" d="M329.43,305.49c-.32,0-.64-.08-.94-.25-.58-.34-.93-.94-.93-1.62v-.85c0-1.46.79-2.82,2.05-3.56l37.17-21.41c.59-.34,1.28-.33,1.86,0,.59.34.94.94.94,1.62v.85c0,1.46-.79,2.82-2.05,3.56l-37.16,21.41c-.29.17-.61.25-.93.25ZM367.71,278.22c-.21,0-.41.05-.6.16l-37.17,21.41c-1.06.61-1.73,1.76-1.73,2.99v.85c0,.44.23.83.6,1.05.38.22.83.22,1.21,0l37.16-21.41c1.06-.61,1.73-1.76,1.73-2.99v-.85c0-.44-.23-.83-.61-1.05-.19-.11-.4-.16-.6-.16Z"/>
        </g>
        <g>
          <path class="cls-1" d="M278.66,334.73c-.61,0-1.2-.3-1.56-.84l-.32-.48.58-.03c.2,0,.37-.06.54-.15l37.33-21.51c1.07-.62,1.73-1.76,1.73-2.99v-.85c0-.24-.07-.46-.21-.66l-.32-.48.57-.03c.48-.04,1.02.16,1.4.52.37.35.57.83.57,1.34v.85c0,1.46-.79,2.82-2.06,3.56l-37.33,21.51c-.29.16-.61.24-.92.24ZM278.03,333.9c.34.21.79.27,1.23.02l37.33-21.51c1.07-.62,1.73-1.76,1.73-2.99v-.85c0-.33-.13-.64-.37-.86-.11-.11-.25-.19-.39-.25.03.14.05.28.05.43v.85c0,1.46-.79,2.82-2.06,3.56l-37.33,21.51c-.06.04-.13.07-.19.09Z"/>
          <path class="cls-1" d="M329.42,305.49c-.6,0-1.19-.3-1.55-.84l-.32-.48.58-.03c.2,0,.38-.06.54-.15l37.16-21.41c1.06-.61,1.73-1.76,1.73-2.99v-.85c0-.24-.07-.46-.21-.67l-.32-.48.57-.03c.48-.04,1.02.16,1.39.51.37.35.57.83.57,1.35v.85c0,1.46-.79,2.82-2.05,3.56l-37.16,21.41c-.3.17-.62.25-.94.25ZM328.8,304.65c.34.21.79.27,1.23.02l37.16-21.41c1.06-.61,1.73-1.76,1.73-2.99v-.85c0-.33-.13-.64-.37-.87-.12-.11-.25-.19-.39-.25.03.14.05.29.05.44v.85c0,1.46-.79,2.82-2.05,3.56l-37.16,21.41c-.06.04-.13.07-.19.09Z"/>
        </g>
      </g>
      <g>
        <g>
          <path class="cls-1" d="M278.65,344.51c-.32,0-.64-.08-.93-.25-.58-.34-.93-.94-.93-1.62v-.85c0-1.46.79-2.82,2.05-3.56l37.33-21.51c.58-.34,1.28-.34,1.87,0,.59.34.94.94.94,1.62v.85c0,1.46-.79,2.82-2.06,3.56l-37.33,21.51c-.29.17-.61.25-.93.25ZM317.1,317.14c-.21,0-.42.05-.6.16l-37.33,21.51c-1.07.61-1.73,1.76-1.73,2.99v.85c0,.44.23.83.61,1.05s.83.22,1.21,0l37.33-21.51c1.07-.61,1.73-1.76,1.73-2.99v-.85c0-.44-.23-.83-.61-1.05-.19-.11-.4-.16-.6-.16Z"/>
          <path class="cls-1" d="M329.43,315.27c-.32,0-.64-.08-.94-.25-.58-.34-.93-.94-.93-1.62v-.85c0-1.46.79-2.82,2.05-3.56l37.17-21.41c.58-.33,1.28-.34,1.87,0s.93.94.93,1.62v.85c0,1.46-.79,2.82-2.05,3.56l-37.16,21.41c-.29.17-.61.25-.93.25ZM367.71,287.99c-.21,0-.42.06-.6.16l-37.17,21.41c-1.06.61-1.73,1.76-1.73,2.99v.85c0,.44.23.83.6,1.05s.83.22,1.21,0l37.16-21.41c1.06-.61,1.73-1.76,1.73-2.99v-.85c0-.44-.23-.83-.6-1.05-.19-.11-.4-.17-.61-.17Z"/>
        </g>
        <g>
          <path class="cls-1" d="M278.66,344.51c-.61,0-1.2-.3-1.56-.84l-.32-.48.57-.03c.21-.01.38-.06.54-.15l37.33-21.51c1.07-.62,1.73-1.76,1.73-2.99v-.85c0-.24-.07-.46-.21-.67l-.32-.48.57-.03c.48-.04,1.02.16,1.4.52.37.35.57.83.57,1.34v.85c0,1.46-.79,2.82-2.06,3.56l-37.33,21.51c-.29.17-.61.25-.92.25ZM278.03,343.67c.34.21.79.27,1.23.02l37.33-21.51c1.07-.62,1.73-1.76,1.73-2.99v-.85c0-.33-.13-.64-.37-.87-.12-.11-.25-.19-.39-.25.04.14.05.29.05.44v.85c0,1.46-.79,2.82-2.06,3.56l-37.33,21.51c-.06.04-.13.07-.19.09Z"/>
          <path class="cls-1" d="M329.43,315.27c-.6,0-1.19-.3-1.55-.84l-.32-.48.57-.03c.2-.01.38-.06.54-.15l37.16-21.41c1.06-.61,1.73-1.75,1.73-2.98v-.85c0-.24-.07-.46-.21-.67l-.32-.48.57-.03c.5,0,1.02.16,1.4.52.37.35.57.83.57,1.34v.85c0,1.46-.79,2.82-2.05,3.56l-37.16,21.41c-.3.17-.62.25-.93.25ZM328.8,314.43c.34.21.79.27,1.23.02l37.16-21.41c1.06-.61,1.73-1.76,1.73-2.99v-.85c0-.33-.13-.64-.37-.86-.11-.11-.25-.19-.39-.25.03.14.05.28.05.43v.85c0,1.46-.79,2.82-2.05,3.55l-37.16,21.41c-.06.04-.13.07-.19.09Z"/>
        </g>
      </g>
      <g>
        <g>
          <path class="cls-1" d="M278.65,354.29c-.32,0-.64-.08-.93-.25-.58-.34-.93-.94-.93-1.62v-.85c0-1.46.79-2.82,2.05-3.56l37.33-21.5c.58-.34,1.28-.34,1.87,0,.58.34.93.94.93,1.62v.85c0,1.46-.79,2.82-2.06,3.55l-37.33,21.51c-.29.17-.61.25-.93.25ZM317.1,326.91c-.21,0-.42.05-.6.16l-37.33,21.5c-1.07.61-1.73,1.76-1.73,2.99v.85c0,.44.23.83.6,1.05.38.22.83.22,1.21,0l37.33-21.51c1.07-.61,1.73-1.75,1.73-2.98v-.85c0-.44-.23-.83-.6-1.05-.19-.11-.4-.16-.61-.16Z"/>
          <path class="cls-1" d="M329.43,325.04c-.32,0-.64-.08-.94-.25-.58-.34-.93-.94-.93-1.62v-.85c0-1.46.79-2.82,2.05-3.56l37.17-21.41c.58-.34,1.28-.34,1.87,0,.58.34.93.94.93,1.62v.85c0,1.46-.79,2.82-2.05,3.56l-37.16,21.41c-.29.17-.61.25-.93.25ZM367.71,297.76c-.21,0-.42.05-.6.16l-37.17,21.41c-1.06.61-1.73,1.76-1.73,2.99v.85c0,.44.23.83.6,1.05.38.22.83.22,1.21,0l37.16-21.41c1.06-.61,1.73-1.76,1.73-2.99v-.85c0-.44-.23-.83-.6-1.05-.19-.11-.4-.16-.6-.16Z"/>
        </g>
        <g>
          <path class="cls-1" d="M278.66,354.28c-.61,0-1.2-.3-1.56-.84l-.32-.48.57-.03c.21-.01.38-.06.54-.15l37.33-21.51c1.07-.62,1.73-1.76,1.73-2.98v-.85c0-.24-.07-.46-.21-.67l-.32-.48.57-.03c.52,0,1.02.16,1.4.52.37.35.57.83.57,1.34v.85c0,1.46-.79,2.82-2.06,3.55l-37.33,21.51c-.29.17-.61.25-.92.25ZM278.03,353.45c.34.22.79.27,1.23.02l37.33-21.51c1.07-.61,1.73-1.76,1.73-2.98v-.85c0-.33-.13-.64-.37-.86-.12-.11-.25-.19-.39-.25.03.14.05.28.05.43v.85c0,1.46-.79,2.82-2.06,3.55l-37.33,21.51c-.06.04-.13.07-.19.09Z"/>
          <path class="cls-1" d="M329.42,325.04c-.6,0-1.19-.3-1.55-.84l-.32-.48.57-.03c.21-.01.38-.06.54-.15l37.16-21.41c1.06-.61,1.73-1.76,1.73-2.99v-.85c0-.24-.07-.46-.21-.66l-.32-.48.57-.03c.48-.03,1.02.16,1.39.51.37.35.57.83.57,1.34v.85c0,1.46-.79,2.82-2.05,3.56l-37.16,21.41c-.3.17-.62.25-.94.25ZM328.8,324.2c.34.22.79.27,1.23.02l37.16-21.41c1.06-.61,1.73-1.76,1.73-2.99v-.85c0-.33-.13-.64-.37-.87-.11-.11-.25-.19-.39-.25.03.14.05.28.05.43v.85c0,1.46-.79,2.82-2.05,3.56l-37.16,21.41c-.06.04-.13.07-.19.09Z"/>
        </g>
      </g>
    </g>
  </g>
  <g class="cls-3">
    <g>
      <path class="cls-1" d="M4.19,70.97C44.38,47.79,84.58,24.62,124.77,1.44V0C84.25,23.34,43.73,46.68,3.2,70.02l-.33.19v260.04h1.36c-.02-.44-.03-.89-.05-1.33V70.97Z"/>
      <g>
        <path class="cls-1" d="M79.96,154.88L13.22,115.97v-26.14l66.74,38.87v26.18ZM14.53,115.22l64.11,37.38v-23.14L14.53,92.12v23.1Z"/>
        <path class="cls-1" d="M76.32,148.55l-59.47-34.67v-17.72l59.47,34.63v17.76ZM18.17,113.13l56.84,33.14v-14.72l-56.84-33.1v14.68Z"/>
        <g>
          <path class="cls-1" d="M50.78,131.18l-31.78-18.53v-12.76l31.78,18.5v12.78ZM19.66,112.27l30.46,17.76v-11.26l-30.46-17.74v11.24Z"/>
          <path class="cls-1" d="M74.18,144.82l-20.87-12.17v-12.78l20.87,12.15v12.79ZM53.96,132.27l19.56,11.4v-11.27l-19.56-11.39v11.26Z"/>
        </g>
        <polygon class="cls-1" points="59.46 125.58 55.57 123.31 55.57 127.15 59.46 129.42 59.46 125.58"/>
        <polygon class="cls-1" points="71.64 132.53 67.75 130.26 67.75 134.1 71.64 136.37 71.64 132.53"/>
        <polygon class="cls-1" points="65.58 129.08 61.69 126.81 61.69 130.65 65.58 132.92 65.58 129.08"/>
        <polygon class="cls-1" points="59.46 130.88 55.57 128.62 55.57 132.45 59.46 134.72 59.46 130.88"/>
        <polygon class="cls-1" points="71.64 137.84 67.75 135.57 67.75 139.41 71.64 141.68 71.64 137.84"/>
        <polygon class="cls-1" points="65.58 134.39 61.69 132.12 61.69 135.96 65.58 138.23 65.58 134.39"/>
        <g>
          <path class="cls-1" d="M25.96,110.03c0,1.04-.73,1.46-1.64.93-.91-.52-1.64-1.79-1.64-2.83s.73-1.46,1.64-.94c.91.52,1.64,1.79,1.64,2.83Z"/>
          <path class="cls-1" d="M30.73,112.75c0,1.04-.73,1.46-1.64.93-.91-.52-1.64-1.79-1.64-2.83s.73-1.46,1.64-.94c.91.52,1.64,1.79,1.64,2.83Z"/>
          <path class="cls-1" d="M35.73,115.78c0,1.04-.73,1.46-1.64.94-.91-.52-1.64-1.79-1.64-2.83s.73-1.46,1.64-.94c.91.52,1.64,1.79,1.64,2.83Z"/>
        </g>
      </g>
      <g>
        <path class="cls-1" d="M79.96,196.71L13.22,157.81v-26.14l66.74,38.87v26.18ZM14.53,157.05l64.11,37.38v-23.14L14.53,133.95v23.1Z"/>
        <path class="cls-1" d="M76.32,190.39l-59.47-34.67v-17.72l59.47,34.63v17.76ZM18.17,154.96l56.84,33.14v-14.72l-56.84-33.1v14.68Z"/>
        <g>
          <path class="cls-1" d="M50.78,173.01l-31.78-18.53v-12.76l31.78,18.5v12.78ZM19.66,154.11l30.46,17.76v-11.26l-30.46-17.74v11.24Z"/>
          <path class="cls-1" d="M74.18,186.65l-20.87-12.17v-12.78l20.87,12.15v12.79ZM53.96,174.11l19.56,11.4v-11.27l-19.56-11.39v11.26Z"/>
        </g>
        <polygon class="cls-1" points="59.46 167.41 55.57 165.14 55.57 168.98 59.46 171.25 59.46 167.41"/>
        <polygon class="cls-1" points="71.64 174.37 67.75 172.1 67.75 175.93 71.64 178.21 71.64 174.37"/>
        <polygon class="cls-1" points="65.58 170.92 61.69 168.65 61.69 172.49 65.58 174.76 65.58 170.92"/>
        <polygon class="cls-1" points="59.46 172.72 55.57 170.45 55.57 174.29 59.46 176.56 59.46 172.72"/>
        <polygon class="cls-1" points="71.64 179.67 67.75 177.4 67.75 181.24 71.64 183.51 71.64 179.67"/>
        <polygon class="cls-1" points="65.58 176.22 61.69 173.95 61.69 177.79 65.58 180.06 65.58 176.22"/>
        <g>
          <path class="cls-1" d="M25.96,151.86c0,1.04-.73,1.46-1.64.93-.91-.52-1.64-1.79-1.64-2.83s.73-1.46,1.64-.94c.91.52,1.64,1.79,1.64,2.83Z"/>
          <path class="cls-1" d="M30.73,154.59c0,1.04-.73,1.46-1.64.93-.91-.52-1.64-1.79-1.64-2.83s.73-1.46,1.64-.94c.91.52,1.64,1.79,1.64,2.83Z"/>
          <path class="cls-1" d="M35.73,157.62c0,1.04-.73,1.46-1.64.94-.91-.52-1.64-1.79-1.64-2.83s.73-1.46,1.64-.94c.91.52,1.64,1.79,1.64,2.83Z"/>
        </g>
      </g>
      <g>
        <path class="cls-1" d="M79.96,236.75L13.22,197.84v-26.14l66.74,38.87v26.18ZM14.53,197.09l64.11,37.38v-23.14L14.53,173.99v23.1Z"/>
        <path class="cls-1" d="M76.32,230.42l-59.47-34.67v-17.72l59.47,34.63v17.76ZM18.17,195l56.84,33.14v-14.72l-56.84-33.1v14.68Z"/>
        <g>
          <path class="cls-1" d="M50.78,213.04l-31.78-18.53v-12.76l31.78,18.5v12.78ZM19.66,194.14l30.46,17.76v-11.26l-30.46-17.74v11.24Z"/>
          <path class="cls-1" d="M74.18,226.69l-20.87-12.17v-12.78l20.87,12.15v12.79ZM53.96,214.14l19.56,11.4v-11.27l-19.56-11.39v11.26Z"/>
        </g>
        <polygon class="cls-1" points="59.46 207.44 55.57 205.18 55.57 209.01 59.46 211.28 59.46 207.44"/>
        <polygon class="cls-1" points="71.64 214.4 67.75 212.13 67.75 215.97 71.64 218.24 71.64 214.4"/>
        <polygon class="cls-1" points="65.58 210.95 61.69 208.68 61.69 212.52 65.58 214.79 65.58 210.95"/>
        <polygon class="cls-1" points="59.46 212.75 55.57 210.48 55.57 214.32 59.46 216.59 59.46 212.75"/>
        <polygon class="cls-1" points="71.64 219.71 67.75 217.44 67.75 221.27 71.64 223.55 71.64 219.71"/>
        <polygon class="cls-1" points="65.58 216.26 61.69 213.99 61.69 217.83 65.58 220.1 65.58 216.26"/>
        <g>
          <path class="cls-1" d="M25.96,191.89c0,1.04-.73,1.46-1.64.93-.91-.52-1.64-1.79-1.64-2.83s.73-1.46,1.64-.94c.91.52,1.64,1.79,1.64,2.83Z"/>
          <path class="cls-1" d="M30.73,194.62c0,1.04-.73,1.46-1.64.93-.91-.52-1.64-1.79-1.64-2.83s.73-1.46,1.64-.94c.91.52,1.64,1.79,1.64,2.83Z"/>
          <path class="cls-1" d="M35.73,197.65c0,1.04-.73,1.46-1.64.94-.91-.52-1.64-1.79-1.64-2.83s.73-1.46,1.64-.94c.91.52,1.64,1.79,1.64,2.83Z"/>
        </g>
      </g>
      <g>
        <path class="cls-1" d="M79.96,278.58L13.22,239.67v-26.14l66.74,38.87v26.18ZM14.53,238.92l64.11,37.38v-23.14L14.53,215.82v23.1Z"/>
        <path class="cls-1" d="M76.32,272.25l-59.47-34.67v-17.72l59.47,34.63v17.76ZM18.17,236.83l56.84,33.14v-14.72l-56.84-33.1v14.68Z"/>
        <g>
          <path class="cls-1" d="M50.78,254.88l-31.78-18.53v-12.76l31.78,18.5v12.78ZM19.66,235.98l30.46,17.76v-11.26l-30.46-17.74v11.24Z"/>
          <path class="cls-1" d="M74.18,268.52l-20.87-12.17v-12.78l20.87,12.15v12.79ZM53.96,255.97l19.56,11.4v-11.27l-19.56-11.39v11.26Z"/>
        </g>
        <polygon class="cls-1" points="59.46 249.28 55.57 247.01 55.57 250.85 59.46 253.12 59.46 249.28"/>
        <polygon class="cls-1" points="71.64 256.23 67.75 253.97 67.75 257.8 71.64 260.07 71.64 256.23"/>
        <polygon class="cls-1" points="65.58 252.78 61.69 250.52 61.69 254.35 65.58 256.62 65.58 252.78"/>
        <polygon class="cls-1" points="59.46 254.59 55.57 252.32 55.57 256.15 59.46 258.43 59.46 254.59"/>
        <polygon class="cls-1" points="71.64 261.54 67.75 259.27 67.75 263.11 71.64 265.38 71.64 261.54"/>
        <polygon class="cls-1" points="65.58 258.09 61.69 255.82 61.69 259.66 65.58 261.93 65.58 258.09"/>
        <g>
          <path class="cls-1" d="M25.96,233.73c0,1.04-.73,1.46-1.64.93-.91-.52-1.64-1.79-1.64-2.83s.73-1.46,1.64-.94c.91.52,1.64,1.79,1.64,2.83Z"/>
          <path class="cls-1" d="M30.73,236.46c0,1.04-.73,1.46-1.64.93-.91-.52-1.64-1.79-1.64-2.83s.73-1.46,1.64-.94c.91.52,1.64,1.79,1.64,2.83Z"/>
          <path class="cls-1" d="M35.73,239.48c0,1.04-.73,1.46-1.64.94-.91-.52-1.64-1.79-1.64-2.83s.73-1.46,1.64-.94c.91.52,1.64,1.79,1.64,2.83Z"/>
        </g>
      </g>
      <g>
        <path class="cls-1" d="M79.96,318.47l-66.74-38.91v-26.14l66.74,38.87v26.18ZM14.53,278.81l64.11,37.38v-23.14L14.53,255.71v23.1Z"/>
        <path class="cls-1" d="M76.32,312.14l-59.47-34.67v-17.72l59.47,34.63v17.76ZM18.17,276.72l56.84,33.14v-14.72l-56.84-33.1v14.68Z"/>
        <g>
          <path class="cls-1" d="M50.78,294.76l-31.78-18.53v-12.76l31.78,18.5v12.78ZM19.66,275.86l30.46,17.76v-11.26l-30.46-17.74v11.24Z"/>
          <path class="cls-1" d="M74.18,308.4l-20.87-12.17v-12.78l20.87,12.15v12.79ZM53.96,295.86l19.56,11.4v-11.27l-19.56-11.39v11.26Z"/>
        </g>
        <polygon class="cls-1" points="59.46 289.16 55.57 286.9 55.57 290.73 59.46 293 59.46 289.16"/>
        <polygon class="cls-1" points="71.64 296.12 67.75 293.85 67.75 297.69 71.64 299.96 71.64 296.12"/>
        <polygon class="cls-1" points="65.58 292.67 61.69 290.4 61.69 294.24 65.58 296.51 65.58 292.67"/>
        <polygon class="cls-1" points="59.46 294.47 55.57 292.2 55.57 296.04 59.46 298.31 59.46 294.47"/>
        <polygon class="cls-1" points="71.64 301.42 67.75 299.16 67.75 302.99 71.64 305.26 71.64 301.42"/>
        <polygon class="cls-1" points="65.58 297.98 61.69 295.71 61.69 299.54 65.58 301.81 65.58 297.98"/>
        <g>
          <path class="cls-1" d="M25.96,273.61c0,1.04-.73,1.46-1.64.93-.91-.52-1.64-1.79-1.64-2.83s.73-1.46,1.64-.94c.91.52,1.64,1.79,1.64,2.83Z"/>
          <path class="cls-1" d="M30.73,276.34c0,1.04-.73,1.46-1.64.93-.91-.52-1.64-1.79-1.64-2.83s.73-1.46,1.64-.94c.91.52,1.64,1.79,1.64,2.83Z"/>
          <path class="cls-1" d="M35.73,279.37c0,1.04-.73,1.46-1.64.94-.91-.52-1.64-1.79-1.64-2.83s.73-1.46,1.64-.94c.91.52,1.64,1.79,1.64,2.83Z"/>
        </g>
      </g>
      <g>
        <path class="cls-1" d="M79.96,360.3l-66.74-38.91v-26.14l66.74,38.87v26.18ZM14.53,320.64l64.11,37.38v-23.14l-64.11-37.34v23.1Z"/>
        <path class="cls-1" d="M76.32,353.97l-59.47-34.67v-17.72l59.47,34.63v17.76ZM18.17,318.55l56.84,33.14v-14.72l-56.84-33.1v14.68Z"/>
        <g>
          <path class="cls-1" d="M50.78,336.6l-31.78-18.53v-12.76l31.78,18.5v12.78ZM19.66,317.7l30.46,17.76v-11.26l-30.46-17.74v11.24Z"/>
          <path class="cls-1" d="M74.18,350.24l-20.87-12.17v-12.78l20.87,12.15v12.79ZM53.96,337.69l19.56,11.4v-11.27l-19.56-11.39v11.26Z"/>
        </g>
        <polygon class="cls-1" points="59.46 331 55.57 328.73 55.57 332.57 59.46 334.84 59.46 331"/>
        <polygon class="cls-1" points="71.64 337.95 67.75 335.68 67.75 339.52 71.64 341.79 71.64 337.95"/>
        <polygon class="cls-1" points="65.58 334.5 61.69 332.24 61.69 336.07 65.58 338.34 65.58 334.5"/>
        <polygon class="cls-1" points="59.46 336.3 55.57 334.04 55.57 337.87 59.46 340.14 59.46 336.3"/>
        <polygon class="cls-1" points="71.64 343.26 67.75 340.99 67.75 344.83 71.64 347.1 71.64 343.26"/>
        <polygon class="cls-1" points="65.58 339.81 61.69 337.54 61.69 341.38 65.58 343.65 65.58 339.81"/>
        <g>
          <path class="cls-1" d="M25.96,315.45c0,1.04-.73,1.46-1.64.93-.91-.52-1.64-1.79-1.64-2.83s.73-1.46,1.64-.94c.91.52,1.64,1.79,1.64,2.83Z"/>
          <path class="cls-1" d="M30.73,318.17c0,1.04-.73,1.46-1.64.93-.91-.52-1.64-1.79-1.64-2.83s.73-1.46,1.64-.94c.91.52,1.64,1.79,1.64,2.83Z"/>
          <path class="cls-1" d="M35.73,321.2c0,1.04-.73,1.46-1.64.94-.91-.52-1.64-1.79-1.64-2.83s.73-1.46,1.64-.94c.91.52,1.64,1.79,1.64,2.83Z"/>
        </g>
      </g>
      <path class="cls-1" d="M85.26,378.46c-.26-86.89-.53-173.77-.79-260.66l.33-.19,122.21-70.4v260.98l-.33.19c-40.47,23.36-80.95,46.72-121.42,70.07ZM85.78,118.57v257.95l119.91-69.07V49.49l-119.91,69.07Z"/>
      <path class="cls-1" d="M102.04,284.95c-1.81,0-3.28-1.47-3.28-3.28v-141.62c0-3.02,1.62-5.83,4.24-7.34l84.8-48.85c.5-.29,1.07-.44,1.63-.44,1.81,0,3.28,1.47,3.28,3.28v141.62c0,3.02-1.62,5.83-4.24,7.34l-84.8,48.85c-.5.29-1.07.44-1.63.44ZM189.44,85.24c-.25,0-.5.07-.72.2l-84.8,48.85c-2.05,1.18-3.33,3.39-3.33,5.76v141.62c0,1.23,1.33,1.76,2.18,1.26l84.8-48.85c2.05-1.18,3.33-3.39,3.33-5.76V86.7c0-.9-.76-1.46-1.46-1.46Z"/>
      <path class="cls-1" d="M102.04,284.95c-.56,0-1.13-.15-1.64-.44l.91-1.57c.45.26,1,.26,1.45,0l84.8-48.85c2.05-1.18,3.33-3.39,3.33-5.76V86.7c0-.73-.48-1.18-.92-1.36l.67-1.69c1.25.5,2.06,1.7,2.06,3.04v141.62c0,3.02-1.62,5.83-4.24,7.34l-84.8,48.85c-.51.29-1.07.44-1.63.44Z"/>
      <path class="cls-1" d="M85.17,118.83l-.28-.16C57.55,102.28,30.22,85.89,2.88,69.5,43.46,46.37,84.04,23.25,124.63.12c27.46,15.7,54.92,31.4,82.38,47.1-40.61,23.87-81.23,47.74-121.84,71.61ZM4.64,70.65l80.53,46.9,120.07-69.19L124.63,1.4,4.64,70.65Z"/>
      <path class="cls-1" d="M85.26,378.46c.18-.25.36-.48.56-.71V117.81L2.88,69.5v260.94l81.96,47.78.42.25ZM84.52,376.51L4.19,329.68V71.78l80.33,46.78v257.95Z"/>
      <g>
        <g>
          <g>
            <path class="cls-1" d="M101.21,305.42c-.32,0-.64-.08-.93-.25-.58-.34-.93-.94-.93-1.62v-.85c0-1.46.79-2.82,2.05-3.56l37.33-21.5c.58-.34,1.28-.34,1.87,0,.58.34.93.94.93,1.62v.85c0,1.46-.79,2.82-2.06,3.56l-37.33,21.5c-.29.17-.61.25-.93.25ZM139.67,278.05c-.21,0-.42.05-.6.16l-37.33,21.5c-1.07.61-1.73,1.76-1.73,2.99v.85c0,.44.23.83.6,1.05.38.22.83.22,1.21,0l37.33-21.5c1.07-.61,1.73-1.76,1.73-2.99v-.85c0-.44-.23-.83-.6-1.05-.19-.11-.4-.16-.61-.16Z"/>
            <path class="cls-1" d="M151.99,276.18c-.32,0-.64-.08-.94-.25-.58-.34-.93-.94-.93-1.62v-.85c0-1.46.79-2.82,2.05-3.56l37.17-21.41c.58-.34,1.28-.34,1.86,0,.59.34.94.94.94,1.62v.85c0,1.46-.79,2.82-2.05,3.56l-37.16,21.41c-.29.17-.61.25-.93.25ZM190.27,248.9c-.21,0-.42.05-.6.16l-37.17,21.41c-1.06.61-1.73,1.76-1.73,2.99v.85c0,.44.23.83.6,1.05.38.22.83.22,1.21,0l37.16-21.41c1.06-.61,1.73-1.76,1.73-2.99v-.85c0-.44-.23-.83-.61-1.05-.19-.11-.39-.16-.6-.16Z"/>
          </g>
          <g>
            <path class="cls-1" d="M101.22,305.42c-.61,0-1.2-.3-1.56-.84l-.32-.48.57-.03c.21-.01.38-.06.54-.15l37.33-21.51c1.07-.61,1.73-1.76,1.73-2.98v-.85c0-.24-.07-.46-.21-.67l-.32-.48.57-.03c.52,0,1.02.16,1.4.52.37.35.57.83.57,1.34v.85c0,1.46-.79,2.82-2.06,3.56l-37.33,21.5c-.29.17-.61.25-.92.25ZM100.59,304.58c.34.21.79.27,1.23.02l37.33-21.5c1.07-.62,1.73-1.76,1.73-2.99v-.85c0-.33-.13-.64-.37-.86-.12-.11-.25-.19-.39-.25.03.14.05.28.05.43v.85c0,1.46-.79,2.82-2.06,3.55l-37.33,21.51c-.06.04-.13.07-.19.09Z"/>
            <path class="cls-1" d="M151.99,276.18c-.6,0-1.19-.3-1.55-.84l-.32-.48.57-.03c.21-.01.38-.06.54-.15l37.16-21.41c1.06-.61,1.73-1.76,1.73-2.99v-.85c0-.24-.07-.46-.21-.67l-.32-.48.57-.03c.48-.04,1.02.16,1.39.51.37.35.57.83.57,1.35v.85c0,1.46-.79,2.82-2.05,3.56l-37.16,21.41c-.3.17-.62.25-.94.25ZM151.37,275.34c.34.21.79.27,1.23.02l37.16-21.41c1.06-.61,1.73-1.76,1.73-2.99v-.85c0-.33-.13-.64-.37-.87-.12-.11-.25-.19-.39-.25.03.14.05.29.05.44v.85c0,1.46-.79,2.82-2.05,3.56l-37.16,21.41c-.06.04-.13.07-.19.09Z"/>
          </g>
        </g>
        <g>
          <g>
            <path class="cls-1" d="M101.21,315.2c-.32,0-.64-.08-.94-.25-.58-.34-.93-.94-.93-1.62v-.85c0-1.46.79-2.82,2.05-3.55l37.33-21.51c.58-.34,1.28-.34,1.87,0,.58.34.93.94.93,1.62v.85c0,1.46-.79,2.82-2.06,3.56l-37.33,21.51c-.29.17-.61.25-.93.25ZM139.67,287.82c-.21,0-.42.05-.6.16l-37.33,21.51c-1.07.61-1.73,1.76-1.73,2.98v.85c0,.44.23.83.6,1.05.38.22.83.22,1.21,0l37.33-21.51c1.07-.61,1.73-1.76,1.73-2.99v-.85c0-.44-.23-.83-.6-1.05-.19-.11-.4-.16-.61-.16Z"/>
            <path class="cls-1" d="M151.99,285.95c-.32,0-.64-.08-.94-.25-.58-.34-.93-.94-.93-1.62v-.85c0-1.46.79-2.82,2.05-3.55l37.17-21.41c.58-.33,1.28-.34,1.87,0s.93.94.93,1.62v.85c0,1.46-.79,2.82-2.05,3.55l-37.16,21.41c-.29.17-.61.25-.93.25ZM190.27,258.67c-.21,0-.42.06-.6.16l-37.17,21.41c-1.06.61-1.73,1.75-1.73,2.98v.85c0,.44.23.83.6,1.05s.83.22,1.21,0l37.16-21.41c1.06-.61,1.73-1.75,1.73-2.98v-.85c0-.44-.23-.83-.6-1.05-.19-.11-.4-.17-.61-.17Z"/>
          </g>
          <g>
            <path class="cls-1" d="M101.22,315.19c-.61,0-1.2-.29-1.56-.83l-.32-.48.57-.03c.21-.01.38-.06.54-.15l37.33-21.51c1.07-.62,1.73-1.76,1.73-2.99v-.85c0-.24-.07-.46-.21-.66l-.32-.48.57-.03c.48-.04,1.02.16,1.4.52.37.35.57.83.57,1.34v.85c0,1.46-.79,2.82-2.06,3.56l-37.33,21.51c-.29.16-.61.24-.92.24ZM100.59,314.36c.34.21.79.27,1.23.02l37.33-21.51c1.07-.62,1.73-1.76,1.73-2.99v-.85c0-.33-.13-.64-.37-.86-.11-.11-.25-.19-.39-.25.03.14.05.28.05.43v.85c0,1.46-.79,2.82-2.06,3.56l-37.33,21.51c-.06.04-.13.07-.19.09Z"/>
            <path class="cls-1" d="M151.99,285.95c-.6,0-1.19-.3-1.55-.84l-.32-.48.57-.03c.2-.01.38-.06.54-.15l37.16-21.41c1.06-.61,1.73-1.75,1.73-2.98v-.85c0-.24-.07-.46-.21-.67l-.32-.48.57-.03c.5,0,1.02.16,1.4.52.37.35.57.83.57,1.34v.85c0,1.46-.79,2.82-2.05,3.55l-37.16,21.41c-.3.17-.62.25-.93.25ZM151.37,285.11c.34.21.79.27,1.23.02l37.16-21.41c1.06-.61,1.73-1.76,1.73-2.98v-.85c0-.33-.13-.64-.37-.87-.12-.11-.25-.19-.39-.25.03.14.05.28.05.43v.85c0,1.46-.79,2.82-2.05,3.55l-37.16,21.41c-.06.04-.13.07-.19.09Z"/>
          </g>
        </g>
        <g>
          <g>
            <path class="cls-1" d="M101.21,324.97c-.32,0-.64-.08-.93-.25-.58-.34-.93-.94-.93-1.62v-.85c0-1.46.79-2.82,2.05-3.56l37.33-21.51c.59-.34,1.28-.34,1.87,0s.93.94.93,1.62v.85c0,1.46-.79,2.82-2.06,3.55l-37.33,21.51c-.29.17-.61.25-.93.25ZM139.06,297.76l-37.33,21.51c-1.07.61-1.73,1.76-1.73,2.99v.85c0,.44.23.83.6,1.05.38.22.83.22,1.21,0l37.33-21.51c1.07-.61,1.73-1.76,1.73-2.98v-.85c0-.44-.23-.83-.6-1.05-.38-.22-.84-.22-1.21,0h0Z"/>
            <path class="cls-1" d="M151.99,295.72c-.32,0-.64-.08-.94-.25-.58-.34-.93-.94-.93-1.62v-.85c0-1.46.79-2.82,2.05-3.56l37.17-21.41c.58-.34,1.28-.34,1.87,0s.93.94.93,1.62v.85c0,1.46-.79,2.82-2.05,3.56l-37.16,21.41c-.29.17-.61.25-.93.25ZM190.27,268.45c-.21,0-.42.05-.6.16l-37.17,21.41c-1.06.61-1.73,1.76-1.73,2.99v.85c0,.44.23.83.6,1.05.38.22.83.22,1.21,0l37.16-21.41c1.06-.61,1.73-1.76,1.73-2.99v-.85c0-.44-.23-.83-.6-1.05-.19-.11-.4-.16-.6-.16Z"/>
          </g>
          <g>
            <path class="cls-1" d="M101.22,324.96c-.61,0-1.2-.3-1.56-.84l-.32-.48.57-.03c.21-.01.38-.06.54-.15l37.33-21.51c1.07-.62,1.73-1.76,1.73-2.98v-.85c0-.24-.07-.46-.21-.67l-.32-.48.57-.03s.07,0,.1,0c.48,0,.95.19,1.3.52.37.35.57.83.57,1.34v.85c0,1.46-.79,2.82-2.06,3.55l-37.33,21.51c-.29.17-.61.25-.92.25ZM100.59,324.13c.34.22.79.27,1.23.02l37.33-21.51c1.07-.62,1.73-1.76,1.73-2.98v-.85c0-.33-.13-.64-.37-.86-.12-.11-.25-.19-.39-.25.03.14.05.28.05.43v.85c0,1.46-.79,2.82-2.06,3.55l-37.33,21.51c-.06.04-.13.07-.19.09Z"/>
            <path class="cls-1" d="M151.99,295.72c-.6,0-1.19-.3-1.55-.84l-.32-.48.57-.03c.21-.01.38-.06.54-.15l37.16-21.41c1.06-.61,1.73-1.76,1.73-2.99v-.85c0-.24-.07-.46-.21-.66l-.32-.48.57-.03c.48-.03,1.02.16,1.39.51.37.35.57.83.57,1.34v.85c0,1.46-.79,2.82-2.05,3.56l-37.16,21.41c-.3.17-.62.25-.94.25ZM151.37,294.88c.34.21.79.27,1.23.02l37.16-21.41c1.06-.61,1.73-1.76,1.73-2.99v-.85c0-.33-.13-.64-.37-.87-.11-.11-.25-.19-.39-.25.03.14.05.28.05.43v.85c0,1.46-.79,2.82-2.05,3.56l-37.16,21.41c-.06.04-.13.07-.19.09Z"/>
          </g>
        </g>
        <g>
          <g>
            <path class="cls-1" d="M101.21,334.74c-.32,0-.64-.08-.94-.25-.58-.34-.93-.94-.93-1.62v-.85c0-1.46.79-2.82,2.06-3.55l37.33-21.51c.58-.34,1.28-.34,1.87,0,.58.34.93.94.93,1.62v.85c0,1.46-.79,2.82-2.06,3.56l-37.33,21.51c-.29.17-.61.25-.93.25ZM139.67,307.37c-.21,0-.42.05-.6.16l-37.33,21.51c-1.07.61-1.73,1.75-1.73,2.98v.85c0,.44.23.83.6,1.05.38.22.83.22,1.21,0l37.33-21.51c1.07-.61,1.73-1.76,1.73-2.99v-.85c0-.44-.23-.83-.6-1.05-.19-.11-.4-.16-.61-.16Z"/>
            <path class="cls-1" d="M151.99,305.49c-.32,0-.64-.08-.94-.25-.58-.34-.93-.94-.93-1.62v-.85c0-1.46.79-2.82,2.05-3.56l37.17-21.41c.59-.34,1.28-.33,1.86,0,.59.34.94.94.94,1.62v.85c0,1.46-.79,2.82-2.05,3.56l-37.16,21.41c-.29.17-.61.25-.93.25ZM190.27,278.22c-.21,0-.41.05-.6.16l-37.17,21.41c-1.06.61-1.73,1.76-1.73,2.99v.85c0,.44.23.83.6,1.05.38.22.83.22,1.21,0l37.16-21.41c1.06-.61,1.73-1.76,1.73-2.99v-.85c0-.44-.23-.83-.61-1.05-.19-.11-.4-.16-.6-.16Z"/>
          </g>
          <g>
            <path class="cls-1" d="M101.22,334.73c-.61,0-1.2-.3-1.56-.84l-.32-.48.58-.03c.2,0,.37-.06.54-.15l37.33-21.51c1.07-.62,1.73-1.76,1.73-2.99v-.85c0-.24-.07-.46-.21-.66l-.32-.48.57-.03c.48-.04,1.02.16,1.4.52.37.35.57.83.57,1.34v.85c0,1.46-.79,2.82-2.06,3.56l-37.33,21.51c-.29.16-.61.24-.92.24ZM100.59,333.9c.34.21.79.27,1.23.02l37.33-21.51c1.07-.62,1.73-1.76,1.73-2.99v-.85c0-.33-.13-.64-.37-.86-.11-.11-.25-.19-.39-.25.03.14.05.28.05.43v.85c0,1.46-.79,2.82-2.06,3.56l-37.33,21.51c-.06.04-.13.07-.19.09Z"/>
            <path class="cls-1" d="M151.99,305.49c-.6,0-1.19-.3-1.55-.84l-.32-.48.58-.03c.2,0,.38-.06.54-.15l37.16-21.41c1.06-.61,1.73-1.76,1.73-2.99v-.85c0-.24-.07-.46-.21-.67l-.32-.48.57-.03c.48-.04,1.02.16,1.39.51.37.35.57.83.57,1.35v.85c0,1.46-.79,2.82-2.05,3.56l-37.16,21.41c-.3.17-.62.25-.94.25ZM151.37,304.65c.34.21.79.27,1.23.02l37.16-21.41c1.06-.61,1.73-1.76,1.73-2.99v-.85c0-.33-.13-.64-.37-.87-.12-.11-.25-.19-.39-.25.03.14.05.29.05.44v.85c0,1.46-.79,2.82-2.05,3.56l-37.16,21.41c-.06.04-.13.07-.19.09Z"/>
          </g>
        </g>
        <g>
          <g>
            <path class="cls-1" d="M101.21,344.51c-.32,0-.64-.08-.93-.25-.58-.34-.93-.94-.93-1.62v-.85c0-1.46.79-2.82,2.05-3.56l37.33-21.51c.58-.34,1.28-.34,1.87,0,.59.34.94.94.94,1.62v.85c0,1.46-.79,2.82-2.06,3.56l-37.33,21.51c-.29.17-.61.25-.93.25ZM139.67,317.14c-.21,0-.42.05-.6.16l-37.33,21.51c-1.07.61-1.73,1.76-1.73,2.99v.85c0,.44.23.83.61,1.05s.83.22,1.21,0l37.33-21.51c1.07-.61,1.73-1.76,1.73-2.99v-.85c0-.44-.23-.83-.61-1.05-.19-.11-.4-.16-.6-.16Z"/>
            <path class="cls-1" d="M151.99,315.27c-.32,0-.64-.08-.94-.25-.58-.34-.93-.94-.93-1.62v-.85c0-1.46.79-2.82,2.05-3.56l37.17-21.41c.58-.33,1.28-.34,1.87,0s.93.94.93,1.62v.85c0,1.46-.79,2.82-2.05,3.56l-37.16,21.41c-.29.17-.61.25-.93.25ZM190.27,287.99c-.21,0-.42.06-.6.16l-37.17,21.41c-1.06.61-1.73,1.76-1.73,2.99v.85c0,.44.23.83.6,1.05s.83.22,1.21,0l37.16-21.41c1.06-.61,1.73-1.76,1.73-2.99v-.85c0-.44-.23-.83-.6-1.05-.19-.11-.4-.17-.61-.17Z"/>
          </g>
          <g>
            <path class="cls-1" d="M101.22,344.51c-.61,0-1.2-.3-1.56-.84l-.32-.48.57-.03c.21-.01.38-.06.54-.15l37.33-21.51c1.07-.62,1.73-1.76,1.73-2.99v-.85c0-.24-.07-.46-.21-.67l-.32-.48.57-.03c.48-.04,1.02.16,1.4.52.37.35.57.83.57,1.34v.85c0,1.46-.79,2.82-2.06,3.56l-37.33,21.51c-.29.17-.61.25-.92.25ZM100.59,343.67c.34.21.79.27,1.23.02l37.33-21.51c1.07-.62,1.73-1.76,1.73-2.99v-.85c0-.33-.13-.64-.37-.87-.12-.11-.25-.19-.39-.25.04.14.05.29.05.44v.85c0,1.46-.79,2.82-2.06,3.56l-37.33,21.51c-.06.04-.13.07-.19.09Z"/>
            <path class="cls-1" d="M151.99,315.27c-.6,0-1.19-.3-1.55-.84l-.32-.48.57-.03c.2-.01.38-.06.54-.15l37.16-21.41c1.06-.61,1.73-1.75,1.73-2.98v-.85c0-.24-.07-.46-.21-.67l-.32-.48.57-.03c.5,0,1.02.16,1.4.52.37.35.57.83.57,1.34v.85c0,1.46-.79,2.82-2.05,3.56l-37.16,21.41c-.3.17-.62.25-.93.25ZM151.37,314.43c.34.21.79.27,1.23.02l37.16-21.41c1.06-.61,1.73-1.76,1.73-2.99v-.85c0-.33-.13-.64-.37-.86-.11-.11-.25-.19-.39-.25.03.14.05.28.05.43v.85c0,1.46-.79,2.82-2.05,3.55l-37.16,21.41c-.06.04-.13.07-.19.09Z"/>
          </g>
        </g>
        <g>
          <g>
            <path class="cls-1" d="M101.21,354.29c-.32,0-.64-.08-.93-.25-.58-.34-.93-.94-.93-1.62v-.85c0-1.46.79-2.82,2.05-3.56l37.33-21.5c.58-.34,1.28-.34,1.87,0,.58.34.93.94.93,1.62v.85c0,1.46-.79,2.82-2.06,3.55l-37.33,21.51c-.29.17-.61.25-.93.25ZM139.67,326.91c-.21,0-.42.05-.6.16l-37.33,21.5c-1.07.61-1.73,1.76-1.73,2.99v.85c0,.44.23.83.6,1.05.38.22.83.22,1.21,0l37.33-21.51c1.07-.61,1.73-1.75,1.73-2.98v-.85c0-.44-.23-.83-.6-1.05-.19-.11-.4-.16-.61-.16Z"/>
            <path class="cls-1" d="M151.99,325.04c-.32,0-.64-.08-.94-.25-.58-.34-.93-.94-.93-1.62v-.85c0-1.46.79-2.82,2.05-3.56l37.17-21.41c.58-.34,1.28-.34,1.87,0,.58.34.93.94.93,1.62v.85c0,1.46-.79,2.82-2.05,3.56l-37.16,21.41c-.29.17-.61.25-.93.25ZM190.27,297.76c-.21,0-.42.05-.6.16l-37.17,21.41c-1.06.61-1.73,1.76-1.73,2.99v.85c0,.44.23.83.6,1.05.38.22.83.22,1.21,0l37.16-21.41c1.06-.61,1.73-1.76,1.73-2.99v-.85c0-.44-.23-.83-.6-1.05-.19-.11-.4-.16-.6-.16Z"/>
          </g>
          <g>
            <path class="cls-1" d="M101.22,354.28c-.61,0-1.2-.3-1.56-.84l-.32-.48.57-.03c.21-.01.38-.06.54-.15l37.33-21.51c1.07-.62,1.73-1.76,1.73-2.98v-.85c0-.24-.07-.46-.21-.67l-.32-.48.57-.03c.52,0,1.02.16,1.4.52.37.35.57.83.57,1.34v.85c0,1.46-.79,2.82-2.06,3.55l-37.33,21.51c-.29.17-.61.25-.92.25ZM100.59,353.45c.34.22.79.27,1.23.02l37.33-21.51c1.07-.61,1.73-1.76,1.73-2.98v-.85c0-.33-.13-.64-.37-.86-.12-.11-.25-.19-.39-.25.03.14.05.28.05.43v.85c0,1.46-.79,2.82-2.06,3.55l-37.33,21.51c-.06.04-.13.07-.19.09Z"/>
            <path class="cls-1" d="M151.99,325.04c-.6,0-1.19-.3-1.55-.84l-.32-.48.57-.03c.21-.01.38-.06.54-.15l37.16-21.41c1.06-.61,1.73-1.76,1.73-2.99v-.85c0-.24-.07-.46-.21-.66l-.32-.48.57-.03c.48-.03,1.02.16,1.39.51.37.35.57.83.57,1.34v.85c0,1.46-.79,2.82-2.05,3.56l-37.16,21.41c-.3.17-.62.25-.94.25ZM151.37,324.2c.34.22.79.27,1.23.02l37.16-21.41c1.06-.61,1.73-1.76,1.73-2.99v-.85c0-.33-.13-.64-.37-.87-.11-.11-.25-.19-.39-.25.03.14.05.28.05.43v.85c0,1.46-.79,2.82-2.05,3.56l-37.16,21.41c-.06.04-.13.07-.19.09Z"/>
          </g>
        </g>
      </g>
    </g>
  </g>
</svg>