<?xml version="1.0" encoding="UTF-8"?>
<svg id="Capa_1" data-name="Capa 1" xmlns="http://www.w3.org/2000/svg" viewBox="0 0 175.63 195.86">
  <defs>
    <style>
      .cls-1 {
        fill: #fff;
      }
    </style>
  </defs>
  <path class="cls-1" d="M173.18,55.59c-.27-.44-.6-.89-.96-1.34-1.89-2.32-4.96-4.59-8.89-6.74l-31.61-17.33-31.62-17.33c-3.93-2.15-7.53-3.55-10.59-3.94-.59-.08-1.16-.12-1.7-.12-3.38,0-7.61,1.49-12.3,4.06l-31.61,17.33-31.61,17.33c-3.93,2.16-7,4.42-8.89,6.74-.36.44-.69.89-.96,1.34-.27.45-.52.95-.74,1.47-1.17,2.71-1.71,6.36-1.71,10.67v69.31c0,5.14.76,9.36,2.45,12.14,1.69,2.78,5.16,5.51,9.85,8.08l31.61,17.33,31.61,17.33c3.93,2.15,7.54,3.54,10.59,3.94.59.08,1.16.12,1.7.12s1.12-.05,1.7-.12c3.06-.39,6.66-1.79,10.59-3.94l63.23-34.66c4.68-2.57,8.16-5.3,9.85-8.08.27-.45.51-.95.74-1.47,1.17-2.71,1.71-6.36,1.71-10.67v-69.31c0-4.31-.54-7.96-1.71-10.67-.23-.52-.47-1.02-.74-1.47ZM50.64,138.39c0,1.58-1.69,2.58-3.08,1.82l-11.31-6.2c-2.66-1.46-4.32-4.25-4.32-7.29v-33.49c0-1.58,1.69-2.58,3.07-1.82l13.47,7.38c1.33.73,2.16,2.13,2.16,3.64v35.96ZM143.7,126.72c0,3.04-1.66,5.83-4.32,7.29l-11.31,6.2c-1.38.76-3.08-.24-3.08-1.82v-44.39c0-1.58-1.69-2.58-3.08-1.82l-20.43,11.2c-2.66,1.46-4.32,4.25-4.32,7.29v44.03c0,1.52-.83,2.92-2.16,3.64l-3.21,1.75c-2.49,1.36-5.5,1.36-7.99,0l-3.19-1.75c-1.33-.73-2.16-2.13-2.16-3.64v-44.03c0-3.03-1.65-5.83-4.32-7.29l-42.22-23.14v-2.19c0-3.04,1.66-5.83,4.32-7.29l4.66-2.55c2.49-1.36,5.5-1.36,7.99,0l34.92,19.14c2.49,1.36,5.5,1.36,7.99,0l16.14-8.84c1.44-.79,1.44-2.86,0-3.64l-36.26-19.88c-1.44-.79-1.44-2.86,0-3.64l12.13-6.65c2.49-1.36,5.5-1.36,7.99,0l47.57,26.07c2.66,1.46,4.32,4.26,4.32,7.29v48.67Z"/>
</svg>