<?xml version="1.0" encoding="UTF-8"?>
<svg id="Capa_1" data-name="Capa 1" xmlns="http://www.w3.org/2000/svg" viewBox="0 0 177.38 184.24">
  <defs>
    <style>
      .cls-1 {
        fill: #fff;
      }
    </style>
  </defs>
  <path class="cls-1" d="M135.63,127.52c11.76,11.81,23.71,23.44,35.5,35.23l-11.61,11.61-51.35-51.65c-8.94,6.3-18.46,10.88-29.36,12.64C32.16,142.89-6.52,100.01,5.64,54.38,15.43,17.62,55.05-2.63,90.85,10.54c41.12,15.13,55.18,66.16,28.63,100.85,5.69,5.06,10.79,10.74,16.15,16.13ZM63.07,23.04c-29.52,2.75-49.49,32.65-41.77,61.18,10.39,38.39,60.94,48.7,85.33,17.15,26.31-34.03-.83-82.31-43.55-78.33Z"/>
</svg>