<?xml version="1.0" encoding="UTF-8"?>
<svg id="Capa_1" data-name="Capa 1" xmlns="http://www.w3.org/2000/svg" viewBox="0 0 300 300">
  <defs>
    <style>
      .cls-1 {
        fill: #fff;
      }
    </style>
  </defs>
  <path class="cls-1" d="M249.7,272.49c-3.18,2.92-16.74,7.02-21.46,8.49-48.15,15-99.54,15.84-148.18,2.46-6.61-1.82-23.34-6.43-28.32-10.04-2.84-2.06-5.05-5.42-5.08-9.05l.19-112.25c2.11-9.42,12.74-8.76,19.26-13.04,1.31-29.23-4.32-58.76,9.03-85.86,29.35-59.57,115.02-61.95,147.54-3.91,15.92,28.41,9.95,58.55,11.18,89.76,6.76,4.37,17.56,3.65,19.38,13.59l.07,111.7c-.03,2.7-1.67,6.35-3.63,8.15ZM204.85,131.4v-46.77c0-4.2-4.28-15.85-6.38-19.87-20.14-38.56-76.8-38.56-96.94,0-2.1,4.02-6.38,15.67-6.38,19.87v46.77c36.39-7.18,73.31-7.09,109.69,0ZM148.18,165.25c-21.91,1.78-28.59,30.3-9.91,41.81l.94,41.46c4.03,10.16,18.43,9.98,21.59-.66l.32-39.39c.37-1.96,4.99-4.66,6.7-6.76,12.43-15.33-.15-38.05-19.64-36.46Z"/>
</svg>