<?xml version="1.0" encoding="UTF-8"?>
<svg id="Capa_1" data-name="Capa 1" xmlns="http://www.w3.org/2000/svg" viewBox="0 0 344.13 341.34">
  <defs>
    <style>
      .cls-1 {
        fill: #fff;
      }
    </style>
  </defs>
  <path class="cls-1" d="M321.45,157.45l-25.57-4.92c-4.3-53.48-40.5-107.56-94.43-120.57C124.08,13.29,60.4,78.98,55.01,152.52l-25.05,3.95C32.36,63.94,116.06-18.04,211.66,8.74c54.43,15.24,93.31,64.82,105.29,118.71,2.21,9.92,2.96,20,4.49,30Z"/>
  <path class="cls-1" d="M152.17,206.73c-6.89-6.99-18.53,6.46-25,4.56-1.12-.33-16.03-15-16.77-16.28-3.55-6.04,6.82-15.59,5.88-21.8-1.39-9.11-17.73-7.02-20.31-12.78-.84-1.88-.99-23.05-.32-25.29,1.47-4.92,16.09-4.96,19.24-9.75,5.15-7.82-7.52-16.7-5.25-24.23.34-1.12,14.94-15.79,16.45-16.58,6.49-3.41,14.99,7.37,22.63,5.67,6.52-1.44,6.5-14.87,10.72-19.31l26.32-.3c4.3,1.3,5.37,16.85,10.71,19.29,6.33,2.9,17.3-7.71,22.26-6.34,1.2.33,16.67,15.85,17.61,17.52,2.68,4.8-7.23,14.53-5.88,21.8,1.12,6.02,14.97,7.73,19.53,10.5l.3,27.38c-1.27,3.72-16.94,4.43-19.32,9.67-3.26,7.19,6.34,15.09,6.33,22.28l-18.57,18.56c-7.84.63-19.13-12.86-25.14-3.23-2.14,3.43-4.16,14.52-6.71,16.29-2.17,1.5-24.06,1.73-26.43.58-4.07-1.96-5.24-15.15-8.27-18.23ZM172.27,102.69c-59.26,1.19-56.61,92.06,2.71,89.8,58.49-2.23,55.49-90.97-2.71-89.8Z"/>
  <path class="cls-1" d="M72.2,268.22c-24.97,4.73-56.2-.22-65.53-27.48-3.34-9.76-3.53-39.26-.5-49.06,8.3-26.86,37.43-34.07,62.71-30.15,1.61.25,3.84.94,4.4,2.6l-1.08,104.09Z"/>
  <path class="cls-1" d="M275.69,268.22l-1.08-104.09c.56-1.66,2.8-2.35,4.4-2.6,12.22-1.89,33.7-.14,44.34,6.52,21.88,13.69,21.75,37.68,20.13,60.96-2.46,35.37-37.78,45.29-67.8,39.21Z"/>
  <path class="cls-1" d="M318.44,274.46c-2.2,32.13-24.63,53.02-56.45,55.04-13.31.84-34.17-2.27-46.02-.02-2.14.41-6.33,5.28-10.16,6.84-7.62,3.12-37.77,3.13-46.87,2.14-26.33-2.86-25.51-39.07-3.75-42.77,7.9-1.34,37.51-1.26,45.67-.15,7.45,1.01,8.79,5.66,12.6,7.4,2.52,1.15,50.07,1.16,55.4.43,11.43-1.57,23.07-14.24,23.63-25.87,8.8.5,17.41-1.24,25.95-3.04Z"/>
</svg>