<?xml version="1.0" encoding="UTF-8"?>
<svg id="Capa_1" data-name="Capa 1" xmlns="http://www.w3.org/2000/svg" viewBox="0 0 400.92 400.39">
  <defs>
    <style>
      .cls-1 {
        fill: #fff;
      }
    </style>
  </defs>
  <path class="cls-1" d="M178.81,356.83l-4,26c-14.16-1.64-27.73-6.11-41-11.02l9.04-23.96c11.94,2.96,23.54,8.39,35.96,8.98Z"/>
  <path class="cls-1" d="M42.8,220.83c.68,12.4,5.68,24.12,8.98,35.96l-23.41,9.01c-2.59-.55-11.79-35.79-11.57-40.97l26-4Z"/>
  <polygon class="cls-1" points="59.81 115.84 48.8 143.83 23.8 135.82 36.82 103.83 59.81 115.84"/>
  <polygon class="cls-1" points="62.47 278.93 79.74 302.19 60.45 318.76 40.87 292.31 62.47 278.93"/>
  <path class="cls-1" d="M203.81,359.83l29-3,3.9,25.91-32.95,2.63c-1.51-1,.05-1.76.05-2.03v-23.5Z"/>
  <path class="cls-1" d="M95.51,318.94c.84-.22,1.56-.16,2.28.36l18.94,15.16-13.5,21.36c-1.51.35-22.44-15.14-24.25-18.47,0-1.24,15.21-18.06,16.52-18.4Z"/>
  <polygon class="cls-1" points="42.73 164.9 39.87 191.39 13.81 190.82 17.77 160.26 42.73 164.9"/>
  <path class="cls-1" d="M346.86,323.74c9.98,7.03,19.96,14.05,29.94,21.08l-118,20,67.5-98.99c2.49,10.66,4.98,21.32,7.48,31.99,3.55-4.44,7.78-10.34,11.83-17.68,30.62-55.58,34.11-163.85-46.49-220.12C226.37,9.22,126.49,25.37,73.31,95.81l-20.49-15c-.74-1.08,8.92-12.26,10.48-14C128.05-5.22,238.17-16.26,316.7,40.44c85.23,61.54,103.65,179.91,42.92,265.71-1.77,2.51-13.69,16.24-12.76,17.6Z"/>
  <path class="cls-1" d="M304.36,184.58h-79.16c-2.24-4.8-6.11-8.67-10.91-10.91v-107.51c0-5.24-4.25-9.49-9.49-9.49s-9.49,4.25-9.49,9.49v107.51c-7.68,3.58-13.01,11.37-13.01,20.4,0,12.43,10.07,22.5,22.5,22.5,9.03,0,16.82-5.33,20.4-13.01h79.16c5.24,0,9.49-4.25,9.49-9.49s-4.25-9.49-9.49-9.49Z"/>
</svg>