<?xml version="1.0" encoding="UTF-8"?>
<svg id="Capa_1" data-name="Capa 1" xmlns="http://www.w3.org/2000/svg" xmlns:xlink="http://www.w3.org/1999/xlink" viewBox="0 0 732.71 768.07">
  <defs>
    <style>
      .cls-1 {
        filter: url(#drop-shadow-98);
      }

      .cls-1, .cls-2 {
        fill: #2b3180;
      }

      .cls-3 {
        fill: none;
        stroke: #000;
        stroke-miterlimit: 10;
      }

      .cls-4 {
        fill: url(#Degradado_sin_nombre_69);
      }

      .cls-5, .cls-6 {
        fill: #fff;
      }

      .cls-6 {
        filter: url(#drop-shadow-97);
      }

      .cls-7 {
        fill: url(#Degradado_sin_nombre_65);
      }

      .cls-8 {
        fill: #00aefb;
      }

      .cls-9 {
        fill: url(#Degradado_sin_nombre_56-2);
      }

      .cls-10 {
        fill: url(#Degradado_sin_nombre_13);
      }

      .cls-11 {
        fill: url(#Degradado_sin_nombre_56);
      }

      .cls-12 {
        fill: url(#Degradado_sin_nombre_14);
      }

      .cls-13 {
        fill: url(#Degradado_sin_nombre_39);
      }

      .cls-14 {
        filter: url(#drop-shadow-96);
      }

      .cls-15 {
        fill: url(#Degradado_sin_nombre_56-3);
      }
    </style>
    <linearGradient id="Degradado_sin_nombre_14" data-name="Degradado sin nombre 14" x1="347.27" y1="145.81" x2="344.78" y2="1033.41" gradientUnits="userSpaceOnUse">
      <stop offset="0" stop-color="#000"/>
      <stop offset=".73" stop-color="#2b3180"/>
    </linearGradient>
    <linearGradient id="Degradado_sin_nombre_13" data-name="Degradado sin nombre 13" x1="18.87" y1="197.99" x2="25.32" y2="261.88" gradientUnits="userSpaceOnUse">
      <stop offset="0" stop-color="#00aefb"/>
      <stop offset="1" stop-color="#1b1464"/>
    </linearGradient>
    <filter id="drop-shadow-96" x="452.84" y="252.68" width="132" height="132" filterUnits="userSpaceOnUse">
      <feOffset dx="1" dy="1"/>
      <feGaussianBlur result="blur" stdDeviation="2"/>
      <feFlood flood-color="#000" flood-opacity=".16"/>
      <feComposite in2="blur" operator="in"/>
      <feComposite in="SourceGraphic"/>
    </filter>
    <linearGradient id="Degradado_sin_nombre_39" data-name="Degradado sin nombre 39" x1="342.88" y1="378.51" x2="347.22" y2="631.57" gradientUnits="userSpaceOnUse">
      <stop offset=".05" stop-color="#fff" stop-opacity="0"/>
      <stop offset=".7" stop-color="#fff"/>
    </linearGradient>
    <filter id="drop-shadow-97" x="90.84" y="314.68" width="443" height="309" filterUnits="userSpaceOnUse">
      <feOffset dx="6" dy="6"/>
      <feGaussianBlur result="blur-2" stdDeviation="5"/>
      <feFlood flood-color="#000" flood-opacity=".45"/>
      <feComposite in2="blur-2" operator="in"/>
      <feComposite in="SourceGraphic"/>
    </filter>
    <linearGradient id="Degradado_sin_nombre_65" data-name="Degradado sin nombre 65" x1="170.65" y1="392.01" x2="174.16" y2="489.33" gradientUnits="userSpaceOnUse">
      <stop offset="0" stop-color="#fff" stop-opacity="0"/>
      <stop offset=".09" stop-color="#fff" stop-opacity=".05"/>
      <stop offset=".26" stop-color="#fff" stop-opacity=".19"/>
      <stop offset=".49" stop-color="#fff" stop-opacity=".42"/>
      <stop offset=".77" stop-color="#fff" stop-opacity=".72"/>
      <stop offset="1" stop-color="#fff"/>
    </linearGradient>
    <linearGradient id="Degradado_sin_nombre_56" data-name="Degradado sin nombre 56" x1="171.99" y1="454.08" x2="174.91" y2="534.1" gradientUnits="userSpaceOnUse">
      <stop offset=".05" stop-color="#fff" stop-opacity="0"/>
      <stop offset=".13" stop-color="#fff" stop-opacity=".05"/>
      <stop offset=".29" stop-color="#fff" stop-opacity=".18"/>
      <stop offset=".5" stop-color="#fff" stop-opacity=".39"/>
      <stop offset=".75" stop-color="#fff" stop-opacity=".68"/>
      <stop offset="1" stop-color="#fff"/>
    </linearGradient>
    <linearGradient id="Degradado_sin_nombre_56-2" data-name="Degradado sin nombre 56" x1="171.99" y1="476.9" x2="174.91" y2="556.92" xlink:href="#Degradado_sin_nombre_56"/>
    <linearGradient id="Degradado_sin_nombre_56-3" data-name="Degradado sin nombre 56" x1="171.99" y1="502.75" x2="174.91" y2="582.77" xlink:href="#Degradado_sin_nombre_56"/>
    <linearGradient id="Degradado_sin_nombre_69" data-name="Degradado sin nombre 69" x1="180.9" y1="536.43" x2="184.64" y2="681.71" gradientUnits="userSpaceOnUse">
      <stop offset="0" stop-color="#fff" stop-opacity="0"/>
      <stop offset=".7" stop-color="#fff"/>
    </linearGradient>
    <filter id="drop-shadow-98" x="353.84" y="512.68" width="146" height="74" filterUnits="userSpaceOnUse">
      <feOffset dx="0" dy="0"/>
      <feGaussianBlur result="blur-3" stdDeviation="2"/>
      <feFlood flood-color="#000" flood-opacity=".45"/>
      <feComposite in2="blur-3" operator="in"/>
      <feComposite in="SourceGraphic"/>
    </filter>
  </defs>
  <g>
    <rect class="cls-12" x="38.12" width="616.97" height="768.07" rx="41.66" ry="41.66"/>
    <path class="cls-2" d="M697.6,199.89c-232.53,0-465.07,0-697.6,0v-87.53h732.71c-11.7,29.18-23.4,58.35-35.1,87.53Z"/>
    <g>
      <path class="cls-5" d="M61.45,43.63h22.65c15.87,0,26.75,9.24,26.75,23.95s-10.88,23.95-26.75,23.95h-22.65v-47.89ZM83.55,80.71c8.14,0,13.62-4.86,13.62-13.14s-5.47-13.14-13.62-13.14h-8.55v26.27h8.55Z"/>
      <path class="cls-5" d="M156.41,81.05v10.47h-38.45v-47.89h37.56v10.47h-24.15v8.07h21.28v10.13h-21.28v8.76h25.04Z"/>
      <path class="cls-5" d="M160.59,87.21l4.45-9.99c4.24,2.8,10.26,4.72,15.81,4.72s7.8-1.57,7.8-3.9c0-7.59-27.23-2.05-27.23-19.84,0-8.55,6.98-15.53,21.21-15.53,6.23,0,12.66,1.44,17.38,4.17l-4.17,10.06c-4.58-2.46-9.1-3.7-13.27-3.7-5.68,0-7.73,1.92-7.73,4.31,0,7.32,27.16,1.85,27.16,19.5,0,8.35-6.98,15.46-21.21,15.46-7.87,0-15.67-2.12-20.18-5.27Z"/>
      <path class="cls-5" d="M240.29,82.21h-20.25l-3.76,9.31h-13.82l21.14-47.89h13.34l21.21,47.89h-14.09l-3.76-9.31ZM236.33,72.23l-6.16-15.33-6.16,15.33h12.32Z"/>
      <path class="cls-5" d="M282.92,78.79h-7.39v12.73h-13.55v-47.89h21.89c13.07,0,21.28,6.77,21.28,17.72,0,7.05-3.42,12.25-9.37,15.12l10.33,15.05h-14.51l-8.69-12.73ZM283.06,54.3h-7.53v14.03h7.53c5.61,0,8.42-2.6,8.42-6.98s-2.81-7.05-8.42-7.05Z"/>
      <path class="cls-5" d="M333.55,78.79h-7.39v12.73h-13.55v-47.89h21.89c13.07,0,21.28,6.77,21.28,17.72,0,7.05-3.42,12.25-9.37,15.12l10.33,15.05h-14.5l-8.69-12.73ZM333.69,54.3h-7.53v14.03h7.53c5.61,0,8.42-2.6,8.42-6.98s-2.81-7.05-8.42-7.05Z"/>
      <path class="cls-5" d="M360.78,67.57c0-14.37,11.29-24.91,26.62-24.91s26.62,10.54,26.62,24.91-11.29,24.91-26.62,24.91-26.62-10.54-26.62-24.91ZM400.33,67.57c0-8.28-5.68-13.68-12.93-13.68s-12.93,5.41-12.93,13.68,5.68,13.68,12.93,13.68,12.93-5.41,12.93-13.68Z"/>
      <path class="cls-5" d="M421.12,43.63h13.55v37.15h22.85v10.74h-36.4v-47.89Z"/>
      <path class="cls-5" d="M462.86,43.63h13.55v37.15h22.85v10.74h-36.4v-47.89Z"/>
      <path class="cls-5" d="M501.38,67.57c0-14.37,11.29-24.91,26.62-24.91s26.62,10.54,26.62,24.91-11.29,24.91-26.62,24.91-26.62-10.54-26.62-24.91ZM540.93,67.57c0-8.28-5.68-13.68-12.93-13.68s-12.93,5.41-12.93,13.68,5.68,13.68,12.93,13.68,12.93-5.41,12.93-13.68Z"/>
      <path class="cls-5" d="M107.02,169.38c0,8.28-6.84,13.14-19.71,13.14h-25.86v-47.89h24.49c12.59,0,18.75,5.13,18.75,12.52,0,4.58-2.33,8.28-6.43,10.4,5.41,1.92,8.76,6.02,8.76,11.84ZM74.86,144.41v9.24h9.31c4.52,0,6.84-1.57,6.84-4.65s-2.33-4.58-6.84-4.58h-9.31ZM93.33,167.88c0-3.29-2.46-4.86-7.12-4.86h-11.36v9.72h11.36c4.65,0,7.12-1.57,7.12-4.86Z"/>
      <path class="cls-5" d="M146.15,173.21h-20.25l-3.76,9.31h-13.82l21.14-47.89h13.34l21.21,47.89h-14.09l-3.76-9.31ZM142.18,163.23l-6.16-15.33-6.16,15.33h12.32Z"/>
      <path class="cls-5" d="M164.69,158.57c0-14.57,11.15-24.91,26.34-24.91,8.83,0,15.94,3.22,20.59,9.03l-8.62,7.8c-3.01-3.63-6.71-5.61-11.29-5.61-7.87,0-13.34,5.47-13.34,13.68s5.47,13.68,13.34,13.68c4.58,0,8.28-1.98,11.29-5.61l8.62,7.8c-4.65,5.82-11.77,9.03-20.59,9.03-15.19,0-26.34-10.33-26.34-24.91Z"/>
      <path class="cls-5" d="M236.12,165.14l-5.06,5.41v11.97h-13.41v-47.89h13.41v19.91l18.54-19.91h14.92l-19.57,21.21,20.59,26.68h-15.74l-13.68-17.38Z"/>
      <path class="cls-5" d="M307.55,172.05v10.47h-38.45v-47.89h37.56v10.47h-24.15v8.07h21.28v10.13h-21.28v8.76h25.04Z"/>
      <path class="cls-5" d="M360.65,134.63v47.89h-11.15l-21.14-25.52v25.52h-13.27v-47.89h11.15l21.14,25.52v-25.52h13.27Z"/>
      <path class="cls-5" d="M370.22,134.63h22.65c15.87,0,26.75,9.24,26.75,23.95s-10.88,23.95-26.75,23.95h-22.65v-47.89ZM392.32,171.71c8.14,0,13.62-4.86,13.62-13.14s-5.47-13.14-13.62-13.14h-8.55v26.27h8.55Z"/>
    </g>
    <path class="cls-10" d="M0,199.89c12.71,20.23,25.41,40.46,38.12,60.69v-60.69H0Z"/>
    <g>
      <path class="cls-5" d="M346.6,261.59c29.02,0,57.17,5.68,83.67,16.89,25.6,10.83,48.59,26.33,68.33,46.07s35.24,42.73,46.07,68.33c11.21,26.5,16.89,54.65,16.89,83.67s-5.68,57.17-16.89,83.67c-10.83,25.6-26.33,48.59-46.07,68.33-19.74,19.74-42.73,35.24-68.33,46.07-26.5,11.21-54.65,16.89-83.67,16.89s-57.17-5.68-83.67-16.89c-25.6-10.83-48.59-26.33-68.33-46.07-19.74-19.74-35.24-42.73-46.07-68.33-11.21-26.5-16.89-54.65-16.89-83.67s5.68-57.17,16.89-83.67c10.83-25.6,26.33-48.58,46.07-68.33s42.73-35.24,68.33-46.07c26.5-11.21,54.65-16.89,83.67-16.89M346.6,260.59c-119.27,0-215.96,96.69-215.96,215.96s96.69,215.96,215.96,215.96,215.96-96.69,215.96-215.96-96.69-215.96-215.96-215.96h0Z"/>
      <path class="cls-5" d="M345.63,290.01c25.18,0,49.61,4.93,72.61,14.66,22.21,9.4,42.16,22.84,59.29,39.98,17.13,17.13,30.58,37.08,39.98,59.29,9.73,23,14.66,47.42,14.66,72.61s-4.93,49.61-14.66,72.61c-9.39,22.21-22.84,42.16-39.98,59.29-17.13,17.13-37.08,30.58-59.29,39.98-23,9.73-47.42,14.66-72.61,14.66s-49.61-4.93-72.61-14.66c-22.21-9.39-42.16-22.84-59.29-39.98-17.13-17.13-30.58-37.08-39.98-59.29-9.73-23-14.66-47.42-14.66-72.61s4.93-49.61,14.66-72.61c9.39-22.21,22.84-42.16,39.98-59.29,17.13-17.13,37.08-30.58,59.29-39.98,23-9.73,47.42-14.66,72.61-14.66M345.63,289.01c-103.57,0-187.53,83.96-187.53,187.53s83.96,187.53,187.53,187.53,187.53-83.96,187.53-187.53-83.96-187.53-187.53-187.53h0Z"/>
    </g>
  </g>
  <g class="cls-14">
    <path class="cls-5" d="M560.06,329.91l17.56.15.19-23.5-17.56-.14c-.92-3.41-2.24-6.65-3.92-9.68l12.52-12.32-16.48-16.76-12.52,12.32c-3-1.72-6.22-3.1-9.61-4.08l.14-17.56-23.5-.19-.15,17.56c-3.41.92-6.65,2.24-9.68,3.92l-12.32-12.52-16.76,16.48,12.32,12.52c-1.72,3-3.1,6.22-4.08,9.61l-17.56-.15-.19,23.5,17.56.15c.92,3.41,2.24,6.65,3.92,9.68l-12.52,12.31,16.48,16.76,12.52-12.32c3,1.72,6.22,3.1,9.61,4.08l-.15,17.56,23.5.19.15-17.56c3.41-.92,6.65-2.24,9.68-3.92l12.32,12.52,16.76-16.48-12.32-12.52c1.72-3,3.1-6.22,4.08-9.61ZM517.98,337.07c-10.64-.09-19.19-8.78-19.1-19.42.09-10.64,8.78-19.19,19.42-19.1,10.64.09,19.19,8.78,19.1,19.42-.09,10.64-8.78,19.19-19.42,19.1Z"/>
  </g>
  <rect class="cls-13" x="218.03" y="395.39" width="253.28" height="174.69" rx="3.71" ry="3.71"/>
  <rect class="cls-3" x="100.33" y="323.88" width="411.84" height="278.22" rx="5.88" ry="5.88"/>
  <path class="cls-6" d="M512.17,335.09c0-6.19-5.02-11.21-11.21-11.21H111.54c-6.19,0-11.21,5.02-11.21,11.21v38.21h.08c-.04.26-.08.52-.08.79v218.08h0s0,0,0,0c0,1.86,1.05,3.46,2.57,4.29.17.21.31.41.5.61,3.04,3.37,6.68,4.59,8.37,5.03h390.6c2.85.92,5.98.15,8.05-2,2.02-2.1,2.7-5.17,1.76-7.94v-218.08c0-.27-.04-.53-.08-.79h.08v-38.21ZM502.37,592.17H110.14v-218.08c0-.27-.04-.53-.08-.79h392.39c-.04.26-.08.52-.08.79v218.08h0Z"/>
  <rect class="cls-7" x="133.28" y="394.58" width="77.74" height="77.74" rx="5.03" ry="5.03"/>
  <rect class="cls-11" x="133.28" y="482.74" width="79.97" height="12.4" rx="3.19" ry="3.19"/>
  <rect class="cls-9" x="133.28" y="505.56" width="79.97" height="12.4" rx="3.19" ry="3.19"/>
  <rect class="cls-15" x="133.28" y="531.41" width="79.97" height="12.4" rx="3.19" ry="3.19"/>
  <path class="cls-8" d="M420.08,436.45c-1.71,0-3.09,1.38-3.09,3.09,0,.45.1.87.27,1.26l-44.68,58.67-22.79,7.98-33.46-38.2c.27-.46.44-.99.44-1.56,0-1.71-1.38-3.09-3.09-3.09-.43,0-.84.09-1.21.25l-.07-.08-.05.15c-1.03.5-1.75,1.55-1.75,2.77,0,.48.12.93.32,1.34l-19.16,54.92-27.05-25.51c0-.07.02-.13.02-.2,0-1.71-1.38-3.09-3.09-3.09s-3.09,1.38-3.09,3.09c0,.83.33,1.58.87,2.14l-11.7,24.9,1.76.83,11.67-24.83c.16.03.32.05.49.05.89,0,1.69-.38,2.25-.98l28.72,27.09,19.85-56.91c.38.16.79.26,1.23.26s.82-.09,1.19-.24l34.32,39.19,24.58-8.61,44.84-58.87c.44.24.94.39,1.47.39,1.71,0,3.09-1.38,3.09-3.09s-1.38-3.09-3.09-3.09Z"/>
  <path class="cls-8" d="M411.96,402.82c-1.71,0-3.09,1.38-3.09,3.09,0,.45.1.87.27,1.26l-44.68,58.67-22.79,7.98-33.46-38.2c.27-.46.44-.99.44-1.56,0-1.71-1.38-3.09-3.09-3.09-.43,0-.84.09-1.21.25l-.07-.08-.05.15c-1.03.5-1.75,1.55-1.75,2.77,0,.48.12.93.32,1.34l-19.16,54.92-27.05-25.51c0-.07.02-.13.02-.2,0-1.71-1.38-3.09-3.09-3.09s-3.09,1.38-3.09,3.09c0,.83.33,1.58.87,2.14l-11.7,24.9,1.76.83,11.67-24.83c.16.03.32.05.49.05.89,0,1.69-.38,2.25-.98l28.72,27.09,19.85-56.91c.38.16.79.26,1.23.26s.82-.09,1.19-.24l34.32,39.19,24.58-8.61,44.84-58.87c.44.24.94.39,1.47.39,1.71,0,3.09-1.38,3.09-3.09s-1.38-3.09-3.09-3.09Z"/>
  <rect class="cls-4" x="94.15" y="554.19" width="177.09" height="104.33" rx="7.99" ry="7.99"/>
  <circle class="cls-2" cx="184.42" cy="609.89" r="37.07"/>
  <polygon class="cls-5" points="211.45 610.88 187.09 596.81 187.09 624.94 211.45 610.88"/>
  <polygon class="cls-5" points="158.48 610.88 182.84 596.81 182.84 624.94 158.48 610.88"/>
  <path class="cls-1" d="M462.92,580.26h-72.42c-16.77,0-30.37-13.6-30.37-30.37s13.6-30.37,30.37-30.37h72.42c16.77,0,30.37,13.6,30.37,30.37s-13.6,30.37-30.37,30.37Z"/>
  <rect class="cls-5" x="403.07" y="548.22" width="46.26" height="5.83" transform="translate(-238.95 758.44) rotate(-69.59)"/>
  <polygon class="cls-5" points="441.82 539.04 452.66 549.88 441.82 560.72 441.82 566.55 458.46 549.9 458.44 549.88 458.46 549.86 441.82 533.22 441.82 539.04"/>
  <polygon class="cls-5" points="410.59 539.04 399.75 549.88 410.59 560.72 410.59 566.55 393.94 549.9 393.96 549.88 393.94 549.86 410.59 533.22 410.59 539.04"/>
  <circle class="cls-2" cx="128.35" cy="349.86" r="8.45"/>
  <circle class="cls-2" cx="156.69" cy="349.86" r="8.45"/>
  <circle class="cls-2" cx="184.42" cy="349.86" r="8.45"/>
  <rect class="cls-2" x="239.59" y="341.41" width="250.5" height="16.9" rx="7.76" ry="7.76"/>
</svg>