<?xml version="1.0" encoding="UTF-8"?>
<svg id="Capa_1" data-name="Capa 1" xmlns="http://www.w3.org/2000/svg" xmlns:xlink="http://www.w3.org/1999/xlink" viewBox="0 0 770.62 933.88">
  <defs>
    <style>
      .cls-1 {
        fill: url(#Degradado_sin_nombre_131-3);
        filter: url(#drop-shadow-98);
        stroke: url(#Degradado_sin_nombre_13-3);
      }

      .cls-1, .cls-2, .cls-3, .cls-4 {
        stroke-miterlimit: 10;
        stroke-width: 1.52px;
      }

      .cls-5 {
        fill: url(#Degradado_sin_nombre_13-4);
      }

      .cls-6 {
        fill: #fff;
      }

      .cls-2 {
        fill: none;
        stroke: #fff;
      }

      .cls-3 {
        fill: url(#Degradado_sin_nombre_131-2);
        filter: url(#drop-shadow-97);
        stroke: url(#Degradado_sin_nombre_13-2);
      }

      .cls-7, .cls-8 {
        fill: #79d4ff;
      }

      .cls-4 {
        fill: url(#Degradado_sin_nombre_131);
        filter: url(#drop-shadow-96);
        stroke: url(#Degradado_sin_nombre_13);
      }

      .cls-9 {
        fill: #2b3180;
      }

      .cls-10 {
        fill: url(#Degradado_sin_nombre_14);
      }

      .cls-8 {
        font-family: Montserrat-Bold, Montserrat;
        font-size: 69.1px;
        font-weight: 700;
      }
    </style>
    <linearGradient id="Degradado_sin_nombre_14" data-name="Degradado sin nombre 14" x1="373.95" y1="177.34" x2="370.91" y2="1256.35" gradientUnits="userSpaceOnUse">
      <stop offset="0" stop-color="#000"/>
      <stop offset=".73" stop-color="#2b3180"/>
    </linearGradient>
    <linearGradient id="Degradado_sin_nombre_131" data-name="Degradado sin nombre 131" x1="129.83" y1="613.89" x2="129.83" y2="389.58" gradientUnits="userSpaceOnUse">
      <stop offset="0" stop-color="#340ba7"/>
      <stop offset=".84" stop-color="#0894eb"/>
      <stop offset="1" stop-color="#00aff8"/>
    </linearGradient>
    <linearGradient id="Degradado_sin_nombre_13" data-name="Degradado sin nombre 13" x1="228.79" y1="557.96" x2="30.87" y2="443.69" gradientUnits="userSpaceOnUse">
      <stop offset="0" stop-color="#00aefb"/>
      <stop offset="1" stop-color="#1b1464"/>
    </linearGradient>
    <filter id="drop-shadow-96" x="-25.65" y="372.13" width="312" height="279" filterUnits="userSpaceOnUse">
      <feOffset dx="0" dy="10.65"/>
      <feGaussianBlur result="blur" stdDeviation="8.37"/>
      <feFlood flood-color="#3e2c82" flood-opacity=".75"/>
      <feComposite in2="blur" operator="in"/>
      <feComposite in="SourceGraphic"/>
    </filter>
    <linearGradient id="Degradado_sin_nombre_131-2" data-name="Degradado sin nombre 131" x1="366.27" y1="893.4" x2="366.27" y2="669.09" xlink:href="#Degradado_sin_nombre_131"/>
    <linearGradient id="Degradado_sin_nombre_13-2" data-name="Degradado sin nombre 13" x1="465.23" y1="837.47" x2="267.31" y2="723.2" xlink:href="#Degradado_sin_nombre_13"/>
    <filter id="drop-shadow-97" x="210.35" y="652.13" width="312" height="279" filterUnits="userSpaceOnUse">
      <feOffset dx="0" dy="10.65"/>
      <feGaussianBlur result="blur-2" stdDeviation="8.37"/>
      <feFlood flood-color="#3e2c82" flood-opacity=".75"/>
      <feComposite in2="blur-2" operator="in"/>
      <feComposite in="SourceGraphic"/>
    </filter>
    <linearGradient id="Degradado_sin_nombre_131-3" data-name="Degradado sin nombre 131" x1="613.42" x2="613.42" xlink:href="#Degradado_sin_nombre_131"/>
    <linearGradient id="Degradado_sin_nombre_13-3" data-name="Degradado sin nombre 13" x1="712.38" x2="514.46" y2="443.69" xlink:href="#Degradado_sin_nombre_13"/>
    <filter id="drop-shadow-98" x="458.35" y="372.13" width="311" height="279" filterUnits="userSpaceOnUse">
      <feOffset dx="0" dy="10.65"/>
      <feGaussianBlur result="blur-3" stdDeviation="8.37"/>
      <feFlood flood-color="#3e2c82" flood-opacity=".75"/>
      <feComposite in2="blur-3" operator="in"/>
      <feComposite in="SourceGraphic"/>
    </filter>
    <linearGradient id="Degradado_sin_nombre_13-4" data-name="Degradado sin nombre 13" x1="18.87" y1="326.33" x2="25.32" y2="390.22" xlink:href="#Degradado_sin_nombre_13"/>
  </defs>
  <rect class="cls-10" x="38.12" width="670.03" height="933.88" rx="41.66" ry="41.66"/>
  <path class="cls-9" d="M709.21,328.24c-236.4,0-472.81,0-709.21,0v-176.12h770.62c-20.47,58.71-40.94,117.41-61.41,176.12Z"/>
  <g>
    <path class="cls-6" d="M61.45,83.38h22.65c15.87,0,26.75,9.24,26.75,23.95s-10.88,23.95-26.75,23.95h-22.65v-47.89ZM83.55,120.46c8.14,0,13.62-4.86,13.62-13.14s-5.47-13.14-13.62-13.14h-8.55v26.27h8.55Z"/>
    <path class="cls-6" d="M156.41,120.81v10.47h-38.45v-47.89h37.56v10.47h-24.15v8.07h21.28v10.13h-21.28v8.76h25.04Z"/>
    <path class="cls-6" d="M160.59,126.96l4.45-9.99c4.24,2.81,10.26,4.72,15.8,4.72s7.8-1.57,7.8-3.9c0-7.6-27.23-2.05-27.23-19.84,0-8.55,6.98-15.53,21.21-15.53,6.23,0,12.66,1.44,17.38,4.17l-4.17,10.06c-4.58-2.46-9.1-3.69-13.27-3.69-5.68,0-7.73,1.92-7.73,4.31,0,7.32,27.16,1.85,27.16,19.5,0,8.35-6.98,15.46-21.21,15.46-7.87,0-15.67-2.12-20.18-5.27Z"/>
    <path class="cls-6" d="M240.29,121.97h-20.25l-3.76,9.3h-13.82l21.14-47.89h13.34l21.21,47.89h-14.1l-3.76-9.3ZM236.33,111.98l-6.16-15.33-6.16,15.33h12.32Z"/>
    <path class="cls-6" d="M282.92,118.55h-7.39v12.73h-13.55v-47.89h21.89c13.07,0,21.28,6.77,21.28,17.72,0,7.05-3.42,12.25-9.37,15.12l10.33,15.05h-14.5l-8.69-12.73ZM283.06,94.05h-7.53v14.03h7.53c5.61,0,8.42-2.6,8.42-6.98s-2.81-7.05-8.42-7.05Z"/>
    <path class="cls-6" d="M333.55,118.55h-7.39v12.73h-13.55v-47.89h21.89c13.07,0,21.28,6.77,21.28,17.72,0,7.05-3.42,12.25-9.37,15.12l10.33,15.05h-14.5l-8.69-12.73ZM333.69,94.05h-7.53v14.03h7.53c5.61,0,8.42-2.6,8.42-6.98s-2.81-7.05-8.42-7.05Z"/>
    <path class="cls-6" d="M360.78,107.33c0-14.37,11.29-24.9,26.62-24.9s26.62,10.54,26.62,24.9-11.29,24.91-26.62,24.91-26.62-10.54-26.62-24.91ZM400.33,107.33c0-8.28-5.68-13.68-12.93-13.68s-12.93,5.4-12.93,13.68,5.68,13.68,12.93,13.68,12.93-5.4,12.93-13.68Z"/>
    <path class="cls-6" d="M421.12,83.38h13.55v37.15h22.85v10.74h-36.4v-47.89Z"/>
    <path class="cls-6" d="M462.86,83.38h13.55v37.15h22.85v10.74h-36.4v-47.89Z"/>
    <path class="cls-6" d="M501.38,107.33c0-14.37,11.29-24.9,26.62-24.9s26.62,10.54,26.62,24.9-11.29,24.91-26.62,24.91-26.62-10.54-26.62-24.91ZM540.93,107.33c0-8.28-5.68-13.68-12.93-13.68s-12.93,5.4-12.93,13.68,5.68,13.68,12.93,13.68,12.93-5.4,12.93-13.68Z"/>
    <path class="cls-6" d="M581.63,83.38h22.65c15.87,0,26.75,9.24,26.75,23.95s-10.88,23.95-26.75,23.95h-22.65v-47.89ZM603.73,120.46c8.14,0,13.62-4.86,13.62-13.14s-5.47-13.14-13.62-13.14h-8.55v26.27h8.55Z"/>
    <path class="cls-6" d="M676.6,120.81v10.47h-38.45v-47.89h37.56v10.47h-24.15v8.07h21.28v10.13h-21.28v8.76h25.04Z"/>
    <path class="cls-6" d="M58.98,198.33c0-14.57,11.15-24.9,26.34-24.9,8.83,0,15.94,3.21,20.59,9.03l-8.62,7.8c-3.01-3.62-6.71-5.61-11.29-5.61-7.87,0-13.34,5.47-13.34,13.68s5.47,13.68,13.34,13.68c4.58,0,8.28-1.98,11.29-5.61l8.62,7.8c-4.65,5.82-11.77,9.03-20.59,9.03-15.19,0-26.34-10.33-26.34-24.91Z"/>
    <path class="cls-6" d="M132.88,209.55h-7.39v12.73h-13.55v-47.89h21.89c13.07,0,21.28,6.77,21.28,17.72,0,7.05-3.42,12.25-9.37,15.12l10.33,15.05h-14.5l-8.69-12.73ZM133.01,185.05h-7.53v14.03h7.53c5.61,0,8.42-2.6,8.42-6.98s-2.8-7.05-8.42-7.05Z"/>
    <path class="cls-6" d="M205.81,222.27l-.14-25.38-12.32,20.66h-6.02l-12.25-19.98v24.7h-12.52v-47.89h11.15l16.83,27.64,16.42-27.64h11.15l.14,47.89h-12.45Z"/>
    <path class="cls-6" d="M240.5,215.16c0,1.92-.27,3.42-2.26,7.87l-4.31,9.99h-8.14l3.22-11.15c-2.46-1.16-4.04-3.49-4.04-6.71,0-4.65,3.28-7.66,7.8-7.66s7.73,3.01,7.73,7.66Z"/>
    <path class="cls-6" d="M305.56,211.81v10.47h-38.45v-47.89h37.56v10.47h-24.15v8.07h21.28v10.13h-21.28v8.76h25.04Z"/>
    <path class="cls-6" d="M334.03,209.55h-7.39v12.73h-13.55v-47.89h21.89c13.07,0,21.28,6.77,21.28,17.72,0,7.05-3.42,12.25-9.37,15.12l10.33,15.05h-14.5l-8.69-12.73ZM334.16,185.05h-7.53v14.03h7.53c5.61,0,8.42-2.6,8.42-6.98s-2.8-7.05-8.42-7.05Z"/>
    <path class="cls-6" d="M406.89,192.1c0,10.88-8.21,17.65-21.28,17.65h-8.35v12.52h-13.55v-47.89h21.89c13.07,0,21.28,6.77,21.28,17.72ZM393.21,192.1c0-4.45-2.8-7.05-8.42-7.05h-7.53v14.03h7.53c5.61,0,8.42-2.6,8.42-6.98Z"/>
    <path class="cls-6" d="M425.03,215.16c0,1.92-.27,3.42-2.26,7.87l-4.31,9.99h-8.14l3.22-11.15c-2.46-1.16-4.04-3.49-4.04-6.71,0-4.65,3.28-7.66,7.8-7.66s7.73,3.01,7.73,7.66Z"/>
    <path class="cls-6" d="M497.21,174.38v47.89h-13.55v-18.68h-18.47v18.68h-13.55v-47.89h13.55v17.99h18.47v-17.99h13.55Z"/>
    <path class="cls-6" d="M504.32,198.33c0-14.57,11.15-24.9,26.34-24.9,8.83,0,15.94,3.21,20.59,9.03l-8.62,7.8c-3.01-3.62-6.71-5.61-11.29-5.61-7.87,0-13.34,5.47-13.34,13.68s5.47,13.68,13.34,13.68c4.58,0,8.28-1.98,11.29-5.61l8.62,7.8c-4.65,5.82-11.77,9.03-20.59,9.03-15.19,0-26.34-10.33-26.34-24.91Z"/>
    <path class="cls-6" d="M600.52,222.27l-.14-25.38-12.32,20.66h-6.02l-12.25-19.98v24.7h-12.52v-47.89h11.15l16.83,27.64,16.42-27.64h11.15l.14,47.89h-12.45Z"/>
    <path class="cls-6" d="M668.12,205.1v17.17h-13.55v-17.38l-18.27-30.52h14.3l11.36,19.02,11.36-19.02h13.14l-18.34,30.72Z"/>
    <path class="cls-6" d="M58.98,289.33c0-14.57,11.15-24.9,26.34-24.9,8.83,0,15.94,3.21,20.59,9.03l-8.62,7.8c-3.01-3.62-6.71-5.61-11.29-5.61-7.87,0-13.34,5.47-13.34,13.68s5.47,13.68,13.34,13.68c4.58,0,8.28-1.98,11.29-5.61l8.62,7.8c-4.65,5.82-11.77,9.03-20.59,9.03-15.19,0-26.34-10.33-26.34-24.91Z"/>
    <path class="cls-6" d="M108.45,289.33c0-14.37,11.29-24.9,26.62-24.9s26.62,10.54,26.62,24.9-11.29,24.91-26.62,24.91-26.62-10.54-26.62-24.91ZM148,289.33c0-8.28-5.68-13.68-12.93-13.68s-12.93,5.4-12.93,13.68,5.68,13.68,12.93,13.68,12.93-5.4,12.93-13.68Z"/>
    <path class="cls-6" d="M214.36,265.38v47.89h-11.15l-21.14-25.52v25.52h-13.27v-47.89h11.15l21.14,25.52v-25.52h13.27Z"/>
    <path class="cls-6" d="M234.14,276.12h-14.71v-10.74h42.9v10.74h-14.64v37.15h-13.55v-37.15Z"/>
    <path class="cls-6" d="M297.08,303.97h-20.25l-3.76,9.3h-13.82l21.14-47.89h13.34l21.21,47.89h-14.09l-3.76-9.3ZM293.12,293.98l-6.16-15.33-6.16,15.33h12.32Z"/>
    <path class="cls-6" d="M364.34,300.14c0,8.28-6.84,13.14-19.71,13.14h-25.86v-47.89h24.49c12.59,0,18.75,5.13,18.75,12.52,0,4.58-2.33,8.28-6.43,10.4,5.41,1.92,8.76,6.02,8.76,11.84ZM332.18,275.16v9.24h9.31c4.52,0,6.84-1.57,6.84-4.65s-2.33-4.58-6.84-4.58h-9.31ZM350.66,298.63c0-3.28-2.46-4.86-7.12-4.86h-11.36v9.72h11.36c4.65,0,7.12-1.57,7.12-4.86Z"/>
    <path class="cls-6" d="M371.39,265.38h13.55v47.89h-13.55v-47.89Z"/>
    <path class="cls-6" d="M394.58,265.38h13.55v37.15h22.85v10.74h-36.4v-47.89Z"/>
    <path class="cls-6" d="M436.31,265.38h13.55v47.89h-13.55v-47.89Z"/>
    <path class="cls-6" d="M459.51,265.38h22.65c15.87,0,26.75,9.24,26.75,23.95s-10.88,23.95-26.75,23.95h-22.65v-47.89ZM481.61,302.46c8.14,0,13.62-4.86,13.62-13.14s-5.47-13.14-13.62-13.14h-8.55v26.27h8.55Z"/>
    <path class="cls-6" d="M547.43,303.97h-20.25l-3.76,9.3h-13.82l21.14-47.89h13.34l21.21,47.89h-14.1l-3.76-9.3ZM543.46,293.98l-6.16-15.33-6.16,15.33h12.32Z"/>
    <path class="cls-6" d="M569.12,265.38h22.65c15.87,0,26.75,9.24,26.75,23.95s-10.88,23.95-26.75,23.95h-22.65v-47.89ZM591.21,302.46c8.14,0,13.62-4.86,13.62-13.14s-5.47-13.14-13.62-13.14h-8.55v26.27h8.55Z"/>
  </g>
  <path class="cls-2" d="M189.62,562.59c46.02,43.29,92.04,86.59,138.06,129.88"/>
  <path class="cls-2" d="M562.93,562.59c-55.36,44.24-110.71,88.47-166.07,132.71"/>
  <g>
    <path class="cls-4" d="M190.75,387.32h-121.83c-2.86,0-5.5,1.52-6.93,4L1.07,496.82c-1.43,2.48-1.43,5.52,0,8l60.92,105.51c1.43,2.48,4.07,4,6.93,4h121.83c2.86,0,5.5-1.52,6.93-4l60.92-105.51c1.43-2.48,1.43-5.52,0-8l-60.92-105.51c-1.43-2.48-4.07-4-6.93-4Z"/>
    <text class="cls-8" transform="translate(49.43 522.94)"><tspan x="0" y="0">ERP</tspan></text>
  </g>
  <g>
    <path class="cls-3" d="M427.19,666.83h-121.83c-2.86,0-5.5,1.52-6.93,4l-60.92,105.51c-1.43,2.48-1.43,5.52,0,8l60.92,105.51c1.43,2.48,4.07,4,6.93,4h121.83c2.86,0,5.5-1.52,6.93-4l60.92-105.51c1.43-2.48,1.43-5.52,0-8l-60.92-105.51c-1.43-2.48-4.07-4-6.93-4Z"/>
    <text class="cls-8" transform="translate(280.9 805.42)"><tspan x="0" y="0">CRM</tspan></text>
  </g>
  <g>
    <path class="cls-1" d="M674.34,387.32h-121.83c-2.86,0-5.5,1.52-6.93,4l-60.92,105.51c-1.43,2.48-1.43,5.52,0,8l60.92,105.51c1.43,2.48,4.07,4,6.93,4h121.83c2.86,0,5.5-1.52,6.93-4l60.92-105.51c1.43-2.48,1.43-5.52,0-8l-60.92-105.51c-1.43-2.48-4.07-4-6.93-4Z"/>
    <text class="cls-8" transform="translate(526.84 522.94)"><tspan x="0" y="0">HMC</tspan></text>
  </g>
  <g>
    <path class="cls-7" d="M371.63,589.36c-36.63,0-66.42-29.8-66.42-66.42s29.8-66.42,66.42-66.42,66.42,29.8,66.42,66.42-29.8,66.42-66.42,66.42ZM371.63,461.88c-33.67,0-61.06,27.39-61.06,61.06s27.39,61.06,61.06,61.06,61.06-27.39,61.06-61.06-27.39-61.06-61.06-61.06Z"/>
    <path class="cls-7" d="M375.96,548.72v8.37h-7.47v-8.15c-7.4-.45-14.5-2.77-18.61-5.98l4.11-9.12c3.74,2.77,9.12,4.78,14.5,5.31v-12.48c-8.3-2.02-17.56-4.78-17.56-15.47,0-7.92,5.76-14.72,17.56-16.07v-8.3h7.47v8.15c5.61.45,11.06,1.94,15.17,4.56l-3.74,9.19c-3.81-2.17-7.7-3.44-11.44-3.89v12.71c8.3,1.94,17.42,4.71,17.42,15.25,0,7.77-5.68,14.5-17.42,15.92ZM368.49,515.68v-10.61c-3.96.9-5.53,3.06-5.53,5.53,0,2.62,2.24,4.04,5.53,5.08ZM381.34,533.69c0-2.62-2.17-4.04-5.38-5.16v10.31c3.74-.82,5.38-2.77,5.38-5.16Z"/>
  </g>
  <path class="cls-5" d="M0,328.24c12.71,20.23,25.41,40.46,38.12,60.69v-60.69H0Z"/>
</svg>