<?xml version="1.0" encoding="UTF-8"?>
<svg id="Capa_1" data-name="Capa 1" xmlns="http://www.w3.org/2000/svg" viewBox="0 0 293.12 262.46">
  <defs>
    <style>
      .cls-1 {
        fill: #fff;
      }
    </style>
  </defs>
  <path class="cls-1" d="M25.21,151.45s0,0,0,0c11.56-1.86,23.26-3.1,35.01-3.72,4.54-.24,6.98,3.14,5.91,7.55-1.09,4.51-1.71,8.63-1.71,11.05,0,7.67,6.22,13.89,13.89,13.89s13.89-6.22,13.89-13.89c0-2.42-.62-6.55-1.71-11.05-1.07-4.42,1.37-7.8,5.91-7.55,11.72.62,23.37,1.85,34.9,3.7.06,0,.1.05.11.11,1.85,11.53,3.07,23.19,3.69,34.9.24,4.54-3.14,6.98-7.55,5.91-4.51-1.09-8.63-1.71-11.05-1.71-7.67,0-13.89,6.22-13.89,13.89s6.22,13.88,13.89,13.88c2.42,0,6.55-.62,11.05-1.71,4.42-1.07,7.8,1.37,7.55,5.91-.62,11.72-1.86,23.39-3.71,34.91,0,.06-.05.1-.11.11-11.53,1.85-23.19,3.08-34.91,3.71-4.54.24-31.63.24-36.17,0-11.75-.63-23.45-1.87-35.01-3.72,0,0,0,0,0,0l.02-106.17Z"/>
  <path class="cls-1" d="M158.18,154.95s-.05.02-.05.05c1.85,11.54,3.06,23.23,3.68,34.96.24,4.54-3.14,6.98-7.55,5.91-4.51-1.09-8.63-1.71-11.05-1.71-7.67,0-13.89,6.22-13.89,13.89s6.22,13.89,13.89,13.89c2.42,0,6.55-.62,11.05-1.71,4.42-1.07,7.8,1.37,7.55,5.91-.63,11.75-1.76,19.69-3.62,31.25,9.25,2.22,45,5.48,56.75,5.05,15.12-.55,28.28-1.15,48.94-4.08-1.85-11.56-2.65-20.51-3.28-32.25-.24-4.54,3.14-6.98,7.55-5.91,4.51,1.09,8.63,1.71,11.05,1.71,7.67,0,13.89-6.22,13.89-13.89s-6.22-13.89-13.89-13.89c-3.81,0-11.84,1.54-18.95,4.02.42-14.5,1.77-28.92,4.05-43.15,0-.03-.02-.05-.05-.05-11.54,1.85-23.22,3.1-34.95,3.73-4.54.24-6.98-3.14-5.91-7.55,1.09-4.51,1.71-8.63,1.71-11.05,0-7.67-6.22-13.89-13.89-13.89s-13.89,6.22-13.89,13.89c0,2.42.62,6.55,1.71,11.05,1.07,4.42-1.37,7.8-5.91,7.55-11.73-.63-23.44-1.86-34.98-3.71Z"/>
  <path class="cls-1" d="M20.64,127.25s0,0,0,0c13.85-4.07,28.03-7.24,42.37-9.49-1.57,7.36-2.08,15.53-1.6,19.3.97,7.61,7.92,12.99,15.53,12.02,7.61-.97,12.99-7.92,12.02-15.53-.48-3.78-3.02-11.55-6.39-18.29,14.45-1.42,28.97-1.9,43.4-1.43-.01-.05-6.03-22.61-8.13-34.18-.81-4.47,2.23-7.32,6.75-6.82,4.61.51,8.78.61,11.18.3,7.61-.97,12.99-7.92,12.02-15.53-.97-7.61-7.92-12.99-15.53-12.02-3.78.48-11.55,3.02-18.29,6.39-1.42-14.45-1.9-28.97-1.43-43.39,0,0,0,0,0,0L7.24,21.99l13.4,105.26Z"/>
  <path class="cls-1" d="M272.83,16.57s0,0,0,0c-.01,11.7-.66,23.45-1.91,35.15-.49,4.52-4.21,6.39-8.4,4.63-4.28-1.8-8.25-3.07-10.64-3.45-7.57-1.22-14.7,3.92-15.93,11.49-1.22,7.57,3.92,14.7,11.49,15.93,3.76.61,11.94.37,19.35-.95-2.73,14.23-6.35,28.25-10.87,41.92-.02.06-.07.1-.13.1-11.67-.02-23.38-.67-35.04-1.92-4.52-.49-6.39-4.21-4.63-8.4,1.8-4.28,3.07-8.25,3.45-10.64,1.22-7.57-3.92-14.7-11.49-15.93-7.57-1.22-14.7,3.92-15.93,11.49-.61,3.76-.37,11.93.95,19.35-14.22-2.72-28.26-6.36-41.93-10.88-.06-.02-.1-.07-.1-.13.02-14.4,1-28.87,2.89-43.22,6.62,3.59,14.3,6.39,18.06,7,7.57,1.22,14.7-3.92,15.93-11.49,1.22-7.57-3.92-14.7-11.49-15.93-3.76-.61-11.94-.37-19.35.95,2.73-14.26,6.37-28.32,10.91-42.02,0,0,0,0,0,0l104.8,16.97Z"/>
</svg>