<?xml version="1.0" encoding="UTF-8"?>
<svg xmlns="http://www.w3.org/2000/svg" viewBox="0 0 1096.39 1105.82">
  <defs>
    <style>
      .cls-1 {
        fill: #fff;
      }

      .cls-2 {
        isolation: isolate;
      }

      .cls-3 {
        mix-blend-mode: hard-light;
      }
    </style>
  </defs>
  <g class="cls-2">
    <g id="Capa_1" data-name="Capa 1">
      <g>
        <g class="cls-3">
          <path class="cls-1" d="M902.21,575.01l-198.16-336.28-.42.88-160.33,336.39.78.04,358.13-1.03ZM704.15,240.94l196.2,332.93-355.44,1.16,159.24-334.1Z"/>
          <path class="cls-1" d="M544.19,576.56l.39-.81,160.4-336.53-.93.11-343.83,38.33.49.71,183.47,298.19ZM703.23,240.46l-159.2,334.02-181.98-295.99,341.18-38.04Z"/>
          <path class="cls-1" d="M360.33,278.69l.86-.09,344.37-38.4-1.16-.79L447.41,64.57l-.24.6-86.84,213.52ZM702.65,239.48l-340.7,37.99,85.95-211.31,254.76,173.32Z"/>
          <path class="cls-1" d="M704.3,240.6l.27-.54,74.43-151.11-.77-.05-332.47-24.19,258.54,175.89ZM777.39,89.88l-73.49,149.19-254.36-173.04,327.85,23.85Z"/>
          <path class="cls-1" d="M778.16,89.93l.14-1.03-226.09-43.18h-.09s-108.56,19.86-108.56,19.86l334.6,24.34ZM552.21,46.78l217.12,41.47-317.58-23.11,100.46-18.37Z"/>
          <path class="cls-1" d="M192.35,289.45l169.22-10.96.12-.3,87.25-214.64-256.59,225.9ZM360.84,277.49l-165.53,10.73,251.05-221.03-85.52,210.3Z"/>
          <path class="cls-1" d="M192.65,291.1L450.12,63.88l-171.64,64.7-.09.17-85.74,162.35ZM445.19,66.85l-248.98,219.71,83-157.15,165.97-62.57Z"/>
          <path class="cls-1" d="M194.08,289.48l86.84-163.28-143,142.53,56.16,20.75ZM276.77,131.81l-83.18,156.38-53.79-19.87,136.97-136.51Z"/>
          <path class="cls-1" d="M93.26,341.54l101.86-52.79-56.47-20.87-45.39,73.66ZM192.56,288.91l-96.45,49.98,42.97-69.74,53.48,19.76Z"/>
          <path class="cls-1" d="M168.26,580.94l1.02-.07,375.77-4.89-.51-.75-183.42-298.1-.42.68-192.44,303.13ZM543.17,575.07l-372.94,4.69,190.93-300.73,182.01,296.05Z"/>
          <path class="cls-1" d="M388.78,911.29l.38-.85,155.78-335.5-376.64,5.02.5.74,219.98,330.59ZM543.27,576.1l-154.67,333.09-218.42-328.32,373.09-4.77Z"/>
          <path class="cls-1" d="M713.61,863.46l.49-.74,188.11-288.75-.9-.04-358.09,1.41.43.81,169.96,287.31ZM900.35,574.92l-186.64,286.5-168.71-284.95,355.36-1.55Z"/>
          <path class="cls-1" d="M928.14,874.95l-.05-.61-26.42-301.44-.82,1.26-188.11,288.75.9.05,214.5,11.99ZM900.89,575.99l26.1,297.85-212.41-11.87,186.31-285.98Z"/>
          <path class="cls-1" d="M636.13,1051.3l293.14-177.33-1.67-.1-214.28-11.97-.14.35-77.05,189.06ZM925.86,874.81l-287.59,173.98,75.73-185.82,211.86,11.83Z"/>
          <path class="cls-1" d="M633.25,1051.83l164.44-51.6,133.58-128.69-298.02,180.29ZM797.07,999.41l-155.92,48.86,282.73-171.03-126.8,122.17Z"/>
          <path class="cls-1" d="M925.45,877.83l63.58-78.57,74.06-224.65-.96-.38-136.68,303.6ZM988.08,798.84l-58.39,72.11,129.32-287.25-70.93,215.14Z"/>
          <path class="cls-1" d="M552.21,1062.53l.07-.02,89.63-12.59-311.78-25.48-.12,1.03,222.21,37.06ZM632.51,1050.19l-80.29,11.29-209.83-34.99,290.11,23.71Z"/>
          <path class="cls-1" d="M637.47,1050.79l77.02-189-.9.14-326.47,48.02,1.32.74,249.03,140.1ZM712.84,863.09l-75.9,186.21-246.68-138.77,322.58-47.44Z"/>
          <path class="cls-1" d="M639.5,1050.76l-2.05-1.16-248.97-140.07-.24.47-58.98,115.42.79.07,309.46,25.28ZM388.9,910.95l246,138.39-303.98-24.84,57.98-113.55Z"/>
          <path class="cls-1" d="M330.22,1025.8l.32-.61,58.91-114.7-.62-.17-251.8-70.45,1.47,1.42,191.72,184.51ZM387.93,911.15l-57.98,112.96-189.25-182.12,247.23,69.16Z"/>
          <path class="cls-1" d="M927.23,876.41l136.18-302.48h-162.69l.05.56,26.46,301.92ZM1061.8,574.96l-133.89,297.4-26.07-297.4h159.96Z"/>
          <path class="cls-1" d="M972.89,314.88l-1.12-1.29-193.7-225.11-.34.7-74.37,150.98,269.53,74.72ZM778.32,90.35l191.56,222.62-265.03-73.47,73.47-149.15Z"/>
          <path class="cls-1" d="M900.6,574.96h162.73l-.24-.69-91.77-262.09-70.72,262.79ZM1061.87,573.93h-159.91l69.49-258.24,90.42,258.24Z"/>
          <path class="cls-1" d="M1062.12,574.61l.99-.3-53.82-220-.08-.1-39.14-42.47,92.05,262.88ZM1008.35,354.81l51.21,209.36-86.85-248.05,35.65,38.69Z"/>
          <path class="cls-1" d="M1010.76,357.43l-28.45-59.78-203.75-208.6-.77.7,193.19,224.51,39.77,43.16ZM981.51,298.32l25.37,53.38-35.11-38.11-182.45-212.04,192.19,196.77Z"/>
          <path class="cls-1" d="M901.46,575.77l.33-1.19,70.24-261.02-.5-.13-268.52-74.43.65,1.1,197.8,335.67ZM970.75,314.29l-69.66,258.82-195.89-332.43,265.55,73.61Z"/>
          <path class="cls-1" d="M387.82,910.89l.95-.14,325.69-47.9-.34-.65-170.13-287.46-.43.96-155.73,335.2ZM712.86,862.03l-323.3,47.55,154.5-332.51,168.8,284.96Z"/>
          <path class="cls-1" d="M389.91,911.11l-.79-1.16-220.22-329.77-.17,1.37-30.43,259.76.43.12,251.19,69.68ZM169.59,583.05l217.88,326.32-248.04-68.81,30.15-257.5Z"/>
          <path class="cls-1" d="M139.13,842.99l30.69-263.16-135.23,3.65-.18.71,104.72,258.8ZM168.66,580.87l-30.08,258.01-102.91-254.36,132.99-3.65Z"/>
          <path class="cls-1" d="M168.55,583.7l1.13-1.82,192.43-304.39-168.76,10.86-.04.45-24.76,294.91ZM360.17,278.66l-190.24,300.86,24.38-290.2,165.85-10.66Z"/>
          <path class="cls-1" d="M34.84,584.51l134.88-3.65,24.83-294.46L34.84,584.51ZM168.77,579.83l-133,3.65,157.35-292.22-24.35,288.56Z"/>
          <path class="cls-1" d="M34.41,584.19l.94.05,159.73-296.65-100.85,52.27-.07.23-59.76,244.1ZM192.58,290.07L36.37,580.16l58.75-239.6,97.46-50.5Z"/>
        </g>
        <g>
          <g>
            <g>
              <polygon class="cls-1" points="853.63 378.18 854.63 377.92 778.82 90.22 777.81 90.48 853.63 378.18"/>
              <polygon class="cls-1" points="853.82 378.46 854.44 377.64 447.12 64.71 446.49 65.54 853.82 378.46"/>
              <polygon class="cls-1" points="694.4 488.54 854.42 378.48 853.83 377.62 693.82 487.69 694.4 488.54"/>
              <polygon class="cls-1" points="693.82 488.54 694.4 487.69 486.25 343.74 485.66 344.6 693.82 488.54"/>
              <polygon class="cls-1" points="485.43 344.24 486.46 344.1 447.31 65.05 446.29 65.19 485.43 344.24"/>
              <polygon class="cls-1" points="486.29 344.56 778.65 90.74 777.97 89.96 485.61 343.78 486.29 344.56"/>
              <polygon class="cls-1" points="376.89 622.07 486.44 344.36 485.47 343.98 375.92 621.69 376.89 622.07"/>
              <polygon class="cls-1" points="376.61 622.36 694.31 488.59 693.91 487.63 376.21 621.41 376.61 622.36"/>
              <polygon class="cls-1" points="724.2 703.46 725.23 703.31 694.62 488.04 693.6 488.18 724.2 703.46"/>
              <rect class="cls-1" x="550.04" y="483.78" width="1.04" height="357.72" transform="translate(-218.45 1051.01) rotate(-77.07)"/>
              <polygon class="cls-1" points="1062.2 575 1062.91 574.23 854.48 377.68 853.77 378.44 1062.2 575"/>
              <rect class="cls-1" x="614.35" y="540.2" width="350.13" height="1.04" transform="translate(-4.8 1074.37) rotate(-68.31)"/>
              <rect class="cls-1" x="232.53" y="370.45" width="256.25" height="1.04" transform="translate(-69.62 83.64) rotate(-12.07)"/>
              <polygon class="cls-1" points="375.96 622.16 376.85 621.61 235.81 397.5 234.93 398.06 375.96 622.16"/>
              <polygon class="cls-1" points="235.8 398.06 447.24 65.4 446.36 64.84 234.93 397.49 235.8 398.06"/>
              <polygon class="cls-1" points="234.88 397.95 235.85 397.59 193.8 288.61 192.83 288.98 234.88 397.95"/>
              <polygon class="cls-1" points="35.55 584.86 235.72 398.15 235.01 397.39 34.84 584.1 35.55 584.86"/>
              <rect class="cls-1" x="205.28" y="431.56" width="1.04" height="343.25" transform="translate(-416.11 742.52) rotate(-83.79)"/>
              <polygon class="cls-1" points="367.11 795.54 376.92 621.91 375.89 621.85 366.08 795.48 367.11 795.54"/>
              <rect class="cls-1" x="136.15" y="817.18" width="232.58" height="1.03" transform="translate(-151.37 63.18) rotate(-11)"/>
              <polygon class="cls-1" points="366.32 795.95 366.87 795.07 35.47 584.04 34.91 584.92 366.32 795.95"/>
              <polygon class="cls-1" points="330.52 1024.52 367.11 795.6 366.08 795.42 329.48 1024.34 330.52 1024.52"/>
              <polygon class="cls-1" points="637.1 1051.14 637.81 1050.38 366.95 795.13 366.24 795.89 637.1 1051.14"/>
              <polygon class="cls-1" points="366.73 796.02 724.85 703.89 724.59 702.89 366.47 795.01 366.73 796.02"/>
              <rect class="cls-1" x="746.54" y="701" width="1.04" height="210.91" transform="translate(-153.11 175.46) rotate(-12.16)"/>
              <polygon class="cls-1" points="637.83 1051.11 769.79 909.87 769.03 909.16 637.07 1050.41 637.83 1051.11"/>
              <polygon class="cls-1" points="797.21 1000.2 798.2 999.88 769.91 909.37 768.91 909.67 797.21 1000.2"/>
              <polygon class="cls-1" points="769.53 910.02 927.29 874.32 927.06 873.32 769.29 909.02 769.53 910.02"/>
              <polygon class="cls-1" points="769.27 910.02 769.55 909.02 366.74 795.01 366.45 796.01 769.27 910.02"/>
              <polygon class="cls-1" points="769.8 909.86 939.5 711.74 938.72 711.07 769.02 909.18 769.8 909.86"/>
              <polygon class="cls-1" points="939.09 711.93 939.12 710.89 724.74 702.87 724.69 703.91 939.09 711.93"/>
              <rect class="cls-1" x="896.1" y="372.72" width="1.04" height="344.01" transform="translate(-106.22 236.57) rotate(-14.2)"/>
              <polygon class="cls-1" points="939.49 711.75 1062.94 574.96 1062.17 574.27 938.72 711.06 939.49 711.75"/>
              <polygon class="cls-1" points="988.34 799.45 989.26 798.98 939.57 711.17 938.65 711.64 988.34 799.45"/>
              <polygon class="cls-1" points="854.41 378.49 982.25 297.89 981.69 297.02 853.85 377.62 854.41 378.49"/>
              <polygon class="cls-1" points="639.04 212.56 639.96 212.07 552.21 45.73 551.29 46.21 639.04 212.56"/>
              <polygon class="cls-1" points="485.58 344.53 486.33 343.82 279.64 127.75 278.88 128.46 485.58 344.53"/>
            </g>
            <g>
              <path class="cls-1" d="M688.29,487.69c0,3.05,2.47,5.52,5.53,5.52s5.52-2.47,5.52-5.52-2.47-5.52-5.52-5.52-5.53,2.47-5.53,5.52Z"/>
              <path class="cls-1" d="M848.89,378.18c0,3.06,2.47,5.53,5.52,5.53s5.52-2.47,5.52-5.53-2.47-5.52-5.52-5.52-5.52,2.47-5.52,5.52Z"/>
              <path class="cls-1" d="M719.32,702.87c0,3.05,2.47,5.52,5.53,5.52s5.52-2.47,5.52-5.52-2.47-5.53-5.52-5.53-5.53,2.48-5.53,5.53Z"/>
              <path class="cls-1" d="M933.99,711.75c0,3.05,2.47,5.52,5.52,5.52s5.53-2.47,5.53-5.52-2.48-5.52-5.53-5.52-5.52,2.47-5.52,5.52Z"/>
              <path class="cls-1" d="M763.77,909.16c0,3.05,2.47,5.52,5.52,5.52s5.53-2.47,5.53-5.52-2.48-5.52-5.53-5.52-5.52,2.47-5.52,5.52Z"/>
              <path class="cls-1" d="M361.17,795.01c0,3.04,2.47,5.52,5.52,5.52s5.53-2.48,5.53-5.52-2.48-5.53-5.53-5.53-5.52,2.47-5.52,5.53Z"/>
              <path class="cls-1" d="M371.4,621.38c0,3.04,2.47,5.52,5.52,5.52s5.53-2.48,5.53-5.52-2.47-5.53-5.53-5.53-5.52,2.47-5.52,5.53Z"/>
              <path class="cls-1" d="M480.08,344.24c0,3.05,2.48,5.53,5.53,5.53s5.53-2.47,5.53-5.53-2.48-5.52-5.53-5.52-5.53,2.47-5.53,5.52Z"/>
              <path class="cls-1" d="M230.33,397.95c0,3.06,2.47,5.53,5.52,5.53s5.52-2.47,5.52-5.53-2.47-5.52-5.52-5.52-5.52,2.47-5.52,5.52Z"/>
              <path class="cls-1" d="M632.13,212.56c0,3.05,2.47,5.52,5.52,5.52s5.53-2.47,5.53-5.52-2.48-5.52-5.53-5.52-5.52,2.47-5.52,5.52Z"/>
            </g>
          </g>
          <g>
            <path class="cls-1" d="M29.44,584.25c0,3.77,3.06,6.84,6.83,6.84s6.84-3.07,6.84-6.84-3.06-6.85-6.84-6.85-6.83,3.07-6.83,6.85Z"/>
            <path class="cls-1" d="M161.43,579.83c0,4.63,3.76,8.39,8.39,8.39s8.39-3.76,8.39-8.39-3.76-8.39-8.39-8.39-8.39,3.76-8.39,8.39Z"/>
            <path class="cls-1" d="M381.52,911.29c0,4.63,3.76,8.39,8.39,8.39s8.39-3.76,8.39-8.39-3.76-8.39-8.39-8.39-8.39,3.76-8.39,8.39Z"/>
            <path class="cls-1" d="M129.9,838.72c0,4.64,3.76,8.39,8.39,8.39s8.39-3.75,8.39-8.39-3.76-8.39-8.39-8.39-8.39,3.76-8.39,8.39Z"/>
            <path class="cls-1" d="M323.88,1025.8c0,3.38,2.74,6.11,6.12,6.11s6.12-2.73,6.12-6.11-2.74-6.12-6.12-6.12-6.12,2.75-6.12,6.12Z"/>
            <path class="cls-1" d="M548.68,1062.53c0,2.57,2.09,4.65,4.65,4.65s4.65-2.08,4.65-4.65-2.08-4.65-4.65-4.65-4.65,2.08-4.65,4.65Z"/>
            <path class="cls-1" d="M630.29,1050.76c0,4.63,3.76,8.39,8.39,8.39s8.39-3.76,8.39-8.39-3.76-8.39-8.39-8.39-8.39,3.76-8.39,8.39Z"/>
            <path class="cls-1" d="M794.04,1000.37c0,2.94,2.38,5.32,5.32,5.32s5.33-2.38,5.33-5.32-2.38-5.32-5.33-5.32-5.32,2.38-5.32,5.32Z"/>
            <path class="cls-1" d="M706.1,863.46c0,4.63,3.75,8.39,8.39,8.39s8.39-3.75,8.39-8.39-3.76-8.39-8.39-8.39-8.39,3.76-8.39,8.39Z"/>
            <path class="cls-1" d="M920.15,874.95c0,4.63,3.76,8.39,8.39,8.39s8.39-3.76,8.39-8.39-3.75-8.4-8.39-8.4-8.39,3.77-8.39,8.4Z"/>
            <path class="cls-1" d="M982.19,800.59c0,2.81,2.28,5.08,5.08,5.08s5.08-2.27,5.08-5.08-2.28-5.07-5.08-5.07-5.08,2.27-5.08,5.07Z"/>
            <path class="cls-1" d="M534.91,574.96c0,4.63,3.76,8.39,8.39,8.39s8.39-3.75,8.39-8.39-3.76-8.39-8.39-8.39-8.39,3.76-8.39,8.39Z"/>
            <path class="cls-1" d="M892.21,575.98c0,4.63,3.76,8.39,8.4,8.39s8.38-3.76,8.38-8.39-3.76-8.39-8.38-8.39-8.4,3.76-8.4,8.39Z"/>
            <path class="cls-1" d="M1056.91,574.23c0,2.78,2.25,5.02,5.02,5.02s5.02-2.25,5.02-5.02-2.25-5.02-5.02-5.02-5.02,2.25-5.02,5.02Z"/>
            <path class="cls-1" d="M962.13,314.88c0,4.63,3.76,8.39,8.39,8.39s8.39-3.76,8.39-8.39-3.76-8.39-8.39-8.39-8.39,3.76-8.39,8.39Z"/>
            <path class="cls-1" d="M694.97,240.6c0,4.63,3.76,8.39,8.39,8.39s8.39-3.76,8.39-8.39-3.75-8.39-8.39-8.39-8.39,3.76-8.39,8.39Z"/>
            <path class="cls-1" d="M769.41,90.56c0,4.63,3.76,8.39,8.39,8.39s8.4-3.76,8.4-8.39-3.76-8.39-8.4-8.39-8.39,3.75-8.39,8.39Z"/>
            <path class="cls-1" d="M544.48,44.79c0,3.39,2.75,6.14,6.14,6.14s6.15-2.75,6.15-6.14-2.75-6.15-6.15-6.15-6.14,2.75-6.14,6.15Z"/>
            <path class="cls-1" d="M438.41,67.19c0,4.63,3.76,8.39,8.39,8.39s8.39-3.76,8.39-8.39-3.75-8.39-8.39-8.39-8.39,3.76-8.39,8.39Z"/>
            <path class="cls-1" d="M353.15,277.13c0,4.64,3.76,8.39,8.39,8.39s8.39-3.76,8.39-8.39-3.75-8.39-8.39-8.39-8.39,3.76-8.39,8.39Z"/>
            <path class="cls-1" d="M273.75,126.2c0,3.96,3.22,7.17,7.17,7.17s7.17-3.21,7.17-7.17-3.21-7.17-7.17-7.17-7.17,3.21-7.17,7.17Z"/>
            <path class="cls-1" d="M186.16,289.45c0,4.63,3.75,8.39,8.39,8.39s8.39-3.76,8.39-8.39-3.76-8.39-8.39-8.39-8.39,3.76-8.39,8.39Z"/>
            <path class="cls-1" d="M132.01,268.74c0,3.26,2.65,5.91,5.91,5.91s5.91-2.65,5.91-5.91-2.65-5.91-5.91-5.91-5.91,2.65-5.91,5.91Z"/>
            <path class="cls-1" d="M84.86,340c0,4.63,3.76,8.39,8.39,8.39s8.39-3.75,8.39-8.39-3.76-8.39-8.39-8.39-8.39,3.76-8.39,8.39Z"/>
            <path class="cls-1" d="M976.22,296.04c0,3.18,2.58,5.76,5.75,5.76s5.75-2.58,5.75-5.76-2.58-5.75-5.75-5.75-5.75,2.58-5.75,5.75Z"/>
            <path class="cls-1" d="M1005.68,355.53c0,2.8,2.28,5.07,5.08,5.07s5.08-2.27,5.08-5.07-2.27-5.08-5.08-5.08-5.08,2.27-5.08,5.08Z"/>
          </g>
        </g>
      </g>
    </g>
  </g>
</svg>