<?xml version="1.0" encoding="UTF-8"?>
<svg xmlns="http://www.w3.org/2000/svg" viewBox="0 0 428.5 425.14">
  <defs>
    <style>
      .cls-1, .cls-2 {
        fill: #fff;
      }

      .cls-3 {
        isolation: isolate;
      }

      .cls-2 {
        mix-blend-mode: multiply;
        opacity: .52;
      }
    </style>
  </defs>
  <g class="cls-3">
    <g id="Capa_1" data-name="Capa 1">
      <g>
        <g>
          <path class="cls-1" d="M280.57,253.74c-1.27-.68-2.75-.87-4.19-.79-1.44.08-2.9.42-4.12,1.2-.29.18-.59.45-.88.77-.76.84-1.4,1.96-1.6,3.08-.13.73,0,1.55.52,2.09.47.49,1.18.68,1.86.77,2.55.33,5.45-.35,7.31-2.22,1.15-1.16,3.31-3.7,1.1-4.89Z"/>
          <path class="cls-1" d="M235.88,165.53c-2.31-1.36-5.14-1.94-7.74-2.48-2.54-.53-5.12-.95-7.7-1.25-3.13-.37-6.4-.34-9.17,1.33-1.64.99-2.97,2.43-4.27,3.82-.4.43-.8.86-1.2,1.28-.32.34-.88.71-.92,1.19-.02.22.03.56.27.64.09.03.18,0,.26-.03-.06.21-.05.41.15.57,2.93,2.45,7.06.78,10.08-.6,1.64-.75,3.24-1.65,4.95-2.25,2.13-.75,4.56-.85,6.79-.66,2.8.23,5.56,1.07,7.97,2.53.24.15.58.08.8-.08.68-.53,1.43-1.31,1.26-2.25-.14-.8-.88-1.36-1.54-1.75Z"/>
          <path class="cls-1" d="M250.76,170.56c-.16-.05-.34-.06-.5-.08-.03-.34-.07-.67-.14-.99-.05-.23-.3-.26-.49-.24-1.15.12-2.27.23-3.17,1.02-.12.1-.17.4.04.43.21.03.4.04.61.01.26-.04.48-.1.74-.04.16.03.4-.25.19-.3-.11-.03-.23-.04-.35-.06.46-.1.93-.12,1.41-.11,0,.11.02.22.02.33-.49.09-.98.24-1.43.4-.97.33-1.89.77-2.8,1.23-.25.12-.75.6-.45.92,1.34,1.42,3.27,1.77,5.13,1.38.33-.07.61-.34.66-.68.1-.71.12-1.42.1-2.13,0-.08,0-.17-.01-.25.06-.02.12-.03.18-.05.19-.06.39-.18.46-.39.05-.17,0-.35-.19-.4Z"/>
          <path class="cls-1" d="M298.18,90.51c-1.55-.37-3.15-.44-4.68-.88-2.14-.6-4.13-1.67-6.27-2.27-1.07.57-2.04,1.42-2.76,2.29-.38.46-.71.99-.96,1.55-.12.53-.16,1.06-.07,1.58.03.18.23.15.36.1-.04.62-.06,1.26-.07,1.9.16.19.35.35.63.54.57.39,1.17.74,1.77,1.08,1.46.81,2.96,1.53,4.49,2.19.18.08.39.17.6.26.46-.45.91-.92,1.38-1.33,1.6-1.39,3.8-1.31,5.62-2.27.97-.52,2.77-1.76,2.49-3.11-.22-1.06-1.64-1.41-2.53-1.62Z"/>
          <path class="cls-1" d="M95.1,36.27c-1.99,1.31-3.94,2.72-5.81,4.23-1.36.98-2.69,2.01-3.96,3.14-.87.77-1.7,1.52-2.65,2.19-.93.65-1.89,1.25-2.82,1.9-1.78,1.24-3.52,2.69-4.33,4.77,0,0,0,.01,0,.02,9.72-8.53,20.21-16.18,31.38-22.83-4.08,1.93-8.04,4.11-11.8,6.59Z"/>
          <g>
            <path class="cls-1" d="M425.74,241.4c.15-.89.3-1.77.45-2.66,1.09-8.71,1.65-17.58,1.65-26.59,0-10.75-.81-21.3-2.35-31.62-.27-1.5-.53-3-.73-4.51-4.71-27.5-14.72-53.19-28.93-76-.37-.53-.74-1.06-1.11-1.59-1.29-2.09-2.62-4.15-3.97-6.19-19.65-28.67-46.15-52.26-77.14-68.44,1.38,1.53,2.76,3.07,3.97,4.74,2.41,3.35,3.4,7.22,4.24,11.19.74,3.5,1.42,7.31,4.01,9.97,2.6,2.67,5.96,4.37,8.93,6.57,1.36,1.01,2.65,2.1,3.67,3.45.75,1,1.14,2.18,1.86,3.18.39.54.94.92,1.51,1.25.74.43,1.43.96,2.22,1.3,1.56.66,3.28.81,4.82,1.54,2.55,1.21,4.28,4.23,5.36,6.72,1.26,2.9,1.99,5.99,2.52,9.09.96,5.63,1.11,11.35,1.84,17,1.18,2.39,2.27,4.83,3.33,7.27,3.84,3,6.95,6.88,11.03,9.58,3.19,2.12,6.91,3.12,10.45,4.52.06-.05.13-.1.21-.14,1.51-.6,3.05-1.13,4.45-1.95.3-.17.72-.08.89.23,1.8,3.33,2.98,6.95,3.84,10.63.45,1.89.81,3.8,1.14,5.72.33,1.89.53,3.82.96,5.69.21.95.65,1.96.55,2.95-.11,1.05-.76,2.05-1.46,2.8-.59.63-1.31,1.01-2.01,1.5-.81.56-1.12,1.47-1.35,2.4-.75,3.07-.94,6.34-1,9.49-.06,3.23,1.99,6.09,1.81,9.35-.13,2.44-1.51,4.91-3.09,6.71-.27.31-.57.59-.87.88-.03.14-.06.27-.09.41-.65,2.42-2.3,3.98-4.45,5.17-1.49.82-3,1.61-4.25,2.7-.66.92-1.34,1.82-2.01,2.72-.04.06-.09.12-.13.17-.97,2.02-1.52,4.29-2.01,6.44-.43,1.88-.78,3.79-1.07,5.7.43,3.43.59,6.88.72,10.33,1.22,1.19,2.54,2.28,3.09,4,.99,3.11,0,6.72-.61,9.81-.33,1.63-.62,3.28-.62,4.95,0,1.59.37,3,.89,4.48.96,2.74,1.91,5.48,2.94,8.2.33.88.68,1.75,1.03,2.62,1.68,2.08,3.57,4.04,5.7,5.66,2.54-1.89,3.87-5.67,4.94-8.36.27-.67,1.06-2.91,2.1-4.83.11-.71.43-1.42.74-2,.86-1.59,2.05-3.05,3.32-4.33.19-.2.55-.26.79-.1,2.24,1.52,4.16,3.51,5.72,5.72,1.33,1.88,2.95,4.54,2.59,6.94-.36,2.41-2.32,4.78-1.93,7.28.18,1.14.86,2.09,1.45,3.05.59.97,1.06,2,1.28,3.12.43,2.12-.1,4.32-.73,6.34-.75,2.4-1.74,4.72-2.43,7.14-.78,2.77-1.23,5.65-1.88,8.46-.7,3.03-1.43,6.05-2.13,9.08-.56,2.42-1.08,4.86-1.57,7.3.09,3.84.17,7.48-.75,11.29-.85,3.53-2.24,6.93-3.87,10.17-3.45,6.85-7.91,13.12-11.57,19.85-1.7,3.14-3.23,6.37-4.4,9.74-.1.28-.03.54.2.72.15.12.3.23.45.33,22.57-27.18,38.48-60.08,45.26-96.2.49-3.38.98-6.75,1.55-10.12Z"/>
            <path class="cls-1" d="M75.72,53.19c2.67,1.28,5.52,1.72,8.45,1.17,2.89-.55,5.56-1.94,8.03-3.49,1.27-.8,2.47-1.72,3.78-2.45,1.2-.66,2.46-1.2,3.75-1.66,2.67-.94,5.49-1.46,8.29-1.85.25-.04.51-.06.76-.09.18.11.35.22.51.35.11.09.2.17.3.26.29.48.56.97.81,1.47,0,.02,0,.04.01.06.05.95.2,1.83.57,2.73.31.76.72,1.47,1.18,2.15.02.55-.09,1.05-.35,1.64-.3.69-.64,1.34-.66,2.1-.03.92.23,1.81.44,2.69.21.86.44,1.8.12,2.67-.26.73-.92,1.27-1.51,1.75-1.29,1.04-2.56,1.97-3.68,3.21-1.36,1.51-2.58,3.14-3.74,4.82-2.41,3.5-4.67,7.09-7.3,10.43-1.28,1.63-2.62,3.23-4.05,4.74-1.33,1.41-2.72,2.76-3.92,4.29-1.08,1.38-1.9,2.85-2.27,4.58-.37,1.72-.35,3.49-.2,5.23.31,3.7,1.08,7.31,1.13,11.04.07,4.31-.39,8.62-1.24,12.84-.42,2.1-.95,4.18-1.53,6.24-.52,1.86-1.06,3.84-.67,5.78.36,1.82,1.5,3.56,2.44,5.14,1.04,1.75,2.13,3.48,2.9,5.37,1.55,3.85,3.59,7.51,4.86,11.46.57,1.75.82,3.51,1.07,5.33.23,1.65.51,3.37,1.39,4.81.9,1.47,2.3,2.61,3.6,3.71,1.5,1.28,2.87,2.63,4.09,4.19,1.26,1.61,2.37,3.32,3.52,5.01.46.68.92,1.43,1.43,2.14,1.37.46,2.75.89,4.19,1.03-.15-1.36-.39-2.74-.96-3.98-.52-1.11-1.31-2.03-2.16-2.89-2.05-2.08-4.52-3.94-6.01-6.5-.68-1.17-1.13-2.45-1.56-3.72-.62-1.83-1.56-3.5-2.42-5.21-.8-1.61-1.37-3.19-1.68-4.97-.35-1.94-.59-3.89-.8-5.85-.42-3.98-.66-7.99-1.04-11.97-.05-.58.74-.83,1.11-.46,2.08,2.09,3.99,4.35,5.54,6.87,1.34,2.19,2.39,4.55,3.27,6.96.9,2.46,2.22,4.68,3.74,6.8,2,2.79,4.23,5.44,6.02,8.35,2.19,1.43,4.69,2.62,5.28,5.22.06.26.1.53.14.8,2.01,1.88,3.97,3.81,5.94,5.74.47.2.92.43,1.35.71,1.64,1.07,3.04,2.69,4.39,4.09,1.25,1.29,2.42,2.65,3.36,4.18.94,1.52,1.44,3.25,2.36,4.77,1.42,2.35,3.61,3.82,6.19,4.63,1.58.5,3.22.8,4.85,1.11,2.13.4,4.2.93,6.26,1.6,2.91.94,5.77,1.99,8.72,2.63.05.03.1.05.16.09,2.46,1.51,4.72,3.3,6.91,5.17,2.28.02,4.56.25,6.83.42,1.44-.6,2.86-1.24,4.36-1.71.68-.21,1.37-.39,2.07-.5.47-.07,1.08-.27,1.5,0,.45.3.83,1.08,1.16,1.52.28.38.57.77.83,1.17,1,1.58.9,3.33.38,5.08-.26.88-.72,1.63-1.18,2.41-.47.8-.52,1.57-.12,2.43.47,1.01,1.5,1.78,2.34,2.46.77.63,1.56,1.23,2.3,1.9.6-.37,1.27-.61,1.8-1.08.26-.23.66-.26.92,0,1.33,1.34,2.56,2.76,3.87,4.12-.6,1.07-1.14,2.17-1.69,3.26-1.13,2.24-2.33,4.6-4.19,6.34-.11.05-.21.1-.32.14-2.57-1.48-5.1-2.88-8.15-1.8-.29.1-.54.41-.57.72-.46,4.38-1.21,9.05-3.64,12.83-2.17,3.38-5.99,5.21-9.18,7.46-2.79,1.96-6.27,4.57-6.87,8.17-.26,1.57-.04,3.23.2,4.78.31,1.94.77,3.86,1.25,5.76.44,1.71.92,3.41,1.35,5.13.17.68.28,1.39.53,2.04.33.84.78,1.64,1.25,2.41.5.84,1.04,1.66,1.48,2.53.3.58.55,1.18.39,1.83-.35,1.41-1.81,2.48-2.81,3.43-1.19,1.12-2.42,2.33-2.99,3.9-.62,1.73-.08,3.48.64,5.08.88,1.97,2.03,3.8,3.02,5.71,1.2,2.3,2.11,4.79,3.15,7.17,1.2,2.72,2.4,5.44,3.54,8.18.46,1.09.91,2.18,1.26,3.31.3.96.56,1.93.92,2.87.68,1.75,1.77,3.35,3.72,3.74,2.04.41,4.2-.11,6.21-.45.82-.14,1.65-.25,2.48-.26,1.24,5.04,4.58,9.29,6.76,13.93,1.16,2.46,2.2,4.93,3.61,7.27.32.53.65,1.06,1,1.58.6,1.51,1.21,3.01,1.9,4.48,1.07,2.27,2.55,4.31,4.33,6.08,3.38,3.37,7.58,5.75,11.31,8.7,2.33,1.85,4.53,3.86,6.91,5.65,2.49,1.88,5.07,3.63,7.72,5.26,2.48,1.52,5.02,3.04,7.75,4.08,2.22.85,4.8,1.62,6.43,3.47.35.39.35.75.45,1.26.17.86.55,1.66.94,2.43.97,1.89,2.15,3.68,3.39,5.4,2.71,3.74,5.85,7.48,9.62,10.19,1.18.85,2.38,1.5,3.79,1.85.74.19,1.49.34,2.25.49.19-1.16.28-2.33.21-3.51-.08-1.47-.37-2.91-.72-4.34-.27-1.08-1.19-1.87-1.78-2.79-.52-.81-.75-1.76-.46-2.7.27-.88,1.23-1.72,1.28-2.64.06-1.17-.68-2.59-1.17-3.61-.6-1.26-1.27-2.49-1.83-3.78-1.02-2.37-1.23-4.81-.61-7.32,1.24-5.01,4.93-8.87,6.94-13.53.08-2.44.37-4.87.49-7.32.08-1.61-.05-3.2-.05-4.81,0-.8.21-1.41.74-2.01.67-.76,1.5-1.33,1.81-2.33.32-1.05.37-2.16.74-3.2.73-2.08,2.38-3.61,4.37-4.49.98-.44,2-.8,2.97-1.29.83-.42,1.54-.82,1.74-1.77.41-1.97-.15-4.01.11-5.99.38-2.86,2.11-5.57,1.63-8.52-.22-1.33-.66-2.61-.78-3.96-.11-1.21.13-2.16.83-3.15,1.34-1.9,1.94-4.23,2.39-6.5.32-3.93,1.35-7.91,2.53-11.65.53-1.68,1.09-3.46,2.04-4.97.05-.08.1-.14.14-.2.84-2.3,1.89-4.54,3.24-6.55-.32-1.01-.78-2-.99-2.97-.2-.91-.25-1.94.11-2.82.25-.6.69-1.07,1.17-1.49.29-.47.69-.87,1.16-1.25,2.57-2.1,4.25-4.63,5.71-7.57.18-.36.33-.72.51-1.08.39-2.14.93-4.26,1.48-6.38-.38-.78-.76-1.55-1.22-2.27-1.35-.54-2.63-1.23-3.91-1.95-1.04-.58-2.1-1.2-3.24-1.54-1.23-.36-2.52-.35-3.77-.14-.57.1-.92.26-1.35-.21-.27-.3-.46-.66-.62-1.02-.36-.83-.48-1.84-1.06-2.56-1.04-1.29-3.17-1.07-4.89-.78-.02.02-.04.03-.05.05-.33.48-.52,1.06-.94,1.47-.16.16-.36.28-.5.45-.18.22-.27.49-.37.75-1.68,4.17-9.29,6.14-12.23,2.29-3.45-4.51,1.66-7.52,4.5-10.07,1.13-1.01,2.14-2.91,2.94-4.22-.03-.35-.08-.69-.17-1.03-.53-1.97-1.97-2.9-3.72-3.68-1.87-.83-3.93-1.43-5.57-2.68-1.78-1.36-3.06-3.24-4.37-5.02-1.42-1.92-3.07-3.59-5.44-4.26-2.6-.73-5.38-.32-8.04-.38-.99-.02-1.97-.1-2.91-.29-.48.8-.98,1.59-1.58,2.31-.18.21-.57.25-.79.1-1.16-.76-2.38-1.41-3.51-2.22-.52-.38-1.12-.72-1.18-1.42-.04-.38.05-.76.18-1.11.05-.13.1-.35.19-.49l-.02-.05c-.44-.65-.72-1.51-1.06-2.21-.41-.84-.83-1.68-1.23-2.52-.13-.28-.27-.57-.4-.85-.96-1.05-2.01-2.03-3.02-3.04-.44-.45-.9-.88-1.35-1.32-.44-.18-.88-.36-1.32-.54-2.01-.79-6.13-2.31-7.81-.49-.45.48-.85.94-1.15,1.53-.2.39-.34.8-.58,1.16-.57.87-1.48,1.14-2.47,1.27-.28.04-.55-.23-.63-.48-.19-.62-.26-1.25-.28-1.87-.68-.5-1.32-1.07-2-1.56-.95.07-1.88.21-2.81.38-1.81,1.14-3.47,2.61-4.93,4.36-.9,1.07-1.73,3.29-3.26,3.28-2.45-.03-4.87-.93-6.88-2.31-.14-.28-.26-.56-.38-.85-1.57-.47-3.12-1-4.64-1.55-.33-.12-.55-.44-.45-.8.5-1.82,1.11-3.6,1.6-5.43.42-1.57.98-3.46.64-5.1-.25-1.18-1.53-1.95-2.51-2.49-1.32-.73-2.73-1.25-4.12-1.81-2.38-.97-5.28-2.14-6.12-4.81-1.03-3.26.21-6.77,2-9.52,1.68-2.58,4-4.96,6.73-6.45-.12-1.14-.1-2.3-.03-3.45,0-.17.03-.33.05-.5-.19-.24-.39-.46-.63-.65-.54.02-1.07.05-1.61.08-1.29,1.04-2.55,2.11-3.88,3.08-2.39,1.75-5.09,3.11-8.07,2.81-.08.11-.2.18-.34.22-1,2.94-1.71,6.03-1.74,9.14,0,.43-.41.73-.82.63-2.32-.6-4.77-.5-7.15-.63-1.12-.06-2.26-.16-3.36-.41-.81-.18-1.52-.61-2.19-1.09-3.07-2.16-5.44-5.27-7.77-8.16-2.02-2.51-4.54-4.87-4.58-8.31-.02-1.78.24-3.58.39-5.35.16-1.95.32-3.89.53-5.84-.07-1.01-.23-2.02-.42-3.02-.44-2.39-1.08-4.99-.48-7.41.52-2.08,1.82-3.97,2.92-5.78,1.22-1.99,2.38-4.01,2.84-6.32.06-.32.49-.58.8-.46,1.88.72,4.01.66,5.99.67,2.02.01,4.04-.03,6.05.23,1.65.21,3.37.63,4.65,1.76,1.31,1.17,1.74,2.78,1.88,4.46.06.7.07,1.46.4,2.1.46.88,1.46,1.21,2.35,1.43.33.08.56.47.45.8-.51,1.54-1.01,3.09-1.33,4.68,1.56.81,2.82,2.03,4.22,3.09.67-1.29,1.57-2.41,2.5-3.51.1-1.21.16-2.43.16-3.64-.04-.3-.09-.6-.13-.88-.26-1.72-.6-3.39-.68-5.06-.63-1.43-1.46-2.88-1.66-4.4.08-.21.17-.41.27-.62,1.68-1.9,3.22-3.92,4.8-5.91.9-.84,1.85-1.62,2.81-2.38,1.93-.13,3.88-.33,5.73-.91,1.26-.39,2.37-1,3.42-1.71.7-.1,1.4-.24,2.08-.43.45-.12.89-.29,1.34-.44,1.26,0,2.52.13,3.78.09.3,0,.6-.03.89-.07.49-3.06,4.05-4.98,6.36-6.58,1.29-.9,3.06-1.99,3.51-3.6.6-2.14-.4-4.52-.43-6.69,0-.35.3-.66.65-.65,4.02.11,8-.43,11.85-1.55,1.74-.51,3.46-1.12,5.13-1.83,1.51-.64,3.03-1.26,4.29-2.33,1.08-.91,2.12-1.77,3.54-2.1,1.54-.35,3.05.13,4.53.5,2.78.68,5.82,1.17,8.68.84,2.83-.33,5.32-1.71,7.6-3.35-.12-.42-.25-.83-.51-1.17-.39-.52-1.02-.77-1.65-.93-.67-.17-.56-1.04,0-1.26.9-.34,1.79-.72,2.7-1.04.56-.2,1.14-.36,1.74-.39,1.41-.07,2.81.72,4.05,1.28.08.04.15.1.2.17.24-.02.49-.05.76-.11.48-.09,1-.21,1.53-.35.48-.74,1.08-1.43,1.65-2.05.26-.29.54-.56.82-.84-1.05-.6-2.14-1.13-3.2-1.71-.38.04-.77.05-1.19,0-1.9-.22-3.76-1.02-5.69-.62-.33.07-.73-.1-.8-.45-.32-1.57-.49-3.24.07-4.78.48-1.32,1.39-2.35,2.39-3.31,1.65-1.59,3.53-3.5,5.78-4.16.48-.14,1-.44,1.51-.39.38.03.64.26.95.45.64.39,1.35.65,2,1.04.56.34,1.09.73,1.61,1.12,1.04.76,2.14,1.65,3.44,1.88,1.38.25,2.69-.43,3.71-1.31.75-.65,1.4-1.42,2-2.22-.27-.59-.53-1.17-.79-1.76-.53-1.18-1.12-2.35-2.08-3.24-1.05-.98-2.25-1.38-3.65-1.55-1.28-.16-2.63-.24-3.82-.79-1.11-.51-1.79-1.58-1.99-2.77-.23-1.35.14-2.7-.02-4.04-.08-.64-.36-1.21-.74-1.74.36-1.14.54-2.36.25-3.54-.31-1.21-1.09-2.17-2-2.99-.89-.81-1.95-1.46-2.75-2.36-.8-.91-.8-2.23-1.51-3.19-.67-.9-2-.82-3-.79-1.13.03-2.22.02-3.36-.05-2.9-.18-6.49-.07-8.95-1.85-.45-.33-1.02.15-1.21.54-.83,1.74-1.79,3.6-3.38,4.76-1.7,1.25-3.8,1.17-5.79.82-1.23-.77-2.33-1.85-2.83-3.22-.46-1.24-.78-2.54-2.04-3.21-1.11-.59-2.41-.33-3.61-.54-1.22-.22-2.18-1.01-3.19-1.69-1.58-1.06-3.73-2.27-5.14-.38-1.07,1.45-2.1,2.94-3.08,4.45-.46.72-.59,1.44-.42,2.29.24,1.22,1.25,2.57,1.03,3.84-.16.9-1.53,1.36-2.25,1.71-1.12.54-2.29.99-3.39,1.58-.99.53-2.07,1.27-2.74,2.2-.49.67-.42,1.26-.07,1.97.98,1.99,1.25,4.07.97,6.28-.12.92-.33,1.98-.92,2.72-.54.68-1.32.63-2.06.39.41-2.9-3.31-4.08-5.25-5.49-.51-.37-.99-.8-1.19-1.42-.15-.44-.18-.91-.16-1.38.23-.39.46-.78.67-1.18.77-1.41,1.66-2.97,1.91-4.59.19-1.25-.73-2.29-1.53-3.14-.82-.86-1.73-1.62-2.69-2.33-1.83.23-3.53.13-5.18-.9-1.66-1.05-3.4-2.52-4.16-4.38-1.14-2.79.77-5.31,2.79-7.08,2.35-2.07,5.16-3.5,7.46-5.63,1.14-1.05,2.24-2.15,3.46-3.11.93-.74,2.09-1.64,3.34-1.68,1.21-.03,2.27.93,3.01,1.79.99,1.16,1.76,2.49,2.6,3.76.82,1.24,1.69,2.49,3.16,2.99,1.92.65,4.01,0,5.94-.28,2.26-.33,4.48-.39,6.76-.35,2.21.04,4.58.18,6.71-.54,1.22-.41,2.83-.91,3.64-1.99.48-.64.33-1.37.04-2.06-.43-1-1.09-1.91-1.66-2.83-.49-.78-.9-1.6-1.28-2.44-.44-.15-.88-.3-1.32-.45-2.03.52-4.21,1.24-6.11.24-1.72-.9-2.5-2.89-4.6-3.15-.56-.07-.98-.9-.33-1.21,2.81-1.35,5.06-3.52,7.52-5.39,1.13-.85,2.31-1.62,3.62-2.16,1.43-.59,3-.83,4.54-.96,3.09-.27,6.2.08,9.26.52,3.31.48,6.56-.32,9.87-.45,4.8-.19,8.05,4.52,11.71,6.86,2.09,1.34,4.56,2.05,7.01,1.31,2.12-.65,3.82-2.22,5.8-3.17,1.06-.51,2.12-.88,3.31-.88,1.2,0,2.38.34,3.52.71,2.28.74,4.47,1.52,6.67.33-.11-1.45.02-3.31-1.13-4.25-.99-.81-2.42-.9-3.58-1.36-1.07-.43-2.21-1.21-2.66-2.33-.22-.54-.12-1.07.08-1.59C268.44,4.89,242.57-.18,215.51-.18c-12.97,0-25.67,1.17-38,3.4.42.83,1.52,1.43,2.26,1.73.19.08.38.15.57.22-3.44,1.96-7.08,3.06-11.02,3.31-3.85.24-7.75-.02-11.55.79-3.99.85-7.8,2.37-11.6,3.84-1.81.7-3.62,1.4-5.47,2-1.87.61-3.76,1.13-5.59,1.84-3.64,1.4-7.09,3.22-10.57,4.98-3.41,1.73-6.86,3.25-10.43,4.62-2.45.94-4.85,2.01-7.22,3.13-11.16,6.66-21.66,14.31-31.38,22.83-.08.22-.04.57.19.68Z"/>
          </g>
        </g>
        <path class="cls-2" d="M422.41,161.55c-.1-.41-.2-.83-.3-1.24-4.33-17.25-10.77-33.67-19.02-48.98-.22-.41-.44-.82-.67-1.23-8.79-16.04-19.59-30.82-32.04-44.02-.39-.41-.77-.82-1.16-1.23-15.22-15.88-32.87-29.41-52.34-39.99-.66-.36-1.34-.71-2.01-1.06-24.45-12.95-51.7-21.27-80.59-23.8-4.77-.54-9.6-.83-14.48-.83v.04c-.47-.01-.95-.04-1.42-.04v.04c-.3,0-.59,0-.89-.01-.18,0-.35-.02-.53-.02v.02c-.48,0-.95-.02-1.42-.02s-.95.01-1.42.02v-.02c-.18,0-.35.02-.53.02-.3,0-.59,0-.89.01v-.04c-.48,0-.95.02-1.42.04v-.04c-4.88,0-9.71.29-14.48.83-28.89,2.53-56.14,10.85-80.59,23.8-.67.35-1.34.7-2.01,1.06-19.48,10.58-37.12,24.12-52.35,39.99-.39.41-.78.82-1.16,1.23-12.46,13.2-23.25,27.99-32.04,44.02-.23.42-.46.84-.68,1.26-8.25,15.29-14.68,31.71-19.01,48.95-.1.41-.2.83-.3,1.24-3.97,16.23-6.09,33.17-6.09,50.6,0,1.28.03,2.56.05,3.84,0,.43,0,.87.02,1.3.45,18.69,3.31,36.78,8.29,53.99.12.41.25.83.37,1.24,5.09,17.18,12.28,33.45,21.29,48.53.24.41.48.82.72,1.22,9.73,16.05,21.53,30.71,35.01,43.63.43.41.86.82,1.3,1.22,17.34,16.34,37.41,29.81,59.45,39.64.81.36,1.62.72,2.44,1.07,20.34,8.77,42.3,14.45,65.31,16.47,4.77.54,9.6.83,14.48.83v-.03c.47.01.95.03,1.42.03v-.04c.3,0,.59,0,.89.01.18,0,.35.02.53.02v-.02c.48,0,.95.02,1.42.02s.95-.01,1.42-.02v.02c.18,0,.35-.02.53-.02.3,0,.59,0,.89-.01v.04c.48,0,.95-.02,1.42-.03v.03c4.88,0,9.71-.29,14.48-.83,23.01-2.02,44.97-7.7,65.31-16.47.81-.35,1.63-.71,2.44-1.07,22.04-9.83,42.11-23.3,59.45-39.64.43-.41.87-.81,1.3-1.22,13.48-12.92,25.28-27.58,35.01-43.63.25-.42.49-.84.74-1.25,9-15.07,16.19-31.33,21.27-48.5.12-.41.25-.82.37-1.24,4.98-17.21,7.85-35.3,8.29-53.99.01-.43,0-.87.02-1.3.02-1.28.05-2.56.05-3.84,0-17.43-2.12-34.38-6.09-50.6ZM420.83,160.57c-6.62,1.28-18.67,2.84-40.63,4.35-2.96-16.88-7.48-32.99-13.34-48.1.01,0,.03,0,.05,0,11.59-1.32,24.06-3.05,34.85-5.21,8.29,15.29,14.74,31.71,19.07,48.96ZM382.95,215.99h-54.73c.01-1.28.03-2.56.03-3.84,0-14.82-.79-29.29-2.28-43.26,14.71-.51,28.44-1.12,40.9-1.83,4.38-.25,8.45-.5,12.25-.76,2.52,14.77,3.87,30.11,3.87,45.85,0,1.28-.02,2.56-.04,3.84ZM48.04,212.15c0-15.74,1.34-31.08,3.87-45.85,3.8.26,7.87.51,12.25.76,12.46.71,26.2,1.32,40.9,1.83-1.49,13.97-2.28,28.44-2.28,43.26,0,1.28.01,2.56.02,3.84h-54.73c-.02-1.28-.04-2.56-.04-3.84ZM326.92,215.99h-54.73c0-1.28.01-2.56.01-3.84,0-14.24-.36-28.27-1.06-41.93,18.8-.29,36.78-.72,53.52-1.29,1.49,13.96,2.28,28.41,2.28,43.22,0,1.28-.01,2.56-.03,3.84ZM214.86,402.63c-8.13,0-16.18.12-24.14.32-5.92-11.2-11.25-26.53-15.73-45.03,13.01-.43,26.34-.65,39.87-.65v45.36ZM104.08,212.15c0-14.81.79-29.26,2.28-43.22,16.74.57,34.72,1,53.52,1.29-.7,13.66-1.06,27.69-1.06,41.93,0,1.28,0,2.56.01,3.84h-54.73c-.01-1.28-.03-2.56-.03-3.84ZM216.16,30.66c9.56,0,19.01-.16,28.33-.44,5.14,12.02,9.73,27.29,13.58,45.08-13.65.47-27.67.71-41.91.72V30.66ZM270.9,212.15c0,1.28,0,2.56-.01,3.84h-54.73v-45.36c18.36,0,36.36-.14,53.67-.4.7,13.55,1.06,27.57,1.06,41.91ZM214.86,355.97c-13.77,0-27.2.23-40.18.65-3.24-13.58-6.02-28.82-8.27-45.36,15.7-.42,31.93-.64,48.45-.64v45.36ZM160.12,212.15c0-14.35.37-28.36,1.06-41.91,17.32.26,35.32.39,53.67.4v45.36h-54.73c0-1.28-.01-2.56-.01-3.84ZM216.16,77.32c14.48,0,28.59-.25,42.19-.71,2.93,13.76,5.43,29.01,7.4,45.4-16.06.44-32.67.67-49.59.67v-45.36ZM216.16,123.98c16.97,0,33.64-.24,49.75-.68,1.71,14.41,3.01,29.7,3.86,45.64-17.3.26-35.27.39-53.61.39v-45.36ZM214.86,169.33c-18.34,0-36.31-.14-53.61-.39.85-15.95,2.15-31.25,3.86-45.67,16.37.46,33.1.7,49.74.71v45.36ZM214.86,217.3v45.36c-18.18,0-36,.14-53.16.39-.93-14.71-1.47-30.01-1.56-45.74h54.72ZM214.86,263.96v45.36c-16.58,0-32.87.23-48.62.65-1.91-14.33-3.42-29.61-4.46-45.62,17.13-.25,34.93-.38,53.08-.39ZM216.16,263.96c18.15,0,35.94.13,53.08.39-1.04,16.02-2.55,31.31-4.46,45.64-16.01-.44-32.35-.67-48.62-.67v-45.36ZM216.16,262.65v-45.36h54.72c-.1,15.73-.63,31.04-1.56,45.74-17.16-.25-34.98-.38-53.16-.39ZM267.22,123.26c17.14-.48,33.63-1.21,49.15-2.16,3.6,14.66,6.35,30.25,8.14,46.53-16.71.57-34.67,1-53.44,1.28-.84-15.8-2.13-31.1-3.86-45.66ZM267.07,121.97c-1.95-16.18-4.44-31.42-7.43-45.4,14.3-.5,28.04-1.24,41.09-2.2,6.06,13.74,11.23,29,15.33,45.46-15.48.94-31.91,1.66-48.99,2.14ZM259.35,75.25c-1-4.61-2.05-9.09-3.16-13.4-3.16-12.27-6.64-22.86-10.38-31.67,9.11-.29,18.08-.72,26.87-1.27,10.36,11.71,19.63,26.66,27.46,44.14-13.09.97-26.74,1.7-40.78,2.2ZM245.25,28.89c-6.54-15.01-13.85-24.6-21.53-28.16,17.31,1.65,33.56,11.25,47.83,26.94-8.57.53-17.34.94-26.3,1.22ZM214.86,122.68c-16.92,0-33.54-.24-49.59-.67,1.98-16.39,4.47-31.63,7.4-45.4,13.6.46,27.71.71,42.19.71v45.36ZM171.39,76.56c-2.99,13.98-5.48,29.22-7.43,45.4-17.08-.48-33.51-1.2-48.99-2.14,4.11-16.45,9.28-31.72,15.33-45.46,13.05.96,26.79,1.7,41.09,2.2ZM130.89,73.05c7.83-17.48,17.11-32.43,27.46-44.14,8.79.55,17.76.97,26.87,1.27-3.74,8.81-7.22,19.4-10.38,31.67-1.11,4.32-2.16,8.79-3.16,13.4-14.05-.5-27.7-1.24-40.78-2.2ZM163.81,123.23c-1.73,14.57-3.02,29.87-3.86,45.69-18.77-.29-36.73-.72-53.44-1.28,1.8-16.29,4.55-31.9,8.15-46.57,15.66.95,32.21,1.68,49.15,2.17ZM158.83,217.3c.09,15.61.62,30.93,1.56,45.76-18.59.28-36.38.7-52.97,1.26-1.97-15.1-3.11-30.84-3.31-47.02h54.72ZM160.47,264.36c1.03,15.86,2.52,31.16,4.46,45.63-16.7.46-32.79,1.15-47.98,2.05-4.01-14.55-7.18-30.1-9.36-46.43,16.56-.55,34.32-.98,52.88-1.26ZM165.1,311.29c2.22,16.3,5,31.54,8.3,45.37-13.55.45-26.6,1.12-39.05,1.98-6.66-13.52-12.4-28.74-17.04-45.31,15.14-.9,31.17-1.58,47.8-2.03ZM173.72,357.97c.37,1.51.74,3.01,1.12,4.49,4.3,16.71,9.21,30.31,14.54,40.53-7.66.21-15.23.52-22.68.91-11.89-10.88-22.61-25.84-31.69-43.95,12.46-.87,25.41-1.53,38.71-1.98ZM190.05,404.28c5.39,9.97,11.2,16.5,17.25,19.3-13.93-1.33-27.17-7.79-39.25-18.44,7.2-.37,14.55-.66,22-.86ZM216.16,310.62c16.52,0,32.75.22,48.45.64-2.24,16.54-5.03,31.78-8.27,45.36-12.98-.42-26.41-.64-40.18-.65v-45.36ZM257.3,357.97c13.3.45,26.24,1.11,38.71,1.98-9.07,18.11-19.79,33.07-31.69,43.95-7.45-.39-15.02-.7-22.68-.91,5.33-10.21,10.24-23.81,14.54-40.53.38-1.48.75-2.98,1.12-4.49ZM257.62,356.66c3.3-13.82,6.08-29.06,8.3-45.37,16.63.46,32.66,1.14,47.8,2.03-4.64,16.57-10.39,31.79-17.04,45.31-12.45-.86-25.5-1.53-39.05-1.98ZM266.09,310.02c1.94-14.49,3.44-29.79,4.46-45.66,18.56.28,36.32.7,52.88,1.26-2.19,16.34-5.36,31.91-9.37,46.47-15.32-.9-31.46-1.6-47.97-2.06ZM270.63,263.06c.93-14.84,1.46-30.16,1.56-45.76h54.72c-.2,16.19-1.34,31.93-3.31,47.02-16.59-.56-34.38-.98-52.97-1.26ZM317.66,121.03c17.32-1.08,33.42-2.44,47.86-4.06,5.87,15.07,10.4,31.17,13.37,48.04-3.75.25-7.77.5-12.11.75-12.48.71-26.24,1.33-40.97,1.83-1.8-16.28-4.55-31.88-8.15-46.56ZM317.35,119.74c-4.1-16.44-9.27-31.71-15.32-45.47,13.81-1.03,26.84-2.3,38.9-3.79,9.46,13.6,17.59,28.8,24.11,45.24-14.4,1.61-30.44,2.96-47.69,4.03ZM301.46,72.95c-7.77-17.41-16.97-32.34-27.24-44.14,8.31-.54,16.45-1.19,24.39-1.95,15.52,11.15,29.5,25.48,41.41,42.32-12.12,1.49-25.03,2.76-38.56,3.77ZM273.14,27.57c-11.91-13.33-25.23-22.45-39.41-26.31.14.01.28.02.41.04,22.57,2.57,43.83,11.1,62.85,24.4-7.73.73-15.69,1.35-23.85,1.87ZM243.94,28.93c-9.09.28-18.36.42-27.77.43V.48c.42,0,.84.01,1.26.02,9.65.34,18.7,10.65,26.52,28.44ZM214.86,76.02c-14.24,0-28.26-.25-41.91-.72,3.85-17.79,8.44-33.06,13.58-45.08,9.32.29,18.77.44,28.33.44v45.36ZM159.47,27.67c14.27-15.69,30.52-25.29,47.83-26.94-7.69,3.56-14.99,13.15-21.53,28.16-8.95-.28-17.73-.69-26.3-1.22ZM197.29,1.26c-14.17,3.86-27.49,12.98-39.4,26.31-8.16-.52-16.12-1.14-23.85-1.87,19.01-13.3,40.28-21.84,62.84-24.4.14-.01.28-.02.42-.04ZM156.8,28.81c-10.27,11.8-19.47,26.74-27.24,44.14-13.53-1.02-26.44-2.28-38.56-3.77,11.91-16.84,25.89-31.17,41.41-42.32,7.94.76,16.08,1.41,24.39,1.95ZM128.98,74.27c-6.05,13.77-11.21,29.03-15.32,45.47-17.25-1.07-33.29-2.42-47.69-4.03,6.51-16.44,14.64-31.63,24.11-45.24,12.06,1.49,25.08,2.76,38.9,3.79ZM113.37,120.99c-3.61,14.69-6.37,30.31-8.16,46.6-14.73-.51-28.49-1.12-40.97-1.83-4.33-.25-8.36-.5-12.11-.75,2.97-16.86,7.49-32.95,13.37-48.02,14.4,1.6,30.59,2.94,47.88,4.01ZM102.81,217.3c.2,16.2,1.34,31.95,3.31,47.07-15.11.51-29.2,1.14-41.97,1.87-3.74.21-7.26.43-10.58.65-3.28-15.88-5.18-32.48-5.49-49.58h54.72ZM64.23,267.53c12.79-.73,26.92-1.36,42.06-1.87,2.19,16.33,5.36,31.89,9.37,46.46-16.78,1.01-32.45,2.29-46.62,3.81-6.49-14.9-11.62-30.91-15.19-47.76,3.25-.21,6.71-.43,10.38-.64ZM116.01,313.41c4.63,16.55,10.37,31.78,17,45.33-13.01.92-25.34,2.05-36.86,3.36-10.32-13.33-19.27-28.42-26.57-44.91,14.12-1.51,29.72-2.77,46.43-3.78ZM133.66,360.04c8.97,17.99,19.55,32.94,31.29,43.96-6.9.38-13.69.84-20.36,1.37-17.7-10.31-33.73-24.61-47.42-41.99,11.55-1.32,23.76-2.44,36.5-3.34ZM166.3,405.23c9.65,8.74,20.06,14.84,30.98,17.82-.14-.01-.28-.02-.42-.04-17.71-2.01-34.62-7.71-50.26-16.5,6.43-.5,13-.93,19.7-1.28ZM191.42,404.24c7.7-.2,15.51-.3,23.43-.31v19.9c-.42,0-.84-.01-1.26-.02-7.91-.28-15.42-7.26-22.18-19.57ZM216.16,357.27c13.53,0,26.86.23,39.87.65-4.48,18.49-9.81,33.82-15.73,45.03-7.96-.21-16.01-.32-24.14-.32v-45.36ZM262.97,405.14c-12.08,10.65-25.32,17.12-39.25,18.44,6.05-2.8,11.86-9.33,17.25-19.3,7.46.2,14.8.49,22.01.86ZM233.73,423.05c10.92-2.98,21.33-9.08,30.98-17.82,6.69.36,13.26.79,19.7,1.28-15.65,8.79-32.56,14.48-50.27,16.5-.14.01-.28.03-.41.04ZM266.07,404c11.74-11.01,22.32-25.97,31.29-43.96,12.73.9,24.95,2.02,36.5,3.34-13.69,17.38-29.72,31.67-47.42,41.99-6.67-.53-13.46-.99-20.36-1.37ZM298.01,358.73c6.64-13.55,12.37-28.78,17-45.32,16.71,1.01,32.31,2.27,46.43,3.78-7.29,16.49-16.25,31.59-26.57,44.91-11.52-1.32-23.85-2.45-36.86-3.36ZM315.35,312.16c4.02-14.58,7.19-30.16,9.38-46.5,15.14.52,29.27,1.14,42.06,1.87,3.67.21,7.13.42,10.38.64-3.57,16.85-8.7,32.86-15.19,47.75-14.14-1.5-29.89-2.76-46.63-3.76ZM366.87,266.23c-12.76-.73-26.86-1.35-41.97-1.87,1.97-15.12,3.11-30.87,3.31-47.07h54.72c-.32,17.1-2.21,33.71-5.49,49.58-3.31-.22-6.83-.43-10.58-.65ZM401.07,110.38c-9.37,1.87-20.91,3.61-34.32,5.14-.13.01-.25.03-.38.04-6.49-16.44-14.58-31.64-24-45.27,9.45-1.19,18.3-2.5,26.47-3.94,12.54,13.18,23.39,27.97,32.23,44.02ZM367.65,65.13c-.31.05-.62.11-.93.16-7.92,1.36-16.36,2.59-25.24,3.71-11.78-16.77-25.6-31.09-40.93-42.33,4.76-.47,9.44-.98,14.04-1.53,19.75,10.5,37.64,24.04,53.06,39.99ZM312.58,24.07c-4.45.52-8.99,1-13.61,1.44-13.34-9.53-27.81-16.72-43.07-21.17,20.04,3.89,39.08,10.6,56.69,19.72ZM214.86.48v28.88c-9.41,0-18.68-.15-27.78-.43C194.9,11.14,203.95.83,213.6.49c.42,0,.84-.01,1.26-.02ZM175.13,4.35c-15.26,4.44-29.73,11.64-43.07,21.17-4.62-.45-9.17-.93-13.61-1.44,17.6-9.12,36.64-15.84,56.68-19.72ZM116.43,25.13c4.6.55,9.28,1.06,14.04,1.53-15.34,11.24-29.15,25.56-40.93,42.33-8.87-1.11-17.31-2.35-25.24-3.71-.32-.05-.62-.11-.93-.16,15.42-15.95,33.32-29.49,53.06-39.99ZM62.18,66.36c8.17,1.44,17.02,2.75,26.47,3.94-9.42,13.63-17.51,28.83-24,45.27-.13-.01-.25-.03-.38-.04-13.41-1.53-24.95-3.27-34.32-5.14,8.84-16.05,19.69-30.84,32.23-44.02ZM29.25,111.64c9.69,1.95,21.51,3.68,34.91,5.2-5.86,15.1-10.38,31.21-13.34,48.08-21.95-1.51-34.01-3.07-40.62-4.35,4.33-17.24,10.78-33.65,19.06-48.93ZM3.82,212.15c0-17.34,2.11-34.2,6.06-50.34,6.92,1.38,19.13,2.92,40.71,4.4-2.52,14.8-3.87,30.17-3.87,45.94,0,1.28.02,2.56.04,3.84H3.87c-.02-1.28-.05-2.56-.05-3.84ZM3.89,217.3h42.9c.32,17.13,2.21,33.76,5.48,49.67-20.37,1.36-32.67,2.78-40.1,4.08-4.97-17.13-7.84-35.15-8.28-53.75ZM12.54,272.3c7.2-1.23,19.39-2.66,40-4.04,3.56,16.86,8.68,32.89,15.15,47.82-1.2.13-2.39.26-3.57.4-9.96,1.14-20.58,2.57-30.22,4.33-9.04-15.06-16.26-31.33-21.36-48.5ZM34.63,322.02c8.45-1.53,18.38-2.97,29.64-4.25,1.31-.15,2.63-.3,3.97-.44,7.26,16.47,16.16,31.58,26.42,44.94-8.75,1.02-17.03,2.15-24.77,3.38-13.58-12.89-25.46-27.55-35.25-43.62ZM71.2,366.87c7.74-1.21,15.91-2.32,24.46-3.32,13.5,17.27,29.28,31.55,46.7,41.99-3.6.3-7.17.62-10.7.96-22.42-9.71-42.84-23.19-60.47-39.64ZM134.17,407.58c3.34-.31,6.72-.61,10.14-.88,9.81,5.68,20.12,10.14,30.82,13.26-14.21-2.76-27.91-6.93-40.96-12.38ZM216.16,423.83v-19.9c7.92,0,15.74.11,23.43.31-6.76,12.31-14.27,19.3-22.18,19.57-.42,0-.84.01-1.26.02ZM255.89,419.96c10.7-3.12,21.01-7.58,30.82-13.26,3.42.27,6.8.57,10.14.88-13.05,5.45-26.75,9.63-40.96,12.38ZM299.35,406.51c-3.53-.34-7.09-.66-10.7-.96,17.42-10.44,33.21-24.72,46.7-41.99,8.55,1,16.72,2.1,24.46,3.32-17.62,16.45-38.04,29.93-60.47,39.64ZM361.14,365.65c-7.74-1.23-16.01-2.36-24.77-3.38,10.26-13.36,19.16-28.46,26.42-44.94,1.34.14,2.66.29,3.97.44,11.26,1.29,21.19,2.72,29.64,4.25-9.8,16.07-21.67,30.73-35.25,43.62ZM397.14,320.77c-9.64-1.76-21.05-3.33-33.81-4.7,6.47-14.93,11.59-30.95,15.15-47.81,20.61,1.38,32.8,2.81,40,4.04-5.1,17.16-12.31,33.42-21.34,48.47ZM418.85,271.05c-7.42-1.3-19.73-2.72-40.1-4.08,3.28-15.91,5.17-32.54,5.48-49.67h42.89c-.45,18.61-3.31,36.62-8.28,53.75ZM384.25,215.99c.02-1.28.04-2.56.04-3.84,0-15.77-1.34-31.14-3.87-45.94,21.58-1.48,33.8-3.02,40.71-4.4,3.95,16.14,6.06,33,6.06,50.34,0,1.28-.03,2.56-.05,3.84h-42.9Z"/>
        <path class="cls-1" d="M215.51,425.14C98.07,425.14,2.52,329.6,2.52,212.15S98.07-.83,215.51-.83s212.99,95.55,212.99,212.99-95.55,212.99-212.99,212.99ZM215.51.47C98.79.47,3.82,95.43,3.82,212.15s94.96,211.69,211.68,211.69,211.69-94.96,211.69-211.69S332.23.47,215.51.47Z"/>
      </g>
    </g>
  </g>
</svg>