<?xml version="1.0" encoding="UTF-8"?>
<svg id="Capa_1" data-name="Capa 1" xmlns="http://www.w3.org/2000/svg" viewBox="0 0 249.32 355.38">
  <defs>
    <style>
      .cls-1 {
        fill: #fff;
      }
    </style>
  </defs>
  <path class="cls-1" d="M211.15,35.29h0C187.63,11.76,156.79,0,125.95,0s-61.68,11.76-85.2,35.29C-2.09,78.13-6.46,146.1,30.52,194.07l84.48,109.57c5.53,7.18,16.36,7.18,21.9,0l84.48-109.57c36.98-47.97,32.61-115.94-10.22-158.77ZM125.95,186.14c-36.25,0-65.65-29.39-65.65-65.65s29.39-65.65,65.65-65.65,65.65,29.39,65.65,65.65-29.39,65.65-65.65,65.65Z"/>
  <path class="cls-1" d="M125.95,346.3c-23.09,0-44.88-3.44-61.36-9.69-18.12-6.87-28.11-16.67-28.11-27.59s9.98-20.72,28.11-27.59c16.47-6.25,38.27-9.69,61.36-9.69s44.88,3.44,61.36,9.69c18.12,6.87,28.11,16.67,28.11,27.59s-9.98,20.72-28.11,27.59c-16.48,6.25-38.27,9.69-61.36,9.69ZM125.95,282.54c-21.82,0-42.25,3.19-57.53,8.99-13.23,5.02-21.14,11.56-21.14,17.49s7.9,12.47,21.14,17.49c15.28,5.79,35.71,8.99,57.53,8.99s42.25-3.19,57.53-8.99c13.23-5.02,21.14-11.56,21.14-17.49s-7.9-12.47-21.14-17.49c-15.28-5.79-35.71-8.99-57.53-8.99Z"/>
</svg>