<?xml version="1.0" encoding="UTF-8"?>
<svg id="Capa_1" data-name="Capa 1" xmlns="http://www.w3.org/2000/svg" viewBox="0 0 288.56 261.08">
  <defs>
    <style>
      .cls-1 {
        fill: #fff;
      }
    </style>
  </defs>
  <polygon class="cls-1" points="288.56 74.66 288.56 261.08 249.08 261.08 249.08 76.02 250.46 74.66 288.56 74.66"/>
  <path class="cls-1" d="M261.3,59.59l-13.31-4.65c-15.59,19.78-35.12,41.12-59.43,61.89C119.8,175.58,47.01,200.57,0,211.98c42.98-14.73,111.06-45.31,170.19-109.67,19.51-21.23,34.71-42.52,46.56-62.06-5.16-2.24-10.32-4.48-15.48-6.72L255.74,1.3l5.56,58.29Z"/>
  <rect class="cls-1" x="186.81" y="131.67" width="39.48" height="129.41"/>
  <rect class="cls-1" x="124.54" y="176.01" width="39.48" height="85.06"/>
  <rect class="cls-1" x="62.27" y="202.26" width="39.48" height="58.82"/>
  <rect class="cls-1" y="223.07" width="39.48" height="38.01"/>
</svg>