<?xml version="1.0" encoding="UTF-8"?>
<svg id="Capa_1" data-name="Capa 1" xmlns="http://www.w3.org/2000/svg" xmlns:xlink="http://www.w3.org/1999/xlink" viewBox="0 0 731.99 768.07">
  <defs>
    <style>
      .cls-1 {
        letter-spacing: .02em;
      }

      .cls-2 {
        letter-spacing: -.02em;
      }

      .cls-3, .cls-4 {
        fill: #fff;
      }

      .cls-5 {
        fill: url(#Degradado_sin_nombre_216);
      }

      .cls-6 {
        letter-spacing: 0em;
      }

      .cls-7 {
        fill: url(#Degradado_sin_nombre_4);
        filter: url(#drop-shadow-96);
      }

      .cls-8 {
        fill: url(#Degradado_sin_nombre_13);
      }

      .cls-9 {
        letter-spacing: 0em;
      }

      .cls-10 {
        letter-spacing: .03em;
      }

      .cls-11 {
        fill: #2b3180;
      }

      .cls-12 {
        letter-spacing: 0em;
      }

      .cls-13 {
        fill: url(#Degradado_sin_nombre_14);
      }

      .cls-4 {
        font-family: Montserrat-ExtraBold, Montserrat;
        font-size: 68.42px;
        font-weight: 700;
      }
    </style>
    <linearGradient id="Degradado_sin_nombre_14" data-name="Degradado sin nombre 14" x1="346.55" y1="145.81" x2="344.06" y2="1033.41" gradientUnits="userSpaceOnUse">
      <stop offset="0" stop-color="#000"/>
      <stop offset=".73" stop-color="#2b3180"/>
    </linearGradient>
    <linearGradient id="Degradado_sin_nombre_13" data-name="Degradado sin nombre 13" x1="18.15" y1="197.99" x2="24.6" y2="261.88" gradientUnits="userSpaceOnUse">
      <stop offset="0" stop-color="#00aefb"/>
      <stop offset="1" stop-color="#1b1464"/>
    </linearGradient>
    <linearGradient id="Degradado_sin_nombre_4" data-name="Degradado sin nombre 4" x1="128.4" y1="361.65" x2="574.48" y2="599.28" gradientUnits="userSpaceOnUse">
      <stop offset="0" stop-color="#00aefb"/>
      <stop offset="1" stop-color="#1b1464"/>
    </linearGradient>
    <filter id="drop-shadow-96" x="99.57" y="307.87" width="493" height="302" filterUnits="userSpaceOnUse">
      <feOffset dx="0" dy="0"/>
      <feGaussianBlur result="blur" stdDeviation="4"/>
      <feFlood flood-color="#000" flood-opacity=".75"/>
      <feComposite in2="blur" operator="in"/>
      <feComposite in="SourceGraphic"/>
    </filter>
    <linearGradient id="Degradado_sin_nombre_216" data-name="Degradado sin nombre 216" x1="317.21" y1="696.96" x2="302.15" y2="229.39" gradientUnits="userSpaceOnUse">
      <stop offset="0" stop-color="#fff"/>
      <stop offset=".21" stop-color="#fcfefe"/>
      <stop offset=".34" stop-color="#f3fbfd"/>
      <stop offset=".46" stop-color="#e4f6fb"/>
      <stop offset=".56" stop-color="#cfeff9"/>
      <stop offset=".65" stop-color="#b4e6f5"/>
      <stop offset=".74" stop-color="#92daf1"/>
      <stop offset=".83" stop-color="#6acdec"/>
      <stop offset=".91" stop-color="#3cbee7"/>
      <stop offset=".99" stop-color="#09ade1"/>
      <stop offset="1" stop-color="#00aae0"/>
    </linearGradient>
  </defs>
  <g>
    <rect class="cls-13" x="37.4" width="616.97" height="768.07" rx="41.66" ry="41.66"/>
    <path class="cls-11" d="M696.88,199.89c-232.53,0-465.07,0-697.6,0v-87.53h732.71c-11.7,29.18-23.4,58.35-35.1,87.53Z"/>
    <text class="cls-4" transform="translate(55.94 91.52)"><tspan x="0" y="0">HTM</tspan><tspan class="cls-10" x="163.86" y="0">L</tspan><tspan x="207.65" y="0">, </tspan><tspan class="cls-9" x="246.92" y="0">C</tspan><tspan x="296.87" y="0">S</tspan><tspan class="cls-1" x="341.13" y="0">S</tspan><tspan x="386.77" y="0">, </tspan><tspan x="0" y="91">J</tspan><tspan class="cls-12" x="38.11" y="91">a</tspan><tspan class="cls-2" x="80.39" y="91">v</tspan><tspan x="121.51" y="91">aSc</tspan><tspan class="cls-6" x="250" y="91">r</tspan><tspan x="280.17" y="91">ipt </tspan></text>
    <path class="cls-8" d="M-.72,199.89c12.71,20.23,25.41,40.46,38.12,60.69v-60.69H-.72Z"/>
    <g>
      <path class="cls-3" d="M345.88,261.59c29.02,0,57.17,5.68,83.67,16.89,25.6,10.83,48.59,26.33,68.33,46.07,19.74,19.74,35.24,42.73,46.07,68.33,11.21,26.5,16.89,54.65,16.89,83.67s-5.68,57.17-16.89,83.67c-10.83,25.6-26.33,48.58-46.07,68.33-19.74,19.74-42.73,35.24-68.33,46.07-26.5,11.21-54.65,16.89-83.67,16.89s-57.17-5.68-83.67-16.89c-25.6-10.83-48.59-26.33-68.33-46.07-19.74-19.74-35.24-42.73-46.07-68.33-11.21-26.5-16.89-54.65-16.89-83.67s5.68-57.17,16.89-83.67c10.83-25.6,26.33-48.59,46.07-68.33s42.73-35.24,68.33-46.07c26.5-11.21,54.65-16.89,83.67-16.89M345.88,260.59c-119.27,0-215.96,96.69-215.96,215.96s96.69,215.96,215.96,215.96,215.96-96.69,215.96-215.96-96.69-215.96-215.96-215.96h0Z"/>
      <path class="cls-3" d="M344.9,290.01c25.18,0,49.61,4.93,72.61,14.66,22.21,9.39,42.16,22.84,59.29,39.98,17.13,17.13,30.58,37.08,39.98,59.29,9.73,23,14.66,47.42,14.66,72.61s-4.93,49.61-14.66,72.61c-9.39,22.21-22.84,42.16-39.98,59.29-17.13,17.13-37.08,30.58-59.29,39.98-23,9.73-47.42,14.66-72.61,14.66s-49.61-4.93-72.61-14.66c-22.21-9.4-42.16-22.84-59.29-39.98-17.13-17.13-30.58-37.08-39.98-59.29-9.73-23-14.66-47.42-14.66-72.61s4.93-49.61,14.66-72.61c9.39-22.21,22.84-42.16,39.98-59.29,17.13-17.13,37.08-30.58,59.29-39.98,23-9.73,47.42-14.66,72.61-14.66M344.9,289.01c-103.57,0-187.53,83.96-187.53,187.53s83.96,187.53,187.53,187.53,187.53-83.96,187.53-187.53-83.96-187.53-187.53-187.53h0Z"/>
    </g>
  </g>
  <path class="cls-7" d="M576.06,578.16c-22.48-20.4-44.97-40.79-67.45-61.19.85-5.16,1.4-10.41,1.4-15.81v-84.48c0-53.39-43.28-96.67-96.67-96.67h-204.71c-53.39,0-96.67,43.28-96.67,96.67v84.48c0,53.39,43.28,96.67,96.67,96.67h359.83c10.33,0,15.24-12.73,7.59-19.67Z"/>
  <path class="cls-5" d="M542.48,578.16c-22.48-20.4-44.97-40.79-67.45-61.19.85-5.16,1.4-10.41,1.4-15.81v-84.48c0-53.39-43.28-96.67-96.67-96.67h-204.71c-53.39,0-96.67,43.28-96.67,96.67v84.48c0,53.39,43.28,96.67,96.67,96.67h359.83c10.33,0,15.24-12.73,7.59-19.67Z"/>
  <rect class="cls-11" x="204.04" y="447.94" width="174.13" height="21.96" transform="translate(-240.52 571.75) rotate(-69.59)"/>
  <polygon class="cls-11" points="349.57 406.22 387.24 443.89 349.57 481.55 349.57 501.8 407.42 443.96 407.35 443.89 407.42 443.81 349.57 385.97 349.57 406.22"/>
  <polygon class="cls-11" points="241.04 406.22 203.37 443.89 241.04 481.55 241.04 501.8 183.19 443.96 183.27 443.89 183.19 443.81 241.04 385.97 241.04 406.22"/>
</svg>