<?xml version="1.0" encoding="UTF-8"?>
<svg id="Capa_1" data-name="Capa 1" xmlns="http://www.w3.org/2000/svg" viewBox="0 0 248.35 252">
  <defs>
    <style>
      .cls-1 {
        fill: #fff;
      }
    </style>
  </defs>
  <g>
    <path class="cls-1" d="M238.63,83.1H9.71c-4.45,0-8.08-3.62-8.08-8.08V23.05c0-4.45,3.62-8.08,8.08-8.08h228.92c4.45,0,8.08,3.62,8.08,8.08v51.97c0,4.45-3.62,8.08-8.08,8.08ZM9.71,18.28c-2.63,0-4.77,2.14-4.77,4.77v51.97c0,2.63,2.14,4.77,4.77,4.77h228.92c2.63,0,4.77-2.14,4.77-4.77V23.05c0-2.63-2.14-4.77-4.77-4.77H9.71Z"/>
    <circle class="cls-1" cx="221.09" cy="49.03" r="11.5"/>
    <circle class="cls-1" cx="195.3" cy="49.23" r="6.73"/>
    <circle class="cls-1" cx="176.9" cy="49.23" r="6.73"/>
    <g>
      <rect class="cls-1" x="56.14" y="46.45" width="11.53" height="6.82"/>
      <rect class="cls-1" x="91.03" y="46.45" width="11.97" height="6.82"/>
      <rect class="cls-1" x="74.1" y="32.83" width="10.51" height="6.37"/>
      <rect class="cls-1" x="56.14" y="32.83" width="11.53" height="6.37"/>
      <rect class="cls-1" x="74.1" y="46.45" width="10.51" height="6.82"/>
      <rect class="cls-1" x="20.22" y="46.45" width="12.56" height="6.82"/>
      <rect class="cls-1" x="39.2" y="32.83" width="10.51" height="6.37"/>
      <rect class="cls-1" x="39.2" y="46.45" width="10.51" height="6.82"/>
      <rect class="cls-1" x="109.43" y="32.83" width="10.51" height="6.37"/>
      <rect class="cls-1" x="91.03" y="32.83" width="11.97" height="6.37"/>
      <rect class="cls-1" x="126.36" y="32.83" width="12.12" height="6.37"/>
      <rect class="cls-1" x="20.22" y="32.83" width="12.56" height="6.37"/>
      <rect class="cls-1" x="126.36" y="46.45" width="12.12" height="6.82"/>
      <rect class="cls-1" x="126.36" y="60.53" width="12.12" height="5.73"/>
      <rect class="cls-1" x="20.22" y="60.53" width="12.56" height="5.73"/>
      <rect class="cls-1" x="109.43" y="46.45" width="10.51" height="6.82"/>
      <rect class="cls-1" x="109.43" y="60.53" width="10.51" height="5.73"/>
      <rect class="cls-1" x="56.14" y="60.53" width="11.53" height="5.73"/>
      <rect class="cls-1" x="74.1" y="60.53" width="10.51" height="5.73"/>
      <rect class="cls-1" x="91.03" y="60.53" width="11.97" height="5.73"/>
      <rect class="cls-1" x="39.2" y="60.53" width="10.51" height="5.73"/>
    </g>
  </g>
  <g>
    <path class="cls-1" d="M238.63,161.24H9.71c-4.45,0-8.08-3.62-8.08-8.08v-51.97c0-4.45,3.62-8.08,8.08-8.08h228.92c4.45,0,8.08,3.62,8.08,8.08v51.97c0,4.45-3.62,8.08-8.08,8.08ZM9.71,96.42c-2.63,0-4.77,2.14-4.77,4.77v51.97c0,2.63,2.14,4.77,4.77,4.77h228.92c2.63,0,4.77-2.14,4.77-4.77v-51.97c0-2.63-2.14-4.77-4.77-4.77H9.71Z"/>
    <circle class="cls-1" cx="221.09" cy="127.18" r="11.5"/>
    <circle class="cls-1" cx="195.3" cy="127.38" r="6.73"/>
    <circle class="cls-1" cx="176.9" cy="127.38" r="6.73"/>
    <g>
      <rect class="cls-1" x="56.14" y="124.6" width="11.53" height="6.82"/>
      <rect class="cls-1" x="91.03" y="124.6" width="11.97" height="6.82"/>
      <rect class="cls-1" x="74.1" y="110.97" width="10.51" height="6.37"/>
      <rect class="cls-1" x="56.14" y="110.97" width="11.53" height="6.37"/>
      <rect class="cls-1" x="74.1" y="124.6" width="10.51" height="6.82"/>
      <rect class="cls-1" x="20.22" y="124.6" width="12.56" height="6.82"/>
      <rect class="cls-1" x="39.2" y="110.97" width="10.51" height="6.37"/>
      <rect class="cls-1" x="39.2" y="124.6" width="10.51" height="6.82"/>
      <rect class="cls-1" x="109.43" y="110.97" width="10.51" height="6.37"/>
      <rect class="cls-1" x="91.03" y="110.97" width="11.97" height="6.37"/>
      <rect class="cls-1" x="126.36" y="110.97" width="12.12" height="6.37"/>
      <rect class="cls-1" x="20.22" y="110.97" width="12.56" height="6.37"/>
      <rect class="cls-1" x="126.36" y="124.6" width="12.12" height="6.82"/>
      <rect class="cls-1" x="126.36" y="138.67" width="12.12" height="5.73"/>
      <rect class="cls-1" x="20.22" y="138.67" width="12.56" height="5.73"/>
      <rect class="cls-1" x="109.43" y="124.6" width="10.51" height="6.82"/>
      <rect class="cls-1" x="109.43" y="138.67" width="10.51" height="5.73"/>
      <rect class="cls-1" x="56.14" y="138.67" width="11.53" height="5.73"/>
      <rect class="cls-1" x="74.1" y="138.67" width="10.51" height="5.73"/>
      <rect class="cls-1" x="91.03" y="138.67" width="11.97" height="5.73"/>
      <rect class="cls-1" x="39.2" y="138.67" width="10.51" height="5.73"/>
    </g>
  </g>
  <g>
    <path class="cls-1" d="M238.63,239.39H9.71c-4.45,0-8.08-3.62-8.08-8.08v-51.97c0-4.45,3.62-8.08,8.08-8.08h228.92c4.45,0,8.08,3.62,8.08,8.08v51.97c0,4.45-3.62,8.08-8.08,8.08ZM9.71,174.56c-2.63,0-4.77,2.14-4.77,4.77v51.97c0,2.63,2.14,4.77,4.77,4.77h228.92c2.63,0,4.77-2.14,4.77-4.77v-51.97c0-2.63-2.14-4.77-4.77-4.77H9.71Z"/>
    <circle class="cls-1" cx="221.09" cy="205.32" r="11.5"/>
    <circle class="cls-1" cx="195.3" cy="205.52" r="6.73"/>
    <circle class="cls-1" cx="176.9" cy="205.52" r="6.73"/>
    <g>
      <rect class="cls-1" x="56.14" y="202.74" width="11.53" height="6.82"/>
      <rect class="cls-1" x="91.03" y="202.74" width="11.97" height="6.82"/>
      <rect class="cls-1" x="74.1" y="189.11" width="10.51" height="6.37"/>
      <rect class="cls-1" x="56.14" y="189.11" width="11.53" height="6.37"/>
      <rect class="cls-1" x="74.1" y="202.74" width="10.51" height="6.82"/>
      <rect class="cls-1" x="20.22" y="202.74" width="12.56" height="6.82"/>
      <rect class="cls-1" x="39.2" y="189.11" width="10.51" height="6.37"/>
      <rect class="cls-1" x="39.2" y="202.74" width="10.51" height="6.82"/>
      <rect class="cls-1" x="109.43" y="189.11" width="10.51" height="6.37"/>
      <rect class="cls-1" x="91.03" y="189.11" width="11.97" height="6.37"/>
      <rect class="cls-1" x="126.36" y="189.11" width="12.12" height="6.37"/>
      <rect class="cls-1" x="20.22" y="189.11" width="12.56" height="6.37"/>
      <rect class="cls-1" x="126.36" y="202.74" width="12.12" height="6.82"/>
      <rect class="cls-1" x="126.36" y="216.82" width="12.12" height="5.73"/>
      <rect class="cls-1" x="20.22" y="216.82" width="12.56" height="5.73"/>
      <rect class="cls-1" x="109.43" y="202.74" width="10.51" height="6.82"/>
      <rect class="cls-1" x="109.43" y="216.82" width="10.51" height="5.73"/>
      <rect class="cls-1" x="56.14" y="216.82" width="11.53" height="5.73"/>
      <rect class="cls-1" x="74.1" y="216.82" width="10.51" height="5.73"/>
      <rect class="cls-1" x="91.03" y="216.82" width="11.97" height="5.73"/>
      <rect class="cls-1" x="39.2" y="216.82" width="10.51" height="5.73"/>
    </g>
  </g>
</svg>