<?xml version="1.0" encoding="UTF-8"?>
<svg id="Capa_1" data-name="Capa 1" xmlns="http://www.w3.org/2000/svg" viewBox="0 0 245.15 318.27">
  <defs>
    <style>
      .cls-1 {
        fill: #fff;
      }
    </style>
  </defs>
  <path class="cls-1" d="M117.45,62.26c15.31-7.77,35.32-1.48,40.42,15.54,12.67-5.56,28.19-4.82,37.27,6.62,2.94,3.7,3.66,7.32,5.9,11.23,21.34-9.09,40.62,1.97,42.33,25.25,2.34,31.82-1.75,66.53-.1,98.65l-29.29,57.75c-1.09,10.74.84,22.68-.15,33.27-.31,3.34-.94,5.88-4.12,7.54l-128.76.16c-.85-.62-2.07-1.15-2.71-1.95-4.59-5.67-.32-25.71-2.42-33.32-19.44-29.51-38.56-59.26-58.3-88.57-10.06-14.93-22.76-25.2-15.69-45.35,2.12-6.05,6.89-12.47,12.85-15.12,17.69-7.87,34.04,9.47,46.81,19.22V25.35c0-4.59,5.55-14.97,8.91-18.29,11.33-11.19,33.39-8.6,42.25,4.43.87,1.27,4.79,9.81,4.79,10.75v40.02ZM91.03,304.71h107.63l1.17-1.17v-30.31l28.7-55.22-.55-102.71c-5.89-13.43-24.9-11.06-26.61,4.07-1.27,11.24,1.93,27.43-.18,37.9-1.63,8.12-13.46,7.72-14.58-2.15-1.93-16.88,1.55-37.25.03-54.43-1.43-16.1-24.85-16.73-27.16.1-1.78,12.99,1.47,29.02-.41,42.33-2.76,6.77-12.77,6.47-13.66-1.19-1.95-16.79,1.52-37.27.04-54.44-1.61-18.74-25.7-19.83-27.92-.67-1.99,17.17,1.45,37.42-.25,54.93-2.39,6.42-9.8,7.18-13.23,1.13l-.66-116.68c-2.36-15.57-25.36-16.5-27.13-.07l.03,157.78c.62,10.15-13.17,12.45-14.75,2.25-.63-4.09,1.05-11.57-.78-14.76-8.51-5.93-26.09-24.96-36.21-25.26-9.49-.28-13.07,15.49-8.16,22.22,13.95,19.36,27.17,39.25,40.29,59.17,4.3,6.53,34.34,50.3,34.34,53.48v23.7Z"/>
</svg>