<?xml version="1.0" encoding="UTF-8"?>
<svg xmlns="http://www.w3.org/2000/svg" xmlns:xlink="http://www.w3.org/1999/xlink" viewBox="0 0 457.57 193.09">
  <defs>
    <style>
      .cls-1 {
        fill: #fff;
      }

      .cls-2 {
        fill: none;
      }

      .cls-3 {
        isolation: isolate;
      }

      .cls-4 {
        fill: #7689f4;
        mix-blend-mode: overlay;
      }

      .cls-5 {
        fill: #2b3180;
      }

      .cls-6 {
        clip-path: url(#clippath);
      }
    </style>
    <clipPath id="clippath">
      <circle class="cls-2" cx="133.91" cy="86.07" r="42.37" transform="translate(-22.61 57.08) rotate(-22.24)"/>
    </clipPath>
  </defs>
  <g class="cls-3">
    <g id="Capa_1" data-name="Capa 1">
      <g>
        <g>
          <path class="cls-4" d="M0,185.9s34.84-27.3,34.84-66.85c0-22.64.62-54.84,1.14-78.24.38-16.7,14.02-30.04,30.72-30.04h360.14c16.97,0,30.73,13.76,30.73,30.73v113.51c0,17.03-13.85,30.81-30.87,30.73l-348.9-1.64c-13.65-.06-26.72-5.51-36.37-15.16h0s-11.3,16.01-41.43,16.95Z"/>
          <g>
            <path class="cls-1" d="M0,175.12s34.84-27.3,34.84-66.85c0-22.64.62-54.84,1.14-78.24.38-16.7,14.02-30.04,30.72-30.04h360.14c16.97,0,30.73,13.76,30.73,30.73v113.51c0,17.03-13.85,30.81-30.87,30.73l-348.9-1.64c-13.65-.06-26.72-5.51-36.37-15.16h0s-11.3,16.01-41.43,16.95Z"/>
            <g>
              <circle class="cls-1" cx="134.83" cy="87.24" r="48.67"/>
              <g>
                <path class="cls-5" d="M408.81,52.32h-184.62c-4.39,0-7.99-3.59-7.99-7.99h0c0-4.39,3.59-7.99,7.99-7.99h184.62c4.39,0,7.99,3.59,7.99,7.99h0c0,4.39-3.59,7.99-7.99,7.99Z"/>
                <path class="cls-5" d="M408.81,81.61h-184.62c-4.39,0-7.99-3.59-7.99-7.99h0c0-4.39,3.59-7.99,7.99-7.99h184.62c4.39,0,7.99,3.59,7.99,7.99h0c0,4.39-3.59,7.99-7.99,7.99Z"/>
                <path class="cls-5" d="M408.81,110.9h-184.62c-4.39,0-7.99-3.59-7.99-7.99h0c0-4.39,3.59-7.99,7.99-7.99h184.62c4.39,0,7.99,3.59,7.99,7.99h0c0,4.39-3.59,7.99-7.99,7.99Z"/>
                <rect class="cls-5" x="216.19" y="124.22" width="106.73" height="15.98" rx="2.53" ry="2.53"/>
              </g>
            </g>
          </g>
        </g>
        <g>
          <circle class="cls-5" cx="133.91" cy="86.07" r="50.86" transform="translate(27.36 204.35) rotate(-80.72)"/>
          <g class="cls-6">
            <g>
              <path class="cls-1" d="M163.57,121.13c0-14.13-11.46-25.59-25.59-25.59h-7.31c-14.13,0-25.59,11.46-25.59,25.59v7.31h58.49v-7.31Z"/>
              <path class="cls-1" d="M134.33,61.64c8.08,0,14.62,6.55,14.62,14.62s-6.55,14.62-14.62,14.62-14.62-6.55-14.62-14.62,6.55-14.62,14.62-14.62Z"/>
            </g>
          </g>
        </g>
      </g>
    </g>
  </g>
</svg>