<?xml version="1.0" encoding="UTF-8"?>
<svg id="Capa_1" data-name="Capa 1" xmlns="http://www.w3.org/2000/svg" xmlns:xlink="http://www.w3.org/1999/xlink" viewBox="0 0 732.71 767.96">
  <defs>
    <style>
      .cls-1 {
        fill: url(#Degradado_sin_nombre_13-2);
      }

      .cls-2 {
        fill: #fff;
      }

      .cls-3 {
        fill: url(#Degradado_sin_nombre_13-3);
      }

      .cls-4 {
        fill: url(#Degradado_sin_nombre_4);
        filter: url(#drop-shadow-96);
      }

      .cls-5 {
        fill: url(#Degradado_sin_nombre_13);
      }

      .cls-6 {
        fill: #2b3180;
      }

      .cls-7 {
        fill: url(#Degradado_sin_nombre_14);
      }

      .cls-8 {
        fill: url(#radial-gradient);
        filter: url(#drop-shadow-97);
      }
    </style>
    <linearGradient id="Degradado_sin_nombre_14" data-name="Degradado sin nombre 14" x1="347.27" y1="145.7" x2="344.78" y2="1033.3" gradientUnits="userSpaceOnUse">
      <stop offset="0" stop-color="#000"/>
      <stop offset=".73" stop-color="#2b3180"/>
    </linearGradient>
    <linearGradient id="Degradado_sin_nombre_13" data-name="Degradado sin nombre 13" x1="18.87" y1="197.88" x2="25.32" y2="261.77" gradientUnits="userSpaceOnUse">
      <stop offset="0" stop-color="#00aefb"/>
      <stop offset="1" stop-color="#1b1464"/>
    </linearGradient>
    <linearGradient id="Degradado_sin_nombre_4" data-name="Degradado sin nombre 4" x1="58.32" y1="458.14" x2="609.3" y2="458.14" gradientUnits="userSpaceOnUse">
      <stop offset="0" stop-color="#00aefb"/>
      <stop offset="1" stop-color="#1b1464"/>
    </linearGradient>
    <filter id="drop-shadow-96" x="53.77" y="284.9" width="564" height="351" filterUnits="userSpaceOnUse">
      <feOffset dx="2" dy="2"/>
      <feGaussianBlur result="blur" stdDeviation="2"/>
      <feFlood flood-color="#000" flood-opacity=".24"/>
      <feComposite in2="blur" operator="in"/>
      <feComposite in="SourceGraphic"/>
    </filter>
    <linearGradient id="Degradado_sin_nombre_13-2" data-name="Degradado sin nombre 13" x1="422.91" y1="462.42" x2="512.88" y2="462.42" xlink:href="#Degradado_sin_nombre_13"/>
    <linearGradient id="Degradado_sin_nombre_13-3" data-name="Degradado sin nombre 13" x1="410.73" y1="501.08" x2="500.73" y2="501.08" xlink:href="#Degradado_sin_nombre_13"/>
    <radialGradient id="radial-gradient" cx="345.04" cy="462.85" fx="345.04" fy="462.85" r="333.25" gradientTransform="translate(0 127.12) scale(1 .73)" gradientUnits="userSpaceOnUse">
      <stop offset="0" stop-color="#fff"/>
      <stop offset=".37" stop-color="#fdfefe"/>
      <stop offset=".51" stop-color="#f6fcfd"/>
      <stop offset=".6" stop-color="#eaf8fc"/>
      <stop offset=".68" stop-color="#d9f2fa"/>
      <stop offset=".75" stop-color="#c3ebf7"/>
      <stop offset=".8" stop-color="#a8e2f4"/>
      <stop offset=".86" stop-color="#87d7f0"/>
      <stop offset=".91" stop-color="#62caeb"/>
      <stop offset=".95" stop-color="#37bce6"/>
      <stop offset=".99" stop-color="#09ade1"/>
      <stop offset="1" stop-color="#00aae0"/>
    </radialGradient>
    <filter id="drop-shadow-97" x="77.77" y="286.9" width="564" height="349" filterUnits="userSpaceOnUse">
      <feOffset dx="2" dy="2"/>
      <feGaussianBlur result="blur-2" stdDeviation="2"/>
      <feFlood flood-color="#000" flood-opacity=".24"/>
      <feComposite in2="blur-2" operator="in"/>
      <feComposite in="SourceGraphic"/>
    </filter>
  </defs>
  <g>
    <rect class="cls-7" x="38.12" y="-.11" width="616.97" height="768.07" rx="41.66" ry="41.66"/>
    <path class="cls-6" d="M697.6,199.78c-232.53,0-465.07,0-697.6,0v-87.53h732.71c-11.7,29.18-23.4,58.35-35.1,87.53Z"/>
    <g>
      <path class="cls-2" d="M104.69,91.41l-.14-25.38-12.32,20.66h-6.02l-12.25-19.98v24.7h-12.52v-47.89h11.15l16.83,27.64,16.42-27.64h11.15l.14,47.89h-12.45Z"/>
      <path class="cls-2" d="M126.72,43.51h13.55v47.89h-13.55v-47.89Z"/>
      <path class="cls-2" d="M182,66.43h11.97v19.84c-5.54,3.97-13.14,6.09-20.12,6.09-15.26,0-26.41-10.33-26.41-24.91s11.15-24.9,26.68-24.9c8.96,0,16.22,3.08,20.94,8.76l-8.62,7.8c-3.28-3.63-7.05-5.34-11.63-5.34-8.21,0-13.68,5.4-13.68,13.68s5.47,13.68,13.55,13.68c2.53,0,4.93-.48,7.32-1.57v-13.14Z"/>
      <path class="cls-2" d="M223.53,78.68h-7.39v12.73h-13.55v-47.89h21.89c13.07,0,21.28,6.77,21.28,17.72,0,7.05-3.42,12.25-9.37,15.12l10.33,15.05h-14.51l-8.69-12.73ZM223.67,54.19h-7.53v14.03h7.53c5.61,0,8.42-2.6,8.42-6.98s-2.81-7.05-8.42-7.05Z"/>
      <path class="cls-2" d="M285.31,82.1h-20.25l-3.76,9.3h-13.82l21.14-47.89h13.34l21.21,47.89h-14.09l-3.76-9.3ZM281.34,72.11l-6.16-15.33-6.16,15.33h12.32Z"/>
      <path class="cls-2" d="M303.85,67.46c0-14.57,11.15-24.9,26.34-24.9,8.83,0,15.94,3.21,20.59,9.03l-8.62,7.8c-3.01-3.62-6.71-5.61-11.29-5.61-7.87,0-13.34,5.47-13.34,13.68s5.47,13.68,13.34,13.68c4.58,0,8.28-1.98,11.29-5.61l8.62,7.8c-4.65,5.82-11.77,9.03-20.59,9.03-15.19,0-26.34-10.33-26.34-24.91Z"/>
      <path class="cls-2" d="M356.81,43.51h13.55v47.89h-13.55v-47.89Z"/>
      <path class="cls-2" d="M377.54,67.46c0-14.37,11.29-24.9,26.62-24.9s26.62,10.54,26.62,24.9-11.29,24.91-26.62,24.91-26.62-10.54-26.62-24.91ZM417.09,67.46c0-8.28-5.68-13.68-12.93-13.68s-12.93,5.4-12.93,13.68,5.68,13.68,12.93,13.68,12.93-5.4,12.93-13.68ZM406.62,29.21h13l-12.86,10.4h-9.31l9.17-10.4Z"/>
      <path class="cls-2" d="M483.45,43.51v47.89h-11.15l-21.14-25.52v25.52h-13.27v-47.89h11.15l21.14,25.52v-25.52h13.27Z"/>
      <path class="cls-2" d="M93.54,173.1h-20.25l-3.76,9.3h-13.82l21.14-47.89h13.34l21.21,47.89h-14.09l-3.76-9.3ZM89.57,163.11l-6.16-15.33-6.16,15.33h12.32Z"/>
      <path class="cls-2" d="M135.13,134.51h13.55v37.15h22.85v10.74h-36.4v-47.89Z"/>
      <path class="cls-2" d="M209.5,173.1h-20.25l-3.76,9.3h-13.82l21.14-47.89h13.34l21.21,47.89h-14.09l-3.76-9.3ZM205.54,163.11l-6.16-15.33-6.16,15.33h12.32Z"/>
      <path class="cls-2" d="M296.67,134.51v47.89h-11.15l-21.14-25.52v25.52h-13.27v-47.89h11.15l21.14,25.52v-25.52h13.27Z"/>
      <path class="cls-2" d="M305.84,161.06v-26.55h13.55v26.14c0,8.21,3.42,11.49,9.1,11.49s9.03-3.28,9.03-11.49v-26.14h13.34v26.55c0,14.3-8.35,22.31-22.51,22.31s-22.51-8-22.51-22.31Z"/>
      <path class="cls-2" d="M405.59,169.27c0,8.28-6.84,13.14-19.71,13.14h-25.86v-47.89h24.49c12.59,0,18.75,5.13,18.75,12.52,0,4.58-2.33,8.28-6.43,10.4,5.41,1.92,8.76,6.02,8.76,11.84ZM373.44,144.3v9.24h9.31c4.52,0,6.84-1.57,6.84-4.65s-2.33-4.58-6.84-4.58h-9.31ZM391.91,167.76c0-3.28-2.46-4.86-7.12-4.86h-11.36v9.72h11.36c4.65,0,7.12-1.57,7.12-4.86Z"/>
      <path class="cls-2" d="M451.09,171.94v10.47h-38.45v-47.89h37.56v10.47h-24.15v8.07h21.28v10.13h-21.28v8.76h25.04Z"/>
    </g>
    <path class="cls-5" d="M0,199.78c12.71,20.23,25.41,40.46,38.12,60.69v-60.69H0Z"/>
    <g>
      <path class="cls-2" d="M346.6,261.48c29.02,0,57.17,5.68,83.67,16.89,25.6,10.83,48.59,26.33,68.33,46.07,19.74,19.74,35.24,42.73,46.07,68.33,11.21,26.5,16.89,54.65,16.89,83.67s-5.68,57.17-16.89,83.67c-10.83,25.6-26.33,48.59-46.07,68.33s-42.73,35.24-68.33,46.07c-26.5,11.21-54.65,16.89-83.67,16.89s-57.17-5.68-83.67-16.89c-25.6-10.83-48.59-26.33-68.33-46.07s-35.24-42.73-46.07-68.33c-11.21-26.5-16.89-54.65-16.89-83.67s5.68-57.17,16.89-83.67c10.83-25.6,26.33-48.58,46.07-68.33s42.73-35.24,68.33-46.07c26.5-11.21,54.65-16.89,83.67-16.89M346.6,260.48c-119.27,0-215.96,96.69-215.96,215.96s96.69,215.96,215.96,215.96,215.96-96.69,215.96-215.96-96.69-215.96-215.96-215.96h0Z"/>
      <path class="cls-2" d="M345.63,289.9c25.18,0,49.61,4.93,72.61,14.66,22.21,9.4,42.16,22.84,59.29,39.98,17.13,17.13,30.58,37.08,39.98,59.29,9.73,23,14.66,47.42,14.66,72.61s-4.93,49.61-14.66,72.61c-9.39,22.21-22.84,42.16-39.98,59.29-17.13,17.13-37.08,30.58-59.29,39.98-23,9.73-47.42,14.66-72.61,14.66s-49.61-4.93-72.61-14.66c-22.21-9.4-42.16-22.84-59.29-39.98-17.13-17.13-30.58-37.08-39.98-59.29-9.73-23-14.66-47.42-14.66-72.61s4.93-49.61,14.66-72.61c9.39-22.21,22.84-42.16,39.98-59.29,17.13-17.13,37.08-30.58,59.29-39.98,23-9.73,47.42-14.66,72.61-14.66M345.63,288.9c-103.57,0-187.53,83.96-187.53,187.53s83.96,187.53,187.53,187.53,187.53-83.96,187.53-187.53-83.96-187.53-187.53-187.53h0Z"/>
    </g>
  </g>
  <g>
    <path class="cls-4" d="M524.71,472.08c-.72-23.43-3.3-42.49-5.52-55.57-7.54-44.28-15.1-87.31-48.05-109.45-3.63-2.44-10.11-6.4-19.34-9.76-10.59,4.76-21.18,9.53-31.76,14.29.96,55.23,1.92,110.46,2.89,165.68,9.63-5.68,19.25-11.36,28.88-17.04,19.64-.7,39.27-1.4,58.91-2.09-29.67,34.4-59.35,68.81-89.02,103.21-36.97-37.05-73.94-74.11-110.91-111.16h51.25c8.07-53.04,16.14-106.08,24.21-159.12-4.3-.93-61.02-12.17-99.45,27.23-20.62,21.14-25.61,46.24-27.06,56.75-13.25-13.72-26.24-18.13-33.38-19.78-40.7-9.43-89.13,24.56-91.37,57.31-.41,6.04.81,11.08,1.84,14.26-45.07,12.55-76.68,51.48-78.38,94.42-2.04,51.43,39.17,99.68,96.21,106.11,119.35-3.35,238.7-6.69,358.05-10.04,23.67-.66,104.26-54.96,96.07-96.07-6.82-34.27-73.39-47.24-84.01-49.2Z"/>
    <path class="cls-1" d="M422.91,477.28h59.76c12.28,3.33,23.63-.56,28.03-8.42,2.75-4.91,3.07-11.89,0-16.31-6.17-8.88-26.61-8.34-50.69,2.47-12.36,7.42-24.73,14.84-37.09,22.26Z"/>
    <path class="cls-3" d="M500.73,462.42c-11.42,4.95-22.84,9.91-34.26,14.86-18.58,18.21-37.16,36.43-55.74,54.64,2.76,2.61,5.51,5.22,8.27,7.82,27.24-25.78,54.49-51.55,81.73-77.33Z"/>
    <path class="cls-8" d="M543.07,435.47c.19-2.95.32-5.92.32-8.92,0-59.74-38.26-110.52-91.6-129.25v162.93h51.25l-84.03,79.5-84.03-79.5h51.25v-169.16c-58.12,8.6-104.33,53.7-114.6,111.27-8.24-22.07-29.44-37.81-54.38-37.81-32.08,0-58.09,26.01-58.09,58.09,0,4.93.68,9.69,1.84,14.26-44.6,8.31-78.38,47.41-78.38,94.42,0,52.08,41.45,94.45,93.15,96v.07h361.11c53.06,0,96.07-43.01,96.07-96.07s-39.7-92.65-89.86-95.85Z"/>
  </g>
</svg>