<?xml version="1.0" encoding="UTF-8"?>
<svg id="Capa_1" data-name="Capa 1" xmlns="http://www.w3.org/2000/svg" viewBox="0 0 212.33 231.52">
  <defs>
    <style>
      .cls-1 {
        fill: #fff;
      }
    </style>
  </defs>
  <path class="cls-1" d="M198.81,167.93c-4.89-10.17-12.24-10.21-17.43-18.95-2.83-4.76-3.25-9.14-3.74-14.81-2.53-29.23,2.45-55.29-10.39-77.16-8.2-13.96-21.65-21.93-25.11-23.88-7.04-3.97-13.54-5.99-18.15-7.09.48-2.12,1.33-7.24-1.03-12.75-2.4-5.59-8.33-12.11-16.8-12.11s-14.4,6.52-16.8,12.11c-2.36,5.51-1.51,10.63-1.03,12.75-4.61,1.1-11.11,3.12-18.15,7.09-3.47,1.95-16.91,9.92-25.11,23.88-12.84,21.86-7.87,47.93-10.39,77.16-.49,5.67-.91,10.05-3.74,14.81-5.19,8.74-12.54,8.78-17.43,18.95-2.34,4.86-2.54,8.78-2.53,10.59,0,1.4.02,4.94,1.58,8.05,4.07,8.14,16.29,8.55,17.02,8.57,25.53-.01,51.06-.02,76.59-.03,25.53.01,51.06.02,76.59.03.73-.02,12.95-.43,17.02-8.57,1.56-3.11,1.57-6.65,1.58-8.05,0-1.81-.2-5.73-2.53-10.59Z"/>
  <path class="cls-1" d="M133.66,202.38c-.28,35.99-53.47,35.9-54.02,0h54.02Z"/>
</svg>