<?xml version="1.0" encoding="UTF-8"?>
<svg id="Capa_1" data-name="Capa 1" xmlns="http://www.w3.org/2000/svg" viewBox="0 0 285.57 240.63">
  <defs>
    <style>
      .cls-1 {
        fill: #fff;
      }
    </style>
  </defs>
  <g>
    <path class="cls-1" d="M162.24,241.02H.76l-.4-4.45c-.81-9.13-3.11-56.15,31.65-85.15,5.81-4.84,23.46-19.62,50.1-19.23h0c25.78.34,43.01,15.01,48.67,19.82,34.05,28.97,32.45,75.45,31.79,84.48l-.33,4.53ZM9.83,231.25h143.2c.28-13.89-1.9-49.09-28.56-71.77-5.02-4.27-20.23-17.22-42.49-17.51-22.99-.37-38.59,12.69-43.71,16.96-27.25,22.73-28.94,58.37-28.45,72.32Z"/>
    <path class="cls-1" d="M85.64,130.98c-26.81,0-48.63-21.81-48.63-48.63s21.81-48.63,48.63-48.63,48.63,21.81,48.63,48.63-21.81,48.63-48.63,48.63ZM85.64,43.49c-21.43,0-38.86,17.43-38.86,38.86s17.43,38.86,38.86,38.86,38.86-17.43,38.86-38.86-17.43-38.86-38.86-38.86Z"/>
  </g>
  <g>
    <path class="cls-1" d="M165.01,197.53h110.73c.49-13.95-1.19-49.59-28.45-72.32-5.12-4.27-20.72-17.33-43.71-16.96-22.26.29-37.47,13.24-42.49,17.51-9.11,7.75-15.36,16.96-19.63,26.29-1.53-1.78-3.09-3.51-4.7-5.11-.81-.81-1.66-1.59-2.5-2.37,4.72-9.31,11.3-18.43,20.51-26.27,5.66-4.82,22.9-19.48,48.67-19.82,26.64-.39,44.29,14.39,50.1,19.23,34.77,29,32.47,76.02,31.65,85.15l-.4,4.45h-117.88c-.46-3.25-1.11-6.52-1.92-9.77Z"/>
    <path class="cls-1" d="M199.93,97.26c26.81,0,48.63-21.81,48.63-48.63S226.74,0,199.93,0s-48.63,21.81-48.63,48.63,21.81,48.63,48.63,48.63ZM199.93,9.77c21.43,0,38.86,17.43,38.86,38.86s-17.43,38.86-38.86,38.86-38.86-17.43-38.86-38.86,17.43-38.86,38.86-38.86Z"/>
  </g>
</svg>