<?xml version="1.0" encoding="UTF-8"?>
<svg id="Capa_1" data-name="Capa 1" xmlns="http://www.w3.org/2000/svg" viewBox="0 0 391.46 440.47">
  <defs>
    <style>
      .cls-1 {
        fill: #fff;
      }
    </style>
  </defs>
  <path class="cls-1" d="M1.22,379.15c-.69-27.85,25.62-44.62,51.05-44.4,4.24.04,9.32,2.66,12.58-.26l87.68-123.82c-27.16-48.21,20.06-89.78,67.48-67.74,1.02,2.67-.27,1.73-1.16,2.47-17.98,14.8-46.48,19.94-27,48.81,4.52,6.69,10.44,13.02,19.32,12.55,10.7-.56,30.88-19.35,40.83-25.08,4.2-.46,3.21,20.44,2.65,23.65-3.58,20.61-21.59,35.38-42.22,37.47-4.37.44-17.5-1.93-19.28-.77l-88.13,121.56c-1.71,4.24,2.64,8.57,4.04,12.84,15.78,48.17-30.47,77.41-72.69,57.95,9.65-12.2,38.25-18.51,35.37-37.99-.69-4.69-8.46-16.25-11.92-19.85-16.87-17.57-40.4,12.36-55.96,19.19-.34-5.31-2.52-11.39-2.65-16.57Z"/>
  <path class="cls-1" d="M336.97,207.54l54.49-8.01-10.72-72.94-54.49,8.01c-4.5-10.12-10.16-19.54-16.8-28.11l32.87-44.2-59.15-43.99-32.87,44.2c-10.12-3.9-20.77-6.61-31.76-8.01L210.52,0l-72.94,10.72,8.01,54.49c-10.12,4.5-19.54,10.16-28.11,16.8l-44.2-32.87-44,59.15,44.2,32.87c-3.9,10.12-6.61,20.77-8,31.76l-54.49,8.01,10.72,72.94,54.49-8.01c3.92,8.82,8.72,17.1,14.28,24.75l27.25-38.49c-6.34-12.6-9.91-26.83-9.91-41.89,0-51.58,41.81-93.39,93.39-93.39s93.39,41.81,93.39,93.39-41.81,93.39-93.39,93.39c-4.27,0-8.47-.29-12.59-.85l-27.71,38.22c7.44,2.3,15.13,3.98,22.99,4.98l8.01,54.49,72.94-10.72-8.01-54.49c10.12-4.5,19.54-10.16,28.11-16.8l44.2,32.87,44-59.15-44.2-32.87c3.9-10.12,6.61-20.77,8.01-31.76Z"/>
</svg>