<?xml version="1.0" encoding="UTF-8"?>
<svg xmlns="http://www.w3.org/2000/svg" xmlns:xlink="http://www.w3.org/1999/xlink" viewBox="0 0 849.91 830.95">
  <defs>
    <style>
      .cls-1 {
        fill: url(#_Áåçûìÿííûé_ãðàäèåíò_2424);
      }

      .cls-1, .cls-2, .cls-3, .cls-4, .cls-5, .cls-6, .cls-7, .cls-8, .cls-9 {
        mix-blend-mode: color-dodge;
      }

      .cls-10 {
        opacity: .9;
      }

      .cls-11 {
        filter: url(#drop-shadow-98);
      }

      .cls-11, .cls-12, .cls-13, .cls-14, .cls-15, .cls-16 {
        fill: #2b3180;
      }

      .cls-2 {
        fill: url(#_Áåçûìÿííûé_ãðàäèåíò_2425-3);
      }

      .cls-17 {
        fill: url(#Degradado_sin_nombre_235);
      }

      .cls-18 {
        filter: url(#drop-shadow-102);
        stroke: url(#Degradado_sin_nombre_18-3);
      }

      .cls-18, .cls-12, .cls-19, .cls-20, .cls-21 {
        stroke-miterlimit: 10;
      }

      .cls-18, .cls-22, .cls-19, .cls-23, .cls-21, .cls-24 {
        fill: #fff;
      }

      .cls-18, .cls-19, .cls-21 {
        stroke-width: 4px;
      }

      .cls-12, .cls-20 {
        stroke: #2b3180;
        stroke-dasharray: 1.78;
        stroke-width: .89px;
      }

      .cls-25 {
        letter-spacing: -.01em;
      }

      .cls-3 {
        fill: url(#_Áåçûìÿííûé_ãðàäèåíò_2425);
      }

      .cls-22 {
        font-size: 35px;
      }

      .cls-22, .cls-14 {
        font-family: Montserrat-Bold, Montserrat;
      }

      .cls-22, .cls-14, .cls-24 {
        font-weight: 700;
      }

      .cls-4 {
        fill: url(#_Áåçûìÿííûé_ãðàäèåíò_2424-2);
      }

      .cls-26 {
        letter-spacing: -.02em;
      }

      .cls-19 {
        filter: url(#drop-shadow-101);
        stroke: url(#Degradado_sin_nombre_18-2);
      }

      .cls-20 {
        fill: none;
        opacity: .92;
      }

      .cls-13 {
        filter: url(#drop-shadow-97);
      }

      .cls-14, .cls-24 {
        font-size: 68.42px;
      }

      .cls-27 {
        letter-spacing: 0em;
      }

      .cls-28 {
        letter-spacing: 0em;
      }

      .cls-15 {
        filter: url(#drop-shadow-99);
      }

      .cls-21 {
        filter: url(#drop-shadow-100);
        stroke: url(#Degradado_sin_nombre_18);
      }

      .cls-5 {
        fill: url(#_Áåçûìÿííûé_ãðàäèåíò_2420-2);
      }

      .cls-29 {
        fill: url(#Degradado_sin_nombre_4);
        filter: url(#drop-shadow-96);
      }

      .cls-30 {
        isolation: isolate;
      }

      .cls-31 {
        letter-spacing: 0em;
      }

      .cls-32 {
        fill: url(#Degradado_sin_nombre_235-3);
      }

      .cls-33 {
        fill: url(#Degradado_sin_nombre_13);
      }

      .cls-6 {
        fill: url(#_Áåçûìÿííûé_ãðàäèåíò_2420);
      }

      .cls-34 {
        fill: #d1ebff;
      }

      .cls-7 {
        fill: url(#_Áåçûìÿííûé_ãðàäèåíò_2424-3);
      }

      .cls-35 {
        letter-spacing: 0em;
      }

      .cls-36 {
        fill: url(#Degradado_sin_nombre_14);
      }

      .cls-8 {
        fill: url(#_Áåçûìÿííûé_ãðàäèåíò_2425-2);
      }

      .cls-24 {
        font-family: Montserrat-ExtraBold, Montserrat;
      }

      .cls-9 {
        fill: url(#_Áåçûìÿííûé_ãðàäèåíò_2420-3);
      }

      .cls-37 {
        letter-spacing: 0em;
      }

      .cls-38 {
        letter-spacing: -.01em;
      }

      .cls-39 {
        fill: url(#Degradado_sin_nombre_235-2);
      }

      .cls-40 {
        letter-spacing: -.02em;
      }

      .cls-41 {
        letter-spacing: 0em;
      }

      .cls-42 {
        letter-spacing: 0em;
      }

      .cls-43 {
        fill: #f3f3f3;
      }
    </style>
    <linearGradient id="Degradado_sin_nombre_14" data-name="Degradado sin nombre 14" x1="349.16" y1="146.77" x2="346.67" y2="1034.37" gradientUnits="userSpaceOnUse">
      <stop offset="0" stop-color="#000"/>
      <stop offset=".73" stop-color="#2b3180"/>
    </linearGradient>
    <linearGradient id="Degradado_sin_nombre_13" data-name="Degradado sin nombre 13" x1="20.76" y1="198.95" x2="27.2" y2="262.84" gradientUnits="userSpaceOnUse">
      <stop offset="0" stop-color="#00aefb"/>
      <stop offset="1" stop-color="#1b1464"/>
    </linearGradient>
    <linearGradient id="Degradado_sin_nombre_4" data-name="Degradado sin nombre 4" x1="134.17" y1="525.44" x2="452.28" y2="525.44" gradientUnits="userSpaceOnUse">
      <stop offset="0" stop-color="#00aefb"/>
      <stop offset="1" stop-color="#1b1464"/>
    </linearGradient>
    <filter id="drop-shadow-96" x="127.27" y="213.23" width="332" height="624" filterUnits="userSpaceOnUse">
      <feOffset dx="0" dy="0"/>
      <feGaussianBlur result="blur" stdDeviation="2"/>
      <feFlood flood-color="#000" flood-opacity=".75"/>
      <feComposite in2="blur" operator="in"/>
      <feComposite in="SourceGraphic"/>
    </filter>
    <filter id="drop-shadow-97" x="162.27" y="316.23" width="130" height="129" filterUnits="userSpaceOnUse">
      <feOffset dx="2" dy="2"/>
      <feGaussianBlur result="blur-2" stdDeviation="3"/>
      <feFlood flood-color="#000" flood-opacity=".27"/>
      <feComposite in2="blur-2" operator="in"/>
      <feComposite in="SourceGraphic"/>
    </filter>
    <filter id="drop-shadow-98" x="298.27" y="470.23" width="130" height="130" filterUnits="userSpaceOnUse">
      <feOffset dx="2" dy="2"/>
      <feGaussianBlur result="blur-3" stdDeviation="3"/>
      <feFlood flood-color="#000" flood-opacity=".27"/>
      <feComposite in2="blur-3" operator="in"/>
      <feComposite in="SourceGraphic"/>
    </filter>
    <filter id="drop-shadow-99" x="162.27" y="625.23" width="130" height="129" filterUnits="userSpaceOnUse">
      <feOffset dx="2" dy="2"/>
      <feGaussianBlur result="blur-4" stdDeviation="3"/>
      <feFlood flood-color="#000" flood-opacity=".27"/>
      <feComposite in2="blur-4" operator="in"/>
      <feComposite in="SourceGraphic"/>
    </filter>
    <linearGradient id="Degradado_sin_nombre_235" data-name="Degradado sin nombre 235" x1="652.06" y1="353.32" x2="652.79" y2="592.78" gradientUnits="userSpaceOnUse">
      <stop offset="0" stop-color="#00aefb" stop-opacity="0"/>
      <stop offset=".02" stop-color="#00aefb" stop-opacity=".04"/>
      <stop offset=".18" stop-color="#00aefb" stop-opacity=".29"/>
      <stop offset=".34" stop-color="#00aefb" stop-opacity=".51"/>
      <stop offset=".49" stop-color="#00aefb" stop-opacity=".68"/>
      <stop offset=".64" stop-color="#00aefb" stop-opacity=".82"/>
      <stop offset=".77" stop-color="#00aefb" stop-opacity=".92"/>
      <stop offset=".9" stop-color="#00aefb" stop-opacity=".98"/>
      <stop offset="1" stop-color="#00aefb"/>
    </linearGradient>
    <linearGradient id="Degradado_sin_nombre_235-2" data-name="Degradado sin nombre 235" y1="486.74" y2="726.2" xlink:href="#Degradado_sin_nombre_235"/>
    <linearGradient id="Degradado_sin_nombre_235-3" data-name="Degradado sin nombre 235" y1="621.87" y2="861.33" xlink:href="#Degradado_sin_nombre_235"/>
    <linearGradient id="Degradado_sin_nombre_18" data-name="Degradado sin nombre 18" x1="463.23" y1="440.45" x2="463.23" y2="340.17" gradientUnits="userSpaceOnUse">
      <stop offset=".02" stop-color="#009ee2"/>
      <stop offset=".09" stop-color="#068cd3"/>
      <stop offset=".26" stop-color="#146ab6"/>
      <stop offset=".44" stop-color="#1f509f"/>
      <stop offset=".61" stop-color="#263d8e"/>
      <stop offset=".8" stop-color="#2b3185"/>
      <stop offset=".99" stop-color="#2d2e82"/>
    </linearGradient>
    <filter id="drop-shadow-100" x="400.27" y="327.23" width="126" height="126" filterUnits="userSpaceOnUse">
      <feOffset dx="0" dy="0"/>
      <feGaussianBlur result="blur-5" stdDeviation="4"/>
      <feFlood flood-color="#000" flood-opacity=".75"/>
      <feComposite in2="blur-5" operator="in"/>
      <feComposite in="SourceGraphic"/>
    </filter>
    <radialGradient id="_Áåçûìÿííûé_ãðàäèåíò_2425" data-name="Áåçûìÿííûé ãðàäèåíò 2425" cx="53.45" cy="82521.21" fx="53.45" fy="82521.21" r="28.31" gradientTransform="translate(500.1 -7445.74) scale(2.79 .1)" gradientUnits="userSpaceOnUse">
      <stop offset="0" stop-color="#a0a0a0"/>
      <stop offset=".6" stop-color="#383838"/>
      <stop offset=".95" stop-color="#000"/>
      <stop offset=".99" stop-color="#000"/>
      <stop offset="1" stop-color="#000"/>
    </radialGradient>
    <radialGradient id="_Áåçûìÿííûé_ãðàäèåíò_2420" data-name="Áåçûìÿííûé ãðàäèåíò 2420" cx="972.85" cy="80323.12" fx="972.85" fy="80323.12" r="33.03" gradientTransform="translate(-3396.92 -5178.42) scale(4.18 .07)" gradientUnits="userSpaceOnUse">
      <stop offset="0" stop-color="#fff"/>
      <stop offset=".05" stop-color="#ededed"/>
      <stop offset=".32" stop-color="#9a9a9a"/>
      <stop offset=".56" stop-color="#585858"/>
      <stop offset=".76" stop-color="#282828"/>
      <stop offset=".91" stop-color="#0b0b0b"/>
      <stop offset="1" stop-color="#000"/>
    </radialGradient>
    <radialGradient id="_Áåçûìÿííûé_ãðàäèåíò_2424" data-name="Áåçûìÿííûé ãðàäèåíò 2424" cx="792.83" cy="74139.17" fx="792.83" fy="74139.17" r="36.44" gradientTransform="translate(-2950.06 -5590.78) scale(4.54 .08)" gradientUnits="userSpaceOnUse">
      <stop offset="0" stop-color="#fff"/>
      <stop offset=".16" stop-color="#c7c7c7"/>
      <stop offset=".39" stop-color="#818181"/>
      <stop offset=".6" stop-color="#494949"/>
      <stop offset=".78" stop-color="#212121"/>
      <stop offset=".92" stop-color="#090909"/>
      <stop offset="1" stop-color="#000"/>
    </radialGradient>
    <radialGradient id="_Áåçûìÿííûé_ãðàäèåíò_2425-2" data-name="Áåçûìÿííûé ãðàäèåíò 2425" cy="83925.24" fy="83925.24" r="28.31" xlink:href="#_Áåçûìÿííûé_ãðàäèåíò_2425"/>
    <radialGradient id="_Áåçûìÿííûé_ãðàäèåíò_2420-2" data-name="Áåçûìÿííûé ãðàäèåíò 2420" cy="82241.3" fy="82241.3" xlink:href="#_Áåçûìÿííûé_ãðàäèåíò_2420"/>
    <radialGradient id="_Áåçûìÿííûé_ãðàäèåíò_2424-2" data-name="Áåçûìÿííûé ãðàäèåíò 2424" cy="75788.77" fy="75788.77" xlink:href="#_Áåçûìÿííûé_ãðàäèåíò_2424"/>
    <radialGradient id="_Áåçûìÿííûé_ãðàäèåíò_2425-3" data-name="Áåçûìÿííûé ãðàäèåíò 2425" cy="85337.16" fy="85337.16" r="28.31" xlink:href="#_Áåçûìÿííûé_ãðàäèåíò_2425"/>
    <radialGradient id="_Áåçûìÿííûé_ãðàäèåíò_2420-3" data-name="Áåçûìÿííûé ãðàäèåíò 2420" cy="84170.26" fy="84170.26" xlink:href="#_Áåçûìÿííûé_ãðàäèåíò_2420"/>
    <radialGradient id="_Áåçûìÿííûé_ãðàäèåíò_2424-3" data-name="Áåçûìÿííûé ãðàäèåíò 2424" cy="77447.62" fy="77447.62" xlink:href="#_Áåçûìÿííûé_ãðàäèåíò_2424"/>
    <linearGradient id="Degradado_sin_nombre_18-2" data-name="Degradado sin nombre 18" y1="575.58" y2="475.3" xlink:href="#Degradado_sin_nombre_18"/>
    <filter id="drop-shadow-101" x="400.27" y="463.23" width="126" height="125" filterUnits="userSpaceOnUse">
      <feOffset dx="0" dy="0"/>
      <feGaussianBlur result="blur-6" stdDeviation="4"/>
      <feFlood flood-color="#000" flood-opacity=".75"/>
      <feComposite in2="blur-6" operator="in"/>
      <feComposite in="SourceGraphic"/>
    </filter>
    <linearGradient id="Degradado_sin_nombre_18-3" data-name="Degradado sin nombre 18" y1="710.71" y2="610.43" xlink:href="#Degradado_sin_nombre_18"/>
    <filter id="drop-shadow-102" x="400.27" y="598.23" width="126" height="125" filterUnits="userSpaceOnUse">
      <feOffset dx="0" dy="0"/>
      <feGaussianBlur result="blur-7" stdDeviation="4"/>
      <feFlood flood-color="#000" flood-opacity=".75"/>
      <feComposite in2="blur-7" operator="in"/>
      <feComposite in="SourceGraphic"/>
    </filter>
  </defs>
  <g class="cls-30">
    <g id="Capa_1" data-name="Capa 1">
      <g>
        <g>
          <rect class="cls-36" x="40.01" y=".96" width="616.97" height="768.07" rx="41.66" ry="41.66"/>
          <path class="cls-16" d="M699.49,200.85c-232.53,0-465.07,0-697.6,0v-87.53h732.71c-11.7,29.18-23.4,58.35-35.1,87.53Z"/>
          <text class="cls-24" transform="translate(58.55 92.48)"><tspan x="0" y="0">DESARROL</tspan><tspan class="cls-38" x="401.41" y="0">L</tspan><tspan x="442.4" y="0">O </tspan><tspan class="cls-35" x="0" y="91">P</tspan><tspan class="cls-27" x="49.74" y="91">ROGRES</tspan><tspan class="cls-28" x="351.81" y="91">I</tspan><tspan class="cls-40" x="374.87" y="91">V</tspan><tspan class="cls-27" x="425.63" y="91">O</tspan></text>
          <path class="cls-33" d="M1.89,200.85c12.71,20.23,25.41,40.46,38.12,60.69v-60.69H1.89Z"/>
          <g>
            <path class="cls-23" d="M348.49,262.55c29.02,0,57.17,5.68,83.67,16.89,25.6,10.83,48.59,26.33,68.33,46.07s35.24,42.73,46.07,68.33c11.21,26.5,16.89,54.65,16.89,83.67s-5.68,57.17-16.89,83.67c-10.83,25.6-26.33,48.59-46.07,68.33-19.74,19.74-42.73,35.24-68.33,46.07-26.5,11.21-54.65,16.89-83.67,16.89s-57.17-5.68-83.67-16.89c-25.6-10.83-48.59-26.33-68.33-46.07-19.74-19.74-35.24-42.73-46.07-68.33-11.21-26.5-16.89-54.65-16.89-83.67s5.68-57.17,16.89-83.67c10.83-25.6,26.33-48.58,46.07-68.33,19.74-19.74,42.73-35.24,68.33-46.07,26.5-11.21,54.65-16.89,83.67-16.89M348.49,261.55c-119.27,0-215.96,96.69-215.96,215.96s96.69,215.96,215.96,215.96,215.96-96.69,215.96-215.96-96.69-215.96-215.96-215.96h0Z"/>
            <path class="cls-23" d="M347.51,290.97c25.18,0,49.61,4.93,72.61,14.66,22.21,9.4,42.16,22.84,59.29,39.98,17.13,17.13,30.58,37.08,39.98,59.29,9.73,23,14.66,47.42,14.66,72.61s-4.93,49.61-14.66,72.61c-9.39,22.21-22.84,42.16-39.98,59.29-17.13,17.13-37.08,30.58-59.29,39.98-23,9.73-47.42,14.66-72.61,14.66s-49.61-4.93-72.61-14.66c-22.21-9.4-42.16-22.84-59.29-39.98-17.13-17.13-30.58-37.08-39.98-59.29-9.73-23-14.66-47.42-14.66-72.61s4.93-49.61,14.66-72.61c9.39-22.21,22.84-42.16,39.98-59.29,17.13-17.13,37.08-30.58,59.29-39.98,23-9.73,47.42-14.66,72.61-14.66M347.51,289.97c-103.57,0-187.53,83.96-187.53,187.53s83.96,187.53,187.53,187.53,187.53-83.96,187.53-187.53-83.96-187.53-187.53-187.53h0Z"/>
          </g>
        </g>
        <g>
          <g>
            <path class="cls-34" d="M191.85,233.84h202.74c25.24,0,45.73,20.49,45.73,45.73v491.73c0,25.24-20.49,45.73-45.73,45.73h-202.74c-25.24,0-45.73-20.49-45.73-45.73v-491.73c0-25.24,20.49-45.73,45.73-45.73Z"/>
            <path class="cls-29" d="M391.79,219.93h-197.14c-33.4,0-60.48,27.08-60.48,60.48v490.05c0,33.4,27.08,60.48,60.48,60.48h197.14c33.4,0,60.48-27.08,60.48-60.48v-490.05c0-33.4-27.08-60.48-60.48-60.48ZM440.33,771.3c0,25.26-20.48,45.73-45.73,45.73h-202.74c-25.26,0-45.73-20.48-45.73-45.73v-491.73c0-25.26,20.48-45.73,45.73-45.73h202.74c25.26,0,45.73,20.48,45.73,45.73v491.73Z"/>
            <path class="cls-13" d="M181.71,323.26h86.62c6.62,0,12,5.38,12,12v86.62c0,6.62-5.38,12-12,12h-86.62c-6.62,0-12-5.38-12-12v-86.62c0-6.62,5.38-12,12-12Z"/>
            <path class="cls-20" d="M318.12,323.26h86.62c6.62,0,12,5.38,12,12v86.62c0,6.62-5.38,12-12,12h-86.62c-6.62,0-12-5.38-12-12v-86.62c0-6.62,5.38-12,12-12Z"/>
            <rect class="cls-20" x="169.71" y="477.77" width="110.62" height="110.62" rx="12" ry="12"/>
            <rect class="cls-11" x="306.12" y="477.77" width="110.62" height="110.62" rx="12" ry="12"/>
            <rect class="cls-15" x="169.71" y="632.28" width="110.62" height="110.62" rx="12" ry="12"/>
            <rect class="cls-20" x="306.12" y="632.28" width="110.62" height="110.62" rx="12" ry="12"/>
            <polygon class="cls-43" points="269.04 364.73 227.19 346.7 185.34 364.73 196.55 364.73 196.55 410.43 219.37 410.43 219.37 385.39 235.01 385.39 235.01 410.43 257.83 410.43 257.83 364.73 269.04 364.73"/>
            <g>
              <rect class="cls-43" x="326.8" y="538.04" width="15.14" height="32.14"/>
              <rect class="cls-43" x="353.37" y="517.06" width="15.14" height="53.11"/>
              <rect class="cls-43" x="380.92" y="497.43" width="15.14" height="72.74"/>
            </g>
            <path class="cls-43" d="M250.59,661.39h-51.13c-6.16,0-11.16,5-11.16,11.16v25.65c0,4.72,2.93,8.74,7.07,10.38h-.02l6.52,13.02,7.04-12.23h41.69c6.16,0,11.16-5,11.16-11.16v-25.65c0-6.16-5-11.16-11.16-11.16ZM205.08,692.52c-4.02,0-7.28-3.26-7.28-7.28s3.26-7.28,7.28-7.28,7.28,3.26,7.28,7.28-3.26,7.28-7.28,7.28ZM225.02,692.52c-4.02,0-7.28-3.26-7.28-7.28s3.26-7.28,7.28-7.28,7.28,3.26,7.28,7.28-3.26,7.28-7.28,7.28ZM244.97,692.52c-4.02,0-7.28-3.26-7.28-7.28s3.26-7.28,7.28-7.28,7.28,3.26,7.28,7.28-3.26,7.28-7.28,7.28Z"/>
          </g>
          <circle class="cls-12" cx="293.22" cy="255.73" r="10.24"/>
        </g>
        <g>
          <path class="cls-16" d="M454.45,348.26v87.53h360.35c11.7-29.18,23.4-58.35,35.1-87.53h-395.45Z"/>
          <path class="cls-16" d="M454.45,481.53v87.53h360.35c11.7-29.18,23.4-58.35,35.1-87.53h-395.45Z"/>
          <path class="cls-16" d="M454.45,616.81v87.53h360.35c11.7-29.18,23.4-58.35,35.1-87.53h-395.45Z"/>
          <path class="cls-17" d="M454.45,348.26v87.53h360.35c11.7-29.18,23.4-58.35,35.1-87.53h-395.45Z"/>
          <path class="cls-39" d="M454.45,481.68v87.53h360.35c11.7-29.18,23.4-58.35,35.1-87.53h-395.45Z"/>
          <path class="cls-32" d="M454.45,616.81v87.53h360.35c11.7-29.18,23.4-58.35,35.1-87.53h-395.45Z"/>
          <g>
            <circle class="cls-21" cx="463.23" cy="390.31" r="48.14"/>
            <text class="cls-14" transform="translate(442.18 417.25)"><tspan x="0" y="0">P</tspan></text>
          </g>
          <g class="cls-10">
            <path class="cls-3" d="M749.36,431.83h-200c23.37-1.64,57.83-3.42,100-3.42,24.49,0,59.76.6,100,3.42Z"/>
            <path class="cls-6" d="M808.45,432.75c0,1.27-61.83,2.31-138.09,2.31-76.27,0-138.09-1.03-138.09-2.31,0-1.27,61.83-2.31,138.09-2.31,76.27,0,138.09,1.03,138.09,2.31Z"/>
            <path class="cls-1" d="M814.8,431.75c0,1.63-74.07,2.96-165.44,2.96s-165.44-1.33-165.44-2.96,74.07-2.96,165.44-2.96,165.44,1.33,165.44,2.96Z"/>
          </g>
          <g class="cls-10">
            <path class="cls-8" d="M749.36,565.83h-200c23.37-1.64,57.83-3.42,100-3.42,24.49,0,59.76.6,100,3.42Z"/>
            <path class="cls-5" d="M808.45,566.75c0,1.27-61.83,2.31-138.09,2.31-76.27,0-138.09-1.03-138.09-2.31,0-1.27,61.83-2.31,138.09-2.31,76.27,0,138.09,1.03,138.09,2.31Z"/>
            <path class="cls-4" d="M814.8,565.75c0,1.63-74.07,2.96-165.44,2.96s-165.44-1.33-165.44-2.96,74.07-2.96,165.44-2.96,165.44,1.33,165.44,2.96Z"/>
          </g>
          <g class="cls-10">
            <path class="cls-2" d="M749.36,700.58h-200c23.37-1.64,57.83-3.42,100-3.42,24.49,0,59.76.6,100,3.42Z"/>
            <path class="cls-9" d="M808.45,701.51c0,1.27-61.83,2.31-138.09,2.31-76.27,0-138.09-1.03-138.09-2.31,0-1.27,61.83-2.31,138.09-2.31,76.27,0,138.09,1.03,138.09,2.31Z"/>
            <path class="cls-7" d="M814.8,700.51c0,1.63-74.07,2.96-165.44,2.96s-165.44-1.33-165.44-2.96,74.07-2.96,165.44-2.96,165.44,1.33,165.44,2.96Z"/>
          </g>
          <g>
            <circle class="cls-19" cx="463.23" cy="525.44" r="48.14"/>
            <text class="cls-14" transform="translate(423.59 550.1)"><tspan x="0" y="0">W</tspan></text>
          </g>
          <g>
            <circle class="cls-18" cx="463.23" cy="660.57" r="48.14"/>
            <text class="cls-14" transform="translate(434.74 680.55)"><tspan x="0" y="0">A</tspan></text>
          </g>
          <text class="cls-22" transform="translate(524.41 402.24)"><tspan class="cls-31" x="0" y="0">P</tspan><tspan x="25.27" y="0">ROGRESS</tspan><tspan class="cls-37" x="201.39" y="0">I</tspan><tspan class="cls-25" x="212.73" y="0">V</tspan><tspan x="238.31" y="0">E</tspan></text>
          <text class="cls-22" transform="translate(527.32 535.66)"><tspan class="cls-26" x="0" y="0">W</tspan><tspan x="40.18" y="0">EB</tspan></text>
          <text class="cls-22" transform="translate(523.6 672.06)"><tspan x="0" y="0">A</tspan><tspan class="cls-41" x="26.81" y="0">P</tspan><tspan class="cls-42" x="52.08" y="0">PS</tspan></text>
        </g>
      </g>
    </g>
  </g>
</svg>