<?xml version="1.0" encoding="UTF-8"?>
<svg id="Capa_1" data-name="Capa 1" xmlns="http://www.w3.org/2000/svg" xmlns:xlink="http://www.w3.org/1999/xlink" viewBox="0 0 728.57 1020.76">
  <defs>
    <style>
      .cls-1 {
        fill: #fff;
      }

      .cls-2 {
        fill: none;
      }

      .cls-3 {
        clip-path: url(#clippath);
      }
    </style>
    <clipPath id="clippath">
      <path class="cls-2" d="M10.28,140.82C90.95,94.22,171.62,47.62,252.29,1.01c55.07,32.04,110.13,64.08,165.2,96.12,7.88,46.28,17.79,94.98,30.25,145.68,7.07,28.77,14.55,56.54,22.33,83.28-49.96,28.98-99.92,57.95-149.88,86.93-1.77,36.83-2.97,74.83-3.46,113.92-.6,47.87-.1,94.15,1.28,138.71-47.72,26.97-95.45,53.94-143.17,80.91-53.84-31.51-107.68-63.01-161.53-94.52-1.01-170.41-2.02-340.82-3.03-511.23Z"/>
    </clipPath>
  </defs>
  <g>
    <path class="cls-1" d="M319.3,415.91c78.8-45.44,157.6-90.89,236.41-136.33v-2.82c-79.45,45.76-158.89,91.53-238.34,137.29l-.64.37v509.83h2.67c-.03-.87-.06-1.74-.1-2.61v-505.74Z"/>
    <g>
      <path class="cls-1" d="M467.86,580.41l-130.85-76.28v-51.25l130.85,76.2v51.32ZM339.58,502.66l125.7,73.28v-45.37l-125.7-73.2v45.29Z"/>
      <path class="cls-1" d="M460.73,568.01l-116.59-67.97v-34.74l116.59,67.89v34.82ZM346.71,498.56l111.44,64.97v-28.86l-111.44-64.89v28.79Z"/>
      <g>
        <path class="cls-1" d="M410.65,533.94l-62.3-36.32v-25.01l62.3,36.28v25.05ZM349.63,496.88l59.73,34.82v-22.07l-59.73-34.78v22.03Z"/>
        <path class="cls-1" d="M456.52,560.69l-40.92-23.86v-25.05l40.92,23.83v25.08ZM416.89,536.09l38.35,22.36v-22.1l-38.35-22.33v22.08Z"/>
      </g>
      <polygon class="cls-1" points="427.67 522.96 420.03 518.52 420.03 526.04 427.67 530.49 427.67 522.96"/>
      <polygon class="cls-1" points="451.55 536.6 443.92 532.15 443.92 539.67 451.55 544.13 451.55 536.6"/>
      <polygon class="cls-1" points="439.66 529.84 432.03 525.39 432.03 532.91 439.66 537.36 439.66 529.84"/>
      <polygon class="cls-1" points="427.67 533.37 420.03 528.92 420.03 536.44 427.67 540.9 427.67 533.37"/>
      <polygon class="cls-1" points="451.55 547 443.92 542.56 443.92 550.08 451.55 554.53 451.55 547"/>
      <polygon class="cls-1" points="439.66 540.24 432.03 535.79 432.03 543.32 439.66 547.77 439.66 540.24"/>
      <g>
        <path class="cls-1" d="M361.98,492.47c0,2.04-1.44,2.86-3.22,1.83-1.78-1.03-3.22-3.51-3.22-5.55s1.44-2.86,3.22-1.83c1.78,1.03,3.22,3.51,3.22,5.55Z"/>
        <path class="cls-1" d="M371.34,497.82c0,2.04-1.44,2.86-3.22,1.83-1.78-1.03-3.22-3.51-3.22-5.55s1.44-2.86,3.22-1.83c1.78,1.03,3.22,3.51,3.22,5.55Z"/>
        <path class="cls-1" d="M381.14,503.76c0,2.04-1.44,2.86-3.22,1.83-1.78-1.03-3.22-3.51-3.22-5.55s1.44-2.86,3.22-1.83c1.78,1.03,3.22,3.51,3.22,5.55Z"/>
      </g>
    </g>
    <g>
      <path class="cls-1" d="M467.86,662.43l-130.85-76.28v-51.25l130.85,76.2v51.32ZM339.58,584.68l125.7,73.28v-45.37l-125.7-73.2v45.29Z"/>
      <path class="cls-1" d="M460.73,650.03l-116.59-67.97v-34.74l116.59,67.89v34.82ZM346.71,580.58l111.44,64.97v-28.86l-111.44-64.89v28.79Z"/>
      <g>
        <path class="cls-1" d="M410.65,615.96l-62.3-36.32v-25.01l62.3,36.28v25.05ZM349.63,578.9l59.73,34.82v-22.07l-59.73-34.78v22.03Z"/>
        <path class="cls-1" d="M456.52,642.71l-40.92-23.86v-25.05l40.92,23.83v25.08ZM416.89,618.11l38.35,22.36v-22.1l-38.35-22.33v22.08Z"/>
      </g>
      <polygon class="cls-1" points="427.67 604.98 420.03 600.54 420.03 608.06 427.67 612.51 427.67 604.98"/>
      <polygon class="cls-1" points="451.55 618.62 443.92 614.17 443.92 621.69 451.55 626.15 451.55 618.62"/>
      <polygon class="cls-1" points="439.66 611.86 432.03 607.41 432.03 614.93 439.66 619.38 439.66 611.86"/>
      <polygon class="cls-1" points="427.67 615.39 420.03 610.94 420.03 618.46 427.67 622.92 427.67 615.39"/>
      <polygon class="cls-1" points="451.55 629.02 443.92 624.58 443.92 632.1 451.55 636.55 451.55 629.02"/>
      <polygon class="cls-1" points="439.66 622.26 432.03 617.81 432.03 625.34 439.66 629.79 439.66 622.26"/>
      <g>
        <path class="cls-1" d="M361.98,574.49c0,2.04-1.44,2.86-3.22,1.83-1.78-1.03-3.22-3.51-3.22-5.55s1.44-2.86,3.22-1.83c1.78,1.03,3.22,3.51,3.22,5.55Z"/>
        <path class="cls-1" d="M371.34,579.84c0,2.04-1.44,2.86-3.22,1.83-1.78-1.03-3.22-3.51-3.22-5.55s1.44-2.86,3.22-1.83c1.78,1.03,3.22,3.51,3.22,5.55Z"/>
        <path class="cls-1" d="M381.14,585.78c0,2.04-1.44,2.86-3.22,1.83-1.78-1.03-3.22-3.51-3.22-5.55s1.44-2.86,3.22-1.83c1.78,1.03,3.22,3.51,3.22,5.55Z"/>
      </g>
    </g>
    <g>
      <path class="cls-1" d="M467.86,740.92l-130.85-76.28v-51.25l130.85,76.2v51.32ZM339.58,663.16l125.7,73.28v-45.37l-125.7-73.2v45.29Z"/>
      <path class="cls-1" d="M460.73,728.52l-116.59-67.97v-34.74l116.59,67.89v34.82ZM346.71,659.07l111.44,64.97v-28.86l-111.44-64.89v28.79Z"/>
      <g>
        <path class="cls-1" d="M410.65,694.45l-62.3-36.32v-25.01l62.3,36.28v25.05ZM349.63,657.39l59.73,34.82v-22.07l-59.73-34.78v22.03Z"/>
        <path class="cls-1" d="M456.52,721.2l-40.92-23.86v-25.05l40.92,23.83v25.08ZM416.89,696.6l38.35,22.36v-22.1l-38.35-22.33v22.08Z"/>
      </g>
      <polygon class="cls-1" points="427.67 683.47 420.03 679.03 420.03 686.55 427.67 691 427.67 683.47"/>
      <polygon class="cls-1" points="451.55 697.11 443.92 692.66 443.92 700.18 451.55 704.63 451.55 697.11"/>
      <polygon class="cls-1" points="439.66 690.34 432.03 685.9 432.03 693.42 439.66 697.87 439.66 690.34"/>
      <polygon class="cls-1" points="427.67 693.88 420.03 689.43 420.03 696.95 427.67 701.4 427.67 693.88"/>
      <polygon class="cls-1" points="451.55 707.51 443.92 703.06 443.92 710.59 451.55 715.04 451.55 707.51"/>
      <polygon class="cls-1" points="439.66 700.75 432.03 696.3 432.03 703.82 439.66 708.28 439.66 700.75"/>
      <g>
        <path class="cls-1" d="M361.98,652.98c0,2.04-1.44,2.86-3.22,1.83-1.78-1.03-3.22-3.51-3.22-5.55s1.44-2.86,3.22-1.83c1.78,1.03,3.22,3.51,3.22,5.55Z"/>
        <path class="cls-1" d="M371.34,658.33c0,2.04-1.44,2.86-3.22,1.83-1.78-1.03-3.22-3.51-3.22-5.55s1.44-2.86,3.22-1.83c1.78,1.03,3.22,3.51,3.22,5.55Z"/>
        <path class="cls-1" d="M381.14,664.27c0,2.04-1.44,2.86-3.22,1.83-1.78-1.03-3.22-3.51-3.22-5.55s1.44-2.86,3.22-1.83c1.78,1.03,3.22,3.51,3.22,5.55Z"/>
      </g>
    </g>
    <g>
      <path class="cls-1" d="M467.86,822.94l-130.85-76.28v-51.25l130.85,76.2v51.32ZM339.58,745.18l125.7,73.28v-45.37l-125.7-73.2v45.29Z"/>
      <path class="cls-1" d="M460.73,810.54l-116.59-67.97v-34.74l116.59,67.89v34.82ZM346.71,741.09l111.44,64.97v-28.86l-111.44-64.89v28.79Z"/>
      <g>
        <path class="cls-1" d="M410.65,776.47l-62.3-36.32v-25.01l62.3,36.28v25.05ZM349.63,739.41l59.73,34.82v-22.07l-59.73-34.78v22.03Z"/>
        <path class="cls-1" d="M456.52,803.22l-40.92-23.86v-25.05l40.92,23.83v25.08ZM416.89,778.62l38.35,22.36v-22.1l-38.35-22.33v22.08Z"/>
      </g>
      <polygon class="cls-1" points="427.67 765.49 420.03 761.05 420.03 768.57 427.67 773.02 427.67 765.49"/>
      <polygon class="cls-1" points="451.55 779.13 443.92 774.68 443.92 782.2 451.55 786.65 451.55 779.13"/>
      <polygon class="cls-1" points="439.66 772.36 432.03 767.92 432.03 775.44 439.66 779.89 439.66 772.36"/>
      <polygon class="cls-1" points="427.67 775.9 420.03 771.45 420.03 778.97 427.67 783.42 427.67 775.9"/>
      <polygon class="cls-1" points="451.55 789.53 443.92 785.08 443.92 792.61 451.55 797.06 451.55 789.53"/>
      <polygon class="cls-1" points="439.66 782.77 432.03 778.32 432.03 785.84 439.66 790.3 439.66 782.77"/>
      <g>
        <path class="cls-1" d="M361.98,735c0,2.04-1.44,2.86-3.22,1.83-1.78-1.03-3.22-3.51-3.22-5.55s1.44-2.86,3.22-1.83c1.78,1.03,3.22,3.51,3.22,5.55Z"/>
        <path class="cls-1" d="M371.34,740.35c0,2.04-1.44,2.86-3.22,1.83-1.78-1.03-3.22-3.51-3.22-5.55s1.44-2.86,3.22-1.83c1.78,1.03,3.22,3.51,3.22,5.55Z"/>
        <path class="cls-1" d="M381.14,746.29c0,2.04-1.44,2.86-3.22,1.83-1.78-1.03-3.22-3.51-3.22-5.55s1.44-2.86,3.22-1.83c1.78,1.03,3.22,3.51,3.22,5.55Z"/>
      </g>
    </g>
    <g>
      <path class="cls-1" d="M467.86,901.14l-130.85-76.28v-51.25l130.85,76.2v51.32ZM339.58,823.38l125.7,73.28v-45.37l-125.7-73.2v45.29Z"/>
      <path class="cls-1" d="M460.73,888.73l-116.59-67.97v-34.74l116.59,67.89v34.82ZM346.71,819.29l111.44,64.97v-28.86l-111.44-64.89v28.79Z"/>
      <g>
        <path class="cls-1" d="M410.65,854.67l-62.3-36.32v-25.01l62.3,36.28v25.05ZM349.63,817.61l59.73,34.82v-22.07l-59.73-34.78v22.03Z"/>
        <path class="cls-1" d="M456.52,881.41l-40.92-23.86v-25.05l40.92,23.83v25.08ZM416.89,856.81l38.35,22.36v-22.1l-38.35-22.33v22.08Z"/>
      </g>
      <polygon class="cls-1" points="427.67 843.69 420.03 839.24 420.03 846.77 427.67 851.22 427.67 843.69"/>
      <polygon class="cls-1" points="451.55 857.32 443.92 852.88 443.92 860.4 451.55 864.85 451.55 857.32"/>
      <polygon class="cls-1" points="439.66 850.56 432.03 846.11 432.03 853.64 439.66 858.09 439.66 850.56"/>
      <polygon class="cls-1" points="427.67 854.09 420.03 849.65 420.03 857.17 427.67 861.62 427.67 854.09"/>
      <polygon class="cls-1" points="451.55 867.73 443.92 863.28 443.92 870.8 451.55 875.26 451.55 867.73"/>
      <polygon class="cls-1" points="439.66 860.96 432.03 856.52 432.03 864.04 439.66 868.49 439.66 860.96"/>
      <g>
        <path class="cls-1" d="M361.98,813.2c0,2.04-1.44,2.86-3.22,1.83-1.78-1.03-3.22-3.51-3.22-5.55s1.44-2.86,3.22-1.83c1.78,1.03,3.22,3.51,3.22,5.55Z"/>
        <path class="cls-1" d="M371.34,818.55c0,2.04-1.44,2.86-3.22,1.83-1.78-1.03-3.22-3.51-3.22-5.55s1.44-2.86,3.22-1.83c1.78,1.03,3.22,3.51,3.22,5.55Z"/>
        <path class="cls-1" d="M381.14,824.49c0,2.04-1.44,2.86-3.22,1.83-1.78-1.03-3.22-3.51-3.22-5.55s1.44-2.86,3.22-1.83c1.78,1.03,3.22,3.51,3.22,5.55Z"/>
      </g>
    </g>
    <g>
      <path class="cls-1" d="M467.86,983.16l-130.85-76.28v-51.25l130.85,76.2v51.32ZM339.58,905.4l125.7,73.28v-45.37l-125.7-73.2v45.29Z"/>
      <path class="cls-1" d="M460.73,970.75l-116.59-67.97v-34.74l116.59,67.89v34.82ZM346.71,901.31l111.44,64.97v-28.86l-111.44-64.89v28.79Z"/>
      <g>
        <path class="cls-1" d="M410.65,936.69l-62.3-36.32v-25.01l62.3,36.28v25.05ZM349.63,899.63l59.73,34.82v-22.07l-59.73-34.78v22.03Z"/>
        <path class="cls-1" d="M456.52,963.43l-40.92-23.86v-25.05l40.92,23.83v25.08ZM416.89,938.83l38.35,22.36v-22.1l-38.35-22.33v22.08Z"/>
      </g>
      <polygon class="cls-1" points="427.67 925.71 420.03 921.26 420.03 928.79 427.67 933.24 427.67 925.71"/>
      <polygon class="cls-1" points="451.55 939.34 443.92 934.9 443.92 942.42 451.55 946.87 451.55 939.34"/>
      <polygon class="cls-1" points="439.66 932.58 432.03 928.13 432.03 935.66 439.66 940.11 439.66 932.58"/>
      <polygon class="cls-1" points="427.67 936.11 420.03 931.67 420.03 939.19 427.67 943.64 427.67 936.11"/>
      <polygon class="cls-1" points="451.55 949.75 443.92 945.3 443.92 952.82 451.55 957.28 451.55 949.75"/>
      <polygon class="cls-1" points="439.66 942.98 432.03 938.54 432.03 946.06 439.66 950.51 439.66 942.98"/>
      <g>
        <path class="cls-1" d="M361.98,895.22c0,2.04-1.44,2.86-3.22,1.83-1.78-1.03-3.22-3.51-3.22-5.55s1.44-2.86,3.22-1.83c1.78,1.03,3.22,3.51,3.22,5.55Z"/>
        <path class="cls-1" d="M371.34,900.57c0,2.04-1.44,2.86-3.22,1.83-1.78-1.03-3.22-3.51-3.22-5.55s1.44-2.86,3.22-1.83c1.78,1.03,3.22,3.51,3.22,5.55Z"/>
        <path class="cls-1" d="M381.14,906.51c0,2.04-1.44,2.86-3.22,1.83-1.78-1.03-3.22-3.51-3.22-5.55s1.44-2.86,3.22-1.83c1.78,1.03,3.22,3.51,3.22,5.55Z"/>
      </g>
    </g>
    <path class="cls-1" d="M478.26,1018.77c-.52-170.35-1.04-340.69-1.55-511.04l.64-.37,239.61-138.02v511.68l-.64.37c-79.35,45.8-158.7,91.59-238.05,137.39ZM479.27,509.22v505.73l235.1-135.42v-505.74l-235.1,135.43Z"/>
    <path class="cls-1" d="M511.15,835.43c-3.54,0-6.42-2.89-6.42-6.43v-277.66c0-5.92,3.18-11.43,8.31-14.38l166.27-95.77c.99-.56,2.09-.86,3.2-.86,3.54,0,6.43,2.89,6.43,6.43v277.66c0,5.92-3.19,11.43-8.31,14.38l-166.27,95.77c-.99.56-2.09.87-3.2.87ZM682.5,443.88c-.49,0-.97.13-1.42.39l-166.27,95.77c-4.03,2.32-6.53,6.65-6.53,11.29v277.66c0,2.41,2.6,3.45,4.28,2.48l166.27-95.77c4.03-2.32,6.53-6.65,6.53-11.29v-277.66c0-1.77-1.49-2.86-2.86-2.86Z"/>
    <path class="cls-1" d="M511.15,835.43c-1.11,0-2.21-.29-3.22-.87l1.79-3.08c.89.52,1.96.52,2.85,0l166.27-95.77c4.03-2.32,6.53-6.65,6.53-11.29v-277.66c0-1.43-.93-2.31-1.81-2.66l1.32-3.31c2.46.98,4.05,3.32,4.05,5.97v277.66c0,5.92-3.19,11.43-8.31,14.38l-166.27,95.77c-1.01.58-2.1.87-3.2.87Z"/>
    <path class="cls-1" d="M478.07,509.73l-.54-.32c-53.6-32.13-107.2-64.26-160.8-96.39,79.57-45.34,159.14-90.68,238.7-136.03,53.84,30.78,107.68,61.56,161.52,92.34-79.63,46.8-159.25,93.59-238.88,140.39ZM320.18,415.27l157.9,91.95,235.41-135.66-158.07-92.05-235.24,135.76Z"/>
    <path class="cls-1" d="M478.26,1018.77c.35-.48.7-.95,1.11-1.38v-509.66l-162.63-94.71v511.59l160.7,93.68.83.48ZM476.79,1014.94l-157.49-91.8v-505.63l157.49,91.71v505.73Z"/>
    <g>
      <g>
        <g>
          <path class="cls-1" d="M509.52,875.57c-.63,0-1.26-.17-1.83-.5-1.15-.66-1.83-1.85-1.83-3.17v-1.66c0-2.87,1.54-5.54,4.03-6.97l73.2-42.16c1.15-.66,2.51-.66,3.66,0,1.15.66,1.83,1.85,1.83,3.17v1.66c0,2.87-1.54,5.54-4.03,6.97l-73.2,42.16c-.57.33-1.2.5-1.83.5ZM584.92,821.9c-.41,0-.81.11-1.19.32l-73.2,42.16c-2.09,1.2-3.38,3.45-3.38,5.85v1.66c0,.86.44,1.63,1.19,2.06.74.43,1.63.44,2.37,0l73.2-42.16c2.09-1.2,3.39-3.45,3.39-5.85v-1.66c0-.86-.44-1.63-1.19-2.06-.37-.22-.78-.32-1.19-.32Z"/>
          <path class="cls-1" d="M609.08,818.23c-.63,0-1.26-.17-1.83-.5-1.15-.66-1.83-1.85-1.83-3.17v-1.66c0-2.86,1.54-5.54,4.03-6.97l72.87-41.97c1.15-.66,2.52-.66,3.65,0,1.15.66,1.83,1.85,1.83,3.18v1.66c0,2.86-1.54,5.54-4.03,6.97l-72.86,41.97c-.57.33-1.2.5-1.83.5ZM684.13,764.75c-.41,0-.81.11-1.19.32l-72.87,41.97c-2.09,1.2-3.38,3.45-3.38,5.85v1.66c0,.86.44,1.63,1.19,2.06.74.43,1.62.43,2.38,0l72.86-41.97c2.09-1.2,3.38-3.45,3.38-5.85v-1.66c0-.86-.44-1.63-1.19-2.06-.37-.22-.77-.32-1.18-.32Z"/>
        </g>
        <g>
          <path class="cls-1" d="M509.55,875.56c-1.19,0-2.36-.58-3.07-1.64l-.63-.93,1.13-.07c.4-.02.75-.12,1.06-.3l73.2-42.16c2.09-1.2,3.39-3.44,3.39-5.85v-1.66c0-.46-.14-.9-.41-1.31l-.62-.93,1.12-.06c1.01,0,2.01.32,2.74,1.02.72.69,1.12,1.62,1.12,2.63v1.66c0,2.86-1.54,5.54-4.03,6.97l-73.2,42.16c-.57.33-1.19.48-1.81.48ZM508.3,873.92c.67.42,1.56.53,2.41.04l73.2-42.16c2.09-1.21,3.39-3.45,3.39-5.85v-1.66c0-.65-.26-1.25-.72-1.69-.23-.22-.49-.38-.77-.49.07.28.1.56.1.85v1.66c0,2.87-1.54,5.54-4.03,6.97l-73.2,42.16c-.12.07-.25.13-.38.19Z"/>
          <path class="cls-1" d="M609.07,818.23c-1.18,0-2.33-.58-3.04-1.65l-.62-.93,1.13-.07c.4-.02.75-.12,1.06-.3l72.86-41.97c2.09-1.2,3.38-3.45,3.38-5.85v-1.66c0-.47-.14-.91-.4-1.31l-.62-.93,1.13-.07c.94-.08,2,.31,2.73,1.01.72.69,1.13,1.62,1.13,2.64v1.66c0,2.86-1.54,5.54-4.03,6.97l-72.86,41.97c-.58.34-1.21.5-1.83.5ZM607.85,816.58c.66.42,1.55.53,2.41.04l72.86-41.97c2.09-1.2,3.38-3.45,3.38-5.85v-1.66c0-.65-.26-1.26-.72-1.7-.23-.21-.48-.37-.76-.49.07.28.1.56.1.85v1.66c0,2.86-1.54,5.54-4.03,6.97l-72.86,41.97c-.12.07-.25.13-.38.19Z"/>
        </g>
      </g>
      <g>
        <g>
          <path class="cls-1" d="M509.53,894.73c-.63,0-1.26-.17-1.84-.5-1.14-.66-1.83-1.85-1.83-3.17v-1.66c0-2.86,1.54-5.53,4.03-6.97l73.2-42.16c1.15-.66,2.51-.66,3.66,0,1.15.66,1.83,1.85,1.83,3.17v1.66c0,2.87-1.54,5.54-4.03,6.97l-73.2,42.16c-.57.33-1.2.49-1.83.49ZM584.92,841.06c-.41,0-.81.11-1.19.32l-73.2,42.16c-2.09,1.2-3.38,3.44-3.38,5.85v1.66c0,.86.44,1.63,1.19,2.06.74.43,1.63.43,2.38,0l73.2-42.16c2.09-1.2,3.39-3.45,3.39-5.85v-1.66c0-.86-.44-1.63-1.19-2.06-.37-.22-.78-.32-1.19-.32Z"/>
          <path class="cls-1" d="M609.08,837.39c-.63,0-1.26-.17-1.83-.5-1.15-.66-1.83-1.85-1.83-3.17v-1.66c0-2.87,1.54-5.54,4.03-6.97l72.87-41.97c1.15-.65,2.51-.66,3.66,0s1.83,1.85,1.83,3.17v1.66c0,2.87-1.54,5.54-4.03,6.97l-72.86,41.97c-.57.33-1.2.49-1.83.49ZM684.13,783.91c-.41,0-.81.11-1.18.32l-72.87,41.97c-2.09,1.2-3.38,3.44-3.38,5.85v1.66c0,.86.44,1.62,1.19,2.06s1.63.43,2.38,0l72.86-41.97c2.09-1.2,3.38-3.44,3.38-5.85v-1.66c0-.86-.44-1.63-1.19-2.06-.37-.22-.78-.33-1.19-.33Z"/>
        </g>
        <g>
          <path class="cls-1" d="M509.55,894.71c-1.19,0-2.36-.58-3.07-1.63l-.63-.93,1.13-.07c.4-.02.75-.12,1.06-.3l73.2-42.16c2.09-1.21,3.39-3.45,3.39-5.85v-1.66c0-.46-.14-.9-.41-1.3l-.62-.93,1.13-.07c.94-.07,2.01.31,2.74,1.01.73.68,1.13,1.62,1.13,2.63v1.66c0,2.86-1.54,5.54-4.03,6.97l-73.2,42.16c-.57.32-1.19.48-1.8.48ZM508.3,893.08c.67.41,1.55.53,2.41.04l73.2-42.16c2.09-1.21,3.39-3.45,3.39-5.85v-1.66c0-.65-.26-1.26-.72-1.69-.22-.22-.48-.38-.76-.49.07.28.1.56.1.85v1.66c0,2.86-1.54,5.54-4.03,6.97l-73.2,42.16c-.12.07-.25.13-.37.19Z"/>
          <path class="cls-1" d="M609.08,837.39c-1.18,0-2.33-.58-3.04-1.65l-.63-.93,1.13-.07c.39-.02.75-.12,1.06-.3l72.86-41.97c2.09-1.2,3.38-3.44,3.38-5.85v-1.66c0-.47-.14-.9-.4-1.31l-.62-.93,1.12-.06c.99-.02,2.01.32,2.74,1.02.72.68,1.12,1.62,1.12,2.63v1.66c0,2.86-1.54,5.53-4.03,6.97l-72.86,41.97c-.58.33-1.21.49-1.83.49ZM607.85,835.74c.67.41,1.55.53,2.41.04l72.86-41.97c2.09-1.2,3.38-3.44,3.38-5.85v-1.66c0-.65-.26-1.26-.72-1.7-.23-.21-.49-.38-.77-.49.07.28.1.56.1.85v1.66c0,2.87-1.54,5.54-4.03,6.97l-72.86,41.97c-.13.07-.25.13-.38.19Z"/>
        </g>
      </g>
      <g>
        <g>
          <path class="cls-1" d="M509.52,913.89c-.63,0-1.26-.17-1.83-.5-1.15-.66-1.83-1.85-1.83-3.17v-1.66c0-2.87,1.54-5.54,4.03-6.97l73.2-42.16c1.16-.66,2.52-.66,3.66,0s1.83,1.85,1.83,3.17v1.66c0,2.86-1.54,5.53-4.03,6.97l-73.2,42.16c-.57.33-1.2.5-1.83.5ZM583.73,860.54l-73.2,42.16c-2.09,1.2-3.38,3.45-3.38,5.85v1.66c0,.86.44,1.63,1.19,2.06.74.43,1.63.43,2.37,0l73.2-42.16c2.09-1.2,3.39-3.44,3.39-5.85v-1.66c0-.86-.44-1.62-1.19-2.06-.75-.43-1.64-.43-2.38,0h0Z"/>
          <path class="cls-1" d="M609.08,856.55c-.63,0-1.26-.17-1.83-.5-1.15-.66-1.83-1.85-1.83-3.17v-1.66c0-2.86,1.54-5.54,4.03-6.97l72.87-41.97c1.15-.66,2.51-.66,3.66,0s1.83,1.85,1.83,3.17v1.66c0,2.86-1.54,5.54-4.03,6.97l-72.86,41.97c-.57.33-1.2.5-1.83.5ZM684.13,803.07c-.41,0-.81.11-1.19.32l-72.87,41.97c-2.09,1.2-3.38,3.45-3.38,5.85v1.66c0,.86.44,1.63,1.19,2.06.74.43,1.62.43,2.38,0l72.86-41.97c2.09-1.2,3.38-3.45,3.38-5.85v-1.66c0-.86-.44-1.63-1.19-2.06-.37-.22-.78-.32-1.19-.32Z"/>
        </g>
        <g>
          <path class="cls-1" d="M509.55,913.88c-1.19,0-2.36-.58-3.07-1.64l-.63-.93,1.13-.07c.4-.02.75-.12,1.06-.3l73.2-42.16c2.09-1.21,3.39-3.45,3.39-5.85v-1.66c0-.46-.14-.9-.41-1.31l-.62-.93,1.12-.06c.07,0,.13,0,.19,0,.94,0,1.86.37,2.55,1.02.72.68,1.12,1.62,1.12,2.63v1.66c0,2.86-1.54,5.53-4.03,6.97l-73.2,42.16c-.57.33-1.19.48-1.81.48ZM508.3,912.24c.67.42,1.56.53,2.41.04l73.2-42.16c2.09-1.21,3.39-3.45,3.39-5.85v-1.66c0-.65-.26-1.26-.72-1.69-.23-.22-.49-.38-.77-.49.07.28.1.56.1.85v1.66c0,2.86-1.54,5.53-4.03,6.97l-73.2,42.16c-.12.07-.25.13-.38.19Z"/>
          <path class="cls-1" d="M609.07,856.55c-1.18,0-2.33-.58-3.04-1.65l-.62-.93,1.13-.07c.4-.02.75-.12,1.06-.3l72.86-41.97c2.09-1.2,3.38-3.45,3.38-5.85v-1.66c0-.47-.14-.9-.4-1.3l-.62-.93,1.13-.07c.94-.06,2,.31,2.73,1.01.72.69,1.13,1.62,1.13,2.63v1.66c0,2.86-1.54,5.54-4.03,6.97l-72.86,41.97c-.58.34-1.21.5-1.83.5ZM607.85,854.9c.66.42,1.55.52,2.41.04l72.86-41.97c2.09-1.2,3.38-3.45,3.38-5.85v-1.66c0-.65-.26-1.26-.72-1.7-.22-.21-.48-.37-.76-.49.07.28.1.56.1.85v1.66c0,2.86-1.54,5.54-4.03,6.97l-72.86,41.97c-.12.07-.25.13-.38.19Z"/>
        </g>
      </g>
      <g>
        <g>
          <path class="cls-1" d="M509.53,933.05c-.63,0-1.26-.17-1.84-.5-1.14-.66-1.83-1.85-1.83-3.17v-1.66c0-2.87,1.54-5.54,4.03-6.97l73.2-42.16c1.15-.66,2.51-.66,3.66,0,1.15.66,1.83,1.85,1.83,3.17v1.66c0,2.87-1.54,5.54-4.03,6.97l-73.2,42.16c-.57.33-1.2.49-1.83.49ZM584.92,879.38c-.41,0-.81.11-1.19.32l-73.2,42.16c-2.09,1.2-3.38,3.44-3.38,5.85v1.66c0,.86.44,1.63,1.19,2.06.74.43,1.63.43,2.38,0l73.2-42.16c2.09-1.2,3.39-3.45,3.39-5.85v-1.66c0-.86-.44-1.63-1.19-2.06-.37-.22-.78-.32-1.19-.32Z"/>
          <path class="cls-1" d="M609.08,875.71c-.63,0-1.26-.17-1.83-.5-1.15-.66-1.83-1.85-1.83-3.17v-1.66c0-2.86,1.54-5.54,4.03-6.97l72.87-41.97c1.15-.67,2.51-.65,3.65,0,1.15.66,1.83,1.85,1.83,3.18v1.66c0,2.86-1.54,5.54-4.03,6.97l-72.86,41.97c-.57.33-1.2.5-1.83.5ZM684.13,822.23c-.41,0-.81.11-1.18.32l-72.87,41.97c-2.09,1.2-3.38,3.45-3.38,5.85v1.66c0,.86.44,1.63,1.19,2.06.74.43,1.62.43,2.38,0l72.86-41.97c2.09-1.2,3.38-3.45,3.38-5.85v-1.66c0-.86-.45-1.63-1.19-2.06-.37-.22-.78-.32-1.19-.32Z"/>
        </g>
        <g>
          <path class="cls-1" d="M509.55,933.03c-1.19,0-2.36-.58-3.07-1.64l-.63-.95,1.14-.05c.39-.02.73-.11,1.05-.29l73.19-42.16c2.09-1.21,3.39-3.45,3.39-5.85v-1.66c0-.46-.14-.9-.41-1.3l-.62-.93,1.13-.07c.94-.09,2.01.31,2.74,1.01.73.68,1.13,1.62,1.13,2.63v1.66c0,2.86-1.54,5.54-4.03,6.97l-73.2,42.16c-.57.32-1.19.48-1.8.48ZM508.3,931.4c.67.41,1.56.53,2.41.04l73.2-42.16c2.09-1.21,3.39-3.45,3.39-5.85v-1.66c0-.65-.26-1.26-.72-1.69-.22-.22-.48-.38-.76-.49.07.28.1.56.1.85v1.66c0,2.86-1.54,5.54-4.03,6.97l-73.2,42.16c-.12.07-.25.13-.38.19Z"/>
          <path class="cls-1" d="M609.07,875.71c-1.18,0-2.33-.58-3.04-1.65l-.63-.95,1.14-.05c.39-.02.74-.12,1.05-.3l72.86-41.97c2.09-1.2,3.38-3.45,3.38-5.85v-1.66c0-.47-.14-.91-.4-1.31l-.62-.93,1.13-.07c.94-.09,2,.31,2.73,1.01.72.69,1.13,1.62,1.13,2.64v1.66c0,2.86-1.54,5.54-4.03,6.97l-72.86,41.97c-.58.34-1.21.5-1.83.5ZM607.85,874.06c.66.42,1.55.52,2.41.04l72.86-41.97c2.09-1.2,3.38-3.45,3.38-5.85v-1.66c0-.65-.26-1.26-.72-1.7-.23-.21-.49-.38-.76-.49.07.28.1.56.1.85v1.66c0,2.86-1.54,5.54-4.03,6.97l-72.86,41.97c-.12.07-.25.13-.38.19Z"/>
        </g>
      </g>
      <g>
        <g>
          <path class="cls-1" d="M509.53,952.21c-.63,0-1.26-.17-1.83-.49-1.15-.66-1.83-1.85-1.83-3.18v-1.66c0-2.87,1.54-5.54,4.03-6.97l73.2-42.16c1.15-.66,2.51-.66,3.66,0,1.15.66,1.83,1.85,1.83,3.18v1.66c0,2.87-1.54,5.54-4.03,6.97l-73.2,42.16c-.57.33-1.2.49-1.83.49ZM584.92,898.54c-.41,0-.81.11-1.19.32l-73.2,42.16c-2.09,1.2-3.38,3.45-3.38,5.85v1.66c0,.86.44,1.63,1.19,2.06s1.63.43,2.37,0l73.2-42.16c2.09-1.2,3.39-3.45,3.39-5.85v-1.66c0-.86-.44-1.63-1.19-2.06-.37-.22-.78-.32-1.19-.32Z"/>
          <path class="cls-1" d="M609.08,894.86c-.63,0-1.26-.17-1.83-.5-1.15-.66-1.83-1.85-1.83-3.17v-1.66c0-2.86,1.54-5.54,4.03-6.97l72.87-41.97c1.15-.65,2.51-.66,3.66,0s1.83,1.85,1.83,3.17v1.66c0,2.86-1.54,5.54-4.03,6.97l-72.86,41.97c-.57.33-1.2.49-1.83.49ZM684.13,841.39c-.41,0-.81.11-1.18.32l-72.87,41.97c-2.09,1.2-3.38,3.45-3.38,5.85v1.66c0,.86.44,1.62,1.19,2.06s1.63.43,2.38,0l72.86-41.97c2.09-1.2,3.38-3.45,3.38-5.85v-1.66c0-.86-.44-1.63-1.19-2.06-.37-.22-.78-.33-1.19-.33Z"/>
        </g>
        <g>
          <path class="cls-1" d="M509.55,952.2c-1.19,0-2.36-.58-3.07-1.64l-.63-.93,1.13-.07c.4-.02.75-.12,1.06-.3l73.2-42.16c2.09-1.21,3.39-3.45,3.39-5.85v-1.66c0-.46-.14-.9-.41-1.31l-.62-.93,1.13-.07c.94-.08,2,.31,2.74,1.01.72.68,1.13,1.62,1.13,2.63v1.66c0,2.86-1.54,5.54-4.03,6.97l-73.2,42.16c-.57.33-1.19.48-1.8.48ZM508.3,950.56c.67.42,1.55.52,2.41.04l73.2-42.16c2.09-1.21,3.39-3.45,3.39-5.85v-1.66c0-.65-.26-1.26-.72-1.7-.23-.22-.49-.38-.77-.49.07.28.11.57.11.85v1.66c0,2.86-1.54,5.54-4.03,6.97l-73.2,42.16c-.12.07-.25.13-.38.19Z"/>
          <path class="cls-1" d="M609.08,894.86c-1.18,0-2.33-.58-3.04-1.65l-.63-.93,1.13-.07c.39-.02.75-.12,1.06-.3l72.86-41.97c2.09-1.2,3.38-3.44,3.38-5.85v-1.66c0-.47-.14-.9-.4-1.31l-.62-.93,1.12-.06c.99,0,2.01.32,2.74,1.02.72.69,1.12,1.62,1.12,2.63v1.66c0,2.86-1.54,5.54-4.03,6.97l-72.86,41.97c-.58.33-1.21.49-1.83.49ZM607.85,893.22c.67.41,1.55.53,2.41.04l72.86-41.97c2.09-1.2,3.38-3.45,3.38-5.85v-1.66c0-.65-.26-1.26-.72-1.69-.22-.22-.48-.38-.76-.49.07.28.1.56.1.85v1.66c0,2.87-1.54,5.54-4.03,6.97l-72.86,41.97c-.13.07-.25.13-.38.19Z"/>
        </g>
      </g>
      <g>
        <g>
          <path class="cls-1" d="M509.52,971.37c-.63,0-1.26-.17-1.83-.5-1.15-.66-1.83-1.85-1.83-3.17v-1.66c0-2.87,1.54-5.54,4.03-6.97l73.2-42.16c1.15-.66,2.51-.66,3.66,0,1.15.66,1.83,1.85,1.83,3.17v1.66c0,2.87-1.54,5.54-4.03,6.97l-73.2,42.16c-.57.33-1.2.5-1.83.5ZM584.92,917.7c-.41,0-.81.11-1.19.32l-73.2,42.16c-2.09,1.2-3.38,3.45-3.38,5.85v1.66c0,.86.44,1.63,1.19,2.06.74.43,1.63.44,2.37,0l73.2-42.16c2.09-1.2,3.39-3.44,3.39-5.85v-1.66c0-.86-.44-1.63-1.19-2.06-.37-.22-.78-.32-1.19-.32Z"/>
          <path class="cls-1" d="M609.08,914.03c-.63,0-1.26-.17-1.83-.5-1.15-.66-1.83-1.85-1.83-3.17v-1.66c0-2.86,1.54-5.54,4.03-6.97l72.87-41.97c1.15-.66,2.51-.66,3.66,0s1.83,1.85,1.83,3.17v1.66c0,2.86-1.54,5.54-4.03,6.97l-72.86,41.97c-.57.33-1.2.5-1.83.5ZM684.13,860.55c-.41,0-.81.11-1.19.32l-72.87,41.97c-2.09,1.2-3.38,3.45-3.38,5.85v1.66c0,.86.44,1.63,1.19,2.06.74.43,1.62.43,2.38,0l72.86-41.97c2.09-1.2,3.38-3.45,3.38-5.85v-1.66c0-.86-.44-1.63-1.19-2.06-.37-.22-.78-.32-1.19-.32Z"/>
        </g>
        <g>
          <path class="cls-1" d="M509.55,971.35c-1.19,0-2.36-.58-3.07-1.64l-.63-.93,1.13-.07c.4-.02.75-.12,1.06-.3l73.2-42.16c2.09-1.21,3.39-3.45,3.39-5.85v-1.66c0-.46-.14-.9-.41-1.31l-.62-.93,1.12-.06c1.01,0,2.01.32,2.74,1.02.72.69,1.12,1.62,1.12,2.63v1.66c0,2.87-1.54,5.54-4.03,6.97l-73.2,42.16c-.57.33-1.19.48-1.81.48ZM508.3,969.72c.67.42,1.56.53,2.41.04l73.2-42.16c2.09-1.2,3.39-3.44,3.39-5.85v-1.66c0-.65-.26-1.25-.72-1.69-.23-.22-.49-.38-.77-.49.07.28.1.56.1.85v1.66c0,2.86-1.54,5.53-4.03,6.97l-73.2,42.16c-.12.07-.25.13-.38.19Z"/>
          <path class="cls-1" d="M609.07,914.03c-1.18,0-2.33-.58-3.04-1.65l-.62-.93,1.13-.07c.4-.02.75-.12,1.06-.3l72.86-41.97c2.09-1.2,3.38-3.45,3.38-5.85v-1.66c0-.47-.14-.9-.4-1.3l-.62-.93,1.13-.07c.94-.07,2,.31,2.73,1.01.72.69,1.13,1.62,1.13,2.63v1.66c0,2.86-1.54,5.54-4.03,6.97l-72.86,41.97c-.58.34-1.21.5-1.83.5ZM607.85,912.38c.66.42,1.55.53,2.41.04l72.86-41.97c2.09-1.2,3.38-3.45,3.38-5.85v-1.66c0-.65-.26-1.26-.72-1.7-.22-.21-.48-.37-.76-.49.07.28.1.56.1.85v1.66c0,2.86-1.54,5.54-4.03,6.97l-72.86,41.97c-.12.07-.25.13-.38.19Z"/>
        </g>
      </g>
    </g>
  </g>
  <g class="cls-3">
    <g>
      <path class="cls-1" d="M15.88,143.7C94.68,98.26,173.49,52.82,252.29,7.37v-2.82C172.84,50.32,93.4,96.08,13.95,141.84l-.64.37v509.83h2.67c-.03-.87-.06-1.74-.1-2.61V143.7Z"/>
      <g>
        <path class="cls-1" d="M164.44,308.21L33.59,231.93v-51.25l130.85,76.2v51.32ZM36.16,230.45l125.7,73.28v-45.37l-125.7-73.2v45.29Z"/>
        <path class="cls-1" d="M157.31,295.8l-116.59-67.97v-34.74l116.59,67.89v34.82ZM43.29,226.36l111.44,64.97v-28.86l-111.44-64.89v28.79Z"/>
        <g>
          <path class="cls-1" d="M107.23,261.74l-62.3-36.32v-25.01l62.3,36.28v25.05ZM46.21,224.68l59.73,34.82v-22.07l-59.73-34.78v22.03Z"/>
          <path class="cls-1" d="M153.1,288.48l-40.92-23.86v-25.05l40.92,23.83v25.08ZM113.47,263.88l38.35,22.36v-22.1l-38.35-22.33v22.08Z"/>
        </g>
        <polygon class="cls-1" points="124.24 250.76 116.61 246.31 116.61 253.83 124.24 258.29 124.24 250.76"/>
        <polygon class="cls-1" points="148.13 264.39 140.5 259.95 140.5 267.47 148.13 271.92 148.13 264.39"/>
        <polygon class="cls-1" points="136.24 257.63 128.61 253.18 128.61 260.71 136.24 265.16 136.24 257.63"/>
        <polygon class="cls-1" points="124.24 261.16 116.61 256.72 116.61 264.24 124.24 268.69 124.24 261.16"/>
        <polygon class="cls-1" points="148.13 274.8 140.5 270.35 140.5 277.87 148.13 282.33 148.13 274.8"/>
        <polygon class="cls-1" points="136.24 268.03 128.61 263.59 128.61 271.11 136.24 275.56 136.24 268.03"/>
        <g>
          <path class="cls-1" d="M58.56,220.27c0,2.04-1.44,2.86-3.22,1.83-1.78-1.03-3.22-3.51-3.22-5.55s1.44-2.86,3.22-1.83c1.78,1.03,3.22,3.51,3.22,5.55Z"/>
          <path class="cls-1" d="M67.92,225.62c0,2.04-1.44,2.86-3.22,1.83-1.78-1.03-3.22-3.51-3.22-5.55s1.44-2.86,3.22-1.83c1.78,1.03,3.22,3.51,3.22,5.55Z"/>
          <path class="cls-1" d="M77.72,231.56c0,2.04-1.44,2.86-3.22,1.83-1.78-1.03-3.22-3.51-3.22-5.55s1.44-2.86,3.22-1.83c1.78,1.03,3.22,3.51,3.22,5.55Z"/>
        </g>
      </g>
      <g>
        <path class="cls-1" d="M164.44,390.23l-130.85-76.28v-51.25l130.85,76.2v51.32ZM36.16,312.47l125.7,73.28v-45.37l-125.7-73.2v45.29Z"/>
        <path class="cls-1" d="M157.31,377.82l-116.59-67.97v-34.74l116.59,67.89v34.82ZM43.29,308.38l111.44,64.97v-28.86l-111.44-64.89v28.79Z"/>
        <g>
          <path class="cls-1" d="M107.23,343.76l-62.3-36.32v-25.01l62.3,36.28v25.05ZM46.21,306.7l59.73,34.82v-22.07l-59.73-34.78v22.03Z"/>
          <path class="cls-1" d="M153.1,370.5l-40.92-23.86v-25.05l40.92,23.83v25.08ZM113.47,345.9l38.35,22.36v-22.1l-38.35-22.33v22.08Z"/>
        </g>
        <polygon class="cls-1" points="124.24 332.78 116.61 328.33 116.61 335.86 124.24 340.31 124.24 332.78"/>
        <polygon class="cls-1" points="148.13 346.41 140.5 341.97 140.5 349.49 148.13 353.94 148.13 346.41"/>
        <polygon class="cls-1" points="136.24 339.65 128.61 335.2 128.61 342.73 136.24 347.18 136.24 339.65"/>
        <polygon class="cls-1" points="124.24 343.18 116.61 338.74 116.61 346.26 124.24 350.71 124.24 343.18"/>
        <polygon class="cls-1" points="148.13 356.82 140.5 352.37 140.5 359.89 148.13 364.35 148.13 356.82"/>
        <polygon class="cls-1" points="136.24 350.05 128.61 345.61 128.61 353.13 136.24 357.58 136.24 350.05"/>
        <g>
          <path class="cls-1" d="M58.56,302.29c0,2.04-1.44,2.86-3.22,1.83-1.78-1.03-3.22-3.51-3.22-5.55s1.44-2.86,3.22-1.83c1.78,1.03,3.22,3.51,3.22,5.55Z"/>
          <path class="cls-1" d="M67.92,307.64c0,2.04-1.44,2.86-3.22,1.83-1.78-1.03-3.22-3.51-3.22-5.55s1.44-2.86,3.22-1.83c1.78,1.03,3.22,3.51,3.22,5.55Z"/>
          <path class="cls-1" d="M77.72,313.58c0,2.04-1.44,2.86-3.22,1.83-1.78-1.03-3.22-3.51-3.22-5.55s1.44-2.86,3.22-1.83c1.78,1.03,3.22,3.51,3.22,5.55Z"/>
        </g>
      </g>
      <g>
        <path class="cls-1" d="M164.44,468.72l-130.85-76.28v-51.25l130.85,76.2v51.32ZM36.16,390.96l125.7,73.28v-45.37l-125.7-73.2v45.29Z"/>
        <path class="cls-1" d="M157.31,456.31l-116.59-67.97v-34.74l116.59,67.89v34.82ZM43.29,386.86l111.44,64.97v-28.86l-111.44-64.89v28.79Z"/>
        <g>
          <path class="cls-1" d="M107.23,422.25l-62.3-36.32v-25.01l62.3,36.28v25.05ZM46.21,385.19l59.73,34.82v-22.07l-59.73-34.78v22.03Z"/>
          <path class="cls-1" d="M153.1,448.99l-40.92-23.86v-25.05l40.92,23.83v25.08ZM113.47,424.39l38.35,22.36v-22.1l-38.35-22.33v22.08Z"/>
        </g>
        <polygon class="cls-1" points="124.24 411.27 116.61 406.82 116.61 414.34 124.24 418.79 124.24 411.27"/>
        <polygon class="cls-1" points="148.13 424.9 140.5 420.46 140.5 427.98 148.13 432.43 148.13 424.9"/>
        <polygon class="cls-1" points="136.24 418.14 128.61 413.69 128.61 421.22 136.24 425.67 136.24 418.14"/>
        <polygon class="cls-1" points="124.24 421.67 116.61 417.22 116.61 424.75 124.24 429.2 124.24 421.67"/>
        <polygon class="cls-1" points="148.13 435.31 140.5 430.86 140.5 438.38 148.13 442.83 148.13 435.31"/>
        <polygon class="cls-1" points="136.24 428.54 128.61 424.1 128.61 431.62 136.24 436.07 136.24 428.54"/>
        <g>
          <path class="cls-1" d="M58.56,380.78c0,2.04-1.44,2.86-3.22,1.83-1.78-1.03-3.22-3.51-3.22-5.55s1.44-2.86,3.22-1.83c1.78,1.03,3.22,3.51,3.22,5.55Z"/>
          <path class="cls-1" d="M67.92,386.12c0,2.04-1.44,2.86-3.22,1.83-1.78-1.03-3.22-3.51-3.22-5.55s1.44-2.86,3.22-1.83c1.78,1.03,3.22,3.51,3.22,5.55Z"/>
          <path class="cls-1" d="M77.72,392.06c0,2.04-1.44,2.86-3.22,1.83-1.78-1.03-3.22-3.51-3.22-5.55s1.44-2.86,3.22-1.83c1.78,1.03,3.22,3.51,3.22,5.55Z"/>
        </g>
      </g>
      <g>
        <path class="cls-1" d="M164.44,550.74l-130.85-76.28v-51.25l130.85,76.2v51.32ZM36.16,472.98l125.7,73.28v-45.37l-125.7-73.2v45.29Z"/>
        <path class="cls-1" d="M157.31,538.33l-116.59-67.97v-34.74l116.59,67.89v34.82ZM43.29,468.88l111.44,64.97v-28.86l-111.44-64.89v28.79Z"/>
        <g>
          <path class="cls-1" d="M107.23,504.27l-62.3-36.32v-25.01l62.3,36.28v25.05ZM46.21,467.21l59.73,34.82v-22.07l-59.73-34.78v22.03Z"/>
          <path class="cls-1" d="M153.1,531.01l-40.92-23.86v-25.05l40.92,23.83v25.08ZM113.47,506.41l38.35,22.36v-22.1l-38.35-22.33v22.08Z"/>
        </g>
        <polygon class="cls-1" points="124.24 493.29 116.61 488.84 116.61 496.36 124.24 500.81 124.24 493.29"/>
        <polygon class="cls-1" points="148.13 506.92 140.5 502.48 140.5 510 148.13 514.45 148.13 506.92"/>
        <polygon class="cls-1" points="136.24 500.16 128.61 495.71 128.61 503.24 136.24 507.69 136.24 500.16"/>
        <polygon class="cls-1" points="124.24 503.69 116.61 499.24 116.61 506.77 124.24 511.22 124.24 503.69"/>
        <polygon class="cls-1" points="148.13 517.33 140.5 512.88 140.5 520.4 148.13 524.85 148.13 517.33"/>
        <polygon class="cls-1" points="136.24 510.56 128.61 506.12 128.61 513.64 136.24 518.09 136.24 510.56"/>
        <g>
          <path class="cls-1" d="M58.56,462.8c0,2.04-1.44,2.86-3.22,1.83-1.78-1.03-3.22-3.51-3.22-5.55s1.44-2.86,3.22-1.83c1.78,1.03,3.22,3.51,3.22,5.55Z"/>
          <path class="cls-1" d="M67.92,468.14c0,2.04-1.44,2.86-3.22,1.83-1.78-1.03-3.22-3.51-3.22-5.55s1.44-2.86,3.22-1.83c1.78,1.03,3.22,3.51,3.22,5.55Z"/>
          <path class="cls-1" d="M77.72,474.09c0,2.04-1.44,2.86-3.22,1.83-1.78-1.03-3.22-3.51-3.22-5.55s1.44-2.86,3.22-1.83c1.78,1.03,3.22,3.51,3.22,5.55Z"/>
        </g>
      </g>
      <g>
        <path class="cls-1" d="M164.44,628.93l-130.85-76.28v-51.25l130.85,76.2v51.32ZM36.16,551.18l125.7,73.28v-45.37l-125.7-73.2v45.29Z"/>
        <path class="cls-1" d="M157.31,616.53l-116.59-67.97v-34.74l116.59,67.89v34.82ZM43.29,547.08l111.44,64.97v-28.86l-111.44-64.89v28.79Z"/>
        <g>
          <path class="cls-1" d="M107.23,582.46l-62.3-36.32v-25.01l62.3,36.28v25.05ZM46.21,545.4l59.73,34.82v-22.07l-59.73-34.78v22.03Z"/>
          <path class="cls-1" d="M153.1,609.21l-40.92-23.86v-25.05l40.92,23.83v25.08ZM113.47,584.61l38.35,22.36v-22.1l-38.35-22.33v22.08Z"/>
        </g>
        <polygon class="cls-1" points="124.24 571.48 116.61 567.04 116.61 574.56 124.24 579.01 124.24 571.48"/>
        <polygon class="cls-1" points="148.13 585.12 140.5 580.67 140.5 588.2 148.13 592.65 148.13 585.12"/>
        <polygon class="cls-1" points="136.24 578.36 128.61 573.91 128.61 581.43 136.24 585.88 136.24 578.36"/>
        <polygon class="cls-1" points="124.24 581.89 116.61 577.44 116.61 584.96 124.24 589.42 124.24 581.89"/>
        <polygon class="cls-1" points="148.13 595.52 140.5 591.08 140.5 598.6 148.13 603.05 148.13 595.52"/>
        <polygon class="cls-1" points="136.24 588.76 128.61 584.31 128.61 591.84 136.24 596.29 136.24 588.76"/>
        <g>
          <path class="cls-1" d="M58.56,540.99c0,2.04-1.44,2.86-3.22,1.83-1.78-1.03-3.22-3.51-3.22-5.55s1.44-2.86,3.22-1.83c1.78,1.03,3.22,3.51,3.22,5.55Z"/>
          <path class="cls-1" d="M67.92,546.34c0,2.04-1.44,2.86-3.22,1.83-1.78-1.03-3.22-3.51-3.22-5.55s1.44-2.86,3.22-1.83c1.78,1.03,3.22,3.51,3.22,5.55Z"/>
          <path class="cls-1" d="M77.72,552.28c0,2.04-1.44,2.86-3.22,1.83-1.78-1.03-3.22-3.51-3.22-5.55s1.44-2.86,3.22-1.83c1.78,1.03,3.22,3.51,3.22,5.55Z"/>
        </g>
      </g>
      <g>
        <path class="cls-1" d="M164.44,710.95l-130.85-76.28v-51.25l130.85,76.2v51.32ZM36.16,633.2l125.7,73.28v-45.37l-125.7-73.2v45.29Z"/>
        <path class="cls-1" d="M157.31,698.55l-116.59-67.97v-34.74l116.59,67.89v34.82ZM43.29,629.1l111.44,64.97v-28.86l-111.44-64.89v28.79Z"/>
        <g>
          <path class="cls-1" d="M107.23,664.48l-62.3-36.32v-25.01l62.3,36.28v25.05ZM46.21,627.42l59.73,34.82v-22.07l-59.73-34.78v22.03Z"/>
          <path class="cls-1" d="M153.1,691.23l-40.92-23.86v-25.05l40.92,23.83v25.08ZM113.47,666.63l38.35,22.36v-22.1l-38.35-22.33v22.08Z"/>
        </g>
        <polygon class="cls-1" points="124.24 653.5 116.61 649.06 116.61 656.58 124.24 661.03 124.24 653.5"/>
        <polygon class="cls-1" points="148.13 667.14 140.5 662.69 140.5 670.22 148.13 674.67 148.13 667.14"/>
        <polygon class="cls-1" points="136.24 660.38 128.61 655.93 128.61 663.45 136.24 667.9 136.24 660.38"/>
        <polygon class="cls-1" points="124.24 663.91 116.61 659.46 116.61 666.98 124.24 671.44 124.24 663.91"/>
        <polygon class="cls-1" points="148.13 677.54 140.5 673.1 140.5 680.62 148.13 685.07 148.13 677.54"/>
        <polygon class="cls-1" points="136.24 670.78 128.61 666.33 128.61 673.86 136.24 678.31 136.24 670.78"/>
        <g>
          <path class="cls-1" d="M58.56,623.01c0,2.04-1.44,2.86-3.22,1.83-1.78-1.03-3.22-3.51-3.22-5.55s1.44-2.86,3.22-1.83c1.78,1.03,3.22,3.51,3.22,5.55Z"/>
          <path class="cls-1" d="M67.92,628.36c0,2.04-1.44,2.86-3.22,1.83-1.78-1.03-3.22-3.51-3.22-5.55s1.44-2.86,3.22-1.83c1.78,1.03,3.22,3.51,3.22,5.55Z"/>
          <path class="cls-1" d="M77.72,634.3c0,2.04-1.44,2.86-3.22,1.83-1.78-1.03-3.22-3.51-3.22-5.55s1.44-2.86,3.22-1.83c1.78,1.03,3.22,3.51,3.22,5.55Z"/>
        </g>
      </g>
      <path class="cls-1" d="M174.83,746.57c-.52-170.35-1.04-340.69-1.55-511.04l.64-.37,239.61-138.02v511.68l-.64.37c-79.35,45.8-158.7,91.59-238.05,137.39ZM175.85,237.01v505.73l235.1-135.42V101.59l-235.1,135.43Z"/>
      <path class="cls-1" d="M207.73,563.22c-3.54,0-6.42-2.89-6.42-6.43v-277.66c0-5.92,3.18-11.43,8.31-14.38l166.27-95.77c.99-.56,2.09-.86,3.2-.86,3.54,0,6.43,2.89,6.43,6.43v277.66c0,5.92-3.19,11.43-8.31,14.38l-166.27,95.77c-.99.56-2.09.87-3.2.87ZM379.08,171.68c-.49,0-.97.13-1.42.39l-166.27,95.77c-4.03,2.32-6.53,6.65-6.53,11.29v277.66c0,2.41,2.6,3.45,4.28,2.48l166.27-95.77c4.03-2.32,6.53-6.65,6.53-11.29V174.54c0-1.77-1.49-2.86-2.86-2.86Z"/>
      <path class="cls-1" d="M207.73,563.22c-1.11,0-2.21-.29-3.22-.87l1.79-3.08c.89.52,1.96.52,2.85,0l166.27-95.77c4.03-2.32,6.53-6.65,6.53-11.29V174.54c0-1.43-.93-2.31-1.81-2.66l1.32-3.31c2.46.98,4.05,3.32,4.05,5.97v277.66c0,5.92-3.19,11.43-8.31,14.38l-166.27,95.77c-1.01.58-2.1.87-3.2.87Z"/>
      <path class="cls-1" d="M174.65,237.52l-.54-.32c-53.6-32.13-107.2-64.26-160.8-96.39C92.88,95.48,172.44,50.13,252.01,4.79c53.84,30.78,107.68,61.56,161.52,92.34-79.63,46.8-159.25,93.59-238.88,140.39ZM16.76,143.06l157.9,91.95,235.41-135.66L252.01,7.31,16.76,143.06Z"/>
      <path class="cls-1" d="M174.83,746.57c.35-.48.7-.95,1.11-1.38V235.53L13.31,140.82v511.59l160.7,93.68.83.48ZM173.37,742.73L15.88,650.93V145.3l157.49,91.71v505.73Z"/>
      <g>
        <g>
          <g>
            <path class="cls-1" d="M206.1,603.37c-.63,0-1.26-.17-1.83-.5-1.15-.66-1.83-1.85-1.83-3.17v-1.66c0-2.87,1.54-5.54,4.03-6.97l73.2-42.16c1.15-.66,2.51-.66,3.66,0,1.15.66,1.83,1.85,1.83,3.17v1.66c0,2.87-1.54,5.54-4.03,6.97l-73.2,42.16c-.57.33-1.2.5-1.83.5ZM281.5,549.7c-.41,0-.81.11-1.19.32l-73.2,42.16c-2.09,1.2-3.38,3.45-3.38,5.85v1.66c0,.86.44,1.63,1.19,2.06.74.43,1.63.44,2.37,0l73.2-42.16c2.09-1.2,3.39-3.45,3.39-5.85v-1.66c0-.86-.44-1.63-1.19-2.06-.37-.22-.78-.32-1.19-.32Z"/>
            <path class="cls-1" d="M305.65,546.02c-.63,0-1.26-.17-1.83-.5-1.15-.66-1.83-1.85-1.83-3.17v-1.66c0-2.86,1.54-5.54,4.03-6.97l72.87-41.97c1.15-.66,2.52-.66,3.65,0,1.15.66,1.83,1.85,1.83,3.18v1.66c0,2.86-1.54,5.54-4.03,6.97l-72.86,41.97c-.57.33-1.2.5-1.83.5ZM380.71,492.55c-.41,0-.81.11-1.19.32l-72.87,41.97c-2.09,1.2-3.38,3.45-3.38,5.85v1.66c0,.86.44,1.63,1.19,2.06.74.43,1.62.43,2.38,0l72.86-41.97c2.09-1.2,3.38-3.45,3.38-5.85v-1.66c0-.86-.44-1.63-1.19-2.06-.37-.22-.77-.32-1.18-.32Z"/>
          </g>
          <g>
            <path class="cls-1" d="M206.12,603.35c-1.19,0-2.36-.58-3.07-1.64l-.63-.93,1.13-.07c.4-.02.75-.12,1.06-.3l73.2-42.16c2.09-1.2,3.39-3.44,3.39-5.85v-1.66c0-.46-.14-.9-.41-1.31l-.62-.93,1.12-.06c1.01,0,2.01.32,2.74,1.02.72.69,1.12,1.62,1.12,2.63v1.66c0,2.86-1.54,5.54-4.03,6.97l-73.2,42.16c-.57.33-1.19.48-1.81.48ZM204.88,601.72c.67.42,1.56.53,2.41.04l73.2-42.16c2.09-1.21,3.39-3.45,3.39-5.85v-1.66c0-.65-.26-1.25-.72-1.69-.23-.22-.49-.38-.77-.49.07.28.1.56.1.85v1.66c0,2.87-1.54,5.54-4.03,6.97l-73.2,42.16c-.12.07-.25.13-.38.19Z"/>
            <path class="cls-1" d="M305.65,546.02c-1.18,0-2.33-.58-3.04-1.65l-.62-.93,1.13-.07c.4-.02.75-.12,1.06-.3l72.86-41.97c2.09-1.2,3.38-3.45,3.38-5.85v-1.66c0-.47-.14-.91-.4-1.31l-.62-.93,1.13-.07c.94-.08,2,.31,2.73,1.01.72.69,1.13,1.62,1.13,2.64v1.66c0,2.86-1.54,5.54-4.03,6.97l-72.86,41.97c-.58.34-1.21.5-1.83.5ZM304.43,544.38c.66.42,1.55.53,2.41.04l72.86-41.97c2.09-1.2,3.38-3.45,3.38-5.85v-1.66c0-.65-.26-1.26-.72-1.7-.23-.21-.48-.37-.76-.49.07.28.1.56.1.85v1.66c0,2.86-1.54,5.54-4.03,6.97l-72.86,41.97c-.12.07-.25.13-.38.19Z"/>
          </g>
        </g>
        <g>
          <g>
            <path class="cls-1" d="M206.1,622.52c-.63,0-1.26-.17-1.84-.5-1.14-.66-1.83-1.85-1.83-3.17v-1.66c0-2.86,1.54-5.53,4.03-6.97l73.2-42.16c1.15-.66,2.51-.66,3.66,0,1.15.66,1.83,1.85,1.83,3.17v1.66c0,2.87-1.54,5.54-4.03,6.97l-73.2,42.16c-.57.33-1.2.49-1.83.49ZM281.5,568.85c-.41,0-.81.11-1.19.32l-73.2,42.16c-2.09,1.2-3.38,3.44-3.38,5.85v1.66c0,.86.44,1.63,1.19,2.06.74.43,1.63.43,2.38,0l73.2-42.16c2.09-1.2,3.39-3.45,3.39-5.85v-1.66c0-.86-.44-1.63-1.19-2.06-.37-.22-.78-.32-1.19-.32Z"/>
            <path class="cls-1" d="M305.65,565.18c-.63,0-1.26-.17-1.83-.5-1.15-.66-1.83-1.85-1.83-3.17v-1.66c0-2.87,1.54-5.54,4.03-6.97l72.87-41.97c1.15-.65,2.51-.66,3.66,0s1.83,1.85,1.83,3.17v1.66c0,2.87-1.54,5.54-4.03,6.97l-72.86,41.97c-.57.33-1.2.49-1.83.49ZM380.71,511.7c-.41,0-.81.11-1.18.32l-72.87,41.97c-2.09,1.2-3.38,3.44-3.38,5.85v1.66c0,.86.44,1.62,1.19,2.06s1.63.43,2.38,0l72.86-41.97c2.09-1.2,3.38-3.44,3.38-5.85v-1.66c0-.86-.44-1.63-1.19-2.06-.37-.22-.78-.33-1.19-.33Z"/>
          </g>
          <g>
            <path class="cls-1" d="M206.13,622.51c-1.19,0-2.36-.58-3.07-1.63l-.63-.93,1.13-.07c.4-.02.75-.12,1.06-.3l73.2-42.16c2.09-1.21,3.39-3.45,3.39-5.85v-1.66c0-.46-.14-.9-.41-1.3l-.62-.93,1.13-.07c.94-.07,2.01.31,2.74,1.01.73.68,1.13,1.62,1.13,2.63v1.66c0,2.86-1.54,5.54-4.03,6.97l-73.2,42.16c-.57.32-1.19.48-1.8.48ZM204.88,620.88c.67.41,1.55.53,2.41.04l73.2-42.16c2.09-1.21,3.39-3.45,3.39-5.85v-1.66c0-.65-.26-1.26-.72-1.69-.22-.22-.48-.38-.76-.49.07.28.1.56.1.85v1.66c0,2.86-1.54,5.54-4.03,6.97l-73.2,42.16c-.12.07-.25.13-.37.19Z"/>
            <path class="cls-1" d="M305.65,565.18c-1.18,0-2.33-.58-3.04-1.65l-.63-.93,1.13-.07c.39-.02.75-.12,1.06-.3l72.86-41.97c2.09-1.2,3.38-3.44,3.38-5.85v-1.66c0-.47-.14-.9-.4-1.31l-.62-.93,1.12-.06c.99-.02,2.01.32,2.74,1.02.72.68,1.12,1.62,1.12,2.63v1.66c0,2.86-1.54,5.53-4.03,6.97l-72.86,41.97c-.58.33-1.21.49-1.83.49ZM304.43,563.54c.67.41,1.55.53,2.41.04l72.86-41.97c2.09-1.2,3.38-3.44,3.38-5.85v-1.66c0-.65-.26-1.26-.72-1.7-.23-.21-.49-.38-.77-.49.07.28.1.56.1.85v1.66c0,2.87-1.54,5.54-4.03,6.97l-72.86,41.97c-.13.07-.25.13-.38.19Z"/>
          </g>
        </g>
        <g>
          <g>
            <path class="cls-1" d="M206.1,641.69c-.63,0-1.26-.17-1.83-.5-1.15-.66-1.83-1.85-1.83-3.17v-1.66c0-2.87,1.54-5.54,4.03-6.97l73.2-42.16c1.16-.66,2.52-.66,3.66,0s1.83,1.85,1.83,3.17v1.66c0,2.86-1.54,5.53-4.03,6.97l-73.2,42.16c-.57.33-1.2.5-1.83.5ZM280.31,588.33l-73.2,42.16c-2.09,1.2-3.38,3.45-3.38,5.85v1.66c0,.86.44,1.63,1.19,2.06.74.43,1.63.43,2.37,0l73.2-42.16c2.09-1.2,3.39-3.44,3.39-5.85v-1.66c0-.86-.44-1.62-1.19-2.06-.75-.43-1.64-.43-2.38,0h0Z"/>
            <path class="cls-1" d="M305.65,584.34c-.63,0-1.26-.17-1.83-.5-1.15-.66-1.83-1.85-1.83-3.17v-1.66c0-2.86,1.54-5.54,4.03-6.97l72.87-41.97c1.15-.66,2.51-.66,3.66,0s1.83,1.85,1.83,3.17v1.66c0,2.86-1.54,5.54-4.03,6.97l-72.86,41.97c-.57.33-1.2.5-1.83.5ZM380.71,530.87c-.41,0-.81.11-1.19.32l-72.87,41.97c-2.09,1.2-3.38,3.45-3.38,5.85v1.66c0,.86.44,1.63,1.19,2.06.74.43,1.62.43,2.38,0l72.86-41.97c2.09-1.2,3.38-3.45,3.38-5.85v-1.66c0-.86-.44-1.63-1.19-2.06-.37-.22-.78-.32-1.19-.32Z"/>
          </g>
          <g>
            <path class="cls-1" d="M206.12,641.67c-1.19,0-2.36-.58-3.07-1.64l-.63-.93,1.13-.07c.4-.02.75-.12,1.06-.3l73.2-42.16c2.09-1.21,3.39-3.45,3.39-5.85v-1.66c0-.46-.14-.9-.41-1.31l-.62-.93,1.12-.06c.07,0,.13,0,.19,0,.94,0,1.86.37,2.55,1.02.72.68,1.12,1.62,1.12,2.63v1.66c0,2.86-1.54,5.53-4.03,6.97l-73.2,42.16c-.57.33-1.19.48-1.81.48ZM204.88,640.04c.67.42,1.56.53,2.41.04l73.2-42.16c2.09-1.21,3.39-3.45,3.39-5.85v-1.66c0-.65-.26-1.26-.72-1.69-.23-.22-.49-.38-.77-.49.07.28.1.56.1.85v1.66c0,2.86-1.54,5.53-4.03,6.97l-73.2,42.16c-.12.07-.25.13-.38.19Z"/>
            <path class="cls-1" d="M305.65,584.34c-1.18,0-2.33-.58-3.04-1.65l-.62-.93,1.13-.07c.4-.02.75-.12,1.06-.3l72.86-41.97c2.09-1.2,3.38-3.45,3.38-5.85v-1.66c0-.47-.14-.9-.4-1.3l-.62-.93,1.13-.07c.94-.06,2,.31,2.73,1.01.72.69,1.13,1.62,1.13,2.63v1.66c0,2.86-1.54,5.54-4.03,6.97l-72.86,41.97c-.58.34-1.21.5-1.83.5ZM304.43,582.7c.66.42,1.55.52,2.41.04l72.86-41.97c2.09-1.2,3.38-3.45,3.38-5.85v-1.66c0-.65-.26-1.26-.72-1.7-.22-.21-.48-.37-.76-.49.07.28.1.56.1.85v1.66c0,2.86-1.54,5.54-4.03,6.97l-72.86,41.97c-.12.07-.25.13-.38.19Z"/>
          </g>
        </g>
        <g>
          <g>
            <path class="cls-1" d="M206.1,660.84c-.63,0-1.26-.17-1.84-.5-1.14-.66-1.83-1.85-1.83-3.17v-1.66c0-2.87,1.54-5.54,4.03-6.97l73.2-42.16c1.15-.66,2.51-.66,3.66,0,1.15.66,1.83,1.85,1.83,3.17v1.66c0,2.87-1.54,5.54-4.03,6.97l-73.2,42.16c-.57.33-1.2.49-1.83.49ZM281.5,607.17c-.41,0-.81.11-1.19.32l-73.2,42.16c-2.09,1.2-3.38,3.44-3.38,5.85v1.66c0,.86.44,1.63,1.19,2.06.74.43,1.63.43,2.38,0l73.2-42.16c2.09-1.2,3.39-3.45,3.39-5.85v-1.66c0-.86-.44-1.63-1.19-2.06-.37-.22-.78-.32-1.19-.32Z"/>
            <path class="cls-1" d="M305.65,603.5c-.63,0-1.26-.17-1.83-.5-1.15-.66-1.83-1.85-1.83-3.17v-1.66c0-2.86,1.54-5.54,4.03-6.97l72.87-41.97c1.15-.67,2.51-.65,3.65,0,1.15.66,1.83,1.85,1.83,3.18v1.66c0,2.86-1.54,5.54-4.03,6.97l-72.86,41.97c-.57.33-1.2.5-1.83.5ZM380.71,550.02c-.41,0-.81.11-1.18.32l-72.87,41.97c-2.09,1.2-3.38,3.45-3.38,5.85v1.66c0,.86.44,1.63,1.19,2.06.74.43,1.62.43,2.38,0l72.86-41.97c2.09-1.2,3.38-3.45,3.38-5.85v-1.66c0-.86-.45-1.63-1.19-2.06-.37-.22-.78-.32-1.19-.32Z"/>
          </g>
          <g>
            <path class="cls-1" d="M206.13,660.83c-1.19,0-2.36-.58-3.07-1.64l-.63-.95,1.14-.05c.39-.02.73-.11,1.05-.29l73.19-42.16c2.09-1.21,3.39-3.45,3.39-5.85v-1.66c0-.46-.14-.9-.41-1.3l-.62-.93,1.13-.07c.94-.09,2.01.31,2.74,1.01.73.68,1.13,1.62,1.13,2.63v1.66c0,2.86-1.54,5.54-4.03,6.97l-73.2,42.16c-.57.32-1.19.48-1.8.48ZM204.88,659.2c.67.41,1.56.53,2.41.04l73.2-42.16c2.09-1.21,3.39-3.45,3.39-5.85v-1.66c0-.65-.26-1.26-.72-1.69-.22-.22-.48-.38-.76-.49.07.28.1.56.1.85v1.66c0,2.86-1.54,5.54-4.03,6.97l-73.2,42.16c-.12.07-.25.13-.38.19Z"/>
            <path class="cls-1" d="M305.65,603.5c-1.18,0-2.33-.58-3.04-1.65l-.63-.95,1.14-.05c.39-.02.74-.12,1.05-.3l72.86-41.97c2.09-1.2,3.38-3.45,3.38-5.85v-1.66c0-.47-.14-.91-.4-1.31l-.62-.93,1.13-.07c.94-.09,2,.31,2.73,1.01.72.69,1.13,1.62,1.13,2.64v1.66c0,2.86-1.54,5.54-4.03,6.97l-72.86,41.97c-.58.34-1.21.5-1.83.5ZM304.43,601.85c.66.42,1.55.52,2.41.04l72.86-41.97c2.09-1.2,3.38-3.45,3.38-5.85v-1.66c0-.65-.26-1.26-.72-1.7-.23-.21-.49-.38-.76-.49.07.28.1.56.1.85v1.66c0,2.86-1.54,5.54-4.03,6.97l-72.86,41.97c-.12.07-.25.13-.38.19Z"/>
          </g>
        </g>
        <g>
          <g>
            <path class="cls-1" d="M206.1,680c-.63,0-1.26-.17-1.83-.49-1.15-.66-1.83-1.85-1.83-3.18v-1.66c0-2.87,1.54-5.54,4.03-6.97l73.2-42.16c1.15-.66,2.51-.66,3.66,0,1.15.66,1.83,1.85,1.83,3.18v1.66c0,2.87-1.54,5.54-4.03,6.97l-73.2,42.16c-.57.33-1.2.49-1.83.49ZM281.5,626.33c-.41,0-.81.11-1.19.32l-73.2,42.16c-2.09,1.2-3.38,3.45-3.38,5.85v1.66c0,.86.44,1.63,1.19,2.06s1.63.43,2.37,0l73.2-42.16c2.09-1.2,3.39-3.45,3.39-5.85v-1.66c0-.86-.44-1.63-1.19-2.06-.37-.22-.78-.32-1.19-.32Z"/>
            <path class="cls-1" d="M305.65,622.66c-.63,0-1.26-.17-1.83-.5-1.15-.66-1.83-1.85-1.83-3.17v-1.66c0-2.86,1.54-5.54,4.03-6.97l72.87-41.97c1.15-.65,2.51-.66,3.66,0s1.83,1.85,1.83,3.17v1.66c0,2.86-1.54,5.54-4.03,6.97l-72.86,41.97c-.57.33-1.2.49-1.83.49ZM380.71,569.18c-.41,0-.81.11-1.18.32l-72.87,41.97c-2.09,1.2-3.38,3.45-3.38,5.85v1.66c0,.86.44,1.62,1.19,2.06s1.63.43,2.38,0l72.86-41.97c2.09-1.2,3.38-3.45,3.38-5.85v-1.66c0-.86-.44-1.63-1.19-2.06-.37-.22-.78-.33-1.19-.33Z"/>
          </g>
          <g>
            <path class="cls-1" d="M206.13,679.99c-1.19,0-2.36-.58-3.07-1.64l-.63-.93,1.13-.07c.4-.02.75-.12,1.06-.3l73.2-42.16c2.09-1.21,3.39-3.45,3.39-5.85v-1.66c0-.46-.14-.9-.41-1.31l-.62-.93,1.13-.07c.94-.08,2,.31,2.74,1.01.72.68,1.13,1.62,1.13,2.63v1.66c0,2.86-1.54,5.54-4.03,6.97l-73.2,42.16c-.57.33-1.19.48-1.8.48ZM204.88,678.36c.67.42,1.55.52,2.41.04l73.2-42.16c2.09-1.21,3.39-3.45,3.39-5.85v-1.66c0-.65-.26-1.26-.72-1.7-.23-.22-.49-.38-.77-.49.07.28.11.57.11.85v1.66c0,2.86-1.54,5.54-4.03,6.97l-73.2,42.16c-.12.07-.25.13-.38.19Z"/>
            <path class="cls-1" d="M305.65,622.66c-1.18,0-2.33-.58-3.04-1.65l-.63-.93,1.13-.07c.39-.02.75-.12,1.06-.3l72.86-41.97c2.09-1.2,3.38-3.44,3.38-5.85v-1.66c0-.47-.14-.9-.4-1.31l-.62-.93,1.12-.06c.99,0,2.01.32,2.74,1.02.72.69,1.12,1.62,1.12,2.63v1.66c0,2.86-1.54,5.54-4.03,6.97l-72.86,41.97c-.58.33-1.21.49-1.83.49ZM304.43,621.02c.67.41,1.55.53,2.41.04l72.86-41.97c2.09-1.2,3.38-3.45,3.38-5.85v-1.66c0-.65-.26-1.26-.72-1.69-.22-.22-.48-.38-.76-.49.07.28.1.56.1.85v1.66c0,2.87-1.54,5.54-4.03,6.97l-72.86,41.97c-.13.07-.25.13-.38.19Z"/>
          </g>
        </g>
        <g>
          <g>
            <path class="cls-1" d="M206.1,699.16c-.63,0-1.26-.17-1.83-.5-1.15-.66-1.83-1.85-1.83-3.17v-1.66c0-2.87,1.54-5.54,4.03-6.97l73.2-42.16c1.15-.66,2.51-.66,3.66,0,1.15.66,1.83,1.85,1.83,3.17v1.66c0,2.87-1.54,5.54-4.03,6.97l-73.2,42.16c-.57.33-1.2.5-1.83.5ZM281.5,645.5c-.41,0-.81.11-1.19.32l-73.2,42.16c-2.09,1.2-3.38,3.45-3.38,5.85v1.66c0,.86.44,1.63,1.19,2.06.74.43,1.63.44,2.37,0l73.2-42.16c2.09-1.2,3.39-3.44,3.39-5.85v-1.66c0-.86-.44-1.63-1.19-2.06-.37-.22-.78-.32-1.19-.32Z"/>
            <path class="cls-1" d="M305.65,641.82c-.63,0-1.26-.17-1.83-.5-1.15-.66-1.83-1.85-1.83-3.17v-1.66c0-2.86,1.54-5.54,4.03-6.97l72.87-41.97c1.15-.66,2.51-.66,3.66,0s1.83,1.85,1.83,3.17v1.66c0,2.86-1.54,5.54-4.03,6.97l-72.86,41.97c-.57.33-1.2.5-1.83.5ZM380.71,588.34c-.41,0-.81.11-1.19.32l-72.87,41.97c-2.09,1.2-3.38,3.45-3.38,5.85v1.66c0,.86.44,1.63,1.19,2.06.74.43,1.62.43,2.38,0l72.86-41.97c2.09-1.2,3.38-3.45,3.38-5.85v-1.66c0-.86-.44-1.63-1.19-2.06-.37-.22-.78-.32-1.19-.32Z"/>
          </g>
          <g>
            <path class="cls-1" d="M206.12,699.15c-1.19,0-2.36-.58-3.07-1.64l-.63-.93,1.13-.07c.4-.02.75-.12,1.06-.3l73.2-42.16c2.09-1.21,3.39-3.45,3.39-5.85v-1.66c0-.46-.14-.9-.41-1.31l-.62-.93,1.12-.06c1.01,0,2.01.32,2.74,1.02.72.69,1.12,1.62,1.12,2.63v1.66c0,2.87-1.54,5.54-4.03,6.97l-73.2,42.16c-.57.33-1.19.48-1.81.48ZM204.88,697.51c.67.42,1.56.53,2.41.04l73.2-42.16c2.09-1.2,3.39-3.44,3.39-5.85v-1.66c0-.65-.26-1.25-.72-1.69-.23-.22-.49-.38-.77-.49.07.28.1.56.1.85v1.66c0,2.86-1.54,5.53-4.03,6.97l-73.2,42.16c-.12.07-.25.13-.38.19Z"/>
            <path class="cls-1" d="M305.65,641.82c-1.18,0-2.33-.58-3.04-1.65l-.62-.93,1.13-.07c.4-.02.75-.12,1.06-.3l72.86-41.97c2.09-1.2,3.38-3.45,3.38-5.85v-1.66c0-.47-.14-.9-.4-1.3l-.62-.93,1.13-.07c.94-.07,2,.31,2.73,1.01.72.69,1.13,1.62,1.13,2.63v1.66c0,2.86-1.54,5.54-4.03,6.97l-72.86,41.97c-.58.34-1.21.5-1.83.5ZM304.43,640.17c.66.42,1.55.53,2.41.04l72.86-41.97c2.09-1.2,3.38-3.45,3.38-5.85v-1.66c0-.65-.26-1.26-.72-1.7-.22-.21-.48-.37-.76-.49.07.28.1.56.1.85v1.66c0,2.86-1.54,5.54-4.03,6.97l-72.86,41.97c-.12.07-.25.13-.38.19Z"/>
          </g>
        </g>
      </g>
    </g>
  </g>
</svg>