<?xml version="1.0" encoding="UTF-8"?>
<svg id="Capa_1" data-name="Capa 1" xmlns="http://www.w3.org/2000/svg" viewBox="0 0 1096.39 1105.82">
  <defs>
    <style>
      .cls-1 {
        fill: #fff;
      }

      .cls-2 {
        isolation: isolate;
      }
    </style>
  </defs>
  <g class="cls-2">
    <path class="cls-1" d="M164.68,523.04l-23.84,13.85-.3.23c-.17.17-.33.3-.5.4l-.09.05,1.48,2.61s.09-.05.14-.08l24.76-14.39c-.63-.84-1.18-1.73-1.65-2.68Z"/>
    <path class="cls-1" d="M51.88,255.42l-35.26,20.49,1.5,2.6c.7-.4,1.61-.51,2.62-.31l.56.11,30.76-17.88c-.38-1.68-.41-3.37-.17-5.02Z"/>
    <path class="cls-1" d="M324.13,616.11l-44.82,26.04c.04-.29.07-.59.09-.9l44.35-25.77c-.48-.88-.88-1.81-1.21-2.77l-46.11,26.8v.86c0,2.22-.66,3.83-1.86,4.53h0s1.51,2.6,1.51,2.6c0,0,0,0,0,0h0s0,0,0,0l49.82-28.95c-.66-.76-1.25-1.57-1.77-2.44Z"/>
    <path class="cls-1" d="M322.32,612.85l-42.87,24.91.1-35.13.25-.15c-1.14-.42-2.21-.96-3.2-1.61l-.05.03-.13,42.08,46.99-27.31c-.44-.9-.81-1.85-1.1-2.83Z"/>
    <path class="cls-1" d="M88.03,106.31l-43.64,25.36c-.76-.65-1.53-1.19-2.27-1.62-.55-.32-1.1-.58-1.65-.8l46.5-27.02c-.07-.53-.12-1.07-.15-1.62-.03-.61,0-1.2.04-1.79l-52.66,30.6s0,0,0,0h0l1.51,2.59h0c1.21-.7,3-.47,4.91.63.82.47,1.67,1.13,2.55,1.96l.81.77,45.36-26.36c-.51-.86-.95-1.76-1.31-2.71Z"/>
    <path class="cls-1" d="M77.27,164.97c.19-.31.38-.62.58-.92.1-1.13.34-2.24.7-3.3l-2.2,1.28-29.66-28.22,43.15-25.08c-.44-.9-.82-1.85-1.11-2.83l-47.01,27.32,34.19,32.53,1.35-.79Z"/>
    <path class="cls-1" d="M335.45,463.78c-73.05-42.17-132.29-144.76-132.04-228.69.04-13.64,1.65-26.08,4.71-37.14-1.01-.15-1.98-.39-2.91-.72-3.12,11.29-4.76,23.98-4.8,37.85-.24,84.04,58.47,186.57,131.32,230l-90.23,52.44c-72.7-42.43-131.52-144.61-131.29-228.26.11-39.99,13.63-69.84,38.08-84.04l11.38-6.61c-.57,0-1.13-.05-1.68-.11-3,2.59-6.88,4.2-10.83,4.2-.15,0-.3-.02-.45-.02-25.36,14.78-39.39,45.52-39.5,86.58-.23,84.9,59.67,188.66,133.54,231.3l.75.43,96.19-55.9-2.24-1.29Z"/>
    <path class="cls-1" d="M335.45,463.78l-.75-.43-96.19,55.9,2.24,1.29c21.3,12.3,41.88,18.51,60.46,18.51,12.91,0,24.86-3.01,35.41-9.05,2.34-3.93,6.37-6.9,10.83-7.96.92-1.11,1.96-2.11,3.12-2.97.3-.41.61-.81.95-1.19l-16.04,9.32c-24.27,14.11-56.5,11.26-90.96-7.97l90.2-52.42c11.88,6.78,23.53,11.66,34.72,14.63.05-1.02.22-2.01.49-2.98-11.09-2.97-22.65-7.86-34.46-14.68Z"/>
    <path class="cls-1" d="M400.36,652.21l-1.51-2.59h0c2.43-1.42,2.58-6.16.34-11.04l-.57-1.24,95.81-55.68.69,1.5c2.94,6.38,2.28,12.64-1.57,14.88h0s-93.19,54.16-93.19,54.16c0,0,0,0-.01,0ZM402.47,638.59c1.17,2.99,1.56,5.85,1.21,8.23l88.38-51.36c2.18-1.27,2.54-5.2.98-9.5l-90.57,52.63Z"/>
    <path class="cls-1" d="M490.39,580.01l1.46,3.16-90.6,52.66-18.5-39.98,32.55-18.92c-.65-.76-1.24-1.58-1.75-2.45l-34.67,20.15,21.03,45.45,95.81-55.69-2.56-5.54c-.89.46-1.82.86-2.77,1.16Z"/>
    <path class="cls-1" d="M250.89,60.62c.81-.6,1.68-1.12,2.58-1.57l-16.71-36.19-95.81,55.68,20.95,45.42,42.74-24.83c-.19-.92-.32-1.86-.36-2.81,0-.15,0-.3,0-.45l-41.04,23.85-18.43-39.94,90.6-52.65,15.47,33.51Z"/>
    <path class="cls-1" d="M84.94,82.86l-1.52-2.59s.05-.03.08-.05l93.13-54.12c.54-.3,1.03-.5,1.52-.62l44.97-11.52c1.96-.51,4.2-.09,6.47,1.22h0c3.18,1.84,6.04,5.18,7.87,9.17l.57,1.24-95.81,55.68-.69-1.5c-1.55-3.39-4.03-6.31-6.64-7.82-1.54-.9-3.03-1.22-4.22-.91l-44.98,11.52c-.25.06-.47.15-.69.27l-.06.04ZM224.81,16.76c-.33,0-.64.04-.94.12l-44.98,11.52c-.24.06-.49.16-.77.32l-83.29,48.41,35.09-8.99c1.98-.51,4.22-.09,6.47,1.22,2.77,1.6,5.31,4.36,7.12,7.69l90.61-52.66c-1.55-2.86-3.74-5.28-6.03-6.61h0c-1.18-.68-2.3-1.03-3.28-1.03Z"/>
    <path class="cls-1" d="M449.59,602.97l-1.51-2.59c.68-.4,1.2-1.09,1.5-2.01l.18-.54.49-.29,96.62-56.15-1.24,3.75c-.54,1.63-1.52,2.89-2.84,3.66l-93.2,54.16Z"/>
    <path class="cls-1" d="M448.28,602.16l18.85-55.05.48-.28,96.68-56.18-18.84,55.04-97.17,56.48ZM469.61,549.14l-15.88,46.38,89.26-51.88,15.87-46.37-89.25,51.86Z"/>
    <path class="cls-1" d="M465.72,551.4l1.23-3.74c1.34-4.09-1.1-10.79-5.43-14.93l-33.44-31.79,95.91-55.73,32.81,31.19c5.19,4.95,7.92,12.87,6.21,18.04l-.18.54-.49.29-96.61,56.14ZM433.04,501.52l30.54,29.04c4.16,3.98,6.74,9.87,6.71,14.71l90-52.3c1-4.11-1.42-10.43-5.58-14.4l-31.17-29.64-90.5,52.59Z"/>
    <path class="cls-1" d="M526.72,419.18c-.97.41-1.97.73-2.99.96,0,.54.01,1.08.01,1.61-.02,8.3-.48,16.51-1.37,24.41l-89.99,52.29c.74-7.33,1.13-14.89,1.15-22.54.01-8.41-.4-17.14-1.23-25.96-1.06-.1-2.09-.31-3.07-.6.88,9.03,1.32,17.97,1.31,26.56-.02,8.45-.5,16.8-1.42,24.83.52.72.99,1.47,1.39,2.27l94.67-55.02.09-.75c.95-8.24,1.45-16.82,1.47-25.5,0-.85-.01-1.71-.02-2.57Z"/>
    <path class="cls-1" d="M373.4,117.76l-.8-.64-93.63,54.41c.81,1.47,1.43,3.06,1.81,4.75,13.81,11.3,27.43,24.34,40.51,38.83,1.74-2.33,4.09-4.23,6.75-5.45.24-.34.49-.67.75-.99l-6.09,3.54c-13.17-14.52-26.89-27.59-40.8-38.9l90.43-52.55c12.59,10.17,24.99,21.8,36.96,34.59.73-.69,1.51-1.32,2.34-1.88-12.37-13.23-25.2-25.24-38.22-35.69Z"/>
    <path class="cls-1" d="M277.75,175.7l.13-42.14.74-.43,95.46-55.49-.11,42.16-96.22,55.91ZM280.87,135.29l-.1,35.19,90.21-52.42.09-35.21-90.2,52.43Z"/>
    <path class="cls-1" d="M277.89,137.03v-2.61c.02-5.25-3.69-11.67-8.27-14.32l-55.42-32c-1.92-1.11-3.73-1.35-4.95-.64l-1.5-2.6h0s0,0,0,0l93.2-54.16c2.21-1.27,5.02-1.05,7.94.64l55.42,32c5.49,3.17,9.79,10.6,9.79,16.92v.86l-96.21,55.91ZM214.03,84.68c.55.22,1.11.49,1.68.81l55.42,32c4.78,2.77,8.66,8.77,9.57,14.43l90.38-52.52c-.37-5.09-3.93-10.98-8.25-13.48l-55.42-32c-1.95-1.13-3.7-1.35-4.93-.64l-88.43,51.39Z"/>
    <path class="cls-1" d="M407.55,357.86l-.63-1.65c-7.38-19.43-16.32-38.75-26.57-57.41l-.71-1.28,95.8-55.67.74,1.35c10.3,18.74,19.3,38.18,26.75,57.79l.45,1.19-95.83,55.69ZM383.68,298.64c9.73,17.85,18.28,36.29,25.41,54.85l90.58-52.64c-7.13-18.61-15.66-37.05-25.38-54.87l-90.61,52.66Z"/>
    <path class="cls-1" d="M467.17,456.51l-1.51-2.59h0c1.77-1.04,2.36-4.02,1.52-7.6l-.26-1.08,95.91-55.74.47,1.97c1.18,4.98.05,9.15-2.94,10.88l-93.2,54.16s0,0,0,0ZM470.34,446.73c.27,1.59.3,3.08.11,4.41l88.43-51.39c1.42-.83,2.09-2.91,1.86-5.56l-90.4,52.53Z"/>
    <path class="cls-1" d="M467.68,448.28l-17.75-73.61,95.91-55.74,17.75,73.61-95.91,55.74ZM453.36,376.14l16.29,67.53,90.5-52.59-16.29-67.53-90.5,52.59Z"/>
    <path class="cls-1" d="M546.32,320.88c-1.27-5.35-4.98-10.59-9.23-13.04h0c-1.11-.64-2.21-1.07-3.25-1.27l-32.55-6.65-94.59,54.97c.44.71.84,1.44,1.18,2.21l32.19,6.58c.73.14,1.52.45,2.34.92,3.53,2.04,6.74,6.62,7.8,11.14l.46,1.97,95.92-55.74-.26-1.08ZM452.56,373.13c-1.6-4.65-4.92-8.98-8.67-11.14-1.11-.63-2.21-1.06-3.25-1.25l-28.15-5.75,89.31-51.9,31.44,6.42c.73.14,1.52.46,2.35.93,3.25,1.87,6.23,5.91,7.52,10.07l-90.55,52.62Z"/>
    <path class="cls-1" d="M497.19,222.65c-.03-.31-.06-.62-.07-.94-.01-.23,0-.46.01-.69l-96.28,55.95-19.37,19.2c.75.79,1.42,1.65,2.02,2.57l92.14-53.54,19.74-19.56c.49-1.06,1.11-2.06,1.82-3ZM473.95,242.72l-82.95,48.21,11.52-11.44,82.95-48.21-11.52,11.44Z"/>
    <path class="cls-1" d="M352.21,664.49c-1.48,0-3.09-.48-4.73-1.42-3.14-1.81-6.11-5.24-7.93-9.18l-19.26-41.88c-13.08-.66-26.78-3.39-40.75-8.13l-.11,36.51c0,3.34-1.21,5.88-3.38,7.13-2.19,1.26-5.01,1.03-7.94-.66l-55.42-32c-5.49-3.16-9.79-10.59-9.77-16.91l.1-37.88c-14.35-11.57-28.35-24.88-41.63-39.58l-18.75,18.78c-2.24,2.21-5.65,2.32-9.13.3-2.11-1.22-4.1-3.12-5.77-5.5l-44.77-63.32c-4.49-6.39-5.31-14.15-1.86-17.66l19.14-19.02c-10.08-18.51-18.77-37.33-25.85-55.99l-31.19-6.37c-1.1-.23-2.2-.66-3.26-1.28-4.27-2.46-8-7.72-9.28-13.08l-17.02-70.55c-.99-4.17-.38-7.77,1.65-9.88,1.49-1.54,3.61-2.14,5.98-1.66l30.09,6.17c-.78-9.12-1.16-17.34-1.15-25.06.02-7.92.48-15.98,1.39-24.61l-31.45-29.9c-5.18-4.96-7.9-12.88-6.2-18.03l17.36-50.73c.66-2,1.93-3.41,3.67-4.08,2.05-.79,4.57-.42,7.08,1.03,1.05.61,2.1,1.41,3.12,2.38l30.65,29.16c7.08-10.06,15.54-18.44,25.17-24.95l-19.21-41.54c-2.04-4.47-2.4-8.96-.96-12,.84-1.78,2.24-2.97,4.03-3.44l44.98-11.52c1.98-.51,4.22-.09,6.47,1.22,3.17,1.83,6.04,5.18,7.86,9.17l19.3,41.85c13.12.7,26.79,3.44,40.69,8.17l.11-36.57c0-3.33,1.22-5.86,3.4-7.11,2.2-1.27,5.01-1.03,7.92.65l55.42,32c5.5,3.19,9.79,10.62,9.76,16.93l-.11,37.94c14.25,11.49,28.27,24.79,41.69,39.55l18.7-18.75c2.2-2.23,5.61-2.36,9.12-.33,2.1,1.2,4.11,3.12,5.79,5.53l44.81,63.36c4.47,6.4,5.25,14.13,1.79,17.62l-19.14,19.01c9.96,18.23,18.67,37.07,25.91,56.03l31.19,6.37c1.03.2,2.09.61,3.24,1.25,4.28,2.46,7.98,7.71,9.24,13.07l17.02,70.55c.98,4.18.37,7.78-1.66,9.88-1.49,1.54-3.61,2.13-5.97,1.66l-30.08-6.17c.78,8.57,1.16,16.94,1.14,24.91-.03,8.42-.49,16.74-1.39,24.75l31.49,29.87c5.17,4.95,7.9,12.87,6.21,18.02l-17.37,50.73c-.67,1.99-1.95,3.4-3.71,4.06-2.06.78-4.56.41-7.05-1.02-1.03-.59-2.06-1.38-3.06-2.35l-30.65-29.16c-7.09,9.96-15.57,18.33-25.23,24.92l19.21,41.54c2.04,4.45,2.41,8.94.99,12-.83,1.79-2.21,2.99-3.97,3.48l-45.07,11.49c-.53.15-1.09.22-1.67.22ZM276.55,599.66l1.99.7c14.72,5.18,29.12,8.1,42.8,8.7l.92.04,20.02,43.54c1.57,3.39,4.08,6.33,6.7,7.84,1.57.9,3,1.22,4.13.9l45.06-11.49c.88-.24,1.57-.87,2.02-1.85,1.04-2.24.66-5.88-.99-9.48l-20.29-43.87,1.07-.71c10.26-6.79,19.17-15.63,26.5-26.27l1-1.45,33.2,31.59c.83.81,1.66,1.45,2.48,1.91,1.7.98,3.3,1.27,4.5.82.9-.34,1.54-1.09,1.93-2.22l17.37-50.72c1.33-4.06-1.1-10.75-5.43-14.9l-32.57-30.89.09-.74c.94-8.13,1.43-16.59,1.45-25.16.02-8.5-.42-17.46-1.31-26.64l-.2-2.02,34.05,6.98c1.36.27,2.45,0,3.22-.8,1.29-1.34,1.63-3.99.9-7.1l-17.02-70.55c-1.06-4.54-4.27-9.12-7.8-11.15-.85-.48-1.62-.78-2.34-.92l-32.83-6.71-.29-.77c-7.38-19.43-16.32-38.75-26.57-57.41l-.54-.99,20.73-20.6c2.38-2.4,1.42-8.71-2.12-13.78l-44.81-63.36c-1.44-2.06-3.1-3.67-4.83-4.65-1.09-.63-3.78-1.89-5.49-.16l-20.94,20.99-1.06-1.17c-13.82-15.31-28.27-29.06-42.97-40.85l-.56-.45.12-39.39c.02-5.24-3.68-11.67-8.26-14.32l-55.42-32c-1.95-1.13-3.69-1.36-4.93-.65-1.22.7-1.89,2.31-1.9,4.52l-.12,40.78-1.99-.7c-14.63-5.16-29.01-8.1-42.74-8.73l-.91-.04-20.07-43.51c-1.55-3.39-4.03-6.32-6.64-7.83-1.54-.9-3.03-1.22-4.22-.91l-44.98,11.52c-.91.24-1.61.85-2.07,1.82-1.05,2.22-.68,5.85.97,9.47l20.29,43.87-1.08.71c-10.21,6.7-19.1,15.55-26.42,26.3l-.99,1.46-33.21-31.59c-.85-.81-1.7-1.47-2.55-1.95-1.72-.99-3.32-1.29-4.52-.83-.88.34-1.52,1.09-1.9,2.23l-17.36,50.73c-1.34,4.06,1.09,10.75,5.42,14.9l32.52,30.92-.08.74c-.95,8.8-1.43,16.99-1.45,25.03-.01,8.18.42,16.95,1.31,26.79l.18,2.01-34.03-6.98c-1.36-.27-2.45,0-3.23.8-1.29,1.34-1.62,3.99-.89,7.1l17.02,70.55c1.08,4.54,4.32,9.14,7.87,11.19.79.46,1.58.77,2.36.93l32.81,6.7.29.77c7.21,19.11,16.13,38.41,26.51,57.37l.54.99-20.73,20.6c-2.37,2.41-1.38,8.74,2.18,13.81l44.77,63.32c1.42,2.03,3.09,3.63,4.82,4.63,1.07.62,3.76,1.89,5.51.16l20.98-21.02,1.06,1.18c13.66,15.24,28.1,28.99,42.9,40.87l.56.45-.1,39.33c-.01,5.26,3.7,11.68,8.27,14.31l55.42,32c1.93,1.11,3.74,1.35,4.94.66,1.21-.7,1.88-2.31,1.88-4.54l.12-40.72ZM301.21,539.06c-18.58,0-39.16-6.21-60.46-18.51h0c-73.89-42.66-133.79-146.43-133.53-231.31.11-41.24,14.24-72.05,39.79-86.75,25.76-14.83,59.89-11.48,96.11,9.43,73.85,42.64,133.72,146.33,133.48,231.13-.12,41.32-14.28,72.18-39.86,86.9-10.58,6.09-22.57,9.11-35.53,9.11ZM242.25,517.95c35.19,20.32,68.22,23.66,92.99,9.4,24.62-14.17,38.24-44.11,38.36-84.31.24-83.85-58.96-186.37-131.98-228.53-35.25-20.35-68.32-23.7-93.12-9.43-24.58,14.15-38.18,44.04-38.29,84.16-.25,83.92,58.97,186.52,132.03,228.71Z"/>
    <path class="cls-1" d="M392.55,285.27l7.98-8.05c2.39-2.41,1.42-8.72-2.11-13.79l-44.82-63.36c-1.43-2.06-3.1-3.67-4.83-4.65-1.91-1.1-3.68-1.33-4.87-.64h-.01s0,0,0,0h0s-1.51-2.59-1.51-2.59c0,0,.02,0,.03-.02l93.18-54.15c2.19-1.27,4.99-1.05,7.89.63,2.12,1.23,4.12,3.14,5.79,5.53l44.82,63.36c4.46,6.39,5.24,14.13,1.78,17.62l-.14.14-.17.1-103,59.86ZM348.63,192.04c.54.21,1.09.47,1.63.79,2.1,1.2,4.11,3.12,5.79,5.53l44.81,63.36c3,4.3,4.34,9.2,3.84,13.02l89.14-51.8c2.23-2.5,1.24-8.68-2.23-13.65l-44.82-63.36c-1.42-2.04-3.09-3.65-4.83-4.66-1.9-1.1-3.68-1.33-4.88-.63l-88.46,51.41Z"/>
  </g>
  <g class="cls-2">
    <path class="cls-1" d="M831.75,664.04l-15.46,8.98-.2.15c-.11.11-.22.2-.32.26l-.06.03.96,1.69s.06-.03.09-.05l16.05-9.33c-.41-.54-.76-1.12-1.07-1.74Z"/>
    <path class="cls-1" d="M758.6,490.51l-22.86,13.29.97,1.69c.46-.26,1.04-.33,1.7-.2l.36.07,19.95-11.59c-.24-1.09-.26-2.18-.11-3.25Z"/>
    <path class="cls-1" d="M935.14,724.39l-29.06,16.89c.03-.19.05-.38.06-.58l28.76-16.71c-.31-.57-.57-1.17-.78-1.79l-29.9,17.37v.56c0,1.44-.43,2.48-1.21,2.94h0s.98,1.69.98,1.69c0,0,0,0,0,0h0s0,0,0,0l32.3-18.77c-.43-.49-.81-1.02-1.15-1.58Z"/>
    <path class="cls-1" d="M933.96,722.28l-27.8,16.15.07-22.78.16-.1c-.74-.27-1.43-.62-2.07-1.04l-.03.02-.08,27.28,30.47-17.71c-.29-.59-.53-1.2-.72-1.83Z"/>
    <path class="cls-1" d="M782.04,393.83l-28.3,16.44c-.5-.42-.99-.77-1.47-1.05-.36-.21-.71-.38-1.07-.52l30.15-17.52c-.05-.35-.08-.7-.09-1.05-.02-.39,0-.78.03-1.16l-34.15,19.84s0,0,0,0h0l.98,1.68h0c.79-.46,1.94-.31,3.18.41.53.3,1.09.73,1.65,1.27l.53.5,29.41-17.09c-.33-.56-.61-1.14-.85-1.76Z"/>
    <path class="cls-1" d="M775.07,431.86c.12-.2.24-.4.38-.59.07-.74.22-1.45.45-2.14l-1.42.83-19.23-18.3,27.98-16.26c-.29-.59-.53-1.2-.72-1.83l-30.48,17.71,22.17,21.09.88-.51Z"/>
    <path class="cls-1" d="M942.48,625.62c-47.37-27.34-85.78-93.86-85.62-148.29.02-8.84,1.07-16.91,3.05-24.08-.65-.1-1.29-.25-1.89-.47-2.02,7.32-3.08,15.55-3.11,24.54-.16,54.49,37.91,120.97,85.15,149.13l-58.51,34c-47.14-27.51-85.28-93.76-85.13-148,.07-25.93,8.84-45.28,24.69-54.49l7.38-4.29c-.37,0-.73-.03-1.09-.07-1.95,1.68-4.46,2.72-7.02,2.72-.1,0-.19-.01-.29-.01-16.44,9.58-25.54,29.52-25.61,56.14-.15,55.05,38.69,122.33,86.59,149.98l.49.28,62.37-36.25-1.45-.84Z"/>
    <path class="cls-1" d="M942.48,625.62l-.49-.28-62.37,36.25,1.45.84c13.81,7.97,27.15,12,39.2,12,8.37,0,16.12-1.95,22.96-5.87,1.52-2.55,4.13-4.47,7.02-5.16.59-.72,1.27-1.37,2.02-1.92.19-.27.4-.52.61-.77l-10.4,6.04c-15.74,9.15-36.63,7.3-58.98-5.17l58.48-33.99c7.7,4.4,15.25,7.56,22.51,9.49.04-.66.15-1.31.32-1.93-7.19-1.93-14.69-5.1-22.35-9.52Z"/>
    <path class="cls-1" d="M984.56,747.8l-.98-1.68h0c1.58-.92,1.67-4,.22-7.16l-.37-.8,62.12-36.1.45.97c1.9,4.14,1.48,8.19-1.02,9.65h0s-60.43,35.12-60.43,35.12c0,0,0,0,0,0ZM985.93,738.96c.76,1.94,1.01,3.79.78,5.34l57.31-33.3c1.42-.83,1.64-3.37.64-6.16l-58.73,34.13Z"/>
    <path class="cls-1" d="M1042.94,700.98l.95,2.05-58.75,34.15-11.99-25.93,21.11-12.26c-.42-.49-.8-1.02-1.14-1.59l-22.48,13.06,13.64,29.47,62.12-36.11-1.66-3.59c-.58.3-1.18.56-1.8.75Z"/>
    <path class="cls-1" d="M887.64,364.2c.53-.39,1.09-.73,1.67-1.02l-10.83-23.47-62.12,36.1,13.58,29.45,27.71-16.1c-.12-.6-.21-1.2-.23-1.82,0-.1,0-.19,0-.29l-26.61,15.46-11.95-25.9,58.75-34.14,10.03,21.73Z"/>
    <path class="cls-1" d="M780.04,378.63l-.99-1.68s.03-.02.05-.03l60.39-35.09c.35-.19.67-.32.98-.4l29.16-7.47c1.27-.33,2.72-.06,4.19.79h0c2.06,1.19,3.92,3.36,5.1,5.95l.37.8-62.12,36.1-.45-.98c-1-2.2-2.61-4.09-4.31-5.07-1-.58-1.96-.79-2.73-.59l-29.16,7.47c-.16.04-.31.1-.45.18l-.04.02ZM870.73,335.76c-.21,0-.41.02-.61.07l-29.16,7.47c-.16.04-.32.11-.5.21l-54.01,31.39,22.75-5.83c1.28-.33,2.74-.06,4.2.79,1.8,1.04,3.44,2.83,4.62,4.99l58.75-34.14c-1-1.86-2.43-3.42-3.91-4.28h0c-.76-.44-1.49-.67-2.13-.67Z"/>
    <path class="cls-1" d="M1016.48,715.87l-.98-1.68c.44-.26.78-.71.97-1.3l.12-.35.32-.19,62.65-36.41-.8,2.43c-.35,1.06-.99,1.88-1.84,2.37l-60.43,35.12Z"/>
    <path class="cls-1" d="M1015.64,715.34l12.22-35.69.31-.18,62.69-36.43-12.21,35.69-63.01,36.62ZM1029.46,680.96l-10.3,30.08,57.87-33.64,10.29-30.07-57.87,33.63Z"/>
    <path class="cls-1" d="M1026.94,682.43l.8-2.43c.87-2.65-.71-6.99-3.52-9.68l-21.68-20.61,62.19-36.14,21.27,20.23c3.36,3.21,5.13,8.35,4.02,11.7l-.12.35-.32.19-62.64,36.4ZM1005.75,650.09l19.8,18.83c2.7,2.58,4.37,6.4,4.35,9.54l58.36-33.91c.65-2.67-.92-6.76-3.62-9.34l-20.21-19.22-58.68,34.1Z"/>
    <path class="cls-1" d="M1066.49,596.7c-.63.27-1.28.48-1.94.62,0,.35,0,.7,0,1.05-.02,5.38-.31,10.7-.89,15.83l-58.35,33.91c.48-4.75.73-9.66.75-14.61,0-5.45-.26-11.12-.8-16.84-.69-.07-1.35-.2-1.99-.39.57,5.85.86,11.65.85,17.22-.02,5.48-.33,10.89-.92,16.1.34.46.64.95.9,1.47l61.39-35.67.06-.48c.62-5.34.94-10.91.95-16.53,0-.55,0-1.11-.01-1.67Z"/>
    <path class="cls-1" d="M967.08,401.25l-.52-.42-60.71,35.28c.53.95.93,1.99,1.17,3.08,8.96,7.33,17.79,15.78,26.26,25.18,1.13-1.51,2.65-2.74,4.37-3.53.16-.22.32-.44.49-.65l-3.95,2.29c-8.54-9.41-17.43-17.89-26.45-25.23l58.63-34.07c8.16,6.59,16.2,14.13,23.97,22.43.47-.45.98-.86,1.52-1.22-8.02-8.58-16.34-16.36-24.78-23.14Z"/>
    <path class="cls-1" d="M905.06,438.82l.08-27.33.48-.28,61.9-35.98-.07,27.33-62.39,36.25ZM907.08,412.62l-.07,22.82,58.49-33.99.06-22.83-58.49,34Z"/>
    <path class="cls-1" d="M905.15,413.75v-1.69c.01-3.4-2.4-7.57-5.36-9.29l-35.93-20.75c-1.25-.72-2.42-.87-3.21-.42l-.98-1.68h0s0,0,0,0l60.43-35.12c1.43-.83,3.26-.68,5.15.42l35.93,20.75c3.56,2.05,6.35,6.87,6.35,10.97v.56l-62.38,36.25ZM863.74,379.81c.36.14.72.32,1.09.53l35.93,20.75c3.1,1.8,5.61,5.68,6.2,9.36l58.6-34.05c-.24-3.3-2.55-7.12-5.35-8.74l-35.93-20.75c-1.26-.73-2.4-.88-3.2-.42l-57.34,33.32Z"/>
    <path class="cls-1" d="M989.22,556.94l-.41-1.07c-4.79-12.6-10.58-25.13-17.23-37.22l-.46-.83,62.12-36.1.48.87c6.68,12.15,12.51,24.76,17.34,37.47l.29.77-62.14,36.11ZM973.75,518.54c6.31,11.58,11.85,23.53,16.48,35.57l58.73-34.13c-4.62-12.06-10.15-24.02-16.46-35.58l-58.75,34.14Z"/>
    <path class="cls-1" d="M1027.88,620.9l-.98-1.68h0c1.15-.67,1.53-2.6.98-4.93l-.17-.7,62.19-36.14.3,1.28c.77,3.23.04,5.93-1.9,7.06l-60.43,35.12s0,0,0,0ZM1029.93,614.56c.18,1.03.2,2,.07,2.86l57.34-33.32c.92-.54,1.36-1.89,1.21-3.6l-58.61,34.06Z"/>
    <path class="cls-1" d="M1028.21,615.57l-11.51-47.73,62.19-36.14,11.51,47.73-62.19,36.14ZM1018.93,568.79l10.56,43.78,58.68-34.1-10.56-43.78-58.68,34.1Z"/>
    <path class="cls-1" d="M1079.2,532.96c-.82-3.47-3.23-6.86-5.99-8.45h0c-.72-.42-1.44-.69-2.11-.83l-21.11-4.31-61.34,35.64c.29.46.54.93.76,1.43l20.87,4.26c.48.09.99.29,1.52.59,2.29,1.32,4.37,4.29,5.06,7.22l.3,1.28,62.19-36.14-.17-.7ZM1018.41,566.84c-1.04-3.02-3.19-5.82-5.62-7.22-.72-.41-1.43-.68-2.11-.81l-18.25-3.73,57.91-33.65,20.39,4.17c.47.09.99.3,1.52.6,2.11,1.21,4.04,3.83,4.88,6.53l-58.71,34.12Z"/>
    <path class="cls-1" d="M1047.34,469.27c-.02-.2-.04-.4-.05-.61,0-.15,0-.3,0-.45l-62.43,36.28-12.56,12.45c.49.51.92,1.07,1.31,1.67l59.74-34.72,12.8-12.69c.32-.69.72-1.34,1.18-1.94ZM1032.28,482.28l-53.79,31.26,7.47-7.42,53.78-31.26-7.47,7.42Z"/>
    <path class="cls-1" d="M953.34,755.76c-.96,0-2.01-.31-3.07-.92-2.04-1.17-3.96-3.4-5.14-5.95l-12.49-27.15c-8.48-.43-17.36-2.2-26.43-5.27l-.07,23.67c0,2.17-.78,3.81-2.19,4.62-1.42.82-3.25.67-5.15-.42l-35.94-20.75c-3.56-2.05-6.35-6.87-6.34-10.97l.07-24.56c-9.3-7.5-18.38-16.13-26.99-25.66l-12.16,12.18c-1.46,1.43-3.67,1.51-5.92.2-1.37-.79-2.66-2.03-3.74-3.56l-29.03-41.06c-2.91-4.15-3.44-9.17-1.2-11.45l12.41-12.33c-6.53-12-12.17-24.21-16.76-36.3l-20.23-4.13c-.72-.15-1.43-.43-2.12-.83-2.77-1.6-5.19-5.01-6.01-8.48l-11.04-45.75c-.64-2.7-.25-5.04,1.07-6.4.97-1,2.34-1.39,3.88-1.08l19.51,4c-.51-5.92-.75-11.24-.74-16.25.02-5.14.31-10.36.9-15.95l-20.39-19.39c-3.36-3.22-5.13-8.35-4.02-11.69l11.26-32.89c.43-1.3,1.25-2.21,2.38-2.64,1.33-.51,2.96-.27,4.59.67.68.39,1.36.91,2.02,1.54l19.88,18.91c4.59-6.52,10.08-11.96,16.32-16.18l-12.46-26.93c-1.33-2.9-1.56-5.81-.62-7.78.55-1.16,1.45-1.93,2.61-2.23l29.17-7.47c1.29-.33,2.74-.06,4.2.79,2.06,1.19,3.92,3.36,5.1,5.95l12.52,27.14c8.51.45,17.37,2.23,26.38,5.29l.07-23.71c0-2.16.79-3.8,2.21-4.61,1.43-.82,3.25-.67,5.14.42l35.93,20.75c3.57,2.07,6.35,6.89,6.33,10.98l-.07,24.6c9.24,7.45,18.33,16.07,27.03,25.65l12.12-12.16c1.43-1.45,3.64-1.53,5.91-.21,1.36.78,2.66,2.02,3.75,3.59l29.06,41.08c2.9,4.15,3.4,9.16,1.16,11.43l-12.41,12.33c6.45,11.82,12.1,24.03,16.8,36.33l20.23,4.13c.67.13,1.36.39,2.1.81,2.77,1.6,5.18,5,5.99,8.47l11.03,45.74c.64,2.71.24,5.04-1.08,6.41-.96,1-2.34,1.38-3.87,1.07l-19.5-4c.5,5.56.75,10.98.74,16.15-.02,5.46-.32,10.85-.9,16.05l20.42,19.36c3.36,3.21,5.12,8.34,4.02,11.69l-11.26,32.9c-.44,1.29-1.27,2.21-2.4,2.64-1.33.5-2.96.27-4.57-.66-.67-.38-1.34-.89-1.99-1.52l-19.87-18.91c-4.6,6.45-10.09,11.88-16.36,16.16l12.46,26.94c1.33,2.89,1.56,5.79.64,7.78-.54,1.16-1.43,1.94-2.58,2.26l-29.22,7.45c-.35.09-.71.14-1.08.14ZM904.28,713.72l1.29.45c9.54,3.36,18.88,5.26,27.75,5.64l.59.03,12.98,28.23c1.02,2.2,2.64,4.1,4.35,5.08,1.02.59,1.94.79,2.68.59l29.22-7.45c.57-.16,1.02-.56,1.31-1.2.68-1.46.43-3.81-.64-6.15l-13.16-28.45.7-.46c6.65-4.4,12.43-10.13,17.18-17.03l.65-.94,21.53,20.48c.54.52,1.08.94,1.61,1.24,1.1.64,2.14.82,2.92.53.58-.22,1-.7,1.25-1.44l11.26-32.89c.86-2.63-.71-6.97-3.52-9.66l-21.12-20.03.06-.48c.61-5.27.93-10.76.94-16.31.02-5.51-.27-11.32-.85-17.27l-.13-1.31,22.08,4.53c.88.18,1.59,0,2.09-.52.84-.87,1.06-2.59.58-4.61l-11.03-45.74c-.69-2.94-2.77-5.91-5.06-7.23-.55-.31-1.05-.5-1.52-.59l-21.29-4.35-.19-.5c-4.79-12.6-10.58-25.13-17.23-37.22l-.35-.64,13.44-13.36c1.54-1.56.92-5.65-1.37-8.93l-29.06-41.08c-.93-1.34-2.01-2.38-3.13-3.02-.7-.41-2.45-1.23-3.56-.1l-13.58,13.61-.69-.76c-8.96-9.93-18.33-18.84-27.86-26.49l-.37-.29.08-25.54c.02-3.4-2.39-7.57-5.36-9.29l-35.93-20.75c-1.26-.73-2.4-.88-3.19-.42-.79.45-1.23,1.5-1.23,2.93l-.08,26.44-1.29-.46c-9.49-3.35-18.81-5.25-27.71-5.66l-.59-.03-13.01-28.21c-1-2.2-2.61-4.1-4.31-5.07-1-.58-1.97-.79-2.73-.59l-29.17,7.47c-.59.16-1.04.55-1.34,1.18-.68,1.44-.44,3.79.63,6.14l13.16,28.45-.7.46c-6.62,4.34-12.38,10.08-17.13,17.05l-.64.95-21.53-20.49c-.55-.53-1.1-.95-1.65-1.27-1.11-.64-2.15-.84-2.93-.54-.57.22-.99.7-1.23,1.45l-11.26,32.89c-.87,2.63.7,6.97,3.52,9.66l21.09,20.05-.05.48c-.62,5.71-.93,11.01-.94,16.23,0,5.31.27,10.99.85,17.37l.12,1.3-22.07-4.53c-.88-.18-1.59,0-2.09.52-.84.87-1.05,2.59-.58,4.6l11.03,45.74c.7,2.95,2.8,5.93,5.1,7.26.51.3,1.02.5,1.53.6l21.28,4.35.19.5c4.67,12.39,10.46,24.9,17.19,37.2l.35.64-13.44,13.36c-1.54,1.56-.89,5.67,1.42,8.96l29.03,41.06c.92,1.31,2,2.35,3.13,3,.7.4,2.44,1.22,3.57.11l13.6-13.63.69.77c8.86,9.88,18.22,18.8,27.82,26.5l.37.29-.07,25.5c0,3.41,2.4,7.57,5.36,9.28l35.94,20.75c1.25.72,2.42.88,3.21.42.78-.45,1.22-1.5,1.22-2.94l.08-26.4ZM920.27,674.42c-12.05,0-25.39-4.03-39.2-12h0c-47.91-27.66-86.75-94.95-86.58-149.99.07-26.74,9.24-46.72,25.8-56.25,16.7-9.61,38.83-7.44,62.32,6.12,47.88,27.65,86.71,94.88,86.55,149.87-.08,26.79-9.26,46.8-25.85,56.35-6.86,3.95-14.63,5.91-23.04,5.91ZM882.04,660.74c22.82,13.17,44.23,15.34,60.3,6.09,15.96-9.19,24.8-28.6,24.87-54.67.16-54.37-38.23-120.84-85.58-148.18-22.86-13.2-44.3-15.37-60.38-6.11-15.94,9.17-24.75,28.55-24.83,54.57-.17,54.42,38.24,120.94,85.61,148.3Z"/>
    <path class="cls-1" d="M979.5,509.87l5.17-5.22c1.55-1.56.92-5.66-1.37-8.94l-29.06-41.08c-.93-1.34-2.01-2.38-3.13-3.02-1.24-.71-2.38-.86-3.16-.42h0s0,0,0,0h0s-.98-1.68-.98-1.68c0,0,.01,0,.02-.01l60.42-35.11c1.42-.82,3.23-.68,5.11.41,1.38.8,2.67,2.04,3.75,3.59l29.06,41.09c2.89,4.14,3.4,9.16,1.16,11.42l-.09.09-.11.06-66.79,38.81ZM951.02,449.41c.35.14.71.31,1.06.51,1.36.78,2.66,2.02,3.75,3.59l29.06,41.08c1.95,2.79,2.81,5.97,2.49,8.44l57.8-33.59c1.45-1.62.8-5.63-1.45-8.85l-29.06-41.08c-.92-1.32-2-2.36-3.13-3.02-1.23-.71-2.39-.86-3.16-.41l-57.36,33.33Z"/>
  </g>
  <g class="cls-2">
    <path class="cls-1" d="M447.51,1019.7l-13.08,7.6-.17.13c-.09.09-.18.17-.27.22l-.05.03.81,1.43s.05-.03.08-.04l13.58-7.89c-.34-.46-.65-.95-.9-1.47Z"/>
    <path class="cls-1" d="M385.64,872.91l-19.34,11.24.82,1.43c.39-.22.88-.28,1.44-.17l.3.06,16.87-9.81c-.21-.92-.22-1.85-.1-2.75Z"/>
    <path class="cls-1" d="M534.97,1070.75l-24.58,14.29c.02-.16.04-.32.05-.49l24.33-14.14c-.26-.48-.48-.99-.66-1.52l-25.29,14.7v.47c0,1.22-.36,2.1-1.02,2.48h0s.83,1.43.83,1.43c0,0,0,0,0,0h0s0,0,0,0l27.33-15.88c-.36-.42-.69-.86-.97-1.34Z"/>
    <path class="cls-1" d="M533.97,1068.96l-23.52,13.67.06-19.27.14-.08c-.62-.23-1.21-.53-1.75-.88l-.03.02-.07,23.08,25.77-14.98c-.24-.5-.45-1.01-.6-1.55Z"/>
    <path class="cls-1" d="M405.47,791.12l-23.94,13.91c-.42-.36-.84-.65-1.24-.89-.3-.18-.6-.32-.9-.44l25.51-14.82c-.04-.29-.07-.59-.08-.89-.01-.33,0-.66.02-.98l-28.88,16.79s0,0,0,0h0l.83,1.42h0c.67-.39,1.64-.26,2.69.35.45.26.92.62,1.4,1.07l.45.42,24.88-14.46c-.28-.47-.52-.97-.72-1.49Z"/>
    <path class="cls-1" d="M399.57,823.29c.1-.17.21-.34.32-.5.06-.62.18-1.23.38-1.81l-1.2.7-16.27-15.48,23.67-13.75c-.24-.5-.45-1.01-.61-1.55l-25.79,14.99,18.75,17.84.74-.43Z"/>
    <path class="cls-1" d="M541.18,987.2c-40.07-23.13-72.56-79.4-72.43-125.44.02-7.48.9-14.31,2.58-20.37-.55-.08-1.09-.21-1.6-.39-1.71,6.2-2.61,13.15-2.63,20.76-.13,46.09,32.07,102.33,72.03,126.15l-49.49,28.76c-39.87-23.27-72.14-79.32-72.02-125.2.06-21.94,7.48-38.31,20.88-46.1l6.24-3.63c-.31,0-.62-.03-.92-.06-1.65,1.42-3.77,2.3-5.94,2.3-.08,0-.16-.01-.25-.01-13.91,8.1-21.6,24.97-21.67,47.49-.13,46.57,32.73,103.48,73.25,126.87l.41.24,52.76-30.66-1.23-.71Z"/>
    <path class="cls-1" d="M541.18,987.2l-.41-.24-52.76,30.66,1.23.71c11.69,6.75,22.97,10.15,33.16,10.15,7.08,0,13.64-1.65,19.42-4.96,1.28-2.16,3.49-3.78,5.94-4.37.5-.61,1.07-1.16,1.71-1.63.16-.23.34-.44.52-.65l-8.8,5.11c-13.31,7.74-30.99,6.18-49.89-4.37l49.47-28.75c6.52,3.72,12.9,6.4,19.04,8.02.03-.56.12-1.1.27-1.63-6.08-1.63-12.43-4.31-18.9-8.05Z"/>
    <path class="cls-1" d="M576.78,1090.55l-.83-1.42h0c1.33-.78,1.41-3.38.19-6.05l-.31-.68,52.55-30.54.38.82c1.61,3.5,1.25,6.93-.86,8.16h0s-51.12,29.71-51.12,29.71c0,0,0,0,0,0ZM577.94,1083.08c.64,1.64.85,3.21.66,4.51l48.48-28.17c1.2-.7,1.39-2.85.54-5.21l-49.68,28.87Z"/>
    <path class="cls-1" d="M626.16,1050.95l.8,1.73-49.69,28.89-10.15-21.93,17.86-10.38c-.36-.42-.68-.87-.96-1.34l-19.02,11.05,11.53,24.93,52.55-30.55-1.4-3.04c-.49.25-1,.47-1.52.63Z"/>
    <path class="cls-1" d="M494.8,766.06c.45-.33.92-.62,1.41-.86l-9.16-19.85-52.55,30.54,11.49,24.91,23.44-13.62c-.1-.5-.17-1.02-.2-1.54,0-.08,0-.16,0-.25l-22.51,13.08-10.11-21.91,49.69-28.88,8.48,18.38Z"/>
    <path class="cls-1" d="M403.77,778.26l-.83-1.42s.03-.02.04-.03l51.08-29.69c.3-.16.56-.27.83-.34l24.66-6.32c1.08-.28,2.3-.05,3.55.67h0c1.74,1.01,3.32,2.84,4.32,5.03l.31.68-52.55,30.54-.38-.83c-.85-1.86-2.21-3.46-3.64-4.29-.84-.49-1.66-.67-2.31-.5l-24.67,6.32c-.14.03-.26.08-.38.15l-.03.02ZM480.49,742c-.18,0-.35.02-.51.06l-24.67,6.32c-.13.03-.27.09-.42.18l-45.69,26.55,19.25-4.93c1.09-.28,2.32-.05,3.55.67,1.52.88,2.91,2.39,3.91,4.22l49.7-28.88c-.85-1.57-2.05-2.9-3.31-3.62h0c-.65-.37-1.26-.56-1.8-.56Z"/>
    <path class="cls-1" d="M603.78,1063.54l-.83-1.42c.37-.22.66-.6.82-1.1l.1-.3.27-.16,53-30.8-.68,2.06c-.3.89-.83,1.59-1.56,2.01l-51.12,29.71Z"/>
    <path class="cls-1" d="M603.07,1063.1l10.34-30.19.27-.15,53.03-30.82-10.33,30.19-53.3,30.98ZM614.76,1034.02l-8.71,25.44,48.96-28.45,8.71-25.44-48.95,28.45Z"/>
    <path class="cls-1" d="M612.63,1035.26l.67-2.05c.73-2.24-.6-5.92-2.98-8.19l-18.34-17.44,52.6-30.57,18,17.11c2.85,2.72,4.34,7.06,3.4,9.89l-.1.3-.27.16-52.99,30.8ZM594.71,1007.9l16.75,15.93c2.28,2.18,3.7,5.42,3.68,8.07l49.37-28.69c.55-2.26-.78-5.72-3.06-7.9l-17.1-16.26-49.64,28.85Z"/>
    <path class="cls-1" d="M646.09,962.73c-.53.23-1.08.4-1.64.52,0,.29,0,.59,0,.88-.01,4.55-.27,9.06-.75,13.39l-49.36,28.68c.41-4.02.62-8.17.63-12.36,0-4.61-.22-9.4-.68-14.24-.58-.06-1.15-.17-1.69-.33.48,4.95.72,9.85.72,14.57-.01,4.63-.28,9.21-.78,13.62.28.39.54.81.76,1.24l51.93-30.18.05-.41c.52-4.52.79-9.23.81-13.98,0-.47,0-.94-.01-1.41Z"/>
    <path class="cls-1" d="M561.99,797.4l-.44-.35-51.36,29.85c.45.81.78,1.68.99,2.6,7.58,6.2,15.05,13.35,22.22,21.3.96-1.28,2.24-2.32,3.7-2.99.13-.19.27-.37.41-.55l-3.34,1.94c-7.23-7.96-14.75-15.13-22.38-21.34l49.6-28.82c6.91,5.58,13.71,11.96,20.27,18.97.4-.38.83-.73,1.28-1.03-6.79-7.26-13.82-13.84-20.97-19.58Z"/>
    <path class="cls-1" d="M509.53,829.18l.07-23.12.41-.24,52.36-30.44-.06,23.12-52.78,30.67ZM511.24,807.02l-.06,19.3,49.48-28.75.05-19.31-49.47,28.76Z"/>
    <path class="cls-1" d="M509.61,807.97v-1.43c0-2.88-2.03-6.4-4.54-7.86l-30.4-17.55c-1.06-.61-2.04-.74-2.71-.35l-.83-1.42h0s0,0,0,0l51.12-29.71c1.21-.7,2.75-.57,4.35.35l30.4,17.55c3.01,1.74,5.37,5.81,5.37,9.28v.47l-52.77,30.67ZM474.58,779.26c.3.12.61.27.92.45l30.4,17.55c2.62,1.52,4.75,4.81,5.25,7.92l49.57-28.81c-.2-2.79-2.15-6.02-4.53-7.39l-30.4-17.55c-1.07-.62-2.03-.74-2.71-.35l-48.51,28.19Z"/>
    <path class="cls-1" d="M580.72,929.1l-.34-.91c-4.05-10.66-8.95-21.25-14.57-31.49l-.39-.7,52.55-30.54.41.74c5.65,10.28,10.59,20.94,14.67,31.7l.25.65-52.56,30.55ZM567.63,896.62c5.34,9.79,10.02,19.91,13.94,30.09l49.68-28.87c-3.91-10.21-8.59-20.32-13.92-30.1l-49.7,28.88Z"/>
    <path class="cls-1" d="M613.43,983.21l-.83-1.42h0c.97-.57,1.3-2.2.83-4.17l-.14-.59,52.61-30.57.26,1.08c.65,2.73.03,5.02-1.61,5.97l-51.12,29.71s0,0,0,0ZM615.16,977.84c.15.87.17,1.69.06,2.42l48.5-28.19c.78-.45,1.15-1.6,1.02-3.05l-49.58,28.81Z"/>
    <path class="cls-1" d="M613.71,978.69l-9.74-40.38,52.61-30.57,9.74,40.38-52.61,30.57ZM605.85,939.12l8.93,37.04,49.64-28.85-8.93-37.04-49.64,28.85Z"/>
    <path class="cls-1" d="M656.84,908.81c-.7-2.93-2.73-5.81-5.06-7.15h0c-.61-.35-1.21-.59-1.79-.7l-17.85-3.65-51.89,30.15c.24.39.46.79.65,1.21l17.66,3.61c.4.08.84.25,1.28.5,1.94,1.12,3.7,3.63,4.28,6.11l.25,1.08,52.61-30.57-.14-.59ZM605.41,937.47c-.88-2.55-2.7-4.92-4.76-6.11-.61-.35-1.21-.58-1.78-.69l-15.44-3.15,48.98-28.47,17.25,3.52c.4.08.83.25,1.29.51,1.78,1.03,3.42,3.24,4.12,5.52l-49.66,28.86Z"/>
    <path class="cls-1" d="M629.89,854.94c-.02-.17-.03-.34-.04-.51,0-.13,0-.25,0-.38l-52.81,30.69-10.63,10.53c.41.43.78.91,1.11,1.41l50.54-29.37,10.83-10.73c.27-.58.61-1.13,1-1.64ZM617.14,865.94l-45.5,26.44,6.32-6.28,45.5-26.44-6.32,6.28Z"/>
    <path class="cls-1" d="M550.37,1097.29c-.81,0-1.7-.26-2.6-.78-1.72-.99-3.35-2.88-4.35-5.04l-10.56-22.97c-7.18-.36-14.69-1.86-22.35-4.46l-.06,20.02c0,1.83-.66,3.22-1.85,3.91-1.2.69-2.75.57-4.36-.36l-30.4-17.55c-3.01-1.73-5.37-5.81-5.36-9.28l.06-20.78c-7.87-6.35-15.55-13.64-22.83-21.71l-10.28,10.3c-1.23,1.21-3.1,1.27-5.01.17-1.16-.67-2.25-1.71-3.16-3.02l-24.55-34.73c-2.46-3.51-2.91-7.76-1.02-9.69l10.5-10.43c-5.53-10.15-10.3-20.48-14.18-30.71l-17.11-3.49c-.61-.12-1.21-.36-1.79-.7-2.34-1.35-4.39-4.24-5.09-7.18l-9.34-38.7c-.54-2.29-.21-4.26.91-5.42.82-.85,1.98-1.17,3.28-.91l16.5,3.38c-.43-5-.64-9.51-.63-13.74.01-4.35.26-8.77.76-13.5l-17.25-16.4c-2.84-2.72-4.34-7.06-3.4-9.89l9.52-27.83c.36-1.1,1.06-1.87,2.02-2.24,1.13-.43,2.51-.23,3.88.57.58.33,1.15.77,1.71,1.31l16.81,16c3.89-5.52,8.52-10.11,13.81-13.69l-10.54-22.78c-1.12-2.45-1.32-4.91-.53-6.58.46-.98,1.23-1.63,2.21-1.89l24.67-6.32c1.09-.28,2.32-.05,3.55.67,1.74,1.01,3.31,2.84,4.31,5.03l10.59,22.96c7.2.38,14.7,1.89,22.32,4.48l.06-20.06c0-1.83.67-3.21,1.87-3.9,1.21-.69,2.75-.57,4.35.36l30.4,17.55c3.02,1.75,5.37,5.83,5.35,9.29l-.06,20.81c7.82,6.3,15.5,13.6,22.87,21.7l10.26-10.28c1.21-1.22,3.08-1.29,5-.18,1.15.66,2.25,1.71,3.17,3.03l24.58,34.75c2.45,3.51,2.88,7.75.98,9.67l-10.5,10.43c5.46,10,10.24,20.33,14.21,30.73l17.11,3.5c.56.11,1.15.33,1.78.69,2.35,1.35,4.38,4.23,5.07,7.17l9.33,38.69c.54,2.29.21,4.27-.91,5.42-.82.84-1.98,1.17-3.28.91l-16.5-3.38c.43,4.7.64,9.29.62,13.67-.01,4.62-.27,9.18-.76,13.57l17.27,16.38c2.84,2.72,4.33,7.06,3.4,9.89l-9.53,27.83c-.37,1.09-1.07,1.87-2.03,2.23-1.13.43-2.5.23-3.87-.56-.57-.32-1.13-.76-1.68-1.29l-16.81-16c-3.89,5.46-8.54,10.05-13.84,13.67l10.54,22.79c1.12,2.44,1.32,4.9.54,6.58-.46.98-1.21,1.64-2.18,1.91l-24.72,6.3c-.29.08-.6.12-.91.12ZM508.87,1061.73l1.09.38c8.07,2.84,15.97,4.45,23.47,4.77l.5.02,10.98,23.88c.86,1.86,2.24,3.47,3.68,4.3.86.49,1.64.67,2.27.5l24.72-6.3c.48-.13.86-.48,1.11-1.01.57-1.23.36-3.22-.54-5.2l-11.13-24.06.59-.39c5.63-3.72,10.52-8.57,14.53-14.41l.55-.79,18.21,17.33c.45.44.91.79,1.36,1.05.93.54,1.81.7,2.47.45.49-.19.85-.6,1.06-1.22l9.53-27.82c.73-2.23-.6-5.9-2.98-8.17l-17.87-16.94.05-.41c.51-4.46.78-9.1.8-13.8.01-4.66-.23-9.58-.72-14.61l-.11-1.11,18.67,3.83c.74.15,1.34,0,1.77-.44.71-.73.89-2.19.49-3.9l-9.33-38.7c-.58-2.49-2.34-5-4.28-6.12-.46-.26-.89-.43-1.28-.5l-18.01-3.68-.16-.42c-4.05-10.66-8.95-21.25-14.57-31.49l-.3-.54,11.37-11.3c1.31-1.32.78-4.78-1.16-7.56l-24.58-34.75c-.79-1.13-1.7-2.01-2.65-2.55-.6-.34-2.07-1.04-3.01-.09l-11.48,11.51-.58-.64c-7.58-8.4-15.51-15.94-23.57-22.41l-.31-.25.06-21.61c.01-2.88-2.02-6.4-4.53-7.86l-30.4-17.55c-1.07-.62-2.03-.74-2.7-.36-.67.38-1.04,1.26-1.04,2.48l-.07,22.37-1.09-.39c-8.02-2.83-15.91-4.44-23.44-4.79l-.5-.02-11.01-23.86c-.85-1.86-2.21-3.46-3.64-4.29-.84-.49-1.66-.67-2.31-.5l-24.67,6.32c-.5.13-.88.47-1.14,1-.58,1.22-.37,3.21.53,5.19l11.13,24.07-.59.39c-5.6,3.67-10.48,8.53-14.49,14.43l-.55.8-18.21-17.33c-.46-.44-.93-.8-1.4-1.07-.94-.54-1.82-.71-2.48-.45-.48.18-.83.6-1.04,1.22l-9.52,27.83c-.74,2.23.6,5.9,2.98,8.17l17.84,16.96-.04.4c-.52,4.83-.78,9.32-.8,13.73,0,4.49.23,9.3.72,14.69l.1,1.1-18.67-3.83c-.75-.15-1.35,0-1.77.44-.71.73-.89,2.19-.49,3.89l9.33,38.7c.59,2.49,2.37,5.01,4.31,6.14.43.25.87.42,1.29.51l18,3.68.16.42c3.95,10.48,8.85,21.07,14.54,31.47l.3.54-11.37,11.3c-1.3,1.32-.76,4.8,1.2,7.58l24.55,34.73c.78,1.11,1.69,1.99,2.65,2.54.59.34,2.06,1.04,3.02.09l11.51-11.53.58.65c7.49,8.36,15.41,15.9,23.53,22.42l.31.25-.06,21.57c0,2.88,2.03,6.4,4.54,7.85l30.4,17.55c1.06.61,2.05.74,2.71.36.66-.38,1.03-1.27,1.03-2.49l.07-22.33ZM522.4,1028.48c-10.19,0-21.48-3.41-33.16-10.15h0c-40.53-23.4-73.38-80.32-73.24-126.88.06-22.62,7.81-39.52,21.83-47.59,14.13-8.13,32.85-6.29,52.72,5.17,40.5,23.39,73.35,80.26,73.21,126.78-.07,22.66-7.83,39.59-21.86,47.67-5.8,3.34-12.38,5-19.49,5ZM490.06,1016.91c19.3,11.14,37.42,12.98,51.01,5.15,13.5-7.77,20.98-24.19,21.04-46.25.13-45.99-32.34-102.22-72.39-125.35-19.34-11.16-37.48-13-51.07-5.17-13.48,7.76-20.94,24.16-21,46.16-.14,46.03,32.35,102.31,72.42,125.45Z"/>
    <path class="cls-1" d="M572.5,889.28l4.38-4.41c1.31-1.32.78-4.78-1.16-7.56l-24.58-34.75c-.79-1.13-1.7-2.01-2.65-2.55-1.05-.6-2.02-.73-2.67-.35h0s0,0,0,0h0s-.83-1.42-.83-1.42c0,0,0,0,.01,0l51.11-29.7c1.2-.7,2.74-.57,4.33.34,1.17.67,2.26,1.72,3.17,3.03l24.58,34.76c2.45,3.5,2.88,7.75.98,9.66l-.08.08-.09.05-56.5,32.83ZM548.41,838.14c.3.12.6.26.9.43,1.15.66,2.25,1.71,3.17,3.03l24.58,34.75c1.65,2.36,2.38,5.05,2.11,7.14l48.89-28.41c1.22-1.37.68-4.76-1.22-7.49l-24.58-34.75c-.78-1.12-1.69-2-2.65-2.55-1.04-.6-2.02-.73-2.68-.34l-48.52,28.2Z"/>
  </g>
</svg>