<?xml version="1.0" encoding="UTF-8"?>
<svg id="Capa_1" data-name="Capa 1" xmlns="http://www.w3.org/2000/svg" xmlns:xlink="http://www.w3.org/1999/xlink" viewBox="0 0 690.58 743.46">
  <defs>
    <style>
      .cls-1 {
        fill: url(#Degradado_sin_nombre_31-2);
      }

      .cls-2 {
        clip-path: url(#clippath-4);
      }

      .cls-3 {
        fill: url(#Degradado_sin_nombre_32-2);
      }

      .cls-4 {
        fill: url(#Degradado_sin_nombre_31-3);
      }

      .cls-5 {
        mask: url(#mask-1);
      }

      .cls-6 {
        mask: url(#mask);
      }

      .cls-7 {
        fill: none;
      }

      .cls-8 {
        mask: url(#mask-2);
      }

      .cls-9 {
        clip-path: url(#clippath-1);
      }

      .cls-10 {
        fill: url(#Degradado_sin_nombre_32);
      }

      .cls-11 {
        clip-path: url(#clippath-3);
      }

      .cls-12 {
        fill: url(#Degradado_sin_nombre_31-4);
      }

      .cls-13 {
        fill: url(#Degradado_sin_nombre_32-4);
      }

      .cls-14 {
        clip-path: url(#clippath-2);
      }

      .cls-15 {
        opacity: .47;
      }

      .cls-16 {
        clip-path: url(#clippath);
      }

      .cls-17 {
        fill: url(#Degradado_sin_nombre_31);
      }

      .cls-18 {
        fill: url(#Degradado_sin_nombre_32-3);
      }

      .cls-19 {
        fill: #e6e6e6;
      }

      .cls-20 {
        mask: url(#mask-3);
      }
    </style>
    <clipPath id="clippath">
      <rect class="cls-7" x=".45" y="10.82" width="690.13" height="732.64"/>
    </clipPath>
    <clipPath id="clippath-1">
      <path class="cls-7" d="M277.38,511.75c8.54.43,21.07,1.98,35.03,7.38,27.49,10.62,42.79,29.29,55.9,45.29,28.03,34.21,36.7,67.98,40.74,84.47,5.02,20.51,4.67,32.16,3.97,39.25-1.81,18.62-8.57,32.86-13.41,41.24,12.93-7.24,25.86-14.48,38.79-21.71,3.01-2.5,7.18-6.51,10.74-12.34,3.24-5.3,6.83-13.48,7.6-34.01.39-10.5.76-22.55-2.48-39.25-1.58-8.15-8.08-38.24-31.3-71.05-12.9-18.24-31.06-43.89-65.09-57.14-14.86-5.78-28.17-7.42-37.08-7.89-14.47,8.59-28.94,17.18-43.41,25.77"/>
    </clipPath>
    <linearGradient id="Degradado_sin_nombre_32" data-name="Degradado sin nombre 32" x1="-5729.89" y1="1928.37" x2="-5728.89" y2="1928.37" gradientTransform="translate(-627529.03 1866144.4) rotate(90) scale(325.61 -325.61)" gradientUnits="userSpaceOnUse">
      <stop offset="0" stop-color="#fff"/>
      <stop offset=".11" stop-color="#fff"/>
      <stop offset=".2" stop-color="#a7a7a7"/>
      <stop offset=".29" stop-color="#5f5f5f"/>
      <stop offset=".36" stop-color="#2b2b2b"/>
      <stop offset=".41" stop-color="#0b0b0b"/>
      <stop offset=".44" stop-color="#000"/>
      <stop offset=".54" stop-color="#020202"/>
      <stop offset=".6" stop-color="#0a0a0a"/>
      <stop offset=".65" stop-color="#191919"/>
      <stop offset=".7" stop-color="#2d2d2d"/>
      <stop offset=".74" stop-color="#474747"/>
      <stop offset=".78" stop-color="#676767"/>
      <stop offset=".81" stop-color="#8e8e8e"/>
      <stop offset=".85" stop-color="#bababa"/>
      <stop offset=".88" stop-color="#ebebeb"/>
      <stop offset=".89" stop-color="#fff"/>
      <stop offset="1" stop-color="#fff"/>
    </linearGradient>
    <mask id="mask" x="163.46" y="401.67" width="407.97" height="412.01" maskUnits="userSpaceOnUse">
      <rect class="cls-10" x="216.11" y="464.35" width="302.65" height="286.66" transform="translate(-341.34 563.83) rotate(-55.3)"/>
    </mask>
    <linearGradient id="Degradado_sin_nombre_31" data-name="Degradado sin nombre 31" x1="-5729.89" y1="1928.37" x2="-5728.89" y2="1928.37" gradientTransform="translate(-627528.95 1866144.37) rotate(90) scale(325.61 -325.61)" gradientUnits="userSpaceOnUse">
      <stop offset="0" stop-color="#fff"/>
      <stop offset=".11" stop-color="#fff"/>
      <stop offset=".44" stop-color="#fff"/>
      <stop offset=".89" stop-color="#fff"/>
      <stop offset="1" stop-color="#fff"/>
    </linearGradient>
    <clipPath id="clippath-2">
      <path class="cls-7" d="M200.73,356.33c5.98-5.34,15.1-12.36,27.45-17.96,37.53-17.01,74.54-7.13,94.73-1.44,35.3,9.96,56.76,26.8,90.84,53.56,50.37,39.54,74.11,76.3,80.46,86.49,6.52,10.49,11.34,19.67,14.62,26.34,9.47,12.13,11.46,26.96,5.16,37.14-3.22,5.2-7.94,8.11-11.45,9.71-11.21,6.38-22.43,12.75-33.64,19.13.44-2.75.92-6.74.98-11.57.29-25.1-11.45-45.71-31.5-71.59-17.67-22.81-34.37-44.36-65.29-69.3-27.76-22.4-57.57-46.44-103.38-56.91-28.67-6.55-53.26-5.43-68.97-3.59"/>
    </clipPath>
    <linearGradient id="Degradado_sin_nombre_32-2" data-name="Degradado sin nombre 32" x1="-5733.43" y1="1925.97" x2="-5732.43" y2="1925.97" gradientTransform="translate(-924200.14 2752523.75) rotate(90) scale(480.05 -480.05)" xlink:href="#Degradado_sin_nombre_32"/>
    <mask id="mask-1" x="84.69" y="171.79" width="551.63" height="547.05" maskUnits="userSpaceOnUse">
      <rect class="cls-3" x="167.63" y="243.39" width="385.75" height="403.86" transform="translate(-210.84 488.19) rotate(-55.3)"/>
    </mask>
    <linearGradient id="Degradado_sin_nombre_31-2" data-name="Degradado sin nombre 31" x1="-5733.43" y1="1925.97" x2="-5732.43" y2="1925.97" gradientTransform="translate(-924201.42 2752523.59) rotate(90) scale(480.05 -480.05)" xlink:href="#Degradado_sin_nombre_31"/>
    <clipPath id="clippath-3">
      <path class="cls-7" d="M116.82,204.25c5.06-4.47,12.7-10.52,22.88-16.12,10.27-5.65,28.34-13.73,59.11-16.12,53.31-4.14,102.26,12.1,108.15,14.11,17.55,5.98,75.45,27.24,150.46,94.71,37.27,33.52,90.79,89.26,138.34,172.8,2,3.41,5.88,11.05,6.01,21.48.11,9.39-2.87,16.5-4.63,19.99-13.8,7.35-27.59,14.7-41.39,22.05.47-2.36,1.15-6.45,1.2-11.55.18-16.81-6.57-29.51-10.39-36.5-9.51-17.39-39.03-59.01-82.93-111.11-11.84-13.61-28.54-31.51-50.12-50.82-17.91-16.02-49.54-43.96-97.25-69.76-23.32-12.61-54.29-29.06-96.79-37.42-28.49-5.61-48.34-4.86-57.98-4.16-18.53,1.35-33.8,5.06-44.67,8.41"/>
    </clipPath>
    <linearGradient id="Degradado_sin_nombre_32-3" data-name="Degradado sin nombre 32" x1="-5736.08" y1="1924.19" x2="-5735.08" y2="1924.19" gradientTransform="translate(-1428268.65 4258738.75) rotate(90) scale(742.46 -742.46)" xlink:href="#Degradado_sin_nombre_32"/>
    <mask id="mask-2" x="-46.65" y="-59.15" width="812" height="803.32" maskUnits="userSpaceOnUse">
      <rect class="cls-18" x="77.7" y="43.7" width="563.29" height="597.62" transform="translate(-126.82 442.96) rotate(-55.3)"/>
    </mask>
    <linearGradient id="Degradado_sin_nombre_31-3" data-name="Degradado sin nombre 31" x1="-5736.08" y1="1924.19" x2="-5735.08" y2="1924.19" gradientTransform="translate(-1428268.9 4258739.2) rotate(90) scale(742.46 -742.46)" xlink:href="#Degradado_sin_nombre_31"/>
    <clipPath id="clippath-4">
      <path class="cls-7" d="M37.18,50.32c11.81-7.32,23.61-14.64,35.42-21.96,20.27-7.33,51.49-16.03,90.24-16.53,30.05-.39,52.69,4.31,69.51,7.91,33.83,7.23,67.08,18.93,105.35,38.22,27.45,13.83,85.81,45.85,155.83,108.79,42.69,38.38,99.47,97.02,153.23,180.11,9.64,12.83,17.16,24.19,22.68,33.05,14.94,23.92,17.29,32.56,17.96,40.18.87,9.79-1.01,18.03-2.77,23.52-14.21,7.84-28.42,15.68-42.63,23.52,1.31-2.64,3.76-8.51,2.91-15.99-.43-3.81-1.58-6.86-2.6-8.99-1.1-4.57-3.06-11.31-6.71-18.94-3.61-7.56-6.87-11.81-14.13-22.47-3.58-5.27-8.71-12.93-14.77-22.47-28.71-44.29-73.21-104.92-138.06-167.27-19.23-18.5-40.51-38.95-72.24-62.61C349.21,113.19,235.74,28.6,97.19,39.65c-27.46,2.19-48.99,7.58-60.01,10.67"/>
    </clipPath>
    <linearGradient id="Degradado_sin_nombre_32-4" data-name="Degradado sin nombre 32" x1="-5737.33" y1="1923.36" x2="-5736.33" y2="1923.36" gradientTransform="translate(-1926345.74 5747042.16) rotate(90) scale(1001.74 -1001.74)" xlink:href="#Degradado_sin_nombre_32"/>
    <mask id="mask-3" x="-176.09" y="-293.29" width="1077.65" height="1065.15" maskUnits="userSpaceOnUse">
      <rect class="cls-13" x="-9.92" y="-158.06" width="745.3" height="794.71" transform="translate(-40.5 401.28) rotate(-55.3)"/>
    </mask>
    <linearGradient id="Degradado_sin_nombre_31-4" data-name="Degradado sin nombre 31" x1="-5737.33" y1="1923.36" x2="-5736.33" y2="1923.36" gradientTransform="translate(-1926344.52 5747042.57) rotate(90) scale(1001.74 -1001.74)" xlink:href="#Degradado_sin_nombre_31"/>
  </defs>
  <g class="cls-15">
    <g class="cls-16">
      <g class="cls-9">
        <g class="cls-6">
          <rect class="cls-17" x="216.11" y="464.35" width="302.65" height="286.66" transform="translate(-341.34 563.83) rotate(-55.3)"/>
        </g>
      </g>
      <g class="cls-14">
        <g class="cls-5">
          <rect class="cls-1" x="167.63" y="243.39" width="385.75" height="403.86" transform="translate(-210.84 488.19) rotate(-55.3)"/>
        </g>
      </g>
      <g class="cls-11">
        <g class="cls-8">
          <rect class="cls-4" x="77.7" y="43.7" width="563.29" height="597.62" transform="translate(-126.82 442.96) rotate(-55.3)"/>
        </g>
      </g>
      <g class="cls-2">
        <g class="cls-20">
          <rect class="cls-12" x="-9.92" y="-158.06" width="745.3" height="794.71" transform="translate(-40.5 401.28) rotate(-55.3)"/>
        </g>
      </g>
      <path class="cls-19" d="M680.56,393.6c-84.85-139.91-195.19-253.69-310.72-320.39C252.98,5.74,141.55-7.51,56.01,35.94L9.27,62.52l.02.03c-3.52,2.36-6.11,6.1-7.54,10.93-3.27,11.02-.26,26.61,7.89,40.72,12.17,21.09,31.7,32.53,44.44,26.03,73.12-37.25,168.68-25.84,269.08,32.12,52.09,30.07,102.94,71.27,150.09,120.96-33.1-31.55-67.94-58.16-103.4-78.63-84.19-48.6-164.86-58.81-227.24-28.67l-45.37,25.8c-4.17,2.16-7.24,6.07-8.88,11.37-3.4,11.03-.39,26.76,7.92,41.15,12.05,20.87,31.42,32.39,44.07,26.24,49.9-24.26,114.82-16.01,182.81,23.24,37.34,21.56,73.85,51.49,107.48,87.69-16.23-14.97-33.12-28.08-50.43-39.02-2.79-1.86-5.78-3.69-9.69-5.95l-.67-.39c-51.14-29.52-100.7-36.73-139.55-20.28-.98.42-1.95.97-2.84,1.6l-42.42,24.12c-4.5,1.97-7.85,5.86-9.66,11.28-3.71,11.08-.8,27.03,7.62,41.62,11.81,20.47,30.73,31.77,44.01,26.29,26.71-11.02,60.86-5.88,96.16,14.51,2.53,1.46,5.11,3.02,7.66,4.63,20.75,13.19,40.64,30.76,58.84,51.79-6.44-5.44-13.07-10.21-19.81-14.1-26.32-15.19-51.37-16.39-68.77-3.3l-32.78,19.1c-7.39,2.51-13.95,6.87-19.35,13.1-10.07,11.52-15.4,28.6-15.4,49.4,0,33.34,14.03,72.92,37.54,105.89,15.22,21.39,33.22,38.45,52.08,49.33,14.11,8.15,27.88,12.32,40.4,12.32,3.46,0,6.82-.32,10.07-.96,5.67-1.1,10.83-3.14,15.43-6.03l40.56-23.23c18.97-9.03,29.85-31.05,29.85-60.4,0-21.77-5.77-45.9-16.68-69.77-2.27-4.98-4.76-9.86-7.41-14.62,6.17,4.41,12.51,6.84,18.23,6.84,2.61,0,5.09-.54,7.36-1.59l.06.07,46.33-26.35c4.37-2.51,7.43-6.98,8.87-12.92,1.55-6.39,1.09-14-1.03-21.86,8.06,7.99,17.15,12.56,25.08,12.56,2.65,0,5.16-.54,7.46-1.61l.05.08,46.44-26.41c4.29-2.48,7.33-6.87,8.8-12.69,1.58-6.31,1.2-13.9-.86-21.75,8,7.83,16.95,12.33,24.76,12.33,2.66,0,5.17-.55,7.48-1.63l.05.08,46.37-26.37c4.25-2.46,7.27-6.78,8.74-12.5,2.92-11.39-.53-27.15-9-41.13M373.02,739.37c-14.25,2.82-30.94-.99-48.27-10.99-18.46-10.66-36.13-27.4-51.08-48.42-23.14-32.45-36.95-71.34-36.95-104.04,0-20.01,5.05-36.36,14.62-47.3,8.38-9.66,19.77-14.51,32.9-14.51,11.86,0,25.15,3.96,38.92,11.91,28.32,16.35,55.09,47.76,71.63,84.02h0c10.72,23.46,16.39,47.13,16.39,68.44,0,33.51-14.27,56.27-38.16,60.89M456.28,652.83c0,28.07-10.22,49.04-28.14,57.58l-27.82,15.93c9.05-11.31,14.05-27.75,14.05-47.87,0-21.77-5.77-45.9-16.68-69.77-16.8-36.84-44.07-68.79-72.94-85.46-16.56-9.56-32.5-13.55-46.34-12.04l24.35-14.19.16-.11c16.33-12.34,40.14-11.08,65.33,3.46,12.47,7.2,24.61,17.35,35.74,29.52,0-.14.03-.28.03-.41,5.08,6.74,9.99,13.76,14.7,21.03,2.86,4.41,6.02,8.3,9.32,11.63,4.34,7.14,8.34,14.57,11.84,22.25,10.73,23.46,16.4,47.12,16.4,68.44M421.4,548.78c-25.28-39.01-56.02-70.67-88.87-91.56-2.59-1.64-5.21-3.22-7.77-4.7-23.64-13.65-46.83-20.6-67.79-20.6-11.12,0-21.6,1.96-31.19,5.91-11.61,4.81-29.2-6.16-40.03-24.94-7.85-13.61-10.74-28.92-7.36-39.01,1.54-4.6,4.33-7.86,8.05-9.44,37.9-16.05,86.46-8.91,136.71,20.11l.67.39c2.61,1.51,6.05,3.53,9.56,5.88,46.15,29.18,89.34,73.67,124.89,128.67,8.7,13.47,12.44,28.76,9.74,39.91-1.23,5.07-3.77,8.84-7.36,10.91l.67,1.17-.67-1.17c-10.34,5.95-27.58-3.5-39.26-21.52M513.12,533.75c-1.23,5.07-3.77,8.84-7.35,10.9l-36.57,20.8c.8-1.61,1.46-3.37,1.93-5.31,2.9-11.97-1-28.21-10.16-42.39-35.8-55.39-79.32-100.21-125.83-129.61-3.56-2.37-7.06-4.43-9.71-5.96l-.67-.39c-44.56-25.72-87.91-34.5-124.02-25.45l28.43-16.17c.83-.59,1.61-1.03,2.38-1.36,37.91-16.05,86.46-8.91,136.71,20.1l.68.39c3.86,2.23,6.8,4.03,9.53,5.85l.03.02c29.81,18.85,58.35,44.15,84.42,74.5.2.11.39.24.58.37,14.71,18.78,28.66,38.77,41.61,59.79,1.54,2.5,3.2,4.82,4.93,7,3.75,9.64,4.95,19.26,3.09,26.92M507.82,498.15c-50.26-81.51-115.27-147.96-183.06-187.1-42.89-24.76-84.64-37.33-122.32-37.33-22.87,0-44.26,4.63-63.48,13.98-10.97,5.34-28.88-5.86-39.98-25.09-7.81-13.53-10.71-28.28-7.57-38.5,1.42-4.6,4.04-7.93,7.59-9.65,61.31-29.61,140.92-19.45,224.17,28.61,82.41,47.58,161.58,128.49,222.93,227.82,8.08,13.09,11.44,27.85,8.75,38.53-1.25,4.96-3.77,8.67-7.3,10.71l-.06.04c-10.6,6.13-28.39-3.74-39.66-22.03M599.93,483.79c-1.25,4.96-3.77,8.67-7.35,10.74l-36.53,20.78c.78-1.55,1.42-3.24,1.89-5.1,2.89-11.48-.61-27.18-9.13-40.98-61.62-99.77-141.18-181.07-224.05-228.91-74.86-43.22-146.93-56.04-205.78-37.21l25.11-14.28c61.31-29.6,140.92-19.44,224.16,28.61,55.76,32.19,110.03,79.66,158.31,137.75,23.01,29.35,44.73,60.76,64.79,93.87,1.78,2.93,3.7,5.65,5.72,8.15,3.63,9.55,4.75,19.07,2.86,26.58M594.08,447.41c-18.16-29.97-37.67-58.56-58.27-85.49-.53-.81-1.05-1.62-1.59-2.42-1.68-2.06-3.36-4.11-5.06-6.15-61.24-78.15-131.62-141.74-204.41-183.76-62.14-35.88-122.51-54.06-176.99-54.06-34.4,0-66.45,7.24-95.13,21.86-11.05,5.62-29.09-5.49-40.25-24.82-7.7-13.34-10.61-27.97-7.58-38.18,1.4-4.72,4.04-8.17,7.62-9.99,84.47-42.91,194.82-29.69,310.73,37.23,115.07,66.43,225.01,179.83,309.58,319.28,8.05,13.27,11.36,28.09,8.64,38.68-1.25,4.87-3.76,8.51-7.24,10.53h-.02c-10.74,6.22-28.7-3.97-40.04-22.69M686.48,433.94c-1.25,4.87-3.76,8.51-7.26,10.54l-36.57,20.8c.75-1.49,1.37-3.12,1.83-4.9,2.92-11.39-.53-27.15-9-41.12-84.85-139.91-195.19-253.69-310.72-320.39C219.48,38.07,118.63,21.32,37.18,50.32l20.34-11.57C141.99-4.17,252.35,9.06,368.25,75.97c115.07,66.44,225.01,179.83,309.58,319.28,8.05,13.27,11.36,28.09,8.64,38.68"/>
    </g>
  </g>
</svg>