<?xml version="1.0" encoding="UTF-8"?>
<svg id="Capa_1" data-name="Capa 1" xmlns="http://www.w3.org/2000/svg" viewBox="0 0 725.27 296.47">
  <defs>
    <style>
      .cls-1 {
        fill: #638593;
      }

      .cls-2 {
        fill: #233865;
      }
    </style>
  </defs>
  <path class="cls-1" d="M576.1,173.74c-.18,0-.87-.03-2.05-.09-1.11-.05-2.44-.33-3.99-.83-1.55-.44-3.18-1.15-4.92-2.13-1.73-.99-3.34-2.41-4.83-4.27-1.49-1.85-2.72-4.17-3.71-6.96-.93-2.85-1.39-6.34-1.39-10.48v-23.19h11.31v23.19c0,1.36.13,2.75.38,4.17.24,1.43.71,2.72,1.39,3.89.68,1.17,1.64,2.16,2.88,2.97,1.24.74,2.88,1.11,4.91,1.11s3.68-.37,4.92-1.11c1.24-.81,2.2-1.79,2.88-2.97.68-1.17,1.15-2.48,1.39-3.89.25-1.43.37-2.82.37-4.17v-23.19h11.32v23.19c0,4.14-.5,7.64-1.49,10.48-.93,2.78-2.13,5.1-3.61,6.96-1.49,1.85-3.1,3.28-4.83,4.27-1.73.99-3.37,1.71-4.92,2.13-1.54.5-2.9.77-4.09.83-1.11.06-1.77.09-1.94.09h0Z"/>
  <path class="cls-1" d="M635.13,125.08c.18,0,.84.03,1.97.09,1.18.05,2.55.33,4.12.84,1.56.44,3.21,1.15,4.96,2.15s3.37,2.43,4.87,4.31c1.5,1.87,2.72,4.24,3.66,7.12,1,2.81,1.5,6.3,1.5,10.48v23.7h-11.42v-23.7c0-1.37-.13-2.77-.38-4.22-.25-1.43-.72-2.75-1.41-3.94-.69-1.18-1.66-2.15-2.9-2.9-1.25-.81-2.9-1.22-4.96-1.22s-3.72.4-4.96,1.22c-1.25.74-2.22,1.71-2.91,2.9-.69,1.19-1.15,2.5-1.41,3.94s-.38,2.84-.38,4.22v23.7h-11.43v-23.7c0-4.18.47-7.68,1.41-10.48,1-2.88,2.25-5.25,3.74-7.12s3.12-3.32,4.87-4.31c1.75-1.01,3.4-1.72,4.96-2.15,1.56-.5,2.9-.78,4.02-.84s1.81-.09,2.06-.09Z"/>
  <path class="cls-1" d="M695.57,135.33c-2.33,0-4.21.47-5.65,1.42-1.38.94-2.45,2.13-3.2,3.58-.75,1.38-1.25,2.9-1.51,4.52-.24,1.63-.38,3.14-.38,4.51s.13,2.89.38,4.52c.25,1.63.75,3.17,1.51,4.61.75,1.38,1.82,2.55,3.2,3.49,1.44.94,3.32,1.41,5.65,1.41s4.17-.47,5.55-1.41c1.44-.94,2.54-2.11,3.3-3.49.75-1.44,1.26-2.98,1.51-4.61.24-1.64.37-3.14.37-4.52s-.13-2.89-.37-4.51c-.26-1.63-.75-3.14-1.51-4.52-.75-1.44-1.86-2.63-3.3-3.58-1.38-.94-3.24-1.42-5.55-1.42ZM673.25,149.36c0-3.26.31-6.12.95-8.57.63-2.45,1.44-4.55,2.45-6.31,1.07-1.82,2.26-3.32,3.58-4.52,1.37-1.19,2.76-2.16,4.14-2.92,3.26-1.76,7-2.7,11.21-2.82,4.14.12,7.85,1.07,11.11,2.82,1.38.75,2.73,1.73,4.05,2.92,1.38,1.2,2.58,2.7,3.58,4.52,1.07,1.76,1.91,3.86,2.54,6.31.69,2.45,1.03,5.3,1.03,8.57s-.34,6.12-1.03,8.57c-.63,2.45-1.47,4.55-2.54,6.31-1.01,1.76-2.2,3.24-3.58,4.43-1.32,1.13-2.67,2.07-4.05,2.83-3.26,1.69-6.96,2.57-11.11,2.63-4.21-.05-7.94-.94-11.21-2.63-1.38-.75-2.76-1.7-4.14-2.83-1.32-1.19-2.51-2.67-3.58-4.43-1.01-1.76-1.82-3.86-2.45-6.31-.63-2.45-.95-5.3-.95-8.57Z"/>
  <path class="cls-2" d="M332.75,143.7c-.31-.98-.71-1.97-1.2-2.95-.43-.98-1.05-1.87-1.85-2.68-.79-.8-1.75-1.41-2.85-1.84-1.11-.5-2.4-.73-3.88-.73s-2.76.24-3.87.73c-1.11.43-2.06,1.04-2.86,1.84-.8.8-1.44,1.69-1.93,2.68-.49.98-.86,1.97-1.11,2.95h19.55ZM344.36,143.7c.12.93.22,1.87.28,2.86.12.98.18,2.03.18,3.13v1.66h-32.26c.12,1.04.27,2.12.46,3.22.18,1.05.49,2.09.92,3.13.67,1.6,1.72,3.01,3.13,4.23,1.41,1.22,3.38,1.85,5.9,1.85s4.49-.62,5.91-1.85c1.41-1.22,2.46-2.64,3.13-4.23h11.99c-.5,2.15-1.2,4.02-2.12,5.62-.86,1.6-1.85,2.98-2.95,4.15-1.05,1.16-2.18,2.15-3.41,2.95-1.23.73-2.43,1.35-3.6,1.84-2.82,1.11-5.8,1.66-8.93,1.66-4.11-.06-7.77-.92-10.96-2.58-1.36-.73-2.7-1.66-4.05-2.76-1.28-1.16-2.46-2.61-3.5-4.33-.98-1.72-1.78-3.78-2.4-6.17-.61-2.4-.92-5.2-.92-8.39s.31-5.99.92-8.39c.62-2.39,1.42-4.45,2.4-6.17,1.05-1.78,2.21-3.25,3.5-4.43,1.35-1.17,2.7-2.12,4.05-2.86,3.19-1.72,6.85-2.64,10.96-2.76,3.38.12,6.55.82,9.49,2.12,1.22.56,2.46,1.29,3.68,2.21,1.29.86,2.46,1.97,3.5,3.32,1.11,1.29,2.06,2.85,2.86,4.7.86,1.78,1.48,3.87,1.84,6.26v.02Z"/>
  <path class="cls-2" d="M386.92,163.43c2.28,0,4.09-.46,5.43-1.38,1.42-.92,2.49-2.06,3.23-3.41.79-1.42,1.32-2.92,1.57-4.51.25-1.6.37-3.07.37-4.43s-.12-2.82-.37-4.42c-.24-1.6-.77-3.07-1.57-4.43-.74-1.42-1.81-2.58-3.23-3.5-1.35-.92-3.16-1.38-5.43-1.38s-4.11.46-5.53,1.38c-1.35.92-2.4,2.09-3.13,3.5-.74,1.35-1.23,2.83-1.47,4.43-.25,1.6-.37,3.07-.37,4.42s.12,2.83.37,4.43c.24,1.6.73,3.11,1.47,4.51.73,1.35,1.78,2.49,3.13,3.41,1.42.92,3.25,1.38,5.53,1.38ZM397.52,132.84v-22.03h10.97v38.8c0,3.19-.31,5.99-.93,8.38-.61,2.4-1.44,4.49-2.48,6.26-.99,1.72-2.12,3.16-3.41,4.33-1.29,1.11-2.62,2.03-3.96,2.76-3.19,1.66-6.79,2.52-10.79,2.58-4.11-.06-7.77-.92-10.97-2.58-1.35-.73-2.7-1.66-4.05-2.76-1.29-1.16-2.46-2.61-3.5-4.33-.99-1.72-1.78-3.78-2.4-6.17-.61-2.4-.92-5.2-.92-8.39s.27-5.99.82-8.39c.61-2.39,1.38-4.45,2.3-6.17.99-1.78,2.06-3.25,3.23-4.43,1.23-1.17,2.49-2.12,3.77-2.86,2.95-1.72,6.33-2.64,10.14-2.76,1.91.18,3.74.65,5.53,1.38,1.54.67,3.11,1.71,4.7,3.13,1.6,1.36,2.92,3.32,3.96,5.91l-2.03-2.68h.02Z"/>
  <path class="cls-2" d="M450.29,125.09c3.88,0,7.16.55,9.86,1.66,2.7,1.1,4.92,2.73,6.63,4.88,1.78,2.09,3.07,4.67,3.88,7.74.79,3.02,1.2,6.45,1.2,10.32v21.02c0,1.85-.12,3.53-.37,5.07-.18,1.6-.47,3.07-.82,4.43-.56,2.03-1.48,3.87-2.77,5.53-1.23,1.72-2.83,3.19-4.79,4.43-1.97,1.22-4.3,2.18-7,2.86-2.7.67-5.81,1.01-9.31,1.01l-12.26-.09v-10.41h9.95c4.18,0,7.38-.43,9.59-1.29,2.21-.86,3.81-1.91,4.79-3.13,1.04-1.16,1.63-2.36,1.75-3.6.18-1.22.28-2.18.28-2.86v-6.08l2.03-2.67c-1.05,2.58-2.37,4.55-3.96,5.91-1.6,1.35-3.16,2.33-4.7,2.95-1.78.68-3.62,1.08-5.53,1.2-3.81-.06-7.19-.93-10.14-2.58-1.29-.73-2.55-1.66-3.78-2.76-1.17-1.16-2.24-2.62-3.23-4.33-.93-1.72-1.69-3.78-2.3-6.18-.56-2.39-.83-5.19-.83-8.39s.31-5.99.92-8.38c.62-2.4,1.42-4.45,2.4-6.17,1.05-1.78,2.21-3.25,3.51-4.43,1.35-1.16,2.7-2.12,4.05-2.86,3.19-1.72,6.85-2.64,10.96-2.76v-.03ZM460.9,149.69c0-1.66-.13-3.28-.37-4.88-.18-1.66-.65-3.13-1.38-4.43-.68-1.35-1.73-2.42-3.13-3.22s-3.32-1.2-5.71-1.2-4.11.46-5.53,1.38c-1.36.92-2.4,2.09-3.13,3.5-.73,1.35-1.23,2.83-1.48,4.43-.24,1.6-.37,3.07-.37,4.42s.13,2.83.37,4.43c.25,1.6.74,3.11,1.48,4.51.74,1.35,1.78,2.49,3.13,3.41,1.41.92,3.25,1.38,5.53,1.38s4.09-.46,5.44-1.38c1.41-.92,2.49-2.06,3.22-3.41.79-1.42,1.32-2.92,1.57-4.51.25-1.6.37-3.07.37-4.43Z"/>
  <path class="cls-2" d="M523.5,143.7c-.31-.98-.71-1.97-1.2-2.95-.43-.98-1.04-1.87-1.84-2.68-.79-.8-1.75-1.41-2.86-1.84-1.1-.5-2.4-.73-3.87-.73s-2.77.24-3.88.73c-1.1.43-2.06,1.04-2.85,1.84-.8.8-1.44,1.69-1.93,2.68-.5.98-.87,1.97-1.11,2.95h19.54ZM535.1,143.7c.13.93.22,1.87.27,2.86.13.98.18,2.03.18,3.13v1.66h-32.26c.12,1.04.27,2.12.46,3.22.18,1.05.5,2.09.93,3.13.67,1.6,1.72,3.01,3.13,4.23,1.42,1.22,3.39,1.85,5.91,1.85s4.49-.62,5.9-1.85c1.42-1.22,2.46-2.64,3.13-4.23h11.98c-.49,2.15-1.2,4.02-2.12,5.62-.86,1.6-1.85,2.98-2.95,4.15-1.04,1.16-2.18,2.15-3.4,2.95-1.23.73-2.43,1.35-3.6,1.84-2.83,1.11-5.81,1.66-8.93,1.66-4.11-.06-7.78-.92-10.97-2.58-1.35-.73-2.7-1.66-4.06-2.76-1.28-1.16-2.46-2.61-3.5-4.33-.99-1.72-1.77-3.78-2.4-6.17-.61-2.4-.92-5.2-.92-8.39s.31-5.99.92-8.39c.61-2.39,1.41-4.45,2.4-6.17,1.04-1.78,2.21-3.25,3.5-4.43,1.36-1.17,2.7-2.12,4.06-2.86,3.19-1.72,6.85-2.64,10.97-2.76,3.38.12,6.54.82,9.49,2.12,1.22.56,2.46,1.29,3.68,2.21,1.29.86,2.46,1.97,3.5,3.32,1.11,1.29,2.06,2.85,2.86,4.7.86,1.78,1.47,3.87,1.84,6.26v.02Z"/>
  <g>
    <path class="cls-1" d="M170.33,212.16l-17.81-9.8v-19.6l17.81-9.8,17.81,9.8v19.6l-17.81,9.8Z"/>
    <path class="cls-1" d="M210.78,205.12l-14.63-8.41v-16.82l14.63-8.41,14.64,8.41v16.82l-14.64,8.41Z"/>
    <path class="cls-1" d="M195.6,228.2l-11.56-6.68v-13.35l11.56-6.67,11.56,6.67v13.35l-11.56,6.68Z"/>
    <path class="cls-1" d="M168.7,242.03l-11.05-6.38v-12.76l11.05-6.38,11.05,6.38v12.76l-11.05,6.38Z"/>
    <path class="cls-1" d="M146.44,240.54l-6.47-3.74v-7.47l6.47-3.74,6.47,3.74v7.47l-6.47,3.74Z"/>
    <path class="cls-1" d="M161.17,252.59l-5.14-2.97v-5.94l5.14-2.97,5.14,2.97v5.94l-5.14,2.97Z"/>
    <path class="cls-1" d="M155.1,265.59l-4.88-2.76v-5.52l4.88-2.76,4.88,2.76v5.52l-4.88,2.76Z"/>
    <path class="cls-1" d="M147.84,255.26l-4.52-2.92v-5.83l4.52-2.91,4.51,2.91v5.83l-4.51,2.92Z"/>
    <path class="cls-1" d="M156.57,276.84l-3.04-1.97v-3.92l3.04-1.96,3.04,1.96v3.92l-3.04,1.97Z"/>
    <path class="cls-1" d="M148.97,273.27l-2.91-1.87v-3.75l2.91-1.87,2.91,1.87v3.75l-2.91,1.87Z"/>
    <path class="cls-1" d="M151.78,284.21l-2.9-1.87v-3.75l2.9-1.88,2.91,1.88v3.75l-2.91,1.87Z"/>
    <path class="cls-1" d="M154.31,292.32l-2.27-1.46v-2.92l2.27-1.46,2.27,1.46v2.92l-2.27,1.46Z"/>
    <path class="cls-1" d="M149.42,223l-6.47-4.18v-8.36l6.47-4.19,6.47,4.19v8.36l-6.47,4.18Z"/>
    <path class="cls-1" d="M190,177.72l-16.82-8.92v-19.07l16.52-9.54,16.52,9.54.03,18.48-16.24,9.51Z"/>
  </g>
  <path class="cls-2" d="M230.13,193.97s.66.45,1.29-3.46c.17-1.09.46-2.06,1.08-3.32.64-1.27,3.28-2.59,3.62-3.68.34-1.1.52-3.23.68-3.59.17-.37.45-.57,1.21-2.49.66-1.68.58-2.68.9-3.58.32-.9.87-1.27.95-1.72.15-.91.04-2.07-.25-3.25-.18-.71.26-1.77.08-2.65-.18-.87-1-1.57-.54-2.09,1.13-1.33.85-2.11,1.73-2.94.44-.42,1.07.25,1.85-.32.79-.57,2.14-3.25,3-3.87.86-.62,1.69-1.23,2.34-1.78.66-.55,1.15-1.04,1.35-1.42,1.44-2.82,2.04-4.01,2.49-7.1.46-3.1.25-7.1-.52-8.2-1.52-2.2-3.97-1.89-5.18-2.73-1.21-.83-2.68-3.68-4.33-5.02-.82-.67-1.75-1.57-2.36-1.89-.61-.32-1,.33-2.1.24-2.18-.19-2.21.32-3.36-1.03-1.14-1.34-4.28-1.37-5.99-1.92-1.71-.55-2.36,3.13-2.43,1.81-.09-1.58.3-3.1-.14-3.84-.66-1.12-2.34-1.11-3.54-1.75-2.02-1.06-5.49-3.04-6.51-2.52-1.01.52-2.61,3.43-3.12,2.57-.82-1.38,2-3.31,1.64-4.26-.23-.6-2.24-.51-3.79.23-.93.45-1.86.11-2.09.25-.59.39-.6,2.44-2.12,2.48-1.51.05-3.55,1.84-2.56.06.53-.94.51-1.03,1.09-1.69.24-.26.2-1.02.75-1.69,1.94-2.35,4.29-3.25,4.31-4.15.03-.9-1.59-1-2.65-3.6-.66-1.63.11-4.17-1.47-5.63-.94-.88-3.82-3.45-4.8-4.11-2.62-1.76-3-2.13-6.61-2.42-3.62-.3-5.8.66-6.56-.34-.27-.36-1.17-1.25-1.46-1.48-1.08-.87-1.71.58-2.48.31-.98-.34.88-2.23-.72-3.73-1.59-1.5-1.63-2.4-3.54-3.15-.96-.38-1.57.64-2.51.3-.47-.17,0-.26-.31-.52-.32-.24,1.01-.6.94-.99-.28-1.52-5.45-2.31-6.45-3.46-.49-.58.26-.93-.53-1.44-.8-.51-2.87.33-3.32.55-.89.46-1.19,1.39-3.34,1.36-2.14,0-3.28-1.73-4.93-1.36-1.65.38-4.37-.07-5.62-1.75-.63-.84-2.07-.08-2.64-.28-.56-.2-.97-2.73-1.99-2.42-1.01.31-.14,1.73-.41,2.46-.93,1.33-1.68,3.45-3.63,4.54-1.61.9-1.64-1.88-1.22-4.08,3.86-3.46,1.34-4.73.56-4.15-1.56,1.18-2.03,3.24-4.72,3.81-2.69.57-4.87,1.7-6.04,3.28-1.16,1.58,0,1.72-1.49,2.97-.75.63-.94,1.5-1.48,1.91-.55.4-1.46.33-1.8,1.3-.35.96.6,2.31.37,2.53-.24.22-.66-.03-1.69-1-2.06-1.92-3.18-3.55-5.7-3.26-2.52.29-1.63,1.09-3.6,1.74-1.97.64-3.44,2.64-5.49.23-2.04-2.41-5.07-3.2-5-6.82.07-3.62.96-7.45.52-9.55-.45-2.11-.09-4.01-1.96-4.68-1.86-.67-3.49.17-6.47.44-2.97.28-6.1.66-6.96.11-.86-.53-1.6.1-.45-1.3,1.15-1.4,1.84-2.35,1.31-3.69-.52-1.34-2.07-2.07-.73-2.8,1.36-.73,2.06-.47,2.31-3,.24-2.53,1.61-6.32.89-7.31-.72-.99-.35-1.28-3.25-.54-2.89.73-4.56.81-5.25,1.46-.7.65-1.05.73-.97,2.55.07,1.84.09,4.93-.95,5.38-1.05.45-2.55.45-4.53.8-1.99.37-1.76,1.81-3.75,1.68-1.99-.13-3.93.42-5.51-1.88-1.58-2.3-3.73-7.41-5.14-8.85-1.41-1.45-1.05-2.22-.95-4.93.09-2.7-.24-4.16,1.03-6.32,1.28-2.16,3.68-3.04.81-3.42-2.86-.38-5.14-.84-6.54-4.59-1.41-3.74-2.72-5.45-3.92-6.69-1.19-1.24-1.08-2.65-2.75-1.33-1.66,1.33-2.8,2.63-4.34,1.28-1.54-1.35-2.76-5.92-4.05-7.1-1.29-1.16-.93-2.97-3.95-2.46-3.03.52-4.33,1.62-6.89.54-2.56-1.08-6.52-2.67-8.14-4.1-1.6-1.43-2.6-2.27-4.84-2.55-2.24-.28-2.95-.03-2.91,1.02.03,1.06,1.19,6.28,1.85,8.15.66,1.85,1.08,3.74,2.32,5.32,1.23,1.57,2.06,2.03.51,2.61-1.56.58-3.05,1.56-.07,2.96,2.99,1.4,4.74,2.89,4.72,4.31,0,1.43-1.15,1.52-.54,3.47.6,1.95-.05,2.92,2.55,4.85,2.6,1.92,2.76,3.04,2.76,3.04l2.04-1.44s-3.95-2.69-4.01-4.37c-.07-1.68-.52-5.1-1.24-7.1-.73-1.99-1.05-3.63-2.62-6.53-1.58-2.9-2.47-1.98-2.91-5.52-.44-3.55-.92-5.86-.48-6.61.44-.75,2.15-.77,2.98.96.83,1.74.11,1.85.94,4.9.81,3.05,1.15,4.79,2.69,6.19,1.55,1.4,1.63,1.94,2.47,3.72.85,1.78,2.59,1.91,2.84,3.46.25,1.56-.97,1.12.53,3.49,1.51,2.36,5.64,6.5,6.5,7.9.86,1.4,2.6,4.93,2.76,5.55.17.61.31,2.07-.17,3.45-.48,1.37-1,2.29,1.54,4.51,2.54,2.21,1.72,3.09,3.9,3.6,2.17.52,1.95-.98,4.09,1.13,2.13,2.11,2.9,2.71,5.77,4,2.86,1.28,4.66,1.98,7.03,3.01,2.36,1.04,3.93.92,5.77-.27,1.84-1.19,2.1-1.43,3.85.03,1.74,1.46,4.37,4.05,6.73,4.94,2.34.89,3.18-.39,4.67.63,1.5,1.02.95,2.16,3.52,1.89,2.56-.26,3.57-.77,4.92.97,1.36,1.74,4.47,3.68,4.73,4.93.25,1.24-1.03,3.06.41,3.81,1.45.75,3.19-.57,4.25.65,1.06,1.22.76,3.02,2.54,3.73,1.77.71,4.25.77,5.92,1.68,1.68.9,2.2,2.92,3.07,2.31.87-.61-.03-.98.11-2.22.17-1.24.09-1.85,1.26-2.4,1.16-.54,2.64-1.68,3.93-.03,1.3,1.64,1.26,3.63,2.06,5.23.81,1.61,1.25,7.17,1.14,9.03-.11,1.85.21,3.51-1.14,4.98-1.36,1.47-2.34,1.5-2.97,3.85-.65,2.35-1.27,1.71-2.9,4.34-1.63,2.64-1.18,1.97-2.14,4.58-.96,2.61-1.33,3.13-.86,4.74.46,1.6.07,3.42,1.67,1.56,1.59-1.87,1.82-.77,1.86-.33.04.45-.32,1.98-.32,1.98,0,0,1.08-.33-1.27,1.48-2.34,1.82-3.6,1.61-3.42,3.2.17,1.59.19,3.3.66,4.44.47,1.15.47,1.21,2.45,2.58,1.99,1.37,3.39,5.05,4.6,7.17,1.22,2.11,2.01,2.7,3.13,5.77,1.13,3.06,3.93,4.2,4.72,7.14.8,2.94-.79,3.34.95,5,1.74,1.65,5.77,2.12,8.89,4.21,3.11,2.08,9.39,4.06,7.38,4.86-.98.39,20.44-11.04,20.44-11.04l-.09-20.29,21.58-12.34,21.05,12.19.03,18.19,19.16,11.14.12,17.62Z"/>
  <path class="cls-2" d="M134.36,54.18c-.69-.1-1.38.02-2.07.07-.59.04-1.21.08-1.77-.15-.26-.11-.52-.25-.7-.47-.23-.29-.24-.73-.55-.94-.24-.15-.52-.17-.8-.22-.8-.16-1.6-.25-2.39-.45-2.77-.66-5.41-1.82-7.88-3.24-.7-.4-1.46-.66-2.24-.87-1.23-.32-2.51-.51-3.79-.49-.86,0-1.72.11-2.53.41-.26.1-.51.24-.74.38-.54.32-1.11.65-1.55,1.12-.19.21-.43.5-.34.8.07.23.26.4.45.53.46.33,1.05.45,1.61.49.79.07,1.58,0,2.37.04.82.04,1.61.32,2.37.62.54.21,1.08.45,1.65.58.65.14,1.33,0,1.99.11,1.58.31,3.21.52,4.73,1.08.69.25,1.36.57,1.99.94.31.18.59.41.88.63.35.25.77.37,1.15.52.43.17.86.38,1.13.77.27.38.29.86.25,1.31-.02.24-.24.46-.14.73.11.28.42.4.69.47.57.15,1.16.17,1.74.17,1.26,0,2.52-.13,3.77-.32.59-.09,1.18-.19,1.77-.31.38-.09.66-.41.83-.75.15-.3.17-.65.1-.97-.14-.53-.52-.96-.9-1.36-.38-.4-.8-.76-1.11-1.22h.03Z"/>
  <path class="cls-2" d="M128.57,62.51c-.44-.03-.87-.11-1.32-.08-.29.02-.57.1-.86.14-.42.07-.84.12-1.26.17-.22.03-.44.1-.61.24-.18.17-.25.44-.17.67.07.22.24.4.43.52.23.13.49.21.74.27.5.12,1,.19,1.5.23.52.04,1.03.05,1.55,0,.31-.03.61-.1.9-.22.21-.1.41-.24.5-.45.07-.18.05-.41-.04-.58-.08-.14-.25-.16-.39-.16-.17,0-.37.06-.5-.05-.1-.09-.17-.22-.24-.33-.07-.12-.14-.24-.22-.36Z"/>
  <path class="cls-2" d="M143.5,58.94c-.38-.22-.8-.39-1.22-.47-.31-.05-.61-.1-.92-.13-.4-.03-.82.03-1.16.26-.21.14-.37.38-.38.65,0,.32.16.6.34.86.14.19.35.32.54.46.27.18.55.38.76.63.14.17.19.41.1.6-.11.23-.33.36-.57.44-.39.12-.81.14-1.22.16-.59.02-1.17,0-1.75.12-.3.06-.61.17-.83.4-.19.2-.25.5-.25.77,0,.26.15.52.38.67.29.2.65.26,1,.29.62.04,1.25-.03,1.86-.11.79-.11,1.56-.32,2.34-.44.17-.03.36-.13.51-.06.24.11.36.37.5.57.27.38.6.73,1,.96.49.28,1.07.37,1.62.32.39-.03.77-.12,1.15-.22.31-.09.48-.38.5-.69.03-.52-.13-1.01-.14-1.52,0-.32.17-.64.5-.73.25-.07.51-.05.75-.03.73.07,1.43.21,2.15.31.56.08,1.12.17,1.69.13.24,0,.5-.04.71-.16.25-.14.31-.44.34-.69.04-.32-.09-.63-.33-.82-.31-.25-.68-.37-1.04-.49-.34-.11-.69-.19-1-.38-.5-.3-.91-.72-1.28-1.16-.15-.18-.23-.47-.46-.57-.19-.08-.41-.11-.61-.14-1.22-.25-2.46-.49-3.7-.62-.52-.06-1.07-.14-1.59-.08-.2.02-.48-.02-.59.16-.13.18.03.41.15.55.05.07.11.14.16.21h0Z"/>
  <path class="cls-2" d="M161.4,61.96c-.71.14-1.43.11-2.13.21-.33.05-.66.13-.95.28-.25.12-.48.32-.55.59-.07.28.09.56.28.76.21.21.49.37.77.47.21.09.43.15.65.18.41.06.83.04,1.24.02.22-.02.45-.03.67-.03.37-.02.74-.07,1.09-.19.23-.08.46-.19.63-.37.17-.17.24-.43.19-.66-.05-.24-.19-.45-.37-.61-.27-.25-.6-.43-.96-.54-.18-.06-.55-.32-.57-.13v.03Z"/>
</svg>