<?xml version="1.0" encoding="UTF-8"?>
<svg id="Capa_1" data-name="Capa 1" xmlns="http://www.w3.org/2000/svg" xmlns:xlink="http://www.w3.org/1999/xlink" viewBox="0 0 471.66 511.06">
  <defs>
    <style>
      .cls-1 {
        fill: #fff;
      }

      .cls-2 {
        fill: url(#Degradado_sin_nombre_25_copia);
      }

      .cls-3 {
        filter: url(#drop-shadow-97);
      }

      .cls-4 {
        stroke: #fff;
        stroke-linecap: round;
        stroke-linejoin: round;
      }

      .cls-4, .cls-5 {
        fill: none;
        stroke-width: .75px;
      }

      .cls-5 {
        stroke: #41b7ea;
        stroke-miterlimit: 10;
      }
    </style>
    <filter id="drop-shadow-97" x="166.2" y="192.61" width="49" height="61" filterUnits="userSpaceOnUse">
      <feOffset dx="0" dy="0"/>
      <feGaussianBlur result="blur" stdDeviation="2.83"/>
      <feFlood flood-color="#000" flood-opacity=".9"/>
      <feComposite in2="blur" operator="in"/>
      <feComposite in="SourceGraphic"/>
    </filter>
    <linearGradient id="Degradado_sin_nombre_25_copia" data-name="Degradado sin nombre 25 copia" x1="190.92" y1="210.2" x2="190.92" y2="226.98" gradientUnits="userSpaceOnUse">
      <stop offset=".02" stop-color="#009ee2"/>
      <stop offset=".09" stop-color="#068cd3"/>
      <stop offset=".27" stop-color="#146ab6"/>
      <stop offset=".44" stop-color="#1f509f"/>
      <stop offset=".62" stop-color="#263d8e"/>
      <stop offset=".8" stop-color="#2b3185"/>
      <stop offset="1" stop-color="#2d2e82"/>
    </linearGradient>
  </defs>
  <g>
    <path class="cls-4" d="M217.01,50.54l-1.31,7.57,1.46,1.96,6.55-.87,4.15-.36v.95l-.65,2.91,1.02.07,1.53.07,1.02,1.16,2.18.95s.07.73-.58,1.38c-.65.65-1.67,2.11-1.67,2.11l-.73,2.04.8,1.46.73.44,2.4-.29,4.66.36,1.47.7.51-3,4.27-7.18s.87-3.2,1.16-3.49c.29-.29,3.59-3.1,3.59-3.1,0,0,.97-4.66,1.26-4.66s7.37-1.07,7.37-1.07l7.47-15.42,18.04-5.04,3.2-3.3,3.2-.87s.1-2.04-.1-2.62c-.19-.58-2.52-4.75-2.52-4.75l-.78-2.52-6.69-1.94-4.27-1.16-3.01,1.55-2.13.87h-1.55l-1.36.58-.1,2.23,1.16,1.36-1.36,1.65-1.75.1-.19-1.94.1-1.16-2.62.58h-2.91v2.72l-.29,5.43-2.52,3.01-9.7,2.62-5.92,1.45-4.46,4.56s-5.43,4.07-6.01,4.66c-.58.58-5.72,3.2-5.72,3.2l-6.01,1.07-.55-.02-.08.4-1.75,2.62Z"/>
    <path class="cls-4" d="M170.4,67.81l.68,2.72,2.33,1.55s.97,1.16,1.75,1.36c.78.19,3.88,2.43,3.88,2.43l1.26,1.16,2.33-4.46,1.16-2.91,1.36-.87.68-5.82-.39-3.88-.1-2.33-3.34-4.97-.21-.07-3.2,3.2-3.86,4.37-5.56,2.37.83,2.67.39,3.49Z"/>
    <path class="cls-4" d="M178.45,80.95l4.66,3.06-.58,2.18-1.02,2.18v2.76l.44,2.04,2.47,3.06s-.15,1.16-.29,1.6c-.15.44,0,2.33,0,2.33l.73.87,2.62,1.89,4.22,3.93,1.16.15,3.64.44,4.07,2.76,2.47,2.76,5.82,1.6,3.93-1.16-.73-3.2-3.78-2.47-2.47-3.06-1.46-5.09-.15-2.18,1.02-.58h4.51l3.49-.87-3.2-6.55-5.24-4.22-1.75-4.22,1.31-2.76,5.67-5.53,5.38-1.89,2.33-3.06.29-3.2.58-2.76-1.46-1.67-1.46-1.96,1.31-7.57,1.75-2.62.08-.4-6.44-.18-7.66-2.81-3.2,1.26-2.23,3.59.78,4.95-3.66,6.69-2.11,1.53-1.24-1.82.15-2.4,2.26-1.24.51-1.02-2.98-.58-11-3.71,3.34,4.97.1,2.33.39,3.88-.68,5.82-1.36.87-1.16,2.91-2.33,4.46-1.26-1.16v3.06l-.58,2.04Z"/>
    <path class="cls-4" d="M223.56,110l-.1,1.55.29,2.43-1.26,2.62.97,1.55.19,2.81-1.26,1.55-.87.87-1.75,1.75s.29,2.04.39,2.33c.1.29,1.16,1.16,1.16,1.16l.97.97v.97l-.78,1.26.29.97,1.07.87s.58.19.78-.1c.19-.29.78-2.04.78-2.04,0,0-.29-1.65.1-1.65s1.07.29,1.07.29l.49,2.81-.58,2.23s-.58,1.75-.87,2.13c-.29.39-.63,1.79-.63,1.79l.8,1.89,1.02,1.09,1.38,1.16.51,1.38-.07,1.82-1.38.8-.22,2.18-1.24,1.53-1.38,1.75-1.38.36-1.75-.51-2.04-1.67-1.02.22.22.73,1.82,2.26,2.26,1.6,2.55,1.31,2.18.29,1.38-.36.87-1.09,1.02-1.67h4.44l1.67.8.8,1.16s.29,1.6.58,1.96c.29.36,1.53,1.16,1.53,1.16l.58,2.26s1.38.15,1.38.65.22,2.11.22,2.11l-.44,1.67,1.09,1.38-.8,2.4-.73,1.16,2.33,1.67,1.45.22h.51c.22,0,2.62-.07,2.62-.07l2.76.07-.51,1.75s-.22.36-.22.58,1.09.73,1.09.73l1.53-.44.95.8s1.45.51,1.82.36c.36-.15,1.82.07,2.04-.51.22-.58.29-1.02.29-1.38s.51-1.89.51-1.89l1.24.65,1.82.36-.15-2.18.36-.87,2.88.39c-1.23-1.93-3.09-4.9-3.09-5.04,0-.22-.58-3.27-.58-3.27l-2.47-1.31h-4.95l-.44-5.17-.87-6.55,1.38-3.78,1.82-1.53s.22.29.44-.07-2.26-9.09-2.26-9.09l.29-2.47-6.33-5.89-4.29-15.93-2.98.51-1.31-1.24-.15-2.91-1.16-1.38-3.49.8-1.24,2.55-3.86.22-1.38-1.38-.07,1.19-2.62.58Z"/>
    <path class="cls-4" d="M265.56,176.65l-2.13,5.53-2.33,3.2s.19,1.75-.1,2.33c-.29.58-.97,1.55-.97,1.55h-3.01l-.87.39s.19,1.07.1,1.65c-.1.58-2.23,1.75-2.23,1.75,0,0-1.75-.1-1.75,1.07s.68,2.13.68,2.13l2.91,2.91,3.1,1.84,2.91.1,2.52-1.26,3.69-1.84s3.1.78,5.24-.87c2.13-1.65,1.16-2.04,2.13-1.65.97.39,3.78,1.36,3.78,1.36,0,0,2.72.19,3.59-.1.87-.29,3.49-2.04,3.49-2.04l2.62-.97,4.56,1.84,4.07.49,4.07.49,5.72-.19s.97,0,1.75-.58c.78-.58,2.62-1.75,2.62-1.75l5.04-.87,3.3-.1,2.33,2.04s1.46.97,1.94,1.55c.48.58,1.46,1.65,1.46,1.65,0,0,1.84,1.55,2.33,1.94.48.39,2.62,1.26,2.62,1.26l4.17.19,3.3-.68,2.91-1.75,1.02-1.19-.22-.41h-.65l-20.37-23.94-6.33,1.24-4.15-2.04-4.07-2.18-3.27-1.09-5.97,1.09-3.27,2.26-1.89.87-2.47-1.75-6.55.22-5.31.58-1.89-1.53-3.42.44-2.11.51-3.76.32v.79l-.87,3.2Z"/>
    <path class="cls-4" d="M328.32,203.42s-.29,1.84-.78,2.62c-.48.78-4.27,3.1-4.27,3.1l-1.07,2.33-2.81,1.75-3.1.97-1.75.29-3.88.58-2.52,1.94-2.43,2.43-1.55,1.55-.29,2.72s-3.49,2.04-3.78,2.13c-.29.1-3.49,1.36-3.49,1.36l-.68,2.23-3.4,5.14v60.53l3.3,1.36s1.94-.1,2.23-.1,3.2.78,3.2.78l3.1.49,2.52-1.16,3.4.39,2.52-1.16s1.65-1.75,2.43-2.04,2.13-1.16,2.13-1.16l-.19-3.1-.68-2.33,3.3-1.55,2.43-3.01-.49-1.75.29-1.84,3.98-.39,1.26.19,2.13-1.46.58-1.07,2.13-1.94s.58.39,1.16.39,3.59-.1,3.59-.1c0,0,.1,1.07.39-.97l.29-2.04s-.68-.48.39-.78c1.07-.29,2.91-.78,2.91-.78l3.1.48,2.33-.68,3.1,1.84,2.81.87s.58-.29,1.94-.87c1.36-.58,3.01-1.16,3.01-1.16l2.04-1.07s1.46-.68,3.3-.19c1.84.49,3.49,0,3.49,0l1.84-.87s.68-1.55,1.36-1.84c.68-.29,3.01-1.26,3.01-1.26l1.46-1.46s.97-.58,1.46-1.07c.49-.48,4.66-1.26,4.95-1.26s2.72.39,3.49.68c.78.29,1.75.48,1.75.48,0,0,1.26.49,2.13.97.87.49.19,1.07,1.36.58,1.16-.48,1.46-.48,1.94-1.36.48-.87.29-.87,1.16-1.46.19-.13.49-.32.83-.53l-.71-3.27-2.55-2.04.51-4.29-1.67-4.87s-1.46-1.82-1.46-2.11,1.24-4.37,1.24-4.37l-.36-5.31s.51-3.56.8-4c.29-.44.36-2.76.36-2.76l-1.09-4.22,1.31-2.11,5.53-4.87-.07-5.17.87-5.31,3.35-2.26.8-4.15-1.16-1.89.29-2.98s-5.24-2.26-5.89-2.4c-.65-.15-7.06-.22-7.06-.22l-3.27,3.2-3.71-1.09-2.4.95-2.62,1.09-4.22-.73-5.75,2.26-1.38.36-2.91-1.96s-4.37-.8-5.02-.8-2.98.8-2.98.8l-3.06-.22-4.37,3.42-1.24-.22-.65-1.19-1.02,1.19-2.91,1.75-3.3.68-4.17-.19s-.43-.18-.95-.41l-.41.5-1.07,1.84Z"/>
    <path class="cls-4" d="M417.59,339.45c-.07-.51-2.62-7.35-2.62-7.35l-5.53-10.77.51-2.76-1.31-1.67-1.31-3.35.36-3.13-7.06-7.35-4-2.4-1.38-3.93-3.71-.95-2.84-.22.87-1.53,13.97-13.39.44-2.18-1.67-1.96s-1.09-2.55-1.53-3.56c-.44-1.02-2.4-5.38-2.4-5.38l-3.2.36-.95-1.89-1.09-3.13-.46-2.11c-.34.21-.64.41-.83.53-.87.58-.68.58-1.16,1.46-.48.87-.78.87-1.94,1.36-1.16.49-.48-.1-1.36-.58-.87-.48-2.13-.97-2.13-.97,0,0-.97-.19-1.75-.48-.78-.29-3.2-.68-3.49-.68s-4.46.78-4.95,1.26c-.48.49-1.46,1.07-1.46,1.07l-1.46,1.46s-2.33.97-3.01,1.26c-.68.29-1.36,1.84-1.36,1.84l-1.84.87s-1.65.49-3.49,0c-1.84-.48-3.3.19-3.3.19l-2.04,1.07s-1.65.58-3.01,1.16c-1.36.58-1.94.87-1.94.87l-2.81-.87-3.1-1.84-2.33.68-3.1-.48s-1.84.48-2.91.78c-1.07.29-.39.78-.39.78l-.29,2.04c-.29,2.04-.39.97-.39.97,0,0-3.01.1-3.59.1s-1.16-.39-1.16-.39l-2.13,1.94-.58,1.07-2.13,1.46-1.26-.19-3.98.39-.29,1.84.49,1.75-2.43,3.01-3.3,1.55.68,2.33.19,3.1s-1.36.87-2.13,1.16-2.43,2.04-2.43,2.04l-2.52,1.16h-.07s-.73,1.36-.73,1.36l-10.11,5.17.95,1.24,2.26-.29,1.46,2.84,3.42,3.2.22,2.26,4.44,1.31,3.35-.15,3.42-1.02,1.45-.73,3.35-.15,1.6,1.6-.22,1.46-2.47,1.09-.51,2.69-.29,2.47-2.47,1.09s-.15.95-.07,1.16c.07.22,1.09,1.16,1.09,1.16,0,0,1.6.95,2.4,1.96.8,1.02,2.98,1.96,2.98,1.96l1.67-.22,1.31-.15,1.96,1.64,3.49-.62,3.93-2.62,6.4,2.47h34.49l-1.67-2.04-1.45-1.89,3.35-4.37,3.35,2.69.07,3.49,5.02,2.69.95-2.33-.95-2.26,2.84-2.11h2.11l7.64-6.62,2.84.8.15,2.98.58,3.93,3.35,4.73,1.67,2.04.87,3.35s1.24,2.91,1.24,3.42-.22,4.15-.22,4.44.07,2.55.07,2.55c0,0,1.67,1.31,1.96,1.31s2.84-.36,3.13-.44c.29-.07,1.67-2.62,1.67-2.62,0,0,.15-2.84.07-3.35Z"/>
    <path class="cls-4" d="M339.38,414.21l-2.04-.97-1.65,1.75h-.58l-1.07-2.33s-.97-1.46-1.55-2.04c-.58-.58-1.26-.19-1.75-.19s-.78,1.16-.78,1.16l-1.07.58-1.36-1.36v-1.75l-.87-2.13h-1.45l-1.07.29-1.46.19v2.43c0,.58-.87,1.75-.87,1.75l-1.26-.1s-2.13-1.26-2.62-1.55c-.49-.29-1.46-1.16-1.46-2.13s.87,0,.87,0l.39-3.1-1.26-2.52,1.16-2.04s-.1-.78-.19-2.23c-.1-1.46-.29-.29-.39-1.26-.1-.97.29-.68.29-.68l2.23-1.26s.87-1.16.87-1.46-1.94-.58-1.94-.58l-2.81,1.16-2.04.29-1.94-.87-.19-1.07c-.19-1.07-1.26-.19-1.26-.19l-1.75-1.26-1.16-1.46s-2.91-.78-3.88-.97c-.97-.19-.78.78-.78.78l-1.16,1.16h-1.07l-1.26-.78-.29-2.33-1.26-1.75.1-1.16-.1-1.55-.78-1.55-2.62-1.65-.48-.58-2.04-1.16-1.16-.19-1.16.87-3.78-2.23-.87,1.36-3.2.68-2.81,1.46-4.75,3.59-.87,2.13-1.07,2.43-3.2-.97-4.46.48-.58,2.52-.58.58-2.62,1.94-1.46,3.3-1.07,2.04h-2.23l-1.84-2.72-4.95,4.95-3.1-2.91-2.43-1.36-2.62,1.45-2.23.49-.78-1.07-1.45-1.84-1.75.1-.39,2.13-.78,1.16s-2.62.1-3.1-.19c-.49-.29-1.16-1.36-1.16-1.36l-3.3-1.36s-1.55-.68-2.43-.48-2.23.68-2.72.78c-.48.1-1.55-.78-1.55-.78l-.1-.87-1.07-.97s-1.75-1.36-2.23-1.94c-.49-.58-1.36-.29-1.36-.29l-1.94,1.65-1.55-.29-16.09,4.63,1.83,3.03.68,3.88,1.16,4.27.49,1.75,7.95,4.07,5.63,2.43,2.91,3.49,1.65-.19,3.88,3.3.58,4.56-1.55,3.49,4.27,2.04,4.37,1.65,1.65-.87,2.13,3.1.29,6.69s-.87.19-1.26,1.07c-.39.87-.87,1.94-.87,1.94l2.43,3.88,5.34,1.55s5.43.48,5.72.48,7.28-.1,7.28-.1l7.28.97,6.01-1.65,7.28-4.56,2.72-3.01,5.82,3.3,1.94,1.94,6.89,1.46s.1-.1.49-.29c.39-.19,2.91-2.13,2.91-2.13l3.59-2.04,6.01,2.23s4.27,3.2,4.66,3.4c.39.19,10.28,3.1,10.28,3.1l4.75,2.23,1.26,2.62-17.95,29.88,3.78,2.43,2.91.78,2.04-1.26h3.4l3.01,2.23,6.79,7.95,14.16-78.67,1.21-9.02v-1.11l-1.89,1.6-1.46-.29Z"/>
    <path class="cls-4" d="M330.65,362.07l3.93-2.18,4.8-2.04,2.33,2.91,5.38.87,2.04-.87-.15-2.62-1.75-6.98-.87-3.35-3.49-.58-2.91,1.31-3.49-.44-4.07-1.75h-2.33v-16.44l.58-.1-1.96-1.64-1.31.15-1.67.22s-2.18-.95-2.98-1.96c-.8-1.02-2.4-1.96-2.4-1.96,0,0-1.02-.95-1.09-1.16-.07-.22.07-1.16.07-1.16l2.47-1.09.24-2.06-1.46-.85-2.62,1.07-3.1,1.65-3.78,1.26-4.66,1.75s-.87,0-1.26-.1c-.39-.1-3.98-.78-3.98-.78,0,0-3.4-.19-3.98.29-.58.48-2.91,3.78-2.91,3.78l-4.37,1.65-2.81-.68-2.33-1.07-.48,2.33-1.46,2.91-1.36,2.91s-1.07,2.04-1.07,3.2.1,3.3.1,3.3c0,0,.19,2.91.19,3.2s-.1,1.26-.1,1.26l-3.1,1.07-1.84,1.26-1.36,1.84-.78.19-.39.1-.87.87-.19,1.84-7.28,6.5,2.33,3.01,2.81,2.33.1,2.91s2.43,2.13,2.52,2.52c.1.39,3.4,1.94,3.69,2.13.29.19,3.69,1.84,4.27,1.84s4.95.19,4.95.19l.55,1.57,3.42,2.02,1.16-.87,1.16.19,2.04,1.16.48.58,2.62,1.65.78,1.55.1,1.55-.1,1.16,1.26,1.75.29,2.33,1.26.78h1.07l1.16-1.16s-.19-.97.78-.78c.97.19,3.88.97,3.88.97l1.16,1.46,1.75,1.26s1.07-.87,1.26.19l.19,1.07,1.94.87,2.04-.29,2.81-1.16s1.94.29,1.94.58-.87,1.46-.87,1.46l-2.23,1.26s-.39-.29-.29.68c.1.97.29-.19.39,1.26.1,1.46.19,2.23.19,2.23l-1.16,2.04,1.26,2.52-.39,3.1s-.87-.97-.87,0,.97,1.84,1.46,2.13c.48.29,2.62,1.55,2.62,1.55l1.26.1s.87-1.16.87-1.75v-2.43l1.46-.19,1.07-.29h1.45l.87,2.13v1.75l1.36,1.36,1.07-.58s.29-1.16.78-1.16,1.16-.39,1.75.19c.58.58,1.55,2.04,1.55,2.04l1.07,2.33h.58l1.65-1.75,2.04.97,1.46.29,1.89-1.6v-.92l-2.18-4.51-2.62-4.66-1.16-3.35.73-3.2-2.76-3.2-5.97-3.64-3.49-3.06-1.75-3.06v-20.52l7.13-.73Z"/>
    <path class="cls-4" d="M113.84,362.99l-1.94-2.13s-.29-1.16,0-1.45,1.55-2.62,1.55-2.62l3.1-2.91s.29-1.26.58-2.33c.29-1.07-.1-1.36-.1-1.36l-1.46-3.69,1.84-2.23,4.17-1.94,1.46-1.16-.78-1.84-.49-1.84.58-3.1.97-.97-.29-1.65-2.43-1.65-1.07-1.26-3.59.19s-1.84,1.46-2.13,1.55-2.33-.1-2.33-.1l-2.43-.39-.68-1.55.78-1.26,1.26-2.13,1.45-1.65.58-1.94-.19-1.07-1.36-.58-1.16-1.94.39-.87v-1.16l-2.81-1.75-3.69.87-3.4.1-3.1-1.75-1.75-1.94-2.04-4.07-.68-3.1-3.01-1.55-.41-1.9-.95.15-5.72-.78-2.04.87-5.24,2.23-1.16,1.26-3.2,5.72-1.55,4.75.58,1.84.87,2.81,1.46.58-.68,1.65-.1,1.07.97,1.75-.39,1.36-1.26.87s-1.75-.1-2.23-.1h-1.26l-2.04-1.07-1.65-.39s-2.52,1.65-2.81,1.84c-.29.19-2.72,4.27-2.72,4.27l.78,1.55s1.46,1.94,1.75,2.04,2.62,1.84,2.62,1.84l2.04,3.3,9.41,5.34,5.04,5.14,5.92,4.07,6.5,2.04,3.49-1.07h2.81v.49s-.48,2.13-.48,2.43,2.72,1.65,2.72,1.65l2.04,1.94,1.07,4.37,1.16,3.69h7.08l2.62-1.46.51.51-.22-4.29-1.16-2.13Z"/>
    <path class="cls-4" d="M197.66,385.64l-3.06.87-5.09-.87-2.47-2.47.29-3.06-.15-2.76-5.24-2.76-1.02-.44-3.49-1.46-.87-2.76-1.02-1.89-.73-1.46-1.89.15h-1.46l-.73-2.91v-2.47l-.58-1.89-2.62-.29-4.37-3.35-4.22-.73-2.33.15-3.64.29-1.6-1.31-2.04-3.49-2.62-1.02-2.04,1.16-4.51.15-5.38-.29h-.87s-3.06-2.33-3.06-2.91.73-2.91.73-2.91c0,0,.44-2.62.15-3.2-.29-.58-1.31-3.35-1.31-3.35l-1.6-.73-1.89,1.6-3.88,1.94-1.46,1.16-4.17,1.94-1.84,2.23,1.46,3.69s.39.29.1,1.36c-.29,1.07-.58,2.33-.58,2.33l-3.1,2.91s-1.26,2.33-1.55,2.62,0,1.45,0,1.45l1.94,2.13,1.16,2.13.22,4.29,1.72,1.72,7.47,1.84,7.28.1,5.04.58.87-3.3,1.55-2.23,3.2.1,3.78,1.36,2.04,1.75,1.65,2.62,2.91,3.01,4.17,2.23,5.34.1,6.01,4.75h1.55l1.07-2.23,3.49-.1,3.2,3.2,1.75,1.46,2.43-.97,3.4.29,1.65,3.2,3.59,3.88,3.1,1.55,1.07,1.65.4.66,15.92-4.59-9.58-5.82-3.64-.58Z"/>
    <path class="cls-4" d="M159.34,104.67l2.43,1.16,3.01,1.55.97,2.04,1.36,2.62,3.78.87s.48,2.13.48,2.43-.97,2.04-.97,2.04l-.87.19h-3.78c-.29,0-1.26.29-1.26.29l.97,2.04,1.26,1.65.68,1.75v1.36s.87,2.91.87,3.49.39,1.36.39,1.36l.97.1,2.43.68s-.19.58-.29.87c-.1.29.48,1.07.48,1.07l1.75-.68,2.13-1.84,2.23-.29,2.04.87,2.43,1.75s.58,1.94.68,3.1c.1,1.16.78.97.78.97l3.2-1.65,1.65-1.65s.39-.87.68-1.07c.29-.19.48-1.16.48-1.16,0,0,.1-1.65.1-1.94v-1.36l-1.07-3.2-.39-1.36.87-.87.29-1.36-.19-2.52-1.46-2.23-3.1-1.65-2.33-1.16-1.55-2.33-.39-1.65-1.16-1.46.1-4.95-.39-.78-.87-1.65-1.26-1.65-3.4-.97-2.23-2.13-2.04-.48h-3.01l.68-1.26-.1-2.33-.39-3.2-.48-.68-2.13-.48-.97-1.16-.78-3.88-.58-1.07-1.14.22-.44,1.68-1.53,6.91-.65,1.6,1.46,2.47s.8,1.24.95,1.82c.15.58-.07,3.2-.07,3.2l-1.38,2.62-1.94.34.77,1.84,1.26,1.16Z"/>
    <path class="cls-4" d="M141.78,125.48l1.16,3.64-1.75,1.89-2.18,2.62-1.89,5.09-.15,3.2-1.6,2.47-.73,5.38-1.46,2.91s.29,2.76,1.31,4.8c1.02,2.04,2.76,3.78,2.76,3.78,0,0,5.38,1.6,6.26,1.6s5.53.15,6.4-.15c.87-.29,5.97-1.89,5.97-1.89,0,0,1.16-1.89,2.76-2.18,1.6-.29,4.37-3.06,4.37-3.06l.29-3.64,1.46-4.37,4.37-3.49,2.33-2.76,2.62.29,4.8.58,3.06-2.33,1.02-1.31.75-2.72c-.1-.15-.19-.37-.22-.73-.1-1.16-.68-3.1-.68-3.1l-2.43-1.75-2.04-.87-2.23.29-2.13,1.84-1.75.68s-.58-.78-.48-1.07c.1-.29.29-.87.29-.87l-2.43-.68-.97-.1s-.39-.78-.39-1.36-.87-3.49-.87-3.49v-1.36l-.68-1.75-1.26-1.65-.97-2.04s.97-.29,1.26-.29h3.78l.87-.19s.97-1.75.97-2.04-.48-2.43-.48-2.43l-3.78-.87-1.36-2.62-.97-2.04-3.01-1.55-2.43-1.16-1.26-1.16-.77-1.84-1.77.31-3.93-1.24-3.78,3.13-3.2,2.4-.36,2.91-2.69,4.95-4.15,3.64-1.27.41,2.29,6.57,3.35.73Z"/>
    <path class="cls-4" d="M106.47,256.39s3.3.1,3.4-.48c.1-.58.29-.97.29-.97l3.98.58.97,1.36,2.81,1.55,1.07-.68,2.81,1.55,2.23,2.04,1.55.58,3.01-.58,3.1-2.43,2.72-.97.49-1.94-1.07-.68-1.65-1.45v-2.43l-1.84-2.04,2.91-.78,4.07-9.8,2.81-.97,2.13-1.16,1.16-3.01,2.13-.58-.58-3.69-1.36-2.52-1.75-2.52-.58-3.2,1.07-1.55,2.23-1.07.68-1.55s.29-2.33.29-2.81-.29-1.84-.29-1.84l-1.36-2.04.48-1.84.1-4.56-.48-.87-2.33-1.16-.68-1.65.1-1.65-.49-1.07-.58-.39-3.3.49-3.59.29-1.65.78h-3.49l-1.26-.87-.78-5.63-1.07-2.43-1.75-1.55-.48-2.72-2.04-3.2-1.07-1.55-.68-1.26.87-.87,3.88-1.07,1.16-.78v-1.26l-1.07-1.45v-.49l3.1-.39,2.33-.1,1.55.97s1.16.19,1.55,0c.39-.19,0-1.07,0-1.07l1.26-1.75-1.07-3.88-.39-2.13-1.84-1.36-1.94.49-1.94-2.33-1.16-2.62-3.78-3.88-3.4-1.36-2.23-3.3-1.26-1.07,1.26-1.07,1.55-1.07.1-2.13,2.33-3.2v-1.36l.58-3.49-2.72-2.16-1.6-.65s-1.75-2.69-1.82-2.91c-.07-.22-2.98-2.62-2.98-2.62l-1.46-3.13-1.6-1.96-2.47,4.8,1.16,2.43,2.43,3.78s.1,3.3.48,3.59c.39.29,2.52,2.43,2.52,2.43l1.07,3.2-2.81,1.16-2.43,1.26.48,2.43-1.26,2.62-3.78,2.72-1.07,3.2-1.55.29s-1.36-.58-1.16-2.91c.19-2.33-.87-4.56-.87-4.56l-2.72-.58-.58,1.45.49,2.23s.68,1.65.87,2.13c.19.48.29,1.65.29,1.65l-.68.97-2.13.97-.87,1.16-1.07,5.34,5.24,4.46,1.16,4.37-1.16,2.23,2.23,1.26,1.16,3.2.97,2.33s3.1-.48,3.4-.48,2.72,1.26,2.72,1.55-.78,5.04-.78,5.04c0,0-.29,2.13-.49,3.69-.19,1.55-3.98,1.94-3.98,1.94l.48,3.1,1.84,2.62,3.49,2.23,1.55,2.72.58,3.2-.78,2.91-3.1,1.65-3.49-.19-1.46,1.55.58,2.43,2.13.78,1.16,1.65.48,5.34v5.63s.68,5.34.78,5.63c.1.29,1.55,3.4,1.55,3.4l-.29,8.83-1.94,2.23-3.3,1.94-.48,3.3,1.12,3.09c1.04-1.19,2.13-2.46,2.18-2.61.1-.29.39-.39.39-.39Z"/>
    <path class="cls-4" d="M106.57,283.84l1.07,2.04,2.62.68h1.07l1.46,1.45,3.2.97,2.33-.1,2.43.39,1.94.87,1.84-.29,1.55-1.55,3.78-.1s.87,0,1.26-.29c.39-.29,1.26-.97,1.26-.97l1.55-3.59-.19-2.04,2.33-.1,1.46.87,2.62,1.26,3.2,1.26h.97l1.55-.48s-.1-1.55-.1-2.04-.39-1.94-.39-2.43.78-2.72.78-2.72l.87-1.65s.58-2.33.87-2.62c.29-.29,3.1-3.1,3.1-3.1l.68-3.59,2.62-4.37-.48-1.55s-.97-1.46-.97-1.75.97-3.49.97-3.49l.29-3.78-.78-1.6-1.75-.53s.15-1.65.24-1.79c.1-.15.44-1.21.44-1.21l-.29-1.89.49-1.31,3.1.44.34-.34,1.02-2.04-2.18-.44-1.75.1-.68-1.21-1.94.34-.78-.82.82-1.16-.1-1.21-1.94-.34s-1.07-1.26-1.16-1.5c-.04-.11-.83-.87-1.69-1.7l.05.29-2.13.58-1.16,3.01-2.13,1.16-2.81.97-4.07,9.8-2.91.78,1.84,2.04v2.43l1.65,1.45,1.07.68-.49,1.94-2.72.97-3.1,2.43-3.01.58-1.55-.58-2.23-2.04-2.81-1.55-1.07.68-2.81-1.55-.97-1.36-3.98-.58s-.19.39-.29.97c-.1.58-3.4.48-3.4.48,0,0-.29.1-.39.39-.05.15-1.14,1.42-2.18,2.61l.53,1.47,1.07,1.07,2.04-.58,1.55-1.07.97-1.26,3.01.97-.68,1.94-1.65,2.33,2.04,1.16,3.01-.78-.19,2.33-1.94,3.98s-1.16,2.91-1.55,3.3c-.39.39-4.17,3.4-4.46,3.88-.19.31-.88,1.67-1.36,2.63l.1.09.19,3.01Z"/>
    <path class="cls-4" d="M143.53,346.6c-.19-.39-1.75-1.55-1.75-1.55l-2.33-2.23.48-4.56,1.84-2.43.39-1.46-1.55-.58h-3.3c-.29,0-3.1-1.07-3.1-1.07l.29-2.43.68-1.84-.87-2.72-2.52-.87-1.65-.78s.19-3.01.1-3.3c-.1-.29-.39-2.23-.39-2.52s1.36-1.26,1.36-1.26l2.04.1,3.2.87,1.75-2.04s-.68-1.84-.97-2.33c-.29-.49,0-.87,0-.87l1.26-2.23,1.46-2.04,2.52,1.36,2.62-1.94,2.23-2.04h1.55l2.13,2.33.97.39,1.46-.29-.19-1.75s-.87-2.81-.87-3.1.78-.87.78-.87l1.26-1.84.39-1.46-2.43-1.65-.39-1.65s-3.69-2.81-3.98-2.91c-.29-.1-2.04-2.33-2.04-2.33l-1.07-2.72.39-1.45-.41-2.11-.56.17h-.97l-3.2-1.26-2.62-1.26-1.46-.87-2.33.1.19,2.04-1.55,3.59s-.87.68-1.26.97c-.39.29-1.26.29-1.26.29l-3.78.1-1.55,1.55-1.84.29-1.94-.87-2.43-.39-2.33.1-3.2-.97-1.46-1.45h-1.07l-2.62-.68-1.07-2.04-.19-3.01-.1-.09c-.28.55-.48.96-.48.96l-3.01,2.81-4.17,6.69-.78,5.04-3.98,3.88-4.58.72.41,1.9,3.01,1.55.68,3.1,2.04,4.07,1.75,1.94,3.1,1.75,3.4-.1,3.69-.87,2.81,1.75v1.16l-.39.87,1.16,1.94,1.36.58.19,1.07-.58,1.94-1.45,1.65-1.26,2.13-.78,1.26.68,1.55,2.43.39s2.04.19,2.33.1,2.13-1.55,2.13-1.55l3.59-.19,1.07,1.26,2.43,1.65.29,1.65-.97.97-.58,3.1.49,1.84.78,1.84,3.88-1.94,1.89-1.6,1.6.73s1.02,2.76,1.31,3.35c.29.58-.15,3.2-.15,3.2,0,0-.73,2.33-.73,2.91s3.06,2.91,3.06,2.91h.87l5.38.29,4.51-.15.67-.39-.29-1.36s-1.36-2.13-1.55-2.52Z"/>
    <path class="cls-4" d="M146.15,334.72l2.62-.44,2.33-3.2,2.76-4.07,4.07-3.2s3.35-2.62,3.35-3.06.87-3.93,1.16-4.51c.29-.58,4.22-4.22,4.22-4.22l2.09-2.86.87-2.72,2.91-1.07,2.62-1.55,1.16-3.49s-.19-3.01-.19-3.3,1.94-2.13,1.94-2.13l1.46-1.36.97-3.01s3.01-2.91,3.4-3.1c.39-.19,1.26-.87,2.13-1.36.87-.48,1.84-2.33,1.84-2.33,0,0,.97-3.78,1.26-4.46.29-.68,1.65-4.37,1.65-4.37l1.16-2.04.68-4.37-1.16-.97-1.16.58-.97,1.84-2.13,2.62-2.11.51-.22,1.16.36.73-1.02,1.38-.15,1.02s.07.22.07.51-.22.95-.22.95l-1.96,1.96-3.13,2.69-3.13-.36s-.44-.51-.44-.87.65-1.53.65-1.53l1.09-1.16s-1.09-.95-1.38-.95-1.53.15-1.53.15c0,0-2.26-1.02-2.76-.07-.51.95-.8,1.46-.8,1.46l-1.46.87-.87-.58-1.09-1.24-2.04.44-1.09-.36-.95,1.02-1.24,2.47-1.16.8-.15,1.75-4.07,4-2.76,1.6-3.35,1.31-2.84-.87-1.66-1.04.16.41s1.75,2.23,2.04,2.33c.29.1,3.98,2.91,3.98,2.91l.39,1.65,2.43,1.65-.39,1.46-1.26,1.84s-.78.58-.78.87.87,3.1.87,3.1l.19,1.75-1.46.29-.97-.39-2.13-2.33h-1.55l-2.23,2.04-2.62,1.94-2.52-1.36-1.46,2.04-1.26,2.23s-.29.39,0,.87c.29.48.97,2.33.97,2.33l-1.75,2.04-3.2-.87-2.04-.1s-1.36.97-1.36,1.26.29,2.23.39,2.52c.1.29-.1,3.3-.1,3.3l1.65.78,2.52.87.87,2.72-.68,1.84-.29,2.43s2.81,1.07,3.1,1.07h3.3l1.55.58-.39,1.46,1.75-1.12h2.62Z"/>
    <path class="cls-4" d="M257.9,357.56c-.19-.29-1.94-3.01-1.94-3.01,0,0-.58-2.23-.78-2.52-.19-.29-2.62-2.23-2.62-2.23l-1.94-3.01-3.49-1.26-2.62-.1-1.26-2.04-3.59,1.45.19,3.69s-1.16,1.94-2.33,2.52c-1.16.58-3.4,1.36-3.78,1.46-.39.1-2.43-1.26-2.43-1.26l-3.69-3.59-3.49-2.81-.97-3.1-1.75-1.55-1.07-2.62-2.52-1.55-.97-4.75-.87-.29-5.72,2.33-3.4-.39-1.46-1.46-2.13-1.46s-1.65-1.55-1.94-1.94c-.29-.39-1.46-.78-1.46-.78l-2.33-.19-6.11-2.72-2.52-9.8-1.36-2.23-.19-2.91.1-1.75-.58-1.84.58-3.01,1.55-1.26.48-2.23v-2.52l-2.62-1.65-1.75-1.75-2.72-.78-2.34-.89-.57,1.76-1.46,1.36s-1.94,1.84-1.94,2.13.19,3.3.19,3.3l-1.16,3.49-2.62,1.55-2.91,1.07-.87,2.72-2.09,2.86s-3.93,3.64-4.22,4.22c-.29.58-1.16,4.07-1.16,4.51s-3.35,3.06-3.35,3.06l-4.07,3.2-2.76,4.07-2.33,3.2-2.62.44h-2.62l-1.75,1.12-1.84,2.43-.48,4.56,2.33,2.23s1.55,1.16,1.75,1.55c.19.39,1.55,2.52,1.55,2.52l.29,1.36,1.36-.78,2.62,1.02,2.04,3.49,1.6,1.31,3.64-.29,2.33-.15,4.22.73,4.37,3.35,2.62.29.58,1.89v2.47l.73,2.91h1.46l1.89-.15.73,1.46,1.02,1.89.87,2.76,3.49,1.46,1.02.44,5.24,2.76.15,2.76-.29,3.06,2.47,2.47,5.09.87,3.06-.87,3.64.58,9.58,5.82.17-.05,1.55.29,1.94-1.65s.87-.29,1.36.29c.48.58,2.23,1.94,2.23,1.94l1.07.97.1.87s1.07.87,1.55.78c.48-.1,1.84-.58,2.72-.78s2.43.48,2.43.48l3.3,1.36s.68,1.07,1.16,1.36c.48.29,3.1.19,3.1.19l.78-1.16.39-2.13,1.75-.1,1.45,1.84.78,1.07,2.23-.49,2.62-1.45,2.43,1.36,3.1,2.91,4.95-4.95,1.84,2.72h2.23l1.07-2.04,1.46-3.3,2.62-1.94.58-.58.58-2.52,4.46-.48,3.2.97,1.07-2.43.87-2.13,4.75-3.59,2.81-1.46,3.2-.68.87-1.36.36.21-.55-1.57s-4.37-.19-4.95-.19-3.98-1.65-4.27-1.84c-.29-.19-3.59-1.75-3.69-2.13-.1-.39-2.52-2.52-2.52-2.52l-.1-2.91-2.81-2.33-2.33-3.01.15-.13-3.06-1.32s-3.78-.58-3.98-.87Z"/>
    <path class="cls-4" d="M328.13,200.22c-.49-.39-2.33-1.94-2.33-1.94,0,0-.97-1.07-1.46-1.65-.49-.58-1.94-1.55-1.94-1.55l-2.33-2.04-3.3.1-5.04.87s-1.84,1.16-2.62,1.75c-.78.58-1.75.58-1.75.58l-5.72.19-4.07-.49-4.07-.49-4.56-1.84-2.62.97s-2.62,1.75-3.49,2.04c-.87.29-3.59.1-3.59.1,0,0-2.81-.97-3.78-1.36-.97-.39,0,0-2.13,1.65-2.13,1.65-5.24.87-5.24.87l-3.69,1.84-2.52,1.26-2.91-.1-3.1-1.84-1.53-1.53-1.09.61s.73,1.6,1.16,1.89c.44.29.73,1.89.73,1.89l-.58,2.04-.73,1.75-1.45.58s-.58.87-.15,1.02c.44.15,2.04.29,2.04.29l2.04.73,1.75,2.91.44.73-2.33,2.91.58,2.47-.87.44-1.46-.87-1.16-1.31-1.6,1.16-1.6,2.91-1.31,1.46-1.75.73-1.31,2.18-.87,1.31-1.16-2.04-2.18-2.18s-.58-.73-.87,0c-.29.73-1.31,2.33-1.31,2.33l-1.75,3.06-.29,2.18,1.02,1.46-1.16,2.62-1.75-.15-.87,3.35-.58,3.06,1.89,5.67,2.76,2.76,3.78,5.24,3.64,1.02s.44-.87,2.33-1.16c1.89-.29,4.07-.58,4.07-.58l3.06-1.89,2.18-1.75,5.67.15.87,1.46,3.49-.44,1.89-1.89,1.02-2.18,2.91-1.31,3.35-.73,4.66-1.6,3.35-2.91,3.64-1.75,4.07-1.23v-1.44l3.4-5.14.68-2.23s3.2-1.26,3.49-1.36c.29-.1,3.78-2.13,3.78-2.13l.29-2.72,1.55-1.55,2.43-2.43,2.52-1.94,3.88-.58,1.75-.29,3.1-.97,2.81-1.75,1.07-2.33s3.78-2.33,4.27-3.1c.49-.78.78-2.62.78-2.62l1.07-1.84.41-.5c-.64-.28-1.4-.64-1.67-.85Z"/>
    <path class="cls-4" d="M323.67,311.87l-3.35.15-1.45.73-3.42,1.02-3.35.15-4.44-1.31-.22-2.26-3.42-3.2-1.46-2.84-2.26.29-.95-1.24,10.11-5.17.73-1.37-3.33-.38-2.52,1.16-3.1-.49s-2.91-.78-3.2-.78-2.23.1-2.23.1l-3.3-1.36v-.57l-7.86.33-2.04.29s-4.66-.44-5.97-.44l-4.07,1.6-7.13-1.02-3.78-.87-2.76,1.46-2.18-.58-3.06,2.91-3.06,3.35-4.95,1.75-3.35-2.18s-2.33,1.89-2.47,2.33c-.15.44-2.18,1.89-2.18,1.89v2.33l-1.89.58-6.26,1.89-6.26.58-5.38-.73v26.08l2.47,1.52,1.07,2.62,1.75,1.55.97,3.1,3.49,2.81,3.69,3.59s2.04,1.36,2.43,1.26c.39-.1,2.62-.87,3.78-1.46,1.16-.58,2.33-2.52,2.33-2.52l-.19-3.69,3.59-1.45,1.26,2.04,2.62.1,3.49,1.26,1.94,3.01s2.43,1.94,2.62,2.23c.19.29.78,2.52.78,2.52,0,0,1.75,2.72,1.94,3.01.19.29,3.98.87,3.98.87l3.06,1.32,7.12-6.36.19-1.84.87-.87.39-.1.78-.19,1.36-1.84,1.84-1.26,3.1-1.07s.1-.97.1-1.26-.19-3.2-.19-3.2c0,0-.1-2.13-.1-3.3s1.07-3.2,1.07-3.2l1.36-2.91,1.46-2.91.48-2.33,2.33,1.07,2.81.68,4.37-1.65s2.33-3.3,2.91-3.78c.58-.48,3.98-.29,3.98-.29,0,0,3.59.68,3.98.78.39.1,1.26.1,1.26.1l4.66-1.75,3.78-1.26,3.1-1.65,2.62-1.07,1.46.85.05-.41.51-2.69,2.47-1.09.22-1.46-1.6-1.6Z"/>
    <path class="cls-4" d="M157.2,258.69s.44-2.26.58-2.76c.15-.51.95-2.33,1.45-2.62.51-.29,1.38-1.67,1.38-2.98s-.15-2.91-.15-2.91l3.2-1.82s2.04-.87,2.11-1.6c.07-.73.65-3.71.65-3.71l-3.06.58-2.98.44-2.33-.51-1.18-.03h.01s-1.02,2.04-1.02,2.04l-.34.34-3.1-.44-.49,1.31.29,1.89s-.34,1.07-.44,1.21c-.1.15-.24,1.79-.24,1.79l1.75.53.78,1.6-.29,3.78s-.97,3.2-.97,3.49.97,1.75.97,1.75l.17.55,1.4-1.5,1.82-.44Z"/>
    <path class="cls-4" d="M160.41,241.3l2.98-.44,2.8-.53-.1-3.11s-1.02-.58-1.24-.65c-.22-.07-.8-.76-.87-.95-.07-.18-1.13-.95-1.13-.95l-6.47-.29-.44-1.02-.33-1.86-.22-.58-1.46.87-.47,1.64-.44.8-.62.29s-.69-.29-1.27-.8c-.58-.51-.98-1.27-1.02-1.78-.04-.51-.07-1.16-.04-1.6.04-.44.4-.87.4-.87l1.6-.33.51-1.31s.18-1.24.15-1.86c-.04-.62-.11-1.27-.11-1.27l.44-.65.87-.44.8.58,1.46.65.73-.04.84-1.53-.11-1.53-.87-1.02-1.13-.44-1.96.58-.8.76s-.65.07-1.16.11c-.51.04.04-.25.04-.25l-.04-1.35.25-2.07-1.24-.07-1.86-.15s-1.49-.29-1.6-.36c-.11-.07-.44-1.31-.44-1.31v-1.16l-.76-.25-.58.31c-.09.84-.22,1.91-.22,1.91l-.68,1.55-2.23,1.07-1.07,1.55.58,3.2,1.75,2.52,1.36,2.52.54,3.4c.87.83,1.65,1.59,1.69,1.7.1.24,1.16,1.5,1.16,1.5l1.94.34.1,1.21-.82,1.16.78.82,1.94-.34.68,1.21,1.75-.1,2.17.43,1.18.03,2.33.51Z"/>
    <path class="cls-4" d="M251.01,177.81s.19,1.21.19,1.36-.29,1.65-.29,1.65l.24.97.53.78-.44,1.26-.49.63-1.36.97-.19.92.78.97-.24.58-2.91,1.55h-1.02l-.29-1.07-.24-.97-2.52-1.6-1.36.29-.15.78.78.87,1.7,1.5.19.92-.73,2.23-.15,2.81-5.19,5.53-.15,1.02-2.62,1.75-2.38.24-1.16-.82-1.75.34-.82.82-.87,2.28-2.23.97-1.07.44-.97,2.47-1.5-1.16-.1-1.55,1.99-2.38.82-1.36-.39-1.6-2.38-2.47-2.04-.63-.24,1.5.29,1.21-1.55.97-.39,2.04.29,1.02.48,1.31-1.5,3.64-1.26-.49-.92-1.12h-.53l-2.38.63-.92,1.02-1.99-.15-2.13-.53-1.16-.39-.97-1.46-2.18-.44-1.07-1.55s-.87-.39-1.02-.19c-.15.19-1.6.39-1.6.39l-.15-1.07s.29-.78.29-.97-1.16-1.65-1.16-1.65l.19-1.55-.58-.48-1.75.53-1.21-.29-1.21-1.7-1.75-1.94-.97-2.04-1.26.97-1.07,2.52-.19,2.09,1.07,1.26.1,1.31-.73,1.07.1,1.26-1.07.92-.24,1.31.82,1.75,2.28-.1.63-.34,1.94.53,1.79.1,1.07-1.99,1.16,1.02.78,1.55.19,1.5-.78,1.12s1.02,1.02,1.02,1.16-.19,3.2-.19,3.2l2.18.44,2.81.82.92,1.55,2.04,1.12,1.7-1.31.68-2.09.29-1.07,4.22-2.33v1.7l-.53,1.36,2.47.58,2.28.58.73,2.28.68,1.65,1.84,1.65.29,1.99.19,2.09.78.92-.87,1.55-1.79.73.1,2.23,1.26,1.21,3.78.48.49,1.7.92,2.09,2.23.82,1.02,1.12,1.99,1.02,3.33-1.08-.76-2.27.58-3.06.87-3.35,1.75.15,1.16-2.62-1.02-1.46.29-2.18,1.75-3.06s1.02-1.6,1.31-2.33c.29-.73.87,0,.87,0l2.18,2.18,1.16,2.04.87-1.31,1.31-2.18,1.75-.73,1.31-1.46,1.6-2.91,1.6-1.16,1.16,1.31,1.46.87.87-.44-.58-2.47,2.33-2.91-.44-.73-1.75-2.91-2.04-.73s-1.6-.15-2.04-.29c-.44-.15.15-1.02.15-1.02l1.45-.58.73-1.75.58-2.04s-.29-1.6-.73-1.89c-.44-.29-1.16-1.89-1.16-1.89l1.09-.61-1.38-1.38s-.68-.97-.68-2.13,1.75-1.07,1.75-1.07c0,0,2.13-1.16,2.23-1.75.1-.58-.1-1.65-.1-1.65l.87-.39h3.01s.68-.97.97-1.55c.29-.58.1-2.33.1-2.33l2.33-3.2,2.13-5.53.87-3.2v-.79l-2.21.19s-.45-.7-1.05-1.65l-2.88-.39-.36.87.15,2.18-1.82-.36-1.24-.65s-.51,1.53-.51,1.89-.07.8-.29,1.38c-.22.58-1.67.36-2.04.51-.36.15-1.82-.36-1.82-.36l-.95-.8-.57.16-.23,1.17.39,1.02Z"/>
    <path class="cls-4" d="M288.45,237.23l-3.64,1.75-3.35,2.91-4.66,1.6-3.35.73-2.91,1.31-1.02,2.18-1.89,1.89-3.49.44-.87-1.46-5.67-.15-2.18,1.75-3.06,1.89s-2.18.29-4.07.58c-1.89.29-2.33,1.16-2.33,1.16l-3.64-1.02-3.78-5.24-2.76-2.76-1.14-3.41-.25.08-2.11,14.04-1.26-1.16s-3.2-2.04-3.59-2.04-3.69.68-3.69.68l-3.4-.58-1.16-2.81-1.94-3.01-2.13-.58-2.62,1.75.58,4.27.87,2.91.29,2.23-4.56,1.36-6.01,2.62-3.01,1.26-2.04,4.66-2.62,1.84-1.65,2.33-2.21.26-.22,1.39-1.16,2.04s-1.36,3.69-1.65,4.37c-.29.68-1.26,4.46-1.26,4.46,0,0-.97,1.84-1.84,2.33-.87.49-1.75,1.16-2.13,1.36-.39.19-3.4,3.1-3.4,3.1l-.4,1.24,2.34.89,2.72.78,1.75,1.75,2.62,1.65v2.52l-.48,2.23-1.55,1.26-.58,3.01.58,1.84-.1,1.75.19,2.91,1.36,2.23,2.52,9.8,6.11,2.72,2.33.19s1.16.39,1.46.78c.29.39,1.94,1.94,1.94,1.94l2.13,1.46,1.46,1.46,3.4.39,5.72-2.33.87.29.97,4.75.05.03v-26.08l5.38.73,6.26-.58,6.26-1.89,1.89-.58v-2.33s2.04-1.46,2.18-1.89c.15-.44,2.47-2.33,2.47-2.33l3.35,2.18,4.95-1.75,3.06-3.35,3.06-2.91,2.18.58,2.76-1.46,3.78.87,7.13,1.02,4.07-1.6c1.31,0,5.97.44,5.97.44l2.04-.29,7.86-.33v-58.52l-4.07,1.23Z"/>
    <path class="cls-4" d="M186.11,140.95l2.81,1.16,2.04,3.49,1.07,3.3.58,2.33,1.36.87.1,1.94-2.72.87-.87,1.16.39,2.43.1,4.46,1.46,1.26s.19.1,1.07-.1c.87-.19,2.33-2.62,2.33-2.62l.58-1.75,1.45,2.91s-1.45.87-1.55,1.16c-.1.29-.49,2.52-.49,2.52l.49,4.66,1.16,1.65,2.72.29s3.1-2.13,3.3-2.43c.19-.29,3.59-3.4,3.59-3.4l1.65-1.26.58-4.17-.29-3.59,1.94-1.46.19-3.78.78-2.43-1.36-3.49-.39-3.49,2.04-2.72,1.55-1.07.49-4.07v-4.75l-.8-3.06-1.96-2.91s.44-1.89.44-2.47-1.6-3.35-1.6-3.35l.22-2.26-.36-2.65-1.32.39-5.82-1.6-2.47-2.76-4.07-2.76-3.64-.44-1.16-.15-4.22-3.93-2.62-1.89-.73-.87s-.15-1.89,0-2.33c.15-.44.29-1.6.29-1.6l-2.47-3.06-.44-2.04v-2.76l1.02-2.18.58-2.18-4.66-3.06.58-2.04v-3.06s-3.1-2.23-3.88-2.43c-.78-.19-1.75-1.36-1.75-1.36l-2.33-1.55-.68-2.72-.39-3.49-.83-2.67-1.43.61-3.42,4.22-2.04,1.24.15,7.49-1.52,5.82,1.14-.22.58,1.07.78,3.88.97,1.16,2.13.48.48.68.39,3.2.1,2.33-.68,1.26h3.01l2.04.48,2.23,2.13,3.4.97,1.26,1.65.87,1.65.39.78-.1,4.95,1.16,1.46.39,1.65,1.55,2.33,2.33,1.16,3.1,1.65,1.46,2.23.19,2.52-.29,1.36-.87.87.39,1.36,1.07,3.2v1.36c0,.29-.1,1.94-.1,1.94,0,0-.19.97-.48,1.16-.29.19-.68,1.07-.68,1.07l-1.65,1.65-3.2,1.65s-.32.08-.55-.24l-.67,2.42,1.32.54,1.75,2.13Z"/>
    <path class="cls-4" d="M214.28,142.76l.8.91.11.91,1.13.76v1.13l-.4,1.05-1.24.55-.8,1.38v.91c0,.15.4.84.4.84l2.95-.04,1.02-.22,2.04,1.67,1.75.51,1.38-.36,1.38-1.75,1.24-1.53.22-2.18,1.38-.8.07-1.82-.51-1.38-1.38-1.16-1.02-1.09-.8-1.89s.34-1.41.63-1.79c.29-.39.87-2.13.87-2.13l.58-2.23-.49-2.81s-.68-.29-1.07-.29-.1,1.65-.1,1.65c0,0-.58,1.75-.78,2.04-.19.29-.78.1-.78.1l-1.07-.87-.29-.97.78-1.26v-.97l-.97-.97s-1.07-.87-1.16-1.16c-.1-.29-.39-2.33-.39-2.33l1.75-1.75.87-.87,1.26-1.55-.19-2.81-.97-1.55,1.26-2.62-.29-2.43.1-1.55,2.62-.58.07-1.19,6.23-10.26h1.16l.78-3.98,3.3-4.66s-.87-1.65-.87-2.23,1.46-3.98,1.46-3.98l1.72-10-1.47-.7-4.66-.36-2.4.29-.73-.44-.8-1.46.73-2.04s1.02-1.46,1.67-2.11c.65-.65.58-1.38.58-1.38l-2.18-.95-1.02-1.16-1.53-.07-1.02-.07.65-2.91v-.95l-4.15.36-6.55.87,1.46,1.67-.58,2.76-.29,3.2-2.33,3.06-5.38,1.89-5.67,5.53-1.31,2.76,1.75,4.22,5.24,4.22,3.2,6.55-3.49.87h-4.51l-1.02.58.15,2.18,1.46,5.09,2.47,3.06,3.78,2.47.73,3.2-2.61.77.36,2.65-.22,2.26s1.6,2.76,1.6,3.35-.44,2.47-.44,2.47l1.96,2.91.8,3.06v4.75l-.49,4.07-.63.43.21,1.69.95.95Z"/>
    <path class="cls-4" d="M251.15,181.79l-.24-.97s.29-1.5.29-1.65-.19-1.36-.19-1.36l-.39-1.02.23-1.17-.96.27s-1.09-.51-1.09-.73.22-.58.22-.58l.51-1.75-2.76-.07s-2.4.07-2.62.07h-.51l-1.45-.22-2.33-1.67.73-1.16.8-2.4-1.09-1.38.44-1.67s-.22-1.6-.22-2.11-1.38-.65-1.38-.65l-.58-2.26s-1.24-.8-1.53-1.16c-.29-.36-.58-1.96-.58-1.96l-.8-1.16-1.67-.8h-4.44l-1.02,1.67-.87,1.09-1.38.36-2.18-.29-2.55-1.31-2.26-1.6-1.82-2.26-.22-.73-2.95.04s-.4-.69-.4-.84v-.91l.8-1.38,1.24-.55.4-1.05v-1.13l-1.13-.76-.11-.91-.8-.91-.95-.95-.21-1.69-.92.63-2.04,2.72.39,3.49,1.36,3.49-.78,2.43-.19,3.78-1.94,1.46.29,3.59-.58,4.17-.49.38.78,1.37-.1,2.62,1.26,2.33v1.16s-1.36,1.07-1.84,1.26c-.48.19-2.23.58-2.23.58l-.49,1.55-2.13,1.94-1.07,1.75-1.07,1.36-3.49.49-2.33,1.07-.48,1.16v2.52s-.19,3.01,0,3.3c.19.29-.1,1.75-.1,1.75l-2.23.79-1.36,2.42.83,1.74,1.75,1.94,1.21,1.7,1.21.29,1.75-.53.58.48-.19,1.55s1.16,1.46,1.16,1.65-.29.97-.29.97l.15,1.07s1.46-.19,1.6-.39c.15-.19,1.02.19,1.02.19l1.07,1.55,2.18.44.97,1.46,1.16.39,2.13.53,1.99.15.92-1.02,2.38-.63h.53l.92,1.12,1.26.49,1.5-3.64-.48-1.31-.29-1.02.39-2.04,1.55-.97-.29-1.21.24-1.5,2.04.63,2.38,2.47.39,1.6-.82,1.36-1.99,2.38.1,1.55,1.5,1.16.97-2.47,1.07-.44,2.23-.97.87-2.28.82-.82,1.75-.34,1.16.82,2.38-.24,2.62-1.75.15-1.02,5.19-5.53.15-2.81.73-2.23-.19-.92-1.7-1.5-.78-.87.15-.78,1.36-.29,2.52,1.6.24.97.29,1.07h1.02l2.91-1.55.24-.58-.78-.97.19-.92,1.36-.97.49-.63.44-1.26-.53-.78Z"/>
    <path class="cls-4" d="M153.97,216.71l1.42-.22,2.95.73s1.13-.15,1.24-.22c.11-.07.33-1.09.33-1.09l-.29-1.78-.18-3.46,1.46-.07,1.27,1.49,1.05.84s.44-.47.65-.73c.22-.25,1.2-.36,1.2-.36l.91.33,1.02,2.4.91,1.42.44,1.6.4,1.2,1.89-.33,1.46-1.67.91-1.46,1.05-.15.33-2.11,1.09-.87,1.67-.29s1.24-1.53,1.53-1.64c.29-.11,1.16-.4,1.46-.51.29-.11,1.67-.15,1.67-.15l.84,1.27,1.05,1.09,1.64-.51.87-1.96,2.04-.74-.33-.69.24-1.31,1.07-.92-.1-1.26.73-1.07-.1-1.31-1.07-1.26.19-2.09,1.07-2.52,1.26-.97.14.29,1.36-2.42,2.23-.79s.29-1.46.1-1.75c-.19-.29,0-3.3,0-3.3v-2.52l.48-1.16,2.33-1.07,3.49-.49,1.07-1.36,1.07-1.75,2.13-1.94.49-1.55s1.75-.39,2.23-.58c.48-.19,1.84-1.26,1.84-1.26v-1.16l-1.26-2.33.1-2.62-.78-1.37-1.16.88s-3.4,3.1-3.59,3.4c-.19.29-3.3,2.43-3.3,2.43l-2.72-.29-1.16-1.65-.49-4.66s.39-2.23.49-2.52c.1-.29,1.55-1.16,1.55-1.16l-1.45-2.91-.58,1.75s-1.46,2.43-2.33,2.62c-.87.19-1.07.1-1.07.1l-1.46-1.26-.1-4.46-.39-2.43.87-1.16,2.72-.87-.1-1.94-1.36-.87-.58-2.33-1.07-3.3-2.04-3.49-2.81-1.16-1.75-2.13-1.32-.54-.08.3-1.02,1.31-3.06,2.33-4.8-.58-2.62-.29-2.33,2.76-4.37,3.49-1.46,4.37-.29,3.64s-2.76,2.76-4.37,3.06c-1.6.29-2.76,2.18-2.76,2.18,0,0-5.09,1.6-5.97,1.89-.87.29-5.53.15-6.4.15s-6.26-1.6-6.26-1.6c0,0-1.75-1.75-2.76-3.78-1.02-2.04-1.31-4.8-1.31-4.8l1.46-2.91.73-5.38,1.6-2.47.15-3.2,1.89-5.09,2.18-2.62,1.75-1.89-1.16-3.64-3.35-.73-2.29-6.57-2.29.75-4.29,5.24-4.87,1.09s-2.4,0-2.62.07c-.22.07-1.53,2.04-1.53,2.04l.29,1.31,2.4.22,2.33,3.93-.36,3.35,1.46,4.87-.07,3.13-.87,2.47-3.13.29-1.75-2.04.29-1.46,1.09-.44.44-2.4-1.6-.58s-.95.36-.95.07.36-2.55.36-2.55l-.12-.1-.58,3.49v1.36l-2.33,3.2-.1,2.13-1.55,1.07-1.26,1.07,1.26,1.07,2.23,3.3,3.4,1.36,3.78,3.88,1.16,2.62,1.94,2.33,1.94-.49,1.84,1.36.39,2.13,1.07,3.88-1.26,1.75s.39.87,0,1.07c-.39.19-1.55,0-1.55,0l-1.55-.97-2.33.1-3.1.39v.49l1.07,1.45v1.26l-1.16.78-3.88,1.07-.87.87.68,1.26,1.07,1.55,2.04,3.2.48,2.72,1.75,1.55,1.07,2.43.78,5.63,1.26.87h3.49l1.65-.78,3.59-.29,3.3-.49.58.39.49,1.07-.1,1.65.68,1.65,2.33,1.16.48.87-.1,4.56-.48,1.84,1.36,2.04s.29,1.36.29,1.84c0,.16-.03.51-.07.9l.58-.31.76.25v1.16s.33,1.24.44,1.31c.11.07,1.6.36,1.6.36l1.86.15,1.24.07-.04.33,1.13-.66.91-1.05Z"/>
    <path class="cls-4" d="M167.32,234.53l.51-2.47-.07-2.18.58-1.38,2.47-.73h2.26l1.6-1.46.65-2.04,1.75-.87,4.73-.22,3.86-.15,2.55-3.86-.29-2.91.07-2.26-.99-4.8-.79.29-.87,1.96-1.64.51-1.05-1.09-.84-1.27s-1.38.04-1.67.15c-.29.11-1.16.4-1.46.51-.29.11-1.53,1.64-1.53,1.64l-1.67.29-1.09.87-.33,2.11-1.05.15-.91,1.46-1.46,1.67-1.89.33-.4-1.2-.44-1.6-.91-1.42-1.02-2.4-.91-.33s-.98.11-1.2.36c-.22.25-.65.73-.65.73l-1.05-.84-1.27-1.49-1.46.07.18,3.46.29,1.78s-.22,1.02-.33,1.09c-.11.07-1.24.22-1.24.22l-2.95-.73-1.42.22-.91,1.05-1.13.66-.21,1.74.04,1.35s-.55.29-.04.25c.51-.04,1.16-.11,1.16-.11l.8-.76,1.96-.58,1.13.44.87,1.02.11,1.53-.84,1.53-.73.04-1.46-.65-.8-.58-.87.44-.44.65s.07.65.11,1.27c.04.62-.15,1.86-.15,1.86l-.51,1.31-1.6.33s-.36.44-.4.87c-.04.44,0,1.09.04,1.6.04.51.44,1.27,1.02,1.78.58.51,1.27.8,1.27.8l.62-.29.44-.8.47-1.64,1.46-.87.22.58.33,1.86.44,1.02,6.47.29s1.05.76,1.13.95c.07.18.65.87.87.95.22.07,1.24.65,1.24.65v.27s1.24-.63,1.24-.63v-2.33Z"/>
    <path class="cls-4" d="M192.32,259.39l.05-2.52-.97-1.65-1.31-1.6-1.46-.19-.63,1.21-1.26,1.16h-.92l-.48-1.26-2.72-.19-1.36-1.84.78-4.17.87-3.49.1-1.94-.68-1.36v-1.84l1.46-.97,1.07-2.04.58-1.84-.58-4.27-.1-3.4-.58-1.16-.21-2.92-2.16.08-4.73.22-1.75.87-.65,2.04-1.6,1.46h-2.26l-2.47.73-.58,1.38.07,2.18-.51,2.47v2.33l-1.23.63.09,2.84.26-.05s-.58,2.98-.65,3.71c-.07.73-2.11,1.6-2.11,1.6l-3.2,1.82s.15,1.6.15,2.91-.87,2.69-1.38,2.98c-.51.29-1.31,2.11-1.45,2.62-.15.51-.58,2.76-.58,2.76l-1.82.44-1.4,1.5.31,1-2.62,4.37-.68,3.59s-2.81,2.81-3.1,3.1c-.29.29-.87,2.62-.87,2.62l-.87,1.65s-.78,2.23-.78,2.72.39,1.94.39,2.43.1,2.04.1,2.04l-.99.31.41,2.11-.39,1.45.91,2.31,1.66,1.04,2.84.87,3.35-1.31,2.76-1.6,4.07-4,.15-1.75,1.16-.8,1.24-2.47.95-1.02,1.09.36,2.04-.44,1.09,1.24.87.58,1.46-.87s.29-.51.8-1.46c.51-.95,2.76.07,2.76.07,0,0,1.24-.15,1.53-.15s1.38.95,1.38.95l-1.09,1.16s-.65,1.16-.65,1.53.44.87.44.87l3.13.36,3.13-2.69,1.96-1.96s.22-.65.22-.95-.07-.51-.07-.51l.15-1.02,1.02-1.38-.36-.73.22-1.16,2.11-.51,2.13-2.62.97-1.84.55-.28-.55-6.47,2.04-1.99Z"/>
  </g>
  <path class="cls-5" d="M195.4,56.92c8.15,11.06,28,41.07,29.85,84.43,2.03,47.75-19.04,81.79-26.53,92.81"/>
  <path class="cls-5" d="M256.81,176.65c1.78,4.56,6.72,18.96,0,32.57-2.31,4.67-5.39,8.05-8.4,10.67-16.76,14.6-42.82,15.85-56.43,17.56-28.14,3.53-57.31,15.76-73.55,30.09-8.96,7.9-30.06,30.64-29.29,85.75"/>
  <path class="cls-5" d="M144.98,93.68c10.73,5.27,24.11,13.95,35.2,28.24,36.23,46.69,14.05,109.45,11.79,115.52"/>
  <path class="cls-5" d="M165.32,351.01c-2.76-11.74-6.67-35.41.56-63.79,6.65-26.1,19.61-43.97,27.24-53.07"/>
  <g class="cls-3">
    <g>
      <path class="cls-1" d="M204,215.02c0,11.26-8.91,19.79-12.03,22.42-.61.52-1.51.52-2.12,0-3.11-2.63-12.03-11.16-12.03-22.42,0-7.23,5.86-13.08,13.08-13.08,7.23,0,13.08,5.86,13.08,13.08Z"/>
      <circle class="cls-2" cx="190.92" cy="215.02" r="8.39"/>
    </g>
    <path class="cls-1" d="M206.3,238.84c0,3-6.89,5.43-15.39,5.43s-15.39-2.43-15.39-5.43c0-1.99,3.04-3.74,7.58-4.68,1.94,1.98,3.66,3.51,4.89,4.56.81.69,1.85,1.07,2.91,1.07s2.1-.38,2.91-1.07c1.23-1.04,2.95-2.58,4.89-4.56,4.54.94,7.58,2.69,7.58,4.68Z"/>
  </g>
</svg>