<?xml version="1.0" encoding="UTF-8"?>
<svg xmlns="http://www.w3.org/2000/svg" xmlns:xlink="http://www.w3.org/1999/xlink" viewBox="0 0 556.72 559.06">
  <defs>
    <style>
      .cls-1, .cls-2 {
        fill: aqua;
      }

      .cls-3 {
        fill: #00aefb;
      }

      .cls-2, .cls-4 {
        opacity: .5;
      }

      .cls-5 {
        opacity: .3;
      }

      .cls-6 {
        fill: #fff;
      }

      .cls-7 {
        fill: none;
      }

      .cls-8 {
        isolation: isolate;
      }

      .cls-4 {
        fill: url(#linear-gradient);
      }

      .cls-9 {
        mix-blend-mode: overlay;
      }

      .cls-10 {
        clip-path: url(#clippath);
      }

      .cls-11 {
        mix-blend-mode: hard-light;
      }
    </style>
    <clipPath id="clippath">
      <rect class="cls-7" x="-586.81" y="1020.81" width="1920" height="716.29"/>
    </clipPath>
    <linearGradient id="linear-gradient" x1="5537.31" y1="1337.6" x2="4865.94" y2="1043.97" gradientTransform="translate(-4304.29 3351.88) rotate(-43.95)" gradientUnits="userSpaceOnUse">
      <stop offset="0" stop-color="aqua"/>
      <stop offset=".33" stop-color="aqua" stop-opacity=".63"/>
      <stop offset=".66" stop-color="aqua" stop-opacity=".29"/>
      <stop offset=".89" stop-color="aqua" stop-opacity=".08"/>
      <stop offset="1" stop-color="aqua" stop-opacity="0"/>
    </linearGradient>
  </defs>
  <g class="cls-8">
    <g id="Capa_1" data-name="Capa 1">
      <g>
        <g>
          <polygon points="401.16 550.36 481.85 550.36 323.54 60.36 242.85 60.36 401.16 550.36"/>
          <polygon points="242.16 494.86 322.85 494.86 164.54 4.86 83.85 4.86 242.16 494.86"/>
          <polygon class="cls-3" points="324.35 494.36 245.35 494.36 400.35 4.36 479.35 4.36 324.35 494.36"/>
          <polygon class="cls-3" points="165.35 551.36 86.35 551.36 241.35 61.36 320.35 61.36 165.35 551.36"/>
        </g>
        <g>
          <g>
            <path class="cls-6" d="M285.05,181.21c-.59.65-1.27,1.23-2.05,1.72-.59,1.35-1.44,2.58-2.55,3.57l29.77,92.14c.9-2.15,2.46-3.99,4.66-5.1l-29.83-92.33Z"/>
            <path class="cls-6" d="M325.2,57.81c-1.16,2.24-2.31,4.48-3.47,6.71l28.82,89.21c1.14-1.96,2.77-3.54,4.87-4.44-10.08-30.49-20.15-60.98-30.23-91.48Z"/>
            <path class="cls-6" d="M395.87,274.47c-.84,2.18-2.73,4-4.62,5.23l86.48,267.66h-74.38l-48.25-149.34c-.76,2.36-2.23,4.45-4.44,5.76l47.66,147.5.67,2.08h86.99l-90.1-278.89Z"/>
          </g>
          <g>
            <path class="cls-6" d="M174.9,276.91L87.97,7.86h74.38l47.2,146.08c1.32-1.46,3.09-2.55,5.33-3.01L167.39,3.94l-.67-2.08h-86.99l89.96,278.43c1.25-1.58,2.99-2.8,5.21-3.37Z"/>
            <path class="cls-6" d="M213.01,394.87c-.62,2.6-2.18,4.77-4.28,6.27l30.58,94.65.67,2.08h1.31c-.07-2.78.76-5.59,2.5-7.71l-30.78-95.28Z"/>
            <path class="cls-6" d="M254.48,273.48c-.72,2.4-2.19,4.54-4.4,5.89l30.94,95.76c1.43-1.24,3.28-2.1,5.54-2.35l-32.08-99.3Z"/>
          </g>
          <path class="cls-6" d="M326.95,497.91h-86.45L397.75.81h86.45l-157.25,497.1ZM250.2,490.81h71.55L474.5,7.91h-71.55l-152.75,482.9Z"/>
          <path class="cls-6" d="M167.95,554.91h-86.45L238.75,57.81h86.45l-157.25,497.1ZM91.2,547.81h71.55L315.5,64.91h-71.55l-152.75,482.9Z"/>
          <rect class="cls-6" x="171.85" y="275.86" width="80" height="6"/>
          <rect class="cls-6" x="312.85" y="276.36" width="81" height="6"/>
        </g>
      </g>
      <g class="cls-10">
        <g>
          <g class="cls-11">
            <path class="cls-4" d="M-94.76,423.54l109.44,1.32-116.52,81.37-1.2.83.75.46-7.16,128.25-.54.13.48.88-.02.56.36.07,85.78,154.84-2.62,1.06,3.24.31.19.68.64-.44,183.09,95.24.43-.85.93.24,19.29-74.89,113.7,11.1.2,1.77,33.99-49.31,88.77,57.09-10.56-168.76,119.23,83.73,1.1-1.57-116.47-81.79,298.93,79.32.5-1.86-303.46-80.52-.04-.39-.66.12-.46-.33-.32.47-124.76,22.63-11.13-97.4.27-.52h0l.39-.74-.8.06-.07-.71-.58.4-80.81-105.34-.63-.82-.35.31-169.62-57.12-.04-.15-.61-.06-.35-.12-.11.07-111.68-1.54-.18,1.91ZM286.94,749.64l8.06,70.48-81.19-117.52,73.13,47.04ZM212.87,699.71l66.98-12.15,6.82,59.62-73.8-47.47ZM-66.61,628.37l116.44-25.48-22.77,59.33-89.14-17.51-4.53-16.34ZM-64.19,644.3l-39.62-7.79,35.32-7.73,4.3,15.52ZM29.88,494.54l-127.67,11.19,114.51-79.95,13.17,68.75ZM18.74,426.19l94.12,61.08-81.06,7.11-13.06-68.19ZM-19.98,790.14l48.24-125.73,101.99,20.03-150.23,105.7ZM132.87,684.96l74.09,14.55L-14.66,788.75l147.53-103.79ZM28.97,662.6l23.07-60.11,214.04-13.6-133.66,94.03-103.45-20.32ZM30.24,496.44l19.76,103.17-148.33-91.89,128.57-11.28ZM48.84,601.14l-115.98,25.38-32.58-117.4,148.55,92.02ZM26.36,664.04l-48.21,125.65-39.67-142.91,87.88,17.27ZM208.9,700.79l-28.52,110.74-198.39-19.37,226.9-91.37ZM210.19,697.35l-.29-.43-.3,1.16-74.57-14.65,131.67-92.62-33.57,63.3-22.92,43.24ZM54.1,600.44l99.13-86.98,113.23,73.47-212.36,13.5ZM51.99,599.75l-19.82-103.48,83.32-7.31,36.07,23.41-99.57,87.38ZM118.58,488.68l66.63-5.85-32.15,28.22-34.47-22.37ZM115.97,486.99l-91.68-59.49,159.11,53.58-67.43,5.91ZM-100.65,512.88l31.64,114.05-38.49,8.43,6.85-122.48ZM-63.62,646.36l38.52,138.81-81.59-147.28,43.07,8.46ZM160.97,886.84l-178.14-92.66,197.05,19.23-18.91,73.43ZM210.7,701.47l83.72,121.19-112.12-10.94,28.4-110.25ZM297.05,821.17l-8.01-70.19,39.07,25.13-31.06,45.06ZM416.34,830.59l-85.53-55.02,75.25-109.2,10.28,164.21ZM404.75,664.9l-75.55,109.63-40.44-26.01-7-61.3,122.99-22.31ZM279.63,685.64l-67.56,12.25,23.4-44.12,33.34-62.89,10.82,94.76ZM265.26,583.87l-110.53-71.72,33.18-29.12,77.34,100.84Z"/>
            <g class="cls-5">
              <path class="cls-1" d="M180.67,484.37c-1.33-3.58.5-7.55,4.07-8.88,3.58-1.32,7.56.51,8.89,4.08,1.32,3.58-.5,7.55-4.08,8.88-3.57,1.32-7.55-.51-8.88-4.08Z"/>
              <path class="cls-1" d="M10.33,427.79c-1.32-3.57.5-7.55,4.08-8.87,3.58-1.33,7.55.5,8.89,4.07,1.32,3.58-.5,7.56-4.08,8.88-3.57,1.33-7.55-.5-8.88-4.08Z"/>
              <path class="cls-1" d="M109.8,489.15c-1.33-3.57.5-7.55,4.08-8.88,3.57-1.32,7.54.5,8.87,4.07,1.33,3.58-.49,7.55-4.07,8.88-3.59,1.33-7.56-.51-8.88-4.08Z"/>
              <path class="cls-2" d="M147.27,515.16c-1.32-3.58.5-7.55,4.08-8.88,3.58-1.32,7.55.5,8.87,4.08,1.33,3.57-.5,7.54-4.08,8.88-3.58,1.33-7.54-.51-8.87-4.08Z"/>
              <path class="cls-1" d="M22.98,497.79c-1.33-3.57.5-7.54,4.07-8.88,3.58-1.32,7.55.51,8.88,4.08,1.33,3.58-.5,7.55-4.07,8.88-3.58,1.32-7.56-.5-8.88-4.08Z"/>
            </g>
          </g>
          <g class="cls-9">
            <path class="cls-4" d="M-94.76,423.54l109.44,1.32-116.52,81.37-1.2.83.75.46-7.16,128.25-.54.13.48.88-.02.56.36.07,85.78,154.84-2.62,1.06,3.24.31.19.68.64-.44,183.09,95.24.43-.85.93.24,19.29-74.89,113.7,11.1.2,1.77,33.99-49.31,88.77,57.09-10.56-168.76,119.23,83.73,1.1-1.57-116.47-81.79,298.93,79.32.5-1.86-303.46-80.52-.04-.39-.66.12-.46-.33-.32.47-124.76,22.63-11.13-97.4.27-.52h0l.39-.74-.8.06-.07-.71-.58.4-80.81-105.34-.63-.82-.35.31-169.62-57.12-.04-.15-.61-.06-.35-.12-.11.07-111.68-1.54-.18,1.91ZM286.94,749.64l8.06,70.48-81.19-117.52,73.13,47.04ZM212.87,699.71l66.98-12.15,6.82,59.62-73.8-47.47ZM-66.61,628.37l116.44-25.48-22.77,59.33-89.14-17.51-4.53-16.34ZM-64.19,644.3l-39.62-7.79,35.32-7.73,4.3,15.52ZM29.88,494.54l-127.67,11.19,114.51-79.95,13.17,68.75ZM18.74,426.19l94.12,61.08-81.06,7.11-13.06-68.19ZM-19.98,790.14l48.24-125.73,101.99,20.03-150.23,105.7ZM132.87,684.96l74.09,14.55L-14.66,788.75l147.53-103.79ZM28.97,662.6l23.07-60.11,214.04-13.6-133.66,94.03-103.45-20.32ZM30.24,496.44l19.76,103.17-148.33-91.89,128.57-11.28ZM48.84,601.14l-115.98,25.38-32.58-117.4,148.55,92.02ZM26.36,664.04l-48.21,125.65-39.67-142.91,87.88,17.27ZM208.9,700.79l-28.52,110.74-198.39-19.37,226.9-91.37ZM210.19,697.35l-.29-.43-.3,1.16-74.57-14.65,131.67-92.62-33.57,63.3-22.92,43.24ZM54.1,600.44l99.13-86.98,113.23,73.47-212.36,13.5ZM51.99,599.75l-19.82-103.48,83.32-7.31,36.07,23.41-99.57,87.38ZM118.58,488.68l66.63-5.85-32.15,28.22-34.47-22.37ZM115.97,486.99l-91.68-59.49,159.11,53.58-67.43,5.91ZM-100.65,512.88l31.64,114.05-38.49,8.43,6.85-122.48ZM-63.62,646.36l38.52,138.81-81.59-147.28,43.07,8.46ZM160.97,886.84l-178.14-92.66,197.05,19.23-18.91,73.43ZM210.7,701.47l83.72,121.19-112.12-10.94,28.4-110.25ZM297.05,821.17l-8.01-70.19,39.07,25.13-31.06,45.06ZM416.34,830.59l-85.53-55.02,75.25-109.2,10.28,164.21ZM404.75,664.9l-75.55,109.63-40.44-26.01-7-61.3,122.99-22.31ZM279.63,685.64l-67.56,12.25,23.4-44.12,33.34-62.89,10.82,94.76ZM265.26,583.87l-110.53-71.72,33.18-29.12,77.34,100.84Z"/>
            <g class="cls-5">
              <path class="cls-1" d="M180.67,484.37c-1.33-3.58.5-7.55,4.07-8.88,3.58-1.32,7.56.51,8.89,4.08,1.32,3.58-.5,7.55-4.08,8.88-3.57,1.32-7.55-.51-8.88-4.08Z"/>
              <path class="cls-1" d="M10.33,427.79c-1.32-3.57.5-7.55,4.08-8.87,3.58-1.33,7.55.5,8.89,4.07,1.32,3.58-.5,7.56-4.08,8.88-3.57,1.33-7.55-.5-8.88-4.08Z"/>
              <path class="cls-1" d="M109.8,489.15c-1.33-3.57.5-7.55,4.08-8.88,3.57-1.32,7.54.5,8.87,4.07,1.33,3.58-.49,7.55-4.07,8.88-3.59,1.33-7.56-.51-8.88-4.08Z"/>
              <path class="cls-2" d="M147.27,515.16c-1.32-3.58.5-7.55,4.08-8.88,3.58-1.32,7.55.5,8.87,4.08,1.33,3.57-.5,7.54-4.08,8.88-3.58,1.33-7.54-.51-8.87-4.08Z"/>
              <path class="cls-1" d="M22.98,497.79c-1.33-3.57.5-7.54,4.07-8.88,3.58-1.32,7.55.51,8.88,4.08,1.33,3.58-.5,7.55-4.07,8.88-3.58,1.32-7.56-.5-8.88-4.08Z"/>
            </g>
          </g>
        </g>
      </g>
    </g>
  </g>
</svg>