<?xml version="1.0" encoding="UTF-8"?>
<svg id="Capa_1" data-name="Capa 1" xmlns="http://www.w3.org/2000/svg" viewBox="0 0 1626.88 1067.5">
  <defs>
    <style>
      .cls-1 {
        fill: none;
        stroke: #fff;
        stroke-miterlimit: 10;
        stroke-width: 3px;
      }
    </style>
  </defs>
  <g>
    <path class="cls-1" d="M868.67,416h-94.14c.12,10.93,2.32,20.57,6.61,28.91s9.99,14.63,17.1,18.86c7.11,4.23,14.96,6.35,23.54,6.35,5.76,0,11.02-.68,15.78-2.03s9.37-3.47,13.84-6.35c4.47-2.88,8.58-5.96,12.34-9.26,3.76-3.29,8.64-7.76,14.63-13.4,2.47-2.11,5.99-3.17,10.58-3.17,4.94,0,8.93,1.35,11.99,4.05,3.05,2.7,4.58,6.52,4.58,11.46,0,4.35-1.7,9.43-5.11,15.25s-8.55,11.4-15.43,16.75-15.51,9.78-25.91,13.31c-10.4,3.53-22.36,5.29-35.88,5.29-30.91,0-54.94-8.82-72.1-26.44-17.16-17.63-25.74-41.54-25.74-71.75,0-14.22,2.12-27.41,6.35-39.58,4.23-12.17,10.4-22.59,18.51-31.29s18.1-15.36,29.97-20.01c11.87-4.64,25.03-6.96,39.49-6.96,18.8,0,34.93,3.97,48.39,11.9s23.53,18.19,30.23,30.76c6.7,12.58,10.05,25.38,10.05,38.43,0,12.11-3.47,19.95-10.4,23.54-6.94,3.59-16.69,5.38-29.27,5.38ZM774.53,388.68h87.26c-1.18-16.45-5.61-28.76-13.31-36.93-7.7-8.17-17.84-12.25-30.41-12.25s-21.83,4.14-29.53,12.43c-7.7,8.29-12.37,20.54-14.01,36.76h0Z"/>
    <path class="cls-1" d="M988.55,262.28v73.51c9.05-9.4,18.27-16.6,27.68-21.59,9.4-4.99,21.04-7.49,34.91-7.49,15.98,0,30,3.79,42.05,11.37,12.05,7.58,21.39,18.57,28.03,32.97,6.64,14.4,9.96,31.47,9.96,51.21,0,14.57-1.85,27.94-5.55,40.11-3.7,12.16-9.08,22.71-16.13,31.64-7.05,8.93-15.6,15.84-25.65,20.71-10.05,4.88-21.13,7.32-33.23,7.32-7.4,0-14.37-.88-20.89-2.65-6.52-1.76-12.07-4.08-16.66-6.96-4.59-2.88-8.49-5.84-11.73-8.9-3.23-3.05-7.49-7.64-12.78-13.75v4.76c0,9.05-2.18,15.9-6.52,20.54-4.35,4.64-9.87,6.96-16.57,6.96s-12.25-2.32-16.31-6.96c-4.05-4.64-6.08-11.49-6.08-20.54v-210.14c0-9.75,1.97-17.13,5.91-22.12,3.93-4.99,9.43-7.49,16.48-7.49,7.4,0,13.1,2.38,17.1,7.14,3.99,4.76,5.99,11.55,5.99,20.36h0ZM990.84,405.25c0,19.16,4.38,33.88,13.13,44.16,8.75,10.28,20.24,15.42,34.47,15.42,12.1,0,22.54-5.26,31.29-15.78,8.76-10.52,13.13-25.59,13.13-45.22,0-12.69-1.82-23.62-5.47-32.79-3.64-9.17-8.81-16.25-15.51-21.24-6.7-4.99-14.52-7.49-23.45-7.49s-17.34,2.5-24.5,7.49c-7.17,5-12.81,12.23-16.92,21.68-4.11,9.46-6.17,20.71-6.17,33.76h0Z"/>
  </g>
  <g>
    <path class="cls-1" d="M855.12,791.56c-11.63,9.05-22.89,15.84-33.76,20.36-10.87,4.52-23.07,6.79-36.58,6.79-12.34,0-23.18-2.44-32.53-7.32-9.34-4.88-16.54-11.49-21.59-19.83-5.05-8.34-7.58-17.39-7.58-27.15,0-13.16,4.17-24.38,12.52-33.67,8.34-9.28,19.8-15.51,34.38-18.69,3.05-.71,10.63-2.29,22.74-4.76,12.1-2.47,22.48-4.73,31.12-6.79,8.64-2.05,18.01-4.55,28.12-7.49-.59-12.69-3.15-22.01-7.67-27.94-4.53-5.93-13.9-8.9-28.12-8.9-12.23,0-21.42,1.7-27.59,5.11-6.17,3.41-11.46,8.52-15.87,15.34s-7.52,11.31-9.34,13.49-5.73,3.26-11.73,3.26c-5.41,0-10.08-1.73-14.01-5.2-3.94-3.47-5.9-7.9-5.9-13.31,0-8.46,3-16.69,8.99-24.68s15.34-14.57,28.03-19.75c12.69-5.17,28.5-7.76,47.42-7.76,21.15,0,37.78,2.5,49.89,7.49,12.1,5,20.65,12.9,25.65,23.71,4.99,10.81,7.49,25.15,7.49,43.01,0,11.28-.03,20.86-.09,28.73-.06,7.88-.15,16.63-.26,26.27,0,9.05,1.5,18.48,4.49,28.29,3,9.81,4.49,16.13,4.49,18.95,0,4.94-2.32,9.43-6.96,13.49-4.65,4.05-9.9,6.08-15.78,6.08-4.94,0-9.82-2.32-14.63-6.96-4.82-4.64-9.93-11.37-15.34-20.19v.02ZM851.95,721.93c-7.05,2.59-17.31,5.32-30.76,8.2-13.46,2.88-22.77,5-27.94,6.35s-10.11,4-14.81,7.93c-4.7,3.94-7.05,9.43-7.05,16.48s2.76,13.49,8.29,18.6c5.52,5.11,12.75,7.67,21.68,7.67,9.52,0,18.3-2.09,26.35-6.26s13.96-9.55,17.72-16.13c4.35-7.29,6.52-19.27,6.52-35.96v-6.88h0Z"/>
    <path class="cls-1" d="M1102.99,755.77c0,13.28-3.23,24.65-9.7,34.11-6.46,9.46-16.01,16.63-28.65,21.51-12.64,4.88-28,7.32-46.1,7.32s-32.08-2.65-44.43-7.93c-12.34-5.29-21.45-11.9-27.33-19.83s-8.81-15.9-8.81-23.89c0-5.29,1.88-9.81,5.64-13.57s8.52-5.64,14.28-5.64c5.05,0,8.93,1.24,11.63,3.7,2.7,2.47,5.29,5.93,7.76,10.4,4.94,8.58,10.84,14.98,17.72,19.22,6.88,4.23,16.24,6.35,28.12,6.35,9.64,0,17.54-2.14,23.71-6.44,6.17-4.29,9.26-9.19,9.26-14.72,0-8.46-3.2-14.63-9.61-18.51-6.41-3.88-16.96-7.58-31.64-11.11-16.57-4.11-30.06-8.43-40.46-12.96-10.4-4.52-18.72-10.49-24.94-17.89-6.23-7.4-9.34-16.51-9.34-27.33,0-9.64,2.88-18.75,8.64-27.33s14.25-15.43,25.47-20.54,24.77-7.67,40.64-7.67c12.45,0,23.65,1.3,33.58,3.88,9.93,2.59,18.22,6.05,24.86,10.4,6.64,4.35,11.69,9.17,15.16,14.46,3.47,5.29,5.2,10.46,5.2,15.51,0,5.53-1.85,10.05-5.55,13.57-3.7,3.53-8.96,5.29-15.78,5.29-4.94,0-9.14-1.41-12.61-4.23-3.47-2.82-7.44-7.05-11.9-12.69-3.65-4.7-7.93-8.46-12.87-11.28s-11.63-4.23-20.1-4.23-15.93,1.85-21.68,5.55c-5.76,3.7-8.64,8.32-8.64,13.84,0,5.05,2.11,9.2,6.35,12.43,4.23,3.23,9.93,5.9,17.1,8.02s17.04,4.7,29.62,7.76c14.92,3.64,27.12,7.99,36.58,13.05,9.46,5.05,16.63,11.02,21.51,17.89,4.88,6.88,7.32,14.72,7.32,23.53h0Z"/>
    <path class="cls-1" d="M1146.36,627.26h5.29v-28.91c0-7.76.2-13.84.62-18.25.41-4.41,1.56-8.2,3.44-11.37,1.88-3.29,4.58-5.96,8.11-8.02,3.53-2.06,7.46-3.09,11.81-3.09,6.11,0,11.63,2.29,16.57,6.88,3.29,3.06,5.38,6.79,6.26,11.19.88,4.41,1.32,10.67,1.32,18.77v32.79h17.63c6.82,0,12.01,1.62,15.6,4.85,3.58,3.23,5.38,7.38,5.38,12.43,0,6.47-2.56,10.99-7.67,13.57-5.11,2.59-12.43,3.88-21.95,3.88h-8.99v88.5c0,7.52.26,13.31.79,17.36.53,4.05,1.94,7.35,4.23,9.87,2.29,2.53,6.02,3.79,11.19,3.79,2.82,0,6.64-.5,11.46-1.5,4.82-1,8.58-1.5,11.28-1.5,3.88,0,7.38,1.56,10.49,4.67,3.11,3.12,4.67,6.96,4.67,11.55,0,7.76-4.23,13.69-12.69,17.8s-20.63,6.17-36.49,6.17-26.44-2.53-34.2-7.58c-7.76-5.05-12.84-12.05-15.25-20.98-2.41-8.93-3.61-20.86-3.61-35.79v-92.38h-6.35c-6.94,0-12.22-1.64-15.86-4.94-3.65-3.29-5.47-7.46-5.47-12.52s1.91-9.19,5.73-12.43c3.82-3.23,9.37-4.85,16.66-4.85v.04Z"/>
    <path class="cls-1" d="M1405.86,732.68h-94.14c.12,10.93,2.32,20.57,6.61,28.91,4.29,8.34,9.99,14.63,17.1,18.86,7.11,4.23,14.96,6.35,23.54,6.35,5.76,0,11.02-.68,15.78-2.03,4.76-1.35,9.37-3.47,13.84-6.35,4.47-2.88,8.58-5.96,12.34-9.26,3.76-3.29,8.64-7.76,14.63-13.4,2.47-2.11,5.99-3.17,10.58-3.17,4.94,0,8.93,1.35,11.99,4.05,3.05,2.7,4.58,6.52,4.58,11.46,0,4.35-1.7,9.43-5.11,15.25-3.41,5.82-8.55,11.4-15.43,16.75-6.88,5.35-15.51,9.78-25.91,13.31-10.4,3.53-22.36,5.29-35.88,5.29-30.91,0-54.94-8.82-72.1-26.44-17.16-17.63-25.74-41.54-25.74-71.75,0-14.22,2.12-27.41,6.35-39.58,4.23-12.17,10.4-22.59,18.51-31.29,8.11-8.7,18.1-15.36,29.97-20.01,11.87-4.64,25.03-6.96,39.49-6.96,18.8,0,34.93,3.97,48.39,11.9,13.46,7.93,23.53,18.19,30.23,30.76,6.7,12.58,10.05,25.38,10.05,38.43,0,12.11-3.47,19.95-10.4,23.54-6.94,3.59-16.69,5.38-29.27,5.38h0ZM1311.72,705.35h87.26c-1.18-16.45-5.61-28.76-13.31-36.93-7.7-8.17-17.84-12.25-30.41-12.25s-21.83,4.14-29.53,12.43c-7.7,8.28-12.37,20.54-14.01,36.76h0Z"/>
    <path class="cls-1" d="M1533.84,749.25v40.19c0,9.76-2.29,17.07-6.88,21.95-4.58,4.88-10.4,7.32-17.45,7.32s-12.64-2.47-17.1-7.4c-4.47-4.94-6.7-12.22-6.7-21.86v-133.98c0-21.62,7.82-32.44,23.45-32.44,7.99,0,13.75,2.53,17.28,7.58,3.53,5.05,5.47,12.52,5.82,22.39,5.76-9.87,11.66-17.33,17.72-22.39,6.05-5.05,14.13-7.58,24.24-7.58s19.92,2.53,29.44,7.58c9.52,5.05,14.28,11.75,14.28,20.1,0,5.88-2.03,10.73-6.08,14.54-4.05,3.82-8.44,5.73-13.13,5.73-1.76,0-6.02-1.09-12.78-3.26-6.76-2.17-12.72-3.26-17.89-3.26-7.05,0-12.81,1.85-17.28,5.55-4.47,3.7-7.93,9.2-10.4,16.48-2.47,7.29-4.17,15.95-5.11,26s-1.41,22.3-1.41,36.76h-.02Z"/>
  </g>
  <path class="cls-1" d="M1212.69,501.51c-21.17,0-38.39-17.22-38.39-38.39s17.22-38.39,38.39-38.39,38.39,17.22,38.39,38.39-17.22,38.39-38.39,38.39Z"/>
  <g>
    <path class="cls-1" d="M1559.83,472.01c-2.31.06-3.39,2.52-3.26,7.38.08,2.79.43,4.82,1.07,6.09.64,1.27,1.62,1.89,2.94,1.85,2.35-.06,3.46-2.69,3.32-7.88-.14-5.03-1.49-7.52-4.07-7.45h0Z"/>
    <path class="cls-1" d="M988.75,193.23c82.49-18.01,157.21-20.87,222.59-7.41l11.69-3.79c2-.65,4.16.45,4.81,2.45l.08.25c.56,1.73-.18,3.56-1.68,4.45,9.98,2.49,19.72,5.4,29.24,8.7,7.58,2.41,14.99,5.05,22.2,7.94l12.5-4.05c2-.65,4.16.45,4.81,2.45l.08.25c.65,2-.45,4.16-2.45,4.81l-3.83,1.24c17.69,7.92,34.22,17.36,49.62,28.33l16.95-5.49c2-.65,4.16.45,4.81,2.45l.08.25c.65,2-.45,4.16-2.45,4.81l-11.57,3.75c17.23,13.2,32.97,28.4,47.23,45.6l23.14-7.49c2.01-.65,4.16.45,4.81,2.45l.08.25c.65,2-.45,4.16-2.45,4.81l-20.25,6.56c13.35,17.02,25.34,35.9,36,56.6l29.21-9.46c2.01-.65,4.16.45,4.81,2.45l.08.25c.65,2-.45,4.16-2.45,4.81l-28.06,9.09c8.58,17.5,16.23,36.27,23,56.28,1.67,4.6,3.31,9.26,4.89,14,.23-.11.45-.23.7-.28l35.23-8.09c2.05-.47,4.1.81,4.57,2.86l.06.26c.47,2.05-.81,4.1-2.87,4.57l-35.23,8.09h-.07c6.42,20.18,12.04,41.56,16.8,64.21l135.66-2.17c-91.09-347.21-344.82-384.74-632.35-307.09l-.02.05ZM1530.77,495.71l-.49-17.91c-.08-2.93-1.06-4.36-2.95-4.31-1.94.05-2.86,1.52-2.79,4.4l.49,17.97-9.6.26-.5-18.43c-.03-1.12-.31-2.04-.85-2.75-.54-.71-1.21-1.06-2.03-1.03-.86.02-1.53.39-2.03,1.11-.5.72-.73,1.68-.7,2.89l.5,18.37-9.56.26-.83-30.34,9.56-.26.1,3.73c2.64-3.26,5.36-4.93,8.18-5.01,3.38-.09,5.62,1.6,6.71,5.06,1.49-1.87,2.89-3.23,4.2-4.11,1.31-.87,2.85-1.33,4.63-1.38,4.46-.12,6.78,2.94,6.95,9.18l.6,22.03-9.59.26h0ZM1571.13,491.21c-1.65,2.99-3.84,4.53-6.59,4.6-2.86.08-5.35-1.5-7.49-4.75h-.17l.11,3.93-9.56.26-1.26-46.46,9.56-.26.54,19.78h.16c1.12-1.64,2.19-2.85,3.19-3.62,1-.78,2.31-1.19,3.91-1.23,2.68-.07,4.96,1.27,6.84,4.02,1.88,2.75,2.89,6.75,3.03,11.98.13,4.84-.63,8.75-2.27,11.74h0ZM1596.29,491.91c-2.01,2.03-4.62,3.1-7.83,3.18-3.47.09-7.22-1.03-11.25-3.36l3.11-7.18c3.33,1.85,5.72,2.75,7.17,2.71.79-.02,1.45-.24,1.96-.66.52-.42.77-.92.75-1.49-.02-.62-.25-1.06-.7-1.33s-2.12-1-5.01-2.17c-2.31-.95-3.99-2.1-5.04-3.44-1.05-1.35-1.6-3.04-1.66-5.09-.08-2.92.86-5.36,2.82-7.3s4.5-2.96,7.62-3.04c3.03-.08,6.78,1.03,11.24,3.32l-3.51,6.93c-2.91-1.68-5.27-2.5-7.09-2.45-1.58.04-2.36.7-2.32,1.98.02.62.32,1.14.92,1.58.59.43,1.67.91,3.22,1.41,2.91.93,5.04,2.09,6.38,3.46,1.35,1.37,2.05,3.14,2.11,5.29.08,3.08-.88,5.64-2.89,7.67v-.02Z"/>
  </g>
  <g>
    <polygon class="cls-1" points="239.14 285.07 147.05 0 0 0 166.39 515.06 239.14 285.07"/>
    <polygon class="cls-1" points="604.3 552.05 531.55 782.04 623.5 1066.61 770.55 1066.61 604.3 552.05"/>
    <polygon class="cls-1" points="445.19 514.74 517.95 284.75 463.48 116.17 390.72 346.16 445.19 514.74"/>
    <polygon class="cls-1" points="596.3 530.84 764.19 .1 622.71 .1 454.84 530.84 596.3 530.84"/>
    <polygon class="cls-1" points="451.08 542.7 320.72 954.81 462.17 954.81 592.54 542.7 451.08 542.7"/>
    <polygon class="cls-1" points="325.5 552.35 252.77 782.34 307.21 950.92 379.97 720.93 325.5 552.35"/>
    <path class="cls-1" d="M313.23,544.66h-141.47L6.37,1067.5h141.46l91.32-288.69-.42-1.29c.38-.28.73-.57,1.11-.87l73.39-232.01v.02Z"/>
    <polygon class="cls-1" points="449.84 112.79 308.36 112.79 175.5 532.79 316.98 532.79 449.84 112.79"/>
  </g>
  <path class="cls-1" d="M1416.18,444.25c-56.52-1.48-113.04-2.96-169.55-4.44,2.07,3.27,5.26,9.24,6.43,17.39,1.33,9.33-.67,16.81-1.97,20.59,55.03-11.18,110.06-22.36,165.1-33.54h-.01Z"/>
</svg>