<?xml version="1.0" encoding="UTF-8"?>
<svg id="Capa_1" data-name="Capa 1" xmlns="http://www.w3.org/2000/svg" xmlns:xlink="http://www.w3.org/1999/xlink" viewBox="0 0 471.66 511.06">
  <defs>
    <style>
      .cls-1 {
        clip-path: url(#clippath-6);
      }

      .cls-2 {
        clip-path: url(#clippath-7);
      }

      .cls-3 {
        clip-path: url(#clippath-15);
      }

      .cls-4 {
        clip-path: url(#clippath-4);
      }

      .cls-5 {
        clip-path: url(#clippath-9);
      }

      .cls-6 {
        clip-path: url(#clippath-10);
      }

      .cls-7 {
        fill: #fff;
      }

      .cls-8 {
        fill: #e9e9e9;
      }

      .cls-9 {
        clip-path: url(#clippath-11);
      }

      .cls-10 {
        fill: none;
      }

      .cls-11 {
        clip-path: url(#clippath-1);
      }

      .cls-12 {
        fill: #8d8e8e;
      }

      .cls-13 {
        isolation: isolate;
      }

      .cls-14 {
        clip-path: url(#clippath-5);
      }

      .cls-15 {
        clip-path: url(#clippath-8);
      }

      .cls-16 {
        clip-path: url(#clippath-3);
      }

      .cls-17 {
        clip-path: url(#clippath-12);
      }

      .cls-18 {
        clip-path: url(#clippath-14);
      }

      .cls-19 {
        fill: #edf3fc;
      }

      .cls-20 {
        fill: #bfc7d4;
      }

      .cls-21 {
        clip-path: url(#clippath-2);
      }

      .cls-22 {
        clip-path: url(#clippath-13);
      }

      .cls-23 {
        fill: #d1d9e8;
      }

      .cls-24 {
        clip-path: url(#clippath);
      }
    </style>
    <clipPath id="clippath">
      <path class="cls-10" d="M120.46,181.25l-.02,6.22c0,.38-.25.75-.74,1.03-.99.57-2.6.58-3.6,0-.5-.29-.75-.67-.75-1.05l.02-6.22c0,.38.25.76.75,1.05,1,.58,2.61.57,3.6,0,.49-.29.74-.66.74-1.03Z"/>
    </clipPath>
    <clipPath id="clippath-1">
      <path class="cls-10" d="M119.71,245.4l-.02,6.22c0,.38-.25.75-.74,1.03-.99.57-2.6.58-3.6,0-.5-.29-.75-.67-.75-1.05l.02-6.22c0,.38.25.76.75,1.05,1,.58,2.61.57,3.6,0,.49-.28.74-.66.74-1.03Z"/>
    </clipPath>
    <clipPath id="clippath-2">
      <path class="cls-10" d="M203.42,328.25l-.02,6.22c0,.38-.25.75-.74,1.03-.99.58-2.6.58-3.6,0-.5-.29-.75-.67-.75-1.05l.02-6.22c0,.38.25.76.75,1.05,1,.58,2.61.57,3.6,0,.49-.29.74-.66.74-1.03Z"/>
    </clipPath>
    <clipPath id="clippath-3">
      <path class="cls-10" d="M231.36,310.9l-.02,6.22c0,.38-.25.75-.74,1.03-.99.57-2.6.58-3.6,0-.5-.29-.75-.67-.75-1.05l.02-6.22c0,.38.25.76.75,1.05,1,.58,2.61.57,3.6,0,.49-.28.74-.66.74-1.03Z"/>
    </clipPath>
    <clipPath id="clippath-4">
      <path class="cls-10" d="M203.42,264.26l-.02,6.22c0,.38-.25.75-.74,1.03-.99.58-2.6.58-3.6,0-.5-.29-.75-.67-.75-1.05l.02-6.22c0,.38.25.76.75,1.05,1,.58,2.61.57,3.6,0,.49-.29.74-.66.74-1.03Z"/>
    </clipPath>
    <clipPath id="clippath-5">
      <path class="cls-10" d="M231.36,246.91l-.02,6.22c0,.38-.25.75-.74,1.03-.99.57-2.6.58-3.6,0-.5-.29-.75-.67-.75-1.05l.02-6.22c0,.38.25.76.75,1.05,1,.58,2.61.57,3.6,0,.49-.28.74-.66.74-1.03Z"/>
    </clipPath>
    <clipPath id="clippath-6">
      <path class="cls-10" d="M92.52,198.6l-.02,6.22c0,.38-.25.75-.74,1.03-.99.58-2.6.58-3.6,0-.5-.29-.75-.67-.75-1.05l.02-6.22c0,.38.25.76.75,1.05,1,.58,2.61.57,3.6,0,.49-.29.74-.66.74-1.03Z"/>
    </clipPath>
    <clipPath id="clippath-7">
      <path class="cls-10" d="M91.77,262.74l-.02,6.22c0,.38-.25.75-.74,1.03-.99.58-2.6.58-3.6,0-.5-.29-.75-.67-.75-1.05l.02-6.22c0,.38.25.76.75,1.05,1,.58,2.61.57,3.6,0,.49-.29.74-.66.74-1.03Z"/>
    </clipPath>
    <clipPath id="clippath-8">
      <path class="cls-10" d="M245.5,110.73l-.02,6.22c0,.38-.25.75-.74,1.03-.99.57-2.6.58-3.6,0-.5-.29-.75-.67-.75-1.05l.02-6.22c0,.38.25.76.75,1.05,1,.58,2.61.57,3.6,0,.49-.29.74-.66.74-1.03Z"/>
    </clipPath>
    <clipPath id="clippath-9">
      <path class="cls-10" d="M244.74,174.87l-.02,6.22c0,.38-.25.75-.74,1.03-.99.57-2.6.58-3.6,0-.5-.29-.75-.67-.75-1.05l.02-6.22c0,.38.25.76.75,1.05,1,.58,2.61.57,3.6,0,.49-.28.74-.66.74-1.03Z"/>
    </clipPath>
    <clipPath id="clippath-10">
      <path class="cls-10" d="M328.46,257.73l-.02,6.22c0,.38-.25.75-.74,1.03-.99.58-2.6.58-3.6,0-.5-.29-.75-.67-.75-1.05l.02-6.22c0,.38.25.76.75,1.05,1,.58,2.61.57,3.6,0,.49-.29.74-.66.74-1.03Z"/>
    </clipPath>
    <clipPath id="clippath-11">
      <path class="cls-10" d="M356.39,240.38l-.02,6.22c0,.38-.25.75-.74,1.03-.99.57-2.6.58-3.6,0-.5-.29-.75-.67-.75-1.05l.02-6.22c0,.38.25.76.75,1.05,1,.58,2.61.57,3.6,0,.49-.28.74-.66.74-1.03Z"/>
    </clipPath>
    <clipPath id="clippath-12">
      <path class="cls-10" d="M328.46,193.73l-.02,6.22c0,.38-.25.75-.74,1.03-.99.58-2.6.58-3.6,0-.5-.29-.75-.67-.75-1.05l.02-6.22c0,.38.25.76.75,1.05,1,.58,2.61.57,3.6,0,.49-.29.74-.66.74-1.03Z"/>
    </clipPath>
    <clipPath id="clippath-13">
      <path class="cls-10" d="M356.39,176.39l-.02,6.22c0,.38-.25.75-.74,1.03-.99.57-2.6.58-3.6,0-.5-.29-.75-.67-.75-1.05l.02-6.22c0,.38.25.76.75,1.05,1,.58,2.61.57,3.6,0,.49-.28.74-.66.74-1.03Z"/>
    </clipPath>
    <clipPath id="clippath-14">
      <path class="cls-10" d="M217.56,128.07l-.02,6.22c0,.38-.25.75-.74,1.03-.99.58-2.6.58-3.6,0-.5-.29-.75-.67-.75-1.05l.02-6.22c0,.38.25.76.75,1.05,1,.58,2.61.57,3.6,0,.49-.29.74-.66.74-1.03Z"/>
    </clipPath>
    <clipPath id="clippath-15">
      <path class="cls-10" d="M216.8,192.22l-.02,6.22c0,.38-.25.75-.74,1.03-.99.58-2.6.58-3.6,0-.5-.29-.75-.67-.75-1.05l.02-6.22c0,.38.25.76.75,1.05,1,.58,2.61.57,3.6,0,.49-.29.74-.66.74-1.03Z"/>
    </clipPath>
  </defs>
  <g>
    <g>
      <g>
        <polygon class="cls-19" points="196.26 331.54 198.41 332.79 228.11 315.53 225.96 314.28 196.26 331.54"/>
        <g>
          <polygon class="cls-20" points="229.98 314.8 229.97 318.44 116.37 252.54 116.38 248.89 229.98 314.8"/>
          <polygon class="cls-20" points="220.84 309.52 181.22 254.41 181.22 258.79 214.46 305.79 220.84 309.52"/>
          <polygon class="cls-20" points="152.36 237.59 152.3 241.55 124.49 253.6 120.93 251.53 152.36 237.59"/>
        </g>
        <polygon class="cls-19" points="196.59 267.43 198.74 268.68 228.44 251.42 226.29 250.18 196.59 267.43"/>
        <g>
          <polygon class="cls-20" points="230.31 250.69 230.3 254.33 116.7 188.43 116.71 184.79 230.31 250.69"/>
          <polygon class="cls-20" points="221.17 245.41 181.55 190.3 181.55 194.68 214.79 241.68 221.17 245.41"/>
          <polygon class="cls-20" points="152.69 173.49 152.63 177.44 124.82 189.49 121.26 187.42 152.69 173.49"/>
        </g>
        <g>
          <g class="cls-13">
            <polygon class="cls-20" points="181.23 289.98 198.73 420.47 195.65 422.25 178.15 291.77 181.23 289.98"/>
            <polygon class="cls-19" points="178.15 291.77 195.65 422.25 192.62 420.5 175.11 290.02 178.15 291.77"/>
            <polygon class="cls-12" points="181.23 289.98 178.15 291.77 175.11 290.02 178.19 288.23 181.23 289.98"/>
          </g>
          <g class="cls-13">
            <polygon class="cls-19" points="123.42 289.98 105.92 420.47 109 422.25 126.5 291.77 123.42 289.98"/>
            <polygon class="cls-20" points="126.5 291.77 109 422.25 112.04 420.5 129.54 290.02 126.5 291.77"/>
            <polygon class="cls-12" points="123.42 289.98 126.5 291.77 129.54 290.02 126.46 288.23 123.42 289.98"/>
          </g>
          <g class="cls-13">
            <polygon class="cls-20" points="155.34 305.02 154.97 440.68 151.9 442.47 152.26 306.81 155.34 305.02"/>
            <polygon class="cls-19" points="152.26 306.81 151.9 442.47 148.86 440.72 149.23 305.06 152.26 306.81"/>
            <polygon class="cls-12" points="155.34 305.02 152.26 306.81 149.23 305.06 152.31 303.27 155.34 305.02"/>
          </g>
        </g>
        <g>
          <g class="cls-13">
            <polygon class="cls-20" points="181.59 190.24 181.22 290.35 178.14 292.14 178.51 192.03 181.59 190.24"/>
            <polygon class="cls-19" points="178.51 192.03 178.14 292.14 175.11 290.39 175.48 190.27 178.51 192.03"/>
            <polygon class="cls-12" points="181.59 190.24 178.51 192.03 175.48 190.27 178.55 188.48 181.59 190.24"/>
          </g>
          <g class="cls-13">
            <polygon class="cls-20" points="129.88 190.37 129.51 290.48 126.43 292.27 126.8 192.16 129.88 190.37"/>
            <polygon class="cls-19" points="126.8 192.16 126.43 292.27 123.39 290.52 123.76 190.4 126.8 192.16"/>
            <polygon class="cls-12" points="129.88 190.37 126.8 192.16 123.76 190.4 126.84 188.61 129.88 190.37"/>
          </g>
          <g class="cls-13">
            <polygon class="cls-20" points="155.71 205.28 155.34 305.4 152.26 307.19 152.63 207.07 155.71 205.28"/>
            <polygon class="cls-19" points="152.63 207.07 152.26 307.19 149.22 305.43 149.59 205.31 152.63 207.07"/>
            <polygon class="cls-12" points="155.71 205.28 152.63 207.07 149.59 205.31 152.67 203.52 155.71 205.28"/>
          </g>
        </g>
        <g>
          <polygon class="cls-20" points="159.17 143.29 181.63 190.39 178.55 192.18 153.04 140.5 159.17 143.29"/>
          <polygon class="cls-19" points="156.09 145.07 178.55 192.18 175.51 190.42 153.06 143.32 156.09 145.07"/>
          <polygon class="cls-19" points="153.04 140.5 126.84 192.31 123.8 190.55 147 143.45 153.04 140.5"/>
          <polygon class="cls-20" points="153.11 143.42 129.91 190.52 126.84 192.31 150.03 145.21 153.11 143.42"/>
          <polygon class="cls-20" points="156.11 145.06 155.74 205.43 152.67 207.22 153.04 140.5 156.11 145.06"/>
          <polygon class="cls-19" points="153.04 140.5 152.67 207.22 149.63 205.46 150 145.09 153.04 140.5"/>
        </g>
        <g>
          <g>
            <polygon class="cls-19" points="151.48 206.38 151.48 210.03 123.8 194.05 123.81 190.4 151.48 206.38"/>
            <polygon class="cls-19" points="151.48 238.56 151.47 242.21 123.8 226.21 123.81 222.56 151.48 238.56"/>
            <polygon class="cls-19" points="151.33 270.58 151.33 274.23 123.8 258.36 123.81 254.72 151.33 270.58"/>
            <polygon class="cls-19" points="151.33 302.8 151.32 306.45 123.8 290.52 123.81 286.87 151.33 302.8"/>
          </g>
          <rect class="cls-19" x="137.21" y="192.84" width="1.98" height="47.56" transform="translate(-87.06 93) rotate(-28.71)"/>
          <rect class="cls-19" x="124.38" y="215.64" width="27.55" height="1.99" transform="translate(-96.84 112.74) rotate(-33.62)"/>
          <rect class="cls-19" x="137.21" y="224.93" width="1.98" height="47.56" transform="translate(-102.47 96.94) rotate(-28.71)"/>
          <rect class="cls-19" x="124.41" y="247.66" width="27.56" height="1.99" transform="translate(-114.53 118.04) rotate(-33.61)"/>
          <rect class="cls-19" x="137.21" y="256.99" width="1.98" height="47.56" transform="translate(-117.87 100.88) rotate(-28.71)"/>
          <rect class="cls-19" x="123.81" y="279.88" width="28.2" height="1.99" transform="translate(-132.4 123.27) rotate(-33.61)"/>
        </g>
        <g>
          <g>
            <polygon class="cls-20" points="153.39 206.38 153.4 210.03 181.07 194.05 181.06 190.4 153.39 206.38"/>
            <polygon class="cls-20" points="153.39 238.56 153.4 242.21 181.07 226.21 181.06 222.56 153.39 238.56"/>
            <polygon class="cls-20" points="153.54 270.58 153.55 274.23 181.07 258.36 181.06 254.72 153.54 270.58"/>
            <polygon class="cls-20" points="153.54 302.8 153.55 306.45 181.07 290.52 181.06 286.87 153.54 302.8"/>
          </g>
          <rect class="cls-20" x="142.9" y="215.65" width="47.56" height="1.98" transform="translate(-103.4 258.78) rotate(-61.29)"/>
          <rect class="cls-20" x="165.71" y="202.78" width="1.99" height="27.55" transform="translate(-105.92 235.6) rotate(-56.41)"/>
          <rect class="cls-20" x="142.9" y="247.74" width="47.56" height="1.99" transform="translate(-131.54 275.46) rotate(-61.29)"/>
          <rect class="cls-20" x="165.7" y="234.86" width="1.99" height="27.55" transform="translate(-132.65 250.03) rotate(-56.43)"/>
          <rect class="cls-23" x="142.88" y="279.77" width="47.56" height="1.99" transform="translate(-159.64 292.09) rotate(-61.29)"/>
          <rect class="cls-23" x="165.99" y="266.8" width="1.99" height="28.2" transform="translate(-159.37 264.18) rotate(-56.34)"/>
        </g>
        <polygon class="cls-19" points="110.02 409.91 109.6 407.97 148.57 399.53 116.28 349.17 148.78 335.24 125.26 292.35 127 291.39 151.57 336.2 119.22 350.08 151.79 400.87 110.02 409.91"/>
        <polygon class="cls-19" points="149.36 432.41 112.6 378.88 148.69 367.33 120.34 319.45 149.71 303.64 150.65 305.38 123.1 320.22 151.67 368.46 115.75 379.95 151 431.28 149.36 432.41"/>
        <polygon class="cls-20" points="194.4 409.91 194.82 407.97 155.84 399.53 188.13 349.17 155.63 335.24 179.15 292.35 177.41 291.39 152.84 336.2 185.19 350.08 152.63 400.87 194.4 409.91"/>
        <polygon class="cls-20" points="155.06 432.41 191.81 378.88 155.73 367.33 184.07 319.45 154.71 303.64 153.77 305.38 181.31 320.22 152.75 368.46 188.66 379.95 153.42 431.28 155.06 432.41"/>
        <polygon class="cls-20" points="169.52 251.56 171.66 252.81 199.74 236.48 197.59 235.23 169.52 251.56"/>
        <g>
          <polygon class="cls-19" points="201.43 267.6 201.42 271.25 87.82 205.35 87.83 201.7 201.43 267.6"/>
          <polygon class="cls-19" points="192.29 262.32 152.67 207.22 152.67 211.6 185.91 258.6 192.29 262.32"/>
          <polygon class="cls-19" points="123.81 190.4 123.75 194.36 95.94 206.41 92.38 204.34 123.81 190.4"/>
        </g>
        <polygon class="cls-19" points="169.18 315.67 171.33 316.92 199.41 300.58 197.26 299.34 169.18 315.67"/>
        <g>
          <polygon class="cls-19" points="201.1 331.71 201.08 335.36 87.49 269.46 87.5 265.81 201.1 331.71"/>
          <polygon class="cls-19" points="191.96 326.43 152.33 271.32 152.33 275.71 185.58 322.71 191.96 326.43"/>
          <polygon class="cls-19" points="123.48 254.51 123.41 258.46 95.61 270.51 92.04 268.45 123.48 254.51"/>
        </g>
      </g>
      <g class="cls-13">
        <g class="cls-13">
          <g class="cls-24">
            <g class="cls-13">
              <path class="cls-7" d="M120.46,181.25l-.02,6.22c0,.38-.25.75-.74,1.03-.99.57-2.6.58-3.6,0-.5-.29-.75-.67-.75-1.05l.02-6.22c0,.38.25.76.75,1.05,1,.58,2.61.57,3.6,0,.49-.29.74-.66.74-1.03h0Z"/>
            </g>
          </g>
        </g>
        <path class="cls-8" d="M119.71,180.2c1,.58,1,1.51.01,2.08-.99.58-2.6.58-3.6,0-1-.58-1-1.51,0-2.08.99-.57,2.59-.58,3.59,0Z"/>
      </g>
      <g class="cls-13">
        <g class="cls-13">
          <g class="cls-11">
            <g class="cls-13">
              <path class="cls-7" d="M119.71,245.4l-.02,6.22c0,.38-.25.75-.74,1.03-.99.57-2.6.58-3.6,0-.5-.29-.75-.67-.75-1.05l.02-6.22c0,.38.25.76.75,1.05,1,.58,2.61.57,3.6,0,.49-.28.74-.66.74-1.03h0Z"/>
            </g>
          </g>
        </g>
        <path class="cls-8" d="M118.95,244.35c1,.58,1,1.51.01,2.08-.99.58-2.6.58-3.6,0-1-.58-1-1.51,0-2.08.99-.57,2.59-.58,3.59,0Z"/>
      </g>
      <g class="cls-13">
        <g class="cls-13">
          <g class="cls-21">
            <g class="cls-13">
              <path class="cls-7" d="M203.42,328.25l-.02,6.22c0,.38-.25.75-.74,1.03-.99.58-2.6.58-3.6,0-.5-.29-.75-.67-.75-1.05l.02-6.22c0,.38.25.76.75,1.05,1,.58,2.61.57,3.6,0,.49-.29.74-.66.74-1.03h0Z"/>
            </g>
          </g>
        </g>
        <path class="cls-8" d="M202.67,327.2c1,.58,1,1.51.01,2.08-.99.58-2.6.58-3.6,0-1-.58-1-1.51,0-2.09.99-.57,2.59-.58,3.59,0Z"/>
      </g>
      <g class="cls-13">
        <g class="cls-13">
          <g class="cls-16">
            <g class="cls-13">
              <path class="cls-7" d="M231.36,310.9l-.02,6.22c0,.38-.25.75-.74,1.03-.99.57-2.6.58-3.6,0-.5-.29-.75-.67-.75-1.05l.02-6.22c0,.38.25.76.75,1.05,1,.58,2.61.57,3.6,0,.49-.28.74-.66.74-1.03h0Z"/>
            </g>
          </g>
        </g>
        <path class="cls-8" d="M230.61,309.86c1,.58,1,1.51.01,2.08-.99.58-2.6.58-3.6,0-1-.58-1-1.51,0-2.08.99-.57,2.59-.58,3.59,0Z"/>
      </g>
      <g class="cls-13">
        <g class="cls-13">
          <g class="cls-4">
            <g class="cls-13">
              <path class="cls-7" d="M203.42,264.26l-.02,6.22c0,.38-.25.75-.74,1.03-.99.58-2.6.58-3.6,0-.5-.29-.75-.67-.75-1.05l.02-6.22c0,.38.25.76.75,1.05,1,.58,2.61.57,3.6,0,.49-.29.74-.66.74-1.03h0Z"/>
            </g>
          </g>
        </g>
        <path class="cls-8" d="M202.67,263.21c1,.58,1,1.51.01,2.08-.99.58-2.6.58-3.6,0-1-.58-1-1.51,0-2.09.99-.57,2.59-.58,3.59,0Z"/>
      </g>
      <g class="cls-13">
        <g class="cls-13">
          <g class="cls-14">
            <g class="cls-13">
              <path class="cls-7" d="M231.36,246.91l-.02,6.22c0,.38-.25.75-.74,1.03-.99.57-2.6.58-3.6,0-.5-.29-.75-.67-.75-1.05l.02-6.22c0,.38.25.76.75,1.05,1,.58,2.61.57,3.6,0,.49-.28.74-.66.74-1.03h0Z"/>
            </g>
          </g>
        </g>
        <path class="cls-8" d="M230.61,245.86c1,.58,1,1.51.01,2.08-.99.58-2.6.58-3.6,0-1-.58-1-1.51,0-2.08.99-.57,2.59-.58,3.59,0Z"/>
      </g>
    </g>
    <g class="cls-13">
      <g class="cls-13">
        <g class="cls-1">
          <g class="cls-13">
            <path class="cls-7" d="M92.52,198.6l-.02,6.22c0,.38-.25.75-.74,1.03-.99.58-2.6.58-3.6,0-.5-.29-.75-.67-.75-1.05l.02-6.22c0,.38.25.76.75,1.05,1,.58,2.61.57,3.6,0,.49-.29.74-.66.74-1.03h0Z"/>
          </g>
        </g>
      </g>
      <path class="cls-8" d="M91.77,197.55c1,.58,1,1.51.01,2.08-.99.58-2.6.58-3.6,0-1-.58-1-1.51,0-2.09.99-.57,2.59-.58,3.59,0Z"/>
    </g>
    <g class="cls-13">
      <g class="cls-13">
        <g class="cls-2">
          <g class="cls-13">
            <path class="cls-7" d="M91.77,262.74l-.02,6.22c0,.38-.25.75-.74,1.03-.99.58-2.6.58-3.6,0-.5-.29-.75-.67-.75-1.05l.02-6.22c0,.38.25.76.75,1.05,1,.58,2.61.57,3.6,0,.49-.29.74-.66.74-1.03h0Z"/>
          </g>
        </g>
      </g>
      <path class="cls-8" d="M91.02,261.7c1,.58,1,1.51.01,2.08-.99.58-2.6.58-3.6,0-1-.58-1-1.51,0-2.09.99-.57,2.59-.58,3.59,0Z"/>
    </g>
  </g>
  <g>
    <g>
      <g>
        <polygon class="cls-19" points="321.3 261.02 323.44 262.26 353.14 245.01 351 243.76 321.3 261.02"/>
        <g>
          <polygon class="cls-20" points="355.02 244.27 355.01 247.92 241.41 182.02 241.42 178.37 355.02 244.27"/>
          <polygon class="cls-20" points="345.88 238.99 306.25 183.89 306.25 188.27 339.5 235.27 345.88 238.99"/>
          <polygon class="cls-20" points="277.4 167.07 277.33 171.02 249.53 183.07 245.96 181.01 277.4 167.07"/>
        </g>
        <polygon class="cls-19" points="321.63 196.91 323.78 198.16 353.47 180.9 351.33 179.65 321.63 196.91"/>
        <g>
          <polygon class="cls-20" points="355.35 180.16 355.34 183.81 241.74 117.91 241.75 114.26 355.35 180.16"/>
          <polygon class="cls-20" points="346.21 174.88 306.58 119.78 306.58 124.16 339.83 171.16 346.21 174.88"/>
          <polygon class="cls-20" points="277.73 102.96 277.67 106.91 249.86 118.97 246.3 116.9 277.73 102.96"/>
        </g>
        <g>
          <g class="cls-13">
            <polygon class="cls-20" points="306.27 219.46 323.77 349.94 320.69 351.73 303.19 221.25 306.27 219.46"/>
            <polygon class="cls-19" points="303.19 221.25 320.69 351.73 317.65 349.98 300.15 219.5 303.19 221.25"/>
            <polygon class="cls-12" points="306.27 219.46 303.19 221.25 300.15 219.5 303.23 217.7 306.27 219.46"/>
          </g>
          <g class="cls-13">
            <polygon class="cls-19" points="248.46 219.46 230.96 349.94 234.04 351.73 251.54 221.25 248.46 219.46"/>
            <polygon class="cls-20" points="251.54 221.25 234.04 351.73 237.07 349.98 254.58 219.5 251.54 221.25"/>
            <polygon class="cls-12" points="248.46 219.46 251.54 221.25 254.58 219.5 251.5 217.7 248.46 219.46"/>
          </g>
          <g class="cls-13">
            <polygon class="cls-20" points="280.38 234.5 280.01 370.16 276.93 371.95 277.3 236.29 280.38 234.5"/>
            <polygon class="cls-19" points="277.3 236.29 276.93 371.95 273.9 370.19 274.26 234.54 277.3 236.29"/>
            <polygon class="cls-12" points="280.38 234.5 277.3 236.29 274.26 234.54 277.34 232.75 280.38 234.5"/>
          </g>
        </g>
        <g>
          <g class="cls-13">
            <polygon class="cls-20" points="306.63 119.71 306.26 219.83 303.18 221.62 303.55 121.5 306.63 119.71"/>
            <polygon class="cls-19" points="303.55 121.5 303.18 221.62 300.14 219.87 300.51 119.75 303.55 121.5"/>
            <polygon class="cls-12" points="306.63 119.71 303.55 121.5 300.51 119.75 303.59 117.96 306.63 119.71"/>
          </g>
          <g class="cls-13">
            <polygon class="cls-20" points="254.92 119.84 254.55 219.96 251.47 221.75 251.84 121.63 254.92 119.84"/>
            <polygon class="cls-19" points="251.84 121.63 251.47 221.75 248.43 220 248.8 119.88 251.84 121.63"/>
            <polygon class="cls-12" points="254.92 119.84 251.84 121.63 248.8 119.88 251.88 118.09 254.92 119.84"/>
          </g>
          <g class="cls-13">
            <polygon class="cls-20" points="280.74 134.76 280.37 234.87 277.3 236.66 277.67 136.54 280.74 134.76"/>
            <polygon class="cls-19" points="277.67 136.54 277.3 236.66 274.26 234.91 274.63 134.79 277.67 136.54"/>
            <polygon class="cls-12" points="280.74 134.76 277.67 136.54 274.63 134.79 277.71 133 280.74 134.76"/>
          </g>
        </g>
        <g>
          <polygon class="cls-20" points="284.21 72.76 306.67 119.86 303.59 121.65 278.07 69.98 284.21 72.76"/>
          <polygon class="cls-19" points="281.13 74.55 303.59 121.65 300.55 119.9 278.09 72.8 281.13 74.55"/>
          <polygon class="cls-19" points="278.07 69.98 251.87 121.78 248.84 120.03 272.03 72.93 278.07 69.98"/>
          <polygon class="cls-20" points="278.15 72.89 254.95 119.99 251.87 121.78 275.07 74.68 278.15 72.89"/>
          <polygon class="cls-20" points="281.15 74.53 280.78 134.9 277.7 136.69 278.07 69.98 281.15 74.53"/>
          <polygon class="cls-19" points="278.07 69.98 277.7 136.69 274.67 134.94 275.03 74.57 278.07 69.98"/>
        </g>
        <g>
          <g>
            <polygon class="cls-19" points="276.52 135.86 276.51 139.51 248.84 123.52 248.85 119.88 276.52 135.86"/>
            <polygon class="cls-19" points="276.52 168.04 276.51 171.68 248.84 155.68 248.85 152.03 276.52 168.04"/>
            <polygon class="cls-19" points="276.37 200.06 276.36 203.71 248.84 187.84 248.85 184.19 276.37 200.06"/>
            <polygon class="cls-19" points="276.37 232.28 276.36 235.93 248.84 220 248.85 216.35 276.37 232.28"/>
          </g>
          <rect class="cls-19" x="262.24" y="122.31" width="1.98" height="47.56" transform="translate(-37.82 144.39) rotate(-28.71)"/>
          <rect class="cls-19" x="249.42" y="145.11" width="27.55" height="1.99" transform="translate(-36.87 170.17) rotate(-33.62)"/>
          <rect class="cls-19" x="262.25" y="154.4" width="1.98" height="47.56" transform="translate(-53.23 148.33) rotate(-28.71)"/>
          <rect class="cls-19" x="249.44" y="177.14" width="27.56" height="1.99" transform="translate(-54.6 175.46) rotate(-33.61)"/>
          <rect class="cls-19" x="262.25" y="186.46" width="1.98" height="47.56" transform="translate(-68.63 152.27) rotate(-28.71)"/>
          <rect class="cls-19" x="248.85" y="209.35" width="28.2" height="1.99" transform="translate(-72.47 180.69) rotate(-33.61)"/>
        </g>
        <g>
          <g>
            <polygon class="cls-20" points="278.43 135.86 278.43 139.51 306.11 123.52 306.1 119.88 278.43 135.86"/>
            <polygon class="cls-20" points="278.43 168.04 278.44 171.68 306.11 155.68 306.1 152.03 278.43 168.04"/>
            <polygon class="cls-20" points="278.57 200.06 278.59 203.71 306.11 187.84 306.1 184.19 278.57 200.06"/>
            <polygon class="cls-20" points="278.58 232.28 278.59 235.93 306.11 220 306.1 216.35 278.58 232.28"/>
          </g>
          <rect class="cls-20" x="267.93" y="145.13" width="47.56" height="1.98" transform="translate(23.44 331.8) rotate(-61.29)"/>
          <rect class="cls-20" x="290.75" y="132.26" width="1.99" height="27.55" transform="translate(8.68 308.25) rotate(-56.41)"/>
          <rect class="cls-20" x="267.93" y="177.22" width="47.56" height="1.99" transform="translate(-4.71 348.48) rotate(-61.29)"/>
          <rect class="cls-20" x="290.74" y="164.33" width="1.99" height="27.55" transform="translate(-17.99 322.68) rotate(-56.43)"/>
          <rect class="cls-23" x="267.92" y="209.25" width="47.56" height="1.99" transform="translate(-32.81 365.11) rotate(-61.29)"/>
          <rect class="cls-23" x="291.03" y="196.28" width="1.99" height="28.2" transform="translate(-44.95 336.82) rotate(-56.34)"/>
        </g>
        <polygon class="cls-19" points="235.06 339.39 234.63 337.45 273.61 329.01 241.32 278.65 273.82 264.72 250.3 221.83 252.04 220.87 276.61 265.68 244.26 279.55 276.82 330.35 235.06 339.39"/>
        <polygon class="cls-19" points="274.4 361.88 237.64 308.35 273.73 296.81 245.38 248.93 274.74 233.11 275.69 234.86 248.14 249.7 276.71 297.94 240.79 309.43 276.03 360.76 274.4 361.88"/>
        <polygon class="cls-20" points="319.44 339.39 319.86 337.45 280.88 329.01 313.17 278.65 280.67 264.72 304.19 221.83 302.45 220.87 277.88 265.68 310.23 279.55 277.67 330.35 319.44 339.39"/>
        <polygon class="cls-20" points="280.09 361.88 316.85 308.35 280.76 296.81 309.11 248.93 279.75 233.11 278.8 234.86 306.35 249.7 277.79 297.94 313.7 309.43 278.45 360.76 280.09 361.88"/>
        <polygon class="cls-20" points="294.55 181.04 296.7 182.29 324.78 165.95 322.63 164.7 294.55 181.04"/>
        <g>
          <polygon class="cls-19" points="326.46 197.08 326.46 200.73 212.86 134.83 212.87 131.18 326.46 197.08"/>
          <polygon class="cls-19" points="317.33 191.8 277.7 136.69 277.7 141.08 310.95 188.08 317.33 191.8"/>
          <polygon class="cls-19" points="248.85 119.88 248.78 123.83 220.98 135.88 217.41 133.82 248.85 119.88"/>
        </g>
        <polygon class="cls-19" points="294.22 245.15 296.37 246.4 324.45 230.06 322.3 228.81 294.22 245.15"/>
        <g>
          <polygon class="cls-19" points="326.13 261.19 326.12 264.83 212.53 198.93 212.53 195.29 326.13 261.19"/>
          <polygon class="cls-19" points="317 255.91 277.37 200.8 277.37 205.18 310.61 252.18 317 255.91"/>
          <polygon class="cls-19" points="248.52 183.99 248.45 187.94 220.65 199.99 217.08 197.92 248.52 183.99"/>
        </g>
      </g>
      <g class="cls-13">
        <g class="cls-13">
          <g class="cls-15">
            <g class="cls-13">
              <path class="cls-7" d="M245.5,110.73l-.02,6.22c0,.38-.25.75-.74,1.03-.99.57-2.6.58-3.6,0-.5-.29-.75-.67-.75-1.05l.02-6.22c0,.38.25.76.75,1.05,1,.58,2.61.57,3.6,0,.49-.29.74-.66.74-1.03h0Z"/>
            </g>
          </g>
        </g>
        <path class="cls-8" d="M244.75,109.68c1,.58,1,1.51.01,2.08-.99.58-2.6.58-3.6,0-1-.58-1-1.51,0-2.08.99-.57,2.59-.58,3.59,0Z"/>
      </g>
      <g class="cls-13">
        <g class="cls-13">
          <g class="cls-5">
            <g class="cls-13">
              <path class="cls-7" d="M244.74,174.87l-.02,6.22c0,.38-.25.75-.74,1.03-.99.57-2.6.58-3.6,0-.5-.29-.75-.67-.75-1.05l.02-6.22c0,.38.25.76.75,1.05,1,.58,2.61.57,3.6,0,.49-.28.74-.66.74-1.03h0Z"/>
            </g>
          </g>
        </g>
        <path class="cls-8" d="M243.99,173.83c1,.58,1,1.51.01,2.08-.99.58-2.6.58-3.6,0-1-.58-1-1.51,0-2.08.99-.57,2.59-.58,3.59,0Z"/>
      </g>
      <g class="cls-13">
        <g class="cls-13">
          <g class="cls-6">
            <g class="cls-13">
              <path class="cls-7" d="M328.46,257.73l-.02,6.22c0,.38-.25.75-.74,1.03-.99.58-2.6.58-3.6,0-.5-.29-.75-.67-.75-1.05l.02-6.22c0,.38.25.76.75,1.05,1,.58,2.61.57,3.6,0,.49-.29.74-.66.74-1.03h0Z"/>
            </g>
          </g>
        </g>
        <path class="cls-8" d="M327.7,256.68c1,.58,1,1.51.01,2.08-.99.58-2.6.58-3.6,0-1-.58-1-1.51,0-2.09.99-.57,2.59-.58,3.59,0Z"/>
      </g>
      <g class="cls-13">
        <g class="cls-13">
          <g class="cls-9">
            <g class="cls-13">
              <path class="cls-7" d="M356.39,240.38l-.02,6.22c0,.38-.25.75-.74,1.03-.99.57-2.6.58-3.6,0-.5-.29-.75-.67-.75-1.05l.02-6.22c0,.38.25.76.75,1.05,1,.58,2.61.57,3.6,0,.49-.28.74-.66.74-1.03h0Z"/>
            </g>
          </g>
        </g>
        <path class="cls-8" d="M355.64,239.33c1,.58,1,1.51.01,2.08-.99.58-2.6.58-3.6,0-1-.58-1-1.51,0-2.08.99-.57,2.59-.58,3.59,0Z"/>
      </g>
      <g class="cls-13">
        <g class="cls-13">
          <g class="cls-17">
            <g class="cls-13">
              <path class="cls-7" d="M328.46,193.73l-.02,6.22c0,.38-.25.75-.74,1.03-.99.58-2.6.58-3.6,0-.5-.29-.75-.67-.75-1.05l.02-6.22c0,.38.25.76.75,1.05,1,.58,2.61.57,3.6,0,.49-.29.74-.66.74-1.03h0Z"/>
            </g>
          </g>
        </g>
        <path class="cls-8" d="M327.7,192.69c1,.58,1,1.51.01,2.08-.99.58-2.6.58-3.6,0-1-.58-1-1.51,0-2.09.99-.57,2.59-.58,3.59,0Z"/>
      </g>
      <g class="cls-13">
        <g class="cls-13">
          <g class="cls-22">
            <g class="cls-13">
              <path class="cls-7" d="M356.39,176.39l-.02,6.22c0,.38-.25.75-.74,1.03-.99.57-2.6.58-3.6,0-.5-.29-.75-.67-.75-1.05l.02-6.22c0,.38.25.76.75,1.05,1,.58,2.61.57,3.6,0,.49-.28.74-.66.74-1.03h0Z"/>
            </g>
          </g>
        </g>
        <path class="cls-8" d="M355.64,175.34c1,.58,1,1.51.01,2.08-.99.58-2.6.58-3.6,0-1-.58-1-1.51,0-2.08.99-.57,2.59-.58,3.59,0Z"/>
      </g>
    </g>
    <g class="cls-13">
      <g class="cls-13">
        <g class="cls-18">
          <g class="cls-13">
            <path class="cls-7" d="M217.56,128.07l-.02,6.22c0,.38-.25.75-.74,1.03-.99.58-2.6.58-3.6,0-.5-.29-.75-.67-.75-1.05l.02-6.22c0,.38.25.76.75,1.05,1,.58,2.61.57,3.6,0,.49-.29.74-.66.74-1.03h0Z"/>
          </g>
        </g>
      </g>
      <path class="cls-8" d="M216.81,127.03c1,.58,1,1.51.01,2.08-.99.58-2.6.58-3.6,0-1-.58-1-1.51,0-2.09.99-.57,2.59-.58,3.59,0Z"/>
    </g>
    <g class="cls-13">
      <g class="cls-13">
        <g class="cls-3">
          <g class="cls-13">
            <path class="cls-7" d="M216.8,192.22l-.02,6.22c0,.38-.25.75-.74,1.03-.99.58-2.6.58-3.6,0-.5-.29-.75-.67-.75-1.05l.02-6.22c0,.38.25.76.75,1.05,1,.58,2.61.57,3.6,0,.49-.29.74-.66.74-1.03h0Z"/>
          </g>
        </g>
      </g>
      <path class="cls-8" d="M216.05,191.17c1,.58,1,1.51.01,2.08-.99.58-2.6.58-3.6,0-1-.58-1-1.51,0-2.09.99-.57,2.59-.58,3.59,0Z"/>
    </g>
  </g>
</svg>