<?xml version="1.0" encoding="UTF-8"?>
<svg id="Capa_1" data-name="Capa 1" xmlns="http://www.w3.org/2000/svg" xmlns:xlink="http://www.w3.org/1999/xlink" viewBox="0 0 1056.71 239.29">
  <defs>
    <style>
      .cls-1 {
        fill: #fff;
      }

      .cls-2 {
        fill: url(#Degradado_sin_nombre_4);
      }

      .cls-3 {
        filter: url(#drop-shadow-99);
      }

      .cls-4 {
        filter: url(#drop-shadow-98);
      }

      .cls-5 {
        filter: url(#drop-shadow-100);
      }

      .cls-6 {
        fill: #2b317e;
      }
    </style>
    <filter id="drop-shadow-98" x="63.53" y="-5.65" width="484" height="250" filterUnits="userSpaceOnUse">
      <feOffset dx="0" dy="0"/>
      <feGaussianBlur result="blur" stdDeviation="5"/>
      <feFlood flood-color="#001468" flood-opacity=".75"/>
      <feComposite in2="blur" operator="in"/>
      <feComposite in="SourceGraphic"/>
    </filter>
    <filter id="drop-shadow-99" x="-12.43" y="70.71" width="152" height="142" filterUnits="userSpaceOnUse">
      <feOffset dx="0" dy="0"/>
      <feGaussianBlur result="blur-2" stdDeviation="5"/>
      <feFlood flood-color="#001468" flood-opacity=".75"/>
      <feComposite in2="blur-2" operator="in"/>
      <feComposite in="SourceGraphic"/>
    </filter>
    <linearGradient id="Degradado_sin_nombre_4" data-name="Degradado sin nombre 4" x1="72.82" y1="82.84" x2="54.08" y2="201.81" gradientUnits="userSpaceOnUse">
      <stop offset="0" stop-color="#00aefb"/>
      <stop offset="1" stop-color="#1b1464"/>
    </linearGradient>
    <filter id="drop-shadow-100" x="539.53" y="29.35" width="435" height="163" filterUnits="userSpaceOnUse">
      <feOffset dx="0" dy="0"/>
      <feGaussianBlur result="blur-3" stdDeviation="5"/>
      <feFlood flood-color="#001468" flood-opacity=".75"/>
      <feComposite in2="blur-3" operator="in"/>
      <feComposite in="SourceGraphic"/>
    </filter>
  </defs>
  <path class="cls-6" d="M997.5,226.24c-178.12,0-356.23,0-534.35,0,57.1-48.98,77.34-116.51,52.73-166.08-13.12-26.44-36.23-42.17-52.73-50.78h583.87c-16.51,72.29-33.02,144.57-49.52,216.86Z"/>
  <g>
    <g class="cls-4">
      <path class="cls-1" d="M80.6,224.89l32.97-151.27c-11.15,2.27-28.22,2.54-34.34,2.3l9.11-40.04c24.51-2.53,45.2-13.41,55.78-22.42h39.99l-45,211.44h-58.51Z"/>
      <path class="cls-1" d="M343.09,58.52h-82.02c-2.08,7.49-7.68,25.68-9.55,31.71,8.75-5.43,19.77-8.21,35.55-8.21,35.65,0,57.6,23.96,57.6,58.91,0,48.72-30.77,87.72-92.88,87.72-51.76,0-76.27-25.04-76.68-63.39h57.17c.51,11.84,5.49,22.97,21.04,22.97,19.36,0,29.56-20.54,29.56-40.51,0-14.34-6.08-24.53-21.61-24.53-13.12,0-20.84,6.81-26.68,17.31l-49.38-7.19c9.34-27.42,27.25-91.44,34.68-119.85h139.95l-16.76,45.07Z"/>
      <path class="cls-1" d="M532.47,84.34c0,54.68-23.68,144.62-105.72,144.62-49.67,0-71.8-30.68-71.8-74.69,0-55.79,26.89-144.89,106-144.89,48.02,0,71.51,30.5,71.51,74.96ZM416.74,143.36c-3.6,28.85-.41,44.19,13.71,44.19,27.53,0,37.48-60.2,40.86-94.41,3.49-28.6.76-42.48-13.92-42.48-24.77,0-36.82,47.59-40.65,92.69Z"/>
    </g>
    <g class="cls-3">
      <path class="cls-2" d="M117.95,156.63h-41.67l-8.19,40.95h-31.31l8.19-40.95H3.29l5.78-29.39h41.67l8.19-40.95h31.31l-8.19,40.95h41.67l-5.78,29.39Z"/>
    </g>
  </g>
  <g class="cls-5">
    <path class="cls-1" d="M567.26,74.29c0-17.47,12.99-29.75,31.38-29.75,9.51,0,17.32,3.55,20.94,9.94l-12.07,9.44c-2.13-3.69-5.4-5.82-9.94-5.82-7.88,0-13.42,6.25-13.42,15.12,0,5.82,4.05,9.73,10.22,9.73,3.91,0,7.67-1.63,11.08-5.75l9.87,9.44c-6.04,7.38-13.42,9.87-22.58,9.87-15.41,0-25.49-9.02-25.49-22.22Z"/>
    <path class="cls-1" d="M652.82,86.72h-18.96l-4.97,8.66h-17.68l31.67-49.7h16.47l11.79,49.7h-16.68l-1.63-8.66ZM650.48,74.65l-2.41-12.71-7.31,12.71h9.73Z"/>
    <path class="cls-1" d="M732.76,45.68l-9.94,49.7h-13.77l-14.27-23.15-4.62,23.15h-16.33l9.94-49.7h13.77l14.27,23.15,4.61-23.15h16.33Z"/>
    <path class="cls-1" d="M767.13,86.72h-18.96l-4.97,8.66h-17.68l31.67-49.7h16.47l11.79,49.7h-16.68l-1.63-8.66ZM764.79,74.65l-2.41-12.71-7.31,12.71h9.73Z"/>
    <path class="cls-1" d="M798.08,45.68h16.76l-7.31,36.71h22.44l-2.63,12.99h-39.19l9.94-49.7Z"/>
    <path class="cls-1" d="M855.81,58.32l-1.14,5.82h21.02l-2.41,12.07h-21.09l-1.28,6.53h24.92l-2.56,12.64h-41.32l9.94-49.7h40.4l-2.56,12.64h-23.93Z"/>
    <path class="cls-1" d="M877.96,91.47l6.46-12.35c5.54,3.19,11.22,4.62,16.76,4.62,4.33,0,6.6-1.14,6.6-2.91,0-5.25-23.64-2.2-23.64-17.61,0-11.29,9.44-18.67,25.13-18.67,7.38,0,13.99,1.49,18.6,4.26l-6.04,12.21c-3.98-2.48-8.8-3.69-13.63-3.69s-7.31,1.63-7.31,3.34c0,5.47,23.71,1.99,23.71,17.32,0,11.08-9.66,18.53-25.13,18.53-8.88,0-16.76-2.13-21.51-5.04Z"/>
    <path class="cls-1" d="M564.85,125.68h22.44c15.69,0,25.35,8.02,25.35,21.09,0,17.54-12.99,28.61-31.1,28.61h-26.62l9.94-49.7ZM582.1,162.31c8.88,0,13.63-6.39,13.63-14.56,0-5.75-3.62-9.02-10.37-9.02h-6.39l-4.69,23.57h7.81Z"/>
    <path class="cls-1" d="M623.5,125.68h16.76l-9.94,49.7h-16.76l9.94-49.7Z"/>
    <path class="cls-1" d="M676.53,149.18h14.55l-4.26,21.44c-5.25,3.76-12.28,5.89-20.16,5.89-15.41,0-25.49-9.02-25.49-22.22,0-17.47,12.99-29.75,31.95-29.75,10.44,0,17.89,3.34,22.58,9.73l-12,9.3c-3.2-4.12-6.67-5.47-11.36-5.47-8.73,0-14.27,6.25-14.27,15.12,0,5.82,4.05,9.73,10.93,9.73,1.63,0,3.27-.21,4.9-.71l2.63-13.06Z"/>
    <path class="cls-1" d="M702.94,125.68h16.76l-9.94,49.7h-16.76l9.94-49.7Z"/>
    <path class="cls-1" d="M735.96,138.67h-14.55l2.63-12.99h45.87l-2.63,12.99h-14.55l-7.31,36.71h-16.76l7.31-36.71Z"/>
    <path class="cls-1" d="M798.01,166.72h-18.96l-4.97,8.66h-17.68l31.67-49.7h16.47l11.79,49.7h-16.68l-1.63-8.66ZM795.67,154.65l-2.41-12.71-7.31,12.71h9.73Z"/>
    <path class="cls-1" d="M828.97,125.68h16.76l-7.31,36.71h22.44l-2.63,12.99h-39.19l9.94-49.7Z"/>
    <path class="cls-1" d="M886.69,138.32l-1.14,5.82h21.02l-2.41,12.07h-21.09l-1.28,6.53h24.92l-2.56,12.64h-41.32l9.94-49.7h40.4l-2.56,12.64h-23.93Z"/>
    <path class="cls-1" d="M908.84,171.47l6.46-12.35c5.54,3.2,11.22,4.62,16.76,4.62,4.33,0,6.6-1.14,6.6-2.91,0-5.25-23.64-2.2-23.64-17.61,0-11.29,9.44-18.67,25.13-18.67,7.38,0,13.99,1.49,18.6,4.26l-6.04,12.21c-3.98-2.49-8.8-3.69-13.63-3.69s-7.31,1.63-7.31,3.34c0,5.47,23.71,1.99,23.71,17.32,0,11.08-9.66,18.53-25.13,18.53-8.88,0-16.76-2.13-21.51-5.04Z"/>
  </g>
</svg>