<?xml version="1.0" encoding="UTF-8"?>
<svg id="Capa_1" data-name="Capa 1" xmlns="http://www.w3.org/2000/svg" xmlns:xlink="http://www.w3.org/1999/xlink" viewBox="0 0 471.66 511.06">
  <defs>
    <style>
      .cls-1 {
        opacity: .9;
      }

      .cls-1, .cls-2 {
        fill: #37474f;
      }

      .cls-3, .cls-4 {
        fill: #5dbdb0;
      }

      .cls-3, .cls-5, .cls-6 {
        opacity: .7;
      }

      .cls-7 {
        fill: #b1b1b1;
      }

      .cls-8 {
        fill: #fbfbfb;
      }

      .cls-9 {
        fill: #e0e0e0;
      }

      .cls-10 {
        fill: #455a64;
      }

      .cls-11 {
        opacity: .8;
      }

      .cls-12 {
        fill: #868686;
      }

      .cls-13 {
        opacity: .6;
      }

      .cls-13, .cls-14 {
        fill: #ececec;
      }

      .cls-5 {
        fill: #6f6f6e;
      }

      .cls-15 {
        filter: url(#drop-shadow-97);
      }

      .cls-16 {
        fill: url(#Degradado_sin_nombre_18);
      }

      .cls-17 {
        fill: #f5f5f5;
      }

      .cls-18 {
        fill: #263239;
      }
    </style>
    <filter id="drop-shadow-97" x="91.95" y="97.8" width="254" height="324" filterUnits="userSpaceOnUse">
      <feOffset dx="0" dy="0"/>
      <feGaussianBlur result="blur" stdDeviation="1.69"/>
      <feFlood flood-color="#1d1d1b" flood-opacity=".9"/>
      <feComposite in2="blur" operator="in"/>
      <feComposite in="SourceGraphic"/>
    </filter>
    <linearGradient id="Degradado_sin_nombre_18" data-name="Degradado sin nombre 18" x1="123.68" y1="252.86" x2="423.36" y2="114.87" gradientUnits="userSpaceOnUse">
      <stop offset=".02" stop-color="#009ee2"/>
      <stop offset=".09" stop-color="#068cd3"/>
      <stop offset=".26" stop-color="#146ab6"/>
      <stop offset=".44" stop-color="#1f509f"/>
      <stop offset=".61" stop-color="#263d8e"/>
      <stop offset=".8" stop-color="#2b3185"/>
      <stop offset=".99" stop-color="#2d2e82"/>
    </linearGradient>
  </defs>
  <g class="cls-15">
    <g id="PC">
      <g id="Monitor">
        <g>
          <path class="cls-4" d="M214.18,345.27l24.75-14.31c2.55-1.47,3.83-3.4,3.83-5.33,0-1.93.01-3.44.01-3.44l-29.78-16.87c-1.36-.79-2.46-2.7-2.46-4.27v-30.51l-43.22,24.98v30.51c0,1.57,1.1,3.48,2.46,4.27l25.95,14.98c5.1,2.95,13.37,2.95,18.48,0Z"/>
          <path class="cls-7" d="M214.18,345.27l24.75-14.31c2.55-1.47,3.83-3.4,3.83-5.33,0-1.93.01-3.44.01-3.44l-29.78-16.87c-1.36-.79-2.46-2.7-2.46-4.27v-30.51l-43.22,24.98v30.51c0,1.57,1.1,3.48,2.46,4.27l25.95,14.98c5.1,2.95,13.37,2.95,18.48,0Z"/>
          <path class="cls-4" d="M177.67,331.42v3.43l-7.92-4.57c-1.35-.78-2.46-2.69-2.46-4.27v-30.51l8.23-4.75c.17,2.09.36,4.25.53,6.36l-5.77,3.34v23.84c0,1.58,1.1,3.48,2.46,4.27l4.94,2.86Z"/>
          <path class="cls-7" d="M177.67,331.42v3.43l-7.92-4.57c-1.35-.78-2.46-2.69-2.46-4.27v-30.51l8.23-4.75c.17,2.09.36,4.25.53,6.36l-5.77,3.34v23.84c0,1.58,1.1,3.48,2.46,4.27l4.94,2.86Z"/>
          <path class="cls-14" d="M170.27,324.3c0,1.57,1.1,3.48,2.46,4.27l22.96,13.26c5.1,2.95,13.37,2.95,18.48,0l24.76-14.31c5.1-2.94,5.1-7.72,0-10.67l-22.97-13.26c-1.36-.79-2.46-2.7-2.46-4.27v-23.84s-43.23,24.98-43.23,24.98v23.84Z"/>
          <path class="cls-3" d="M220.98,306.49h0s-5.02-2.9-5.02-2.9c-1.36-.79-2.46-2.7-2.46-4.27v-23.84s-43.23,24.98-43.23,24.98v23.84c0,1.57,1.1,3.48,2.46,4.27l4.93,2.85,43.31-24.92Z"/>
          <path class="cls-14" d="M220.98,306.49h0s-5.02-2.9-5.02-2.9c-1.36-.79-2.46-2.7-2.46-4.27v-23.84s-43.23,24.98-43.23,24.98v23.84c0,1.57,1.1,3.48,2.46,4.27l4.93,2.85,43.31-24.92Z"/>
          <path class="cls-4" d="M242.76,322.19v3.44c0,1.93-1.28,3.85-3.83,5.33l-24.75,14.3c-2.45,1.42-5.62,2.13-8.82,2.19v-3.43c3.2-.04,6.37-.78,8.82-2.19l24.75-14.32c2.55-1.46,3.83-3.4,3.83-5.33Z"/>
          <path class="cls-7" d="M242.76,322.19v3.44c0,1.93-1.28,3.85-3.83,5.33l-24.75,14.3c-2.45,1.42-5.62,2.13-8.82,2.19v-3.43c3.2-.04,6.37-.78,8.82-2.19l24.75-14.32c2.55-1.46,3.83-3.4,3.83-5.33Z"/>
        </g>
        <path class="cls-7" d="M100.87,357.22c1.6.92,4.27.87,5.97-.11,21.25-12.27,145.92-84.24,167.16-96.51,1.7-.98,3.08-3.37,3.08-5.33V108.95c0-1.96-1.29-4.3-2.89-5.22-1.6-.92-4.27-.87-5.97.11l-167.16,96.51c-1.7.98-3.08,3.37-3.08,5.33v146.32c0,1.96,1.29,4.3,2.89,5.22Z"/>
        <path class="cls-4" d="M106.84,357.11l167.16-96.51c1.7-.98,3.08-3.37,3.08-5.33V108.95c0-1.96-1.38-2.76-3.08-1.78l-167.16,96.51c-1.7.98-3.08,3.37-3.08,5.33v146.32c0,1.96,1.38,2.76,3.08,1.78Z"/>
        <path class="cls-14" d="M106.84,357.11l167.16-96.51c1.7-.98,3.08-3.37,3.08-5.33V108.95c0-1.96-1.38-2.76-3.08-1.78l-167.16,96.51c-1.7.98-3.08,3.37-3.08,5.33v146.32c0,1.96,1.38,2.76,3.08,1.78Z"/>
        <path class="cls-4" d="M106.38,357.34c-1.71.75-4.07.73-5.52-.11-1.59-.92-2.89-3.26-2.89-5.23v-16.46l5.77,3.34v16.46c0,1.79,1.14,2.6,2.63,2.01Z"/>
        <path class="cls-5" d="M106.38,357.34c-1.71.75-4.07.73-5.52-.11-1.59-.92-2.89-3.26-2.89-5.23v-16.46l5.77,3.34v16.46c0,1.79,1.14,2.6,2.63,2.01Z"/>
        <path class="cls-7" d="M103.76,338.87v16.46c0,1.96,1.38,2.76,3.08,1.78l167.16-96.51c1.7-.98,3.08-3.37,3.08-5.33v-16.46l-173.32,100.07Z"/>
        <path class="cls-16" d="M109.53,326.73v-115.8c0-1.18.83-2.61,1.85-3.2l158.07-91.26c1.02-.59,1.85-.11,1.85,1.07v115.81c0,1.18-.82,2.61-1.84,3.2l-158.08,91.26c-1.02.59-1.85.11-1.85-1.07Z"/>
        <path class="cls-17" d="M190.42,295.51c-1.6.92-2.89,3.16-2.89,5s1.29,2.59,2.89,1.67c1.6-.92,2.89-3.16,2.89-5,0-1.84-1.29-2.59-2.89-1.67Z"/>
        <path class="cls-4" d="M104.66,205.97c-.55.97-.9,2.06-.91,3.04v129.87l-5.77-3.34v-129.85c0-.98.36-2.08.91-3.04l5.77,3.33Z"/>
        <path class="cls-5" d="M104.66,205.97c-.55.97-.9,2.06-.91,3.04v129.87l-5.77-3.34v-129.85c0-.98.36-2.08.91-3.04l5.77,3.33Z"/>
      </g>
    </g>
    <g id="Keyboard">
      <path id="Shadow" class="cls-9" d="M164.63,390.58l41.77,24.18c1.29.75,3.39.75,4.68,0l123.4-71.15c1.29-.75,1.29-1.96,0-2.7l-41.77-24.18c-1.29-.75-3.39-.75-4.68,0l-123.4,71.15c-1.29.75-1.29,1.96,0,2.7Z"/>
      <g id="Keyboard-2" data-name="Keyboard">
        <g>
          <path class="cls-4" d="M331.95,336.63c0-.49-.32-.98-.97-1.35l-39.24-22.65c-1.29-.75-3.39-.75-4.68,0l-119.73,69.24c-.65.37-.97.86-.97,1.35,0,.49,0,3.63,0,4.11,0,.49.32.98.97,1.35l39.22,22.65c1.29.74,3.39.74,4.68,0l119.75-69.13c.64-.37.97-.86.97-1.35,0-.49,0-3.74,0-4.23Z"/>
          <path class="cls-12" d="M331.95,336.63c0-.49-.32-.98-.97-1.35l-39.24-22.65c-1.29-.75-3.39-.75-4.68,0l-119.73,69.24c-.65.37-.97.86-.97,1.35,0,.49,0,3.63,0,4.11,0,.49.32.98.97,1.35l39.22,22.65c1.29.74,3.39.74,4.68,0l119.75-69.13c.64-.37.97-.86.97-1.35,0-.49,0-3.74,0-4.23Z"/>
          <path class="cls-4" d="M206.55,407.12l-39.22-22.55c-1.29-.74-1.3-1.95,0-2.7l119.73-69.24c1.29-.75,3.39-.75,4.68,0l39.24,22.65c1.29.75,1.29,1.96,0,2.7l-119.75,69.13c-1.29.75-3.39.75-4.68,0Z"/>
          <path class="cls-14" d="M206.55,407.12l-39.22-22.55c-1.29-.74-1.3-1.95,0-2.7l119.73-69.24c1.29-.75,3.39-.75,4.68,0l39.24,22.65c1.29.75,1.29,1.96,0,2.7l-119.75,69.13c-1.29.75-3.39.75-4.68,0Z"/>
          <path class="cls-4" d="M208.74,407.67v4.21c-.79-.02-1.59-.2-2.2-.54l-39.21-22.65c-.65-.38-.97-.86-.97-1.35v-4.13c0,.49.32.97.97,1.35l39.21,22.56c.61.34,1.41.53,2.2.55Z"/>
          <path class="cls-12" d="M208.74,407.67v4.21c-.79-.02-1.59-.2-2.2-.54l-39.21-22.65c-.65-.38-.97-.86-.97-1.35v-4.13c0,.49.32.97.97,1.35l39.21,22.56c.61.34,1.41.53,2.2.55Z"/>
        </g>
        <g>
          <path class="cls-2" d="M258.82,341.79l4.47,2.58c.11.06.24.07.29.07l4.12-2.29-4.81-2.7-4.07,2.35Z"/>
          <path class="cls-2" d="M264.2,338.69l4.49,2.59c.07.04.17.06.27.06h.17s3.95-2.29,3.95-2.29l-4.81-2.7-4.07,2.35Z"/>
          <path class="cls-2" d="M249.77,347.02l4.49,2.59c.07.04.17.06.26.06l6.67-3.77-4.81-2.7-6.61,3.82Z"/>
          <path class="cls-2" d="M244.39,350.13l4.48,2.59c.07.04.17.06.27.06l4.13-2.29-4.81-2.7-4.07,2.35Z"/>
          <path class="cls-2" d="M219.82,390.77l4.12-2.29-4.81-2.7-4.07,2.35,4.49,2.59c.07.04.17.06.26.06Z"/>
          <path class="cls-2" d="M239.01,353.23l4.46,2.58c.1.06.23.07.29.07l4.12-2.29-4.81-2.7-4.07,2.35Z"/>
          <path class="cls-2" d="M268.97,342.95l-4.07,2.35,4.48,2.59c.08.04.17.06.28.06l4.12-2.3-4.81-2.7Z"/>
          <path class="cls-2" d="M253.94,364.05l4.12-2.29-4.81-2.7-4.07,2.35,4.48,2.59c.07.04.17.06.27.06Z"/>
          <path class="cls-2" d="M275.04,344.84l4.12-2.29-4.81-2.7-4.06,2.35,4.49,2.59c.07.04.17.06.27.06Z"/>
          <path class="cls-2" d="M248.56,367.15l4.12-2.29-4.81-2.7-4.07,2.35,4.46,2.58c.1.06.23.07.29.07Z"/>
          <path class="cls-2" d="M243.18,370.26l4.12-2.29-4.81-2.7-4.07,2.35,4.49,2.59c.07.04.17.06.27.06Z"/>
          <path class="cls-2" d="M264.7,357.84l8.65-4.91-10.88-6.21-4.64,2.68,5.69,3.28c.07.04.16.12.16.24,0,.08-.05.16-.14.21l-3.59,2.07,4.46,2.57c.11.07.23.08.29.08Z"/>
          <path class="cls-2" d="M228.25,359.44l4.48,2.59c.07.04.17.06.27.06l4.13-2.29-4.81-2.7-4.07,2.35Z"/>
          <path class="cls-2" d="M259.32,360.94l4.13-2.29-4.81-2.7-4.07,2.35,4.46,2.57c.11.07.24.08.29.08Z"/>
          <path class="cls-2" d="M198.03,389.3l4.12-2.29-4.81-2.7-4.07,2.35,4.46,2.58c.11.07.24.07.29.07Z"/>
          <path class="cls-2" d="M185.22,384.29l4.5,2.6c.07.03.16.05.25.05h.17s3.96-2.29,3.96-2.29l-4.81-2.7-4.07,2.35Z"/>
          <path class="cls-2" d="M205.53,392h.17s3.95-2.29,3.95-2.29l-4.81-2.7-4.07,2.35,4.49,2.59c.07.04.17.06.26.06Z"/>
          <path class="cls-2" d="M209.06,396.98l4.12-2.29-4.81-2.7-4.07,2.35,4.46,2.58c.11.07.24.07.29.07Z"/>
          <path class="cls-2" d="M190.6,381.18l4.49,2.59c.07.04.17.06.26.06l4.12-2.29-4.81-2.7-4.07,2.35Z"/>
          <path class="cls-2" d="M214.44,393.87l4.12-2.3-4.81-2.7-4.07,2.35,4.48,2.59c.08.04.17.06.27.06Z"/>
          <path class="cls-2" d="M206.73,371.87l4.48,2.59c.07.04.17.06.27.06l4.12-2.29-4.81-2.7-4.07,2.35Z"/>
          <path class="cls-2" d="M212.11,368.76l4.47,2.58c.08.04.18.07.28.07l4.12-2.29-4.81-2.7-4.07,2.35Z"/>
          <path class="cls-2" d="M217.49,365.65l4.46,2.58c.1.06.23.07.29.07l4.12-2.29-4.81-2.7-4.07,2.35Z"/>
          <path class="cls-2" d="M201.35,374.97l4.46,2.58c.1.06.23.07.29.07l4.13-2.29-4.81-2.7-4.07,2.35Z"/>
          <path class="cls-2" d="M222.87,362.55l4.49,2.59s.13.06.27.06l4.12-2.29-4.81-2.7-4.06,2.35Z"/>
          <path class="cls-2" d="M195.98,378.08l4.48,2.59c.08.04.17.06.27.06l4.12-2.29-4.81-2.7-4.07,2.35Z"/>
          <path class="cls-2" d="M233.63,356.34l4.49,2.6c.07.03.17.05.26.05l4.13-2.29-4.81-2.7-4.07,2.35Z"/>
          <path class="cls-2" d="M247.07,355.6l4.47,2.58c.1.06.22.07.29.07h.17s3.95-2.29,3.95-2.29l-4.81-2.7-4.07,2.35Z"/>
          <path class="cls-2" d="M276.1,331.82l4.47,2.58c.11.06.23.07.28.07l4.12-2.29-4.81-2.7-4.07,2.35Z"/>
          <path class="cls-2" d="M281.47,328.72l4.47,2.58c.08.04.18.07.28.07l4.12-2.29-4.81-2.7-4.07,2.35Z"/>
          <path class="cls-2" d="M241.69,358.7l4.47,2.58c.1.06.22.07.28.07l4.12-2.29-4.81-2.7-4.07,2.35Z"/>
          <path class="cls-2" d="M286.85,325.61l4.47,2.58c.11.06.23.07.28.07l4.12-2.29-4.81-2.7-4.07,2.35Z"/>
          <path class="cls-2" d="M257.2,355.14h.17s3.95-2.29,3.95-2.29l-4.81-2.7-4.07,2.35,4.47,2.58c.1.06.22.07.29.07Z"/>
          <path class="cls-2" d="M282.17,335.33l4.46,2.57c.11.07.23.08.29.08l4.12-2.29-4.81-2.7-4.07,2.35Z"/>
          <path class="cls-2" d="M292.93,329.12l4.46,2.57c.11.07.24.08.29.08l4.12-2.29-4.81-2.7-4.07,2.35Z"/>
          <path class="cls-2" d="M292.31,334.88l4.12-2.29-4.81-2.7-4.07,2.35,4.49,2.59c.07.04.17.06.27.06Z"/>
          <path class="cls-2" d="M308.89,332.12c.07.03.16.05.25.05h.17s3.95-2.29,3.95-2.29l-10.88-6.21-4.07,2.35,10.58,6.11Z"/>
          <path class="cls-2" d="M236.31,361.81l4.47,2.58c.1.06.22.07.28.07h.17s3.96-2.29,3.96-2.29l-4.81-2.7-4.07,2.35Z"/>
          <path class="cls-2" d="M298.39,338.38h.17s3.95-2.29,3.95-2.29l-4.81-2.7-4.07,2.35,4.47,2.58c.1.06.22.07.29.07Z"/>
          <path class="cls-2" d="M303.77,335.28l4.12-2.29-4.81-2.7-4.07,2.35,4.46,2.57c.11.07.23.08.3.08Z"/>
          <path class="cls-2" d="M209.41,377.34l4.47,2.58c.1.06.23.07.29.07l4.12-2.29-4.81-2.7-4.07,2.35Z"/>
          <path class="cls-2" d="M198.66,383.55l4.46,2.58c.1.06.23.07.29.07h.17s3.96-2.29,3.96-2.29l-4.81-2.7-4.07,2.35Z"/>
          <path class="cls-2" d="M216.29,385.79l4.12-2.29-4.81-2.7-4.07,2.35,4.49,2.59s.14.06.26.06Z"/>
          <path class="cls-2" d="M210.91,388.89l4.12-2.29-4.81-2.7-4.07,2.35,4.49,2.59c.07.04.17.06.26.06Z"/>
          <path class="cls-2" d="M221.66,382.68h.17s3.96-2.29,3.96-2.29l-4.81-2.7-4.07,2.35,4.46,2.58c.11.07.24.07.29.07Z"/>
          <path class="cls-2" d="M230.93,364.92l4.48,2.58c.07.04.18.07.28.07h.17s3.95-2.29,3.95-2.29l-4.81-2.7-4.07,2.35Z"/>
          <path class="cls-2" d="M232.42,376.47l4.12-2.29-4.81-2.7-4.07,2.35,4.46,2.58c.11.07.24.07.29.07Z"/>
          <path class="cls-2" d="M227.05,379.57l4.12-2.29-4.81-2.7-4.07,2.35,4.49,2.59c.07.04.17.06.27.06Z"/>
          <path class="cls-2" d="M220.17,371.13l4.47,2.58c.1.06.23.07.29.07l4.12-2.29-4.81-2.7-4.07,2.35Z"/>
          <path class="cls-2" d="M204.04,380.44l4.46,2.58c.1.06.23.07.29.07l4.12-2.29-4.81-2.7-4.07,2.35Z"/>
          <path class="cls-2" d="M225.55,368.02l4.47,2.58c.1.06.22.07.29.07l4.12-2.29-4.81-2.7-4.07,2.35Z"/>
          <path class="cls-2" d="M214.8,374.23l4.46,2.58c.1.06.23.07.29.07h.17s3.95-2.29,3.95-2.29l-4.81-2.7-4.07,2.35Z"/>
          <path class="cls-2" d="M237.8,373.36l4.13-2.29-4.81-2.7-4.07,2.35,4.48,2.59c.07.04.17.06.27.06Z"/>
          <path class="cls-2" d="M269.58,335.58l4.49,2.59c.07.04.17.06.26.06l4.12-2.29-4.81-2.7-4.07,2.35Z"/>
          <path class="cls-2" d="M183.91,385.05l-4.07,2.35,4.49,2.59c.07.04.17.06.26.06h.17s3.96-2.29,3.96-2.29l-4.81-2.7Z"/>
          <path class="cls-2" d="M191.97,387.41l-6.05,3.49,4.49,2.59c.07.04.17.06.26.06h.17s5.94-3.44,5.94-3.44l-4.81-2.7Z"/>
          <path class="cls-2" d="M177.38,380.3l-4.92,2.84,4.47,2.58c.1.06.22.07.29.07l4.97-2.78-4.81-2.7Z"/>
          <path class="cls-2" d="M203,395.08l-4.92,2.84,4.46,2.58c.11.07.24.07.29.07l4.97-2.79-4.81-2.7Z"/>
          <path class="cls-2" d="M199.46,390.11l-7.46,4.31,4.49,2.59c.07.04.17.06.26.06h.17s7.35-4.26,7.35-4.26l-4.81-2.7Z"/>
          <path class="cls-2" d="M185.78,380.84l4.12-2.29-4.81-2.7-4.07,2.35,4.46,2.58c.1.06.23.07.29.07Z"/>
          <path class="cls-2" d="M204.16,401.43l4.47,2.58c.08.04.18.07.28.07l6.1-3.44-4.81-2.7-6.05,3.49Z"/>
          <path class="cls-2" d="M191.16,377.73l4.12-2.29-4.81-2.7-4.07,2.35,4.49,2.59c.07.04.17.06.27.06Z"/>
          <path class="cls-2" d="M215.02,363.96h.17s3.96-2.29,3.96-2.29l-4.81-2.7-4.07,2.35,4.47,2.58c.07.04.18.07.28.07Z"/>
          <path class="cls-2" d="M220.4,360.85l4.12-2.29-4.81-2.7-4.07,2.35,4.48,2.58c.1.06.22.07.28.07Z"/>
          <path class="cls-2" d="M209.64,367.06h.17s3.96-2.29,3.96-2.29l-4.81-2.7-4.07,2.35,4.46,2.58c.11.07.24.07.29.07Z"/>
          <path class="cls-2" d="M201.92,371.52h.17s3.96-2.29,3.96-2.29l-4.81-2.7-4.07,2.35,4.47,2.58c.07.04.18.07.28.07Z"/>
          <path class="cls-2" d="M196.54,374.63l4.12-2.29-4.81-2.7-4.07,2.35,4.48,2.59c.07.04.17.06.27.06Z"/>
          <path class="cls-2" d="M311.17,339.65l4.5,2.6c.07.03.16.05.25.05h.17s3.96-2.29,3.96-2.29l-4.81-2.7-4.07,2.35Z"/>
          <path class="cls-2" d="M283.14,355.83l4.47,2.57c.1.07.23.08.29.08l4.12-2.29-4.81-2.7-4.07,2.35Z"/>
          <path class="cls-2" d="M300.41,345.86l4.47,2.58c.11.06.23.07.28.07h.17s9.34-5.4,9.34-5.4l-4.81-2.7-9.45,5.45Z"/>
          <path class="cls-2" d="M288.52,352.73l4.46,2.57c.1.07.23.08.3.08l4.12-2.29-4.81-2.7-4.07,2.35Z"/>
          <path class="cls-2" d="M293.9,349.62l4.45,2.57c.11.07.24.09.31.09l4.12-2.29-4.81-2.7-4.07,2.35Z"/>
          <path class="cls-2" d="M225.78,357.75h.17s3.96-2.29,3.96-2.29l-4.81-2.7-4.07,2.35,4.46,2.58c.1.06.23.07.29.07Z"/>
          <path class="cls-2" d="M314.54,330.68l-4.07,2.35,10.58,6.11c.07.03.16.05.26.05h.17s3.95-2.29,3.95-2.29l-10.88-6.22Z"/>
          <path class="cls-2" d="M217.75,393.59l4.46,2.58c.11.07.24.07.29.07l4.97-2.79-4.81-2.7-4.92,2.84Z"/>
          <path class="cls-2" d="M223.98,389.99l4.46,2.57c.11.07.23.08.3.08h.17s30.57-17.66,30.57-17.66l-4.81-2.71-30.68,17.71Z"/>
          <path class="cls-2" d="M225.2,387.66l4.12-2.29-4.81-2.7-4.07,2.35,4.48,2.59c.07.04.17.06.27.06Z"/>
          <path class="cls-2" d="M211.52,397.18l4.46,2.58c.1.06.23.07.29.07l4.97-2.79-4.81-2.7-4.92,2.84Z"/>
          <path class="cls-2" d="M255.96,371.52l4.47,2.58c.1.06.22.07.29.07h.17s4.81-2.78,4.81-2.78l-4.81-2.7-4.92,2.84Z"/>
          <path class="cls-2" d="M268.42,364.33l4.48,2.59c.1.05.22.06.28.06h.17s4.8-2.79,4.8-2.79l-4.81-2.7-4.92,2.84Z"/>
          <path class="cls-2" d="M262.19,367.93l4.49,2.59c.07.04.17.06.27.06l4.97-2.79-4.81-2.7-4.92,2.84Z"/>
          <path class="cls-2" d="M274.65,360.73l4.47,2.58c.1.06.22.07.29.07h.17s5.94-3.44,5.94-3.44l-4.81-2.7-6.05,3.49Z"/>
          <path class="cls-2" d="M280.42,341.74h.17s3.96-2.29,3.96-2.29l-4.81-2.7-4.07,2.35,4.48,2.59c.08.04.17.06.27.06Z"/>
          <path class="cls-2" d="M287.2,351.87h.17s3.96-2.29,3.96-2.29l-4.81-2.7-4.07,2.35,4.48,2.59c.1.05.22.06.28.06Z"/>
          <path class="cls-2" d="M268.23,362.82l11.2-6.38-4.81-2.7-11.15,6.43,4.49,2.59s.13.06.26.06Z"/>
          <path class="cls-2" d="M299.09,345h.17s3.96-2.3,3.96-2.3l-4.81-2.7-4.07,2.35,4.49,2.59c.07.04.17.06.27.06Z"/>
          <path class="cls-2" d="M304.47,341.89h.17s3.95-2.29,3.95-2.29l-4.81-2.7-4.07,2.35,4.48,2.59c.1.05.22.06.28.06Z"/>
          <path class="cls-2" d="M262.85,365.92l4.13-2.29-4.81-2.7-4.07,2.35,4.47,2.58c.07.04.18.07.28.07Z"/>
          <path class="cls-2" d="M293.01,341.49h.17s3.96-2.29,3.96-2.29l-4.81-2.7-4.07,2.35,4.46,2.57c.11.07.23.08.3.08Z"/>
          <path class="cls-2" d="M235.95,381.45l4.12-2.29-4.81-2.7-4.07,2.35,4.48,2.59c.07.04.17.06.27.06Z"/>
          <path class="cls-2" d="M257.47,369.03l4.12-2.3-4.81-2.7-4.07,2.35,4.5,2.6s.13.05.26.05Z"/>
          <path class="cls-2" d="M230.58,384.55h.17s3.95-2.29,3.95-2.29l-4.81-2.7-4.07,2.35,4.49,2.59c.07.04.17.06.26.06Z"/>
          <path class="cls-2" d="M241.33,378.34l4.12-2.29-4.81-2.7-4.07,2.35,4.5,2.6s.13.05.25.05Z"/>
          <path class="cls-2" d="M246.71,375.24h.17s3.95-2.29,3.95-2.29l-4.81-2.7-4.07,2.35,4.46,2.58c.1.06.23.07.29.07Z"/>
          <path class="cls-2" d="M252.09,372.13h.17s3.96-2.29,3.96-2.29l-4.81-2.7-4.07,2.35,4.49,2.59c.07.04.17.06.26.06Z"/>
          <path class="cls-2" d="M238.88,350.18l4.12-2.29-4.81-2.7-4.07,2.35,4.46,2.58c.1.06.23.07.29.07Z"/>
          <path class="cls-2" d="M309.85,338.79h.17s3.96-2.29,3.96-2.29l-4.81-2.7-4.07,2.35,4.49,2.59c.07.04.17.06.27.06Z"/>
          <path class="cls-2" d="M249.63,343.97l4.12-2.29-4.81-2.7-4.07,2.35,4.46,2.58c.1.06.23.07.29.07Z"/>
          <path class="cls-2" d="M261.58,337.07l4.12-2.29-4.81-2.7-4.07,2.35,4.47,2.58c.1.06.22.07.29.07Z"/>
          <path class="cls-2" d="M256.2,340.18l4.12-2.29-4.81-2.7-4.07,2.35,4.47,2.58c.1.06.22.07.29.07Z"/>
          <path class="cls-2" d="M233.5,353.29l4.12-2.29-4.81-2.7-4.07,2.35,4.47,2.58c.1.06.22.07.28.07Z"/>
          <path class="cls-2" d="M244.25,347.08h.17s3.95-2.29,3.95-2.29l-4.81-2.7-4.07,2.35,4.47,2.58c.1.06.23.07.29.07Z"/>
          <path class="cls-2" d="M266.96,333.97l4.12-2.29-4.81-2.7-4.07,2.35,4.47,2.58c.1.06.22.07.29.07Z"/>
          <path class="cls-2" d="M288.05,319.99l4.12-2.3-2.61-1.41-4.07,2.35,2.29,1.29c.08.04.18.06.28.06Z"/>
          <path class="cls-2" d="M296.98,325.15l4.12-2.29-4.81-2.7-4.07,2.35,4.47,2.58c.11.06.23.07.29.07Z"/>
          <path class="cls-2" d="M271.91,329.31h.17s3.95-2.29,3.95-2.29l-2.61-1.41-4.07,2.35,2.28,1.29c.1.06.22.07.29.07Z"/>
          <path class="cls-2" d="M277.29,326.2h.17s3.95-2.29,3.95-2.29l-2.61-1.41-4.07,2.35,2.3,1.3c.07.04.17.06.26.06Z"/>
          <path class="cls-2" d="M282.67,323.1l4.12-2.29-2.61-1.41-4.07,2.35,2.3,1.3c.07.04.17.06.26.06Z"/>
        </g>
      </g>
    </g>
    <g>
      <g>
        <g class="cls-11">
          <g>
            <path class="cls-10" d="M288.79,120.41v116.19c0,1.54-1.09,3.41-2.42,4.18l-156.61,90.59c-.28.16-.55.24-.8.23-.1,0-.21-.02-.31-.04-.07-.02-.14-.04-.21-.07-.05-.02-.09-.05-.13-.07-.05-.03-.09-.06-.14-.1-.05-.04-.1-.07-.13-.12-.19-.17-.33-.39-.44-.63-.16-.36-.25-.78-.25-1.22v-115.61c0-1.54,1.09-3.41,2.42-4.18l156.61-90.55c.63-.36,1.19-.41,1.62-.21.07.03.14.07.21.12l.02.02c.06.05.11.1.16.16.03.02.05.06.07.09.03.04.06.08.08.13.06.1.11.2.14.31.02.06.05.13.06.21,0,.02.02.03,0,.05.02.07.03.14.04.22,0,.1.02.2.02.3Z"/>
            <path class="cls-10" d="M287.44,119.69s.09,0,.15.03h0s.03.05.03.05v.02s.04.05.04.05l.07.23v.06s.03.05.03.05h0c0,.08.01.16.01.23v116.19c0,1.18-.9,2.73-1.92,3.32l-156.6,90.58c-.13.08-.23.1-.3.1h0s-.03,0-.07,0l-.04-.02-.04-.03-.03-.02h0s-.05-.05-.05-.05c-.08-.07-.15-.17-.2-.3-.11-.25-.17-.53-.17-.81v-115.61c0-1.18.9-2.73,1.92-3.32l156.6-90.54c.3-.17.49-.19.58-.19M287.44,118.69c-.32,0-.69.11-1.07.33l-156.61,90.55c-1.33.77-2.42,2.65-2.42,4.18v115.61c0,.44.1.86.25,1.22.11.25.25.46.44.63.04.05.09.08.13.12.05.03.09.06.14.09.04.02.08.05.13.07.06.03.13.06.21.07.1.02.21.04.31.04.01,0,.02,0,.04,0,.24,0,.5-.08.77-.23l156.61-90.59c1.33-.77,2.42-2.64,2.42-4.18v-116.19c0-.1,0-.21-.02-.3,0-.08-.02-.15-.04-.22,0-.02,0-.03,0-.05,0-.08-.03-.15-.06-.21-.03-.11-.08-.21-.14-.31-.02-.05-.05-.09-.08-.13-.02-.03-.04-.06-.07-.09-.05-.06-.1-.11-.16-.16,0,0,0,0-.02-.02-.06-.05-.13-.09-.21-.12-.17-.08-.35-.12-.55-.12h0Z"/>
          </g>
          <g class="cls-6">
            <path class="cls-10" d="M288.79,120.41v116.19c0,1.54-1.09,3.41-2.42,4.18l-156.61,90.59c-.28.16-.55.24-.8.23-.1,0-.21-.02-.31-.04-.07-.02-.14-.04-.21-.07-.05-.02-.09-.05-.13-.07-.05-.03-.09-.06-.14-.1-.05-.04-.1-.07-.13-.12-.19-.17-.33-.39-.44-.63-.16-.36-.25-.78-.25-1.22v-115.61c0-1.54,1.09-3.41,2.42-4.18l156.61-90.55c.63-.36,1.19-.41,1.62-.21.07.03.14.07.21.12l.02.02c.06.05.11.1.16.16.03.02.05.06.07.09.03.04.06.08.08.13.06.1.11.2.14.31.02.06.05.13.06.21,0,.02.02.03,0,.05.02.07.03.14.04.22,0,.1.02.2.02.3Z"/>
          </g>
        </g>
        <g>
          <path class="cls-4" d="M288,118.81c-.44-.21-1-.15-1.62.21l-156.61,90.55c-1.33.77-2.42,2.65-2.42,4.18v7.89l-3.08-1.81v-7.83c0-1.54,1.08-3.41,2.41-4.17l156.61-90.55c.69-.4,1.31-.41,1.75-.14.44.26,2.44,1.41,2.95,1.68Z"/>
          <path class="cls-14" d="M288.78,120.4c0-1.52-1.08-2.14-2.41-1.37l-156.61,90.55c-1.33.77-2.41,2.64-2.41,4.18v7.89s161.43-93.32,161.43-93.32v-7.92Z"/>
          <path class="cls-7" d="M286.37,119.02l-156.6,90.55c-.66.39-1.27,1.04-1.7,1.79l-3.07-1.78c.43-.74,1.03-1.39,1.68-1.76l156.61-90.55c.69-.4,1.31-.41,1.75-.14.43.27,2.44,1.4,2.94,1.68-.42-.2-.99-.14-1.62.21Z"/>
          <path class="cls-5" d="M124.27,219.84v-7.84c0-.78.29-1.65.74-2.41l3.07,1.77c-.45.76-.72,1.62-.72,2.4v7.89l-3.09-1.8Z"/>
        </g>
        <g>
          <path class="cls-10" d="M274.25,129.38c-.75.43-1.36,1.73-1.36,2.89s.61,1.75,1.36,1.31c.75-.43,1.36-1.73,1.36-2.89s-.61-1.75-1.36-1.31Z"/>
          <path class="cls-10" d="M279.16,126.54c-.75.43-1.36,1.73-1.36,2.89s.61,1.75,1.36,1.31c.75-.43,1.36-1.73,1.36-2.89s-.61-1.75-1.36-1.31Z"/>
          <path class="cls-10" d="M284.07,123.7c-.75.43-1.36,1.73-1.36,2.89s.61,1.75,1.36,1.31c.75-.43,1.36-1.73,1.36-2.89s-.61-1.75-1.36-1.31Z"/>
        </g>
        <path class="cls-1" d="M128.24,331.38c-.09-.06-.19-.11-.3-.17-.22-.13-.48-.28-.74-.42h0c-.13-.09-.27-.17-.4-.24,0,0-.02-.02-.03-.02-.22-.13-.44-.25-.63-.36-.21-.12-.39-.22-.53-.3-.14-.09-.25-.14-.3-.17-.15-.08-.29-.19-.41-.33-.13-.13-.24-.3-.32-.49-.17-.36-.28-.81-.28-1.28v-107.77l3.08,1.81v107.72c.02.48.11.88.25,1.22.11.25.25.46.44.63.03.05.08.09.13.12.02.02.03.04.06.06Z"/>
      </g>
      <g>
        <g>
          <path class="cls-18" d="M179.71,261.85s-5.7-3.69-6.44-3.71c-.74-.02-16.2-.51-16.2-.51l6.44,3.43v.28l16.2.51Z"/>
          <path class="cls-8" d="M151.93,272.96v-10.14l27.77-34.52v13.46l-16.2,19.31v.28l16.2.51v13.46l-27.77-2.36Z"/>
          <polygon class="cls-10" points="179.71 228.29 173.27 224.58 145.5 259.1 151.93 262.81 179.71 228.29"/>
          <polygon class="cls-2" points="145.5 259.1 145.5 269.25 151.93 272.96 151.93 262.81 145.5 259.1"/>
        </g>
        <g>
          <path class="cls-8" d="M196.52,268.64l-8.62,4.98,21.49-78.77,8.31-4.8-21.18,78.59Z"/>
          <polygon class="cls-10" points="217.7 190.05 211.26 186.34 202.95 191.14 209.39 194.85 217.7 190.05"/>
          <polygon class="cls-2" points="202.95 191.14 209.39 194.85 187.9 273.62 181.46 269.91 202.95 191.14"/>
        </g>
        <g>
          <polygon class="cls-18" points="219.45 231.48 225.89 235.19 242.08 215.7 235.65 211.99 219.45 231.48"/>
          <path class="cls-8" d="M242.08,215.7l-16.19-.6v-13.46l27.77,2.45v10.14l-27.77,34.43v-13.46l16.19-19.21v-.28Z"/>
          <polygon class="cls-10" points="219.45 197.92 225.89 201.63 253.66 204.08 247.22 200.37 219.45 197.92"/>
          <polyline class="cls-2" points="225.89 201.63 225.89 215.09 219.45 211.38 219.45 197.92"/>
          <polygon class="cls-2" points="219.45 231.48 225.89 235.19 225.89 248.65 219.45 244.94 219.45 231.48"/>
        </g>
      </g>
    </g>
    <g>
      <g>
        <g class="cls-11">
          <g>
            <path class="cls-10" d="M339.35,140.45v116.19c0,1.54-1.09,3.41-2.42,4.18l-66.75,38.51c-.28.16-.55.24-.8.23-.1,0-.21-.02-.31-.04-.07-.02-.14-.04-.21-.07-.05-.02-.09-.05-.13-.07-.05-.03-.09-.06-.14-.1-.05-.04-.1-.07-.13-.12-.19-.17-.33-.39-.44-.63-.16-.36-.25-.78-.25-1.22v-115.61c0-1.54,1.09-3.41,2.42-4.18l66.75-38.47c.63-.36,1.19-.41,1.62-.21.07.03.14.07.21.12l.02.02c.06.05.11.1.16.16.03.02.05.06.07.09.03.04.06.08.08.13.06.1.11.2.14.31.02.06.05.13.06.21,0,.02.02.03,0,.05.02.07.03.14.04.22,0,.1.02.2.02.3Z"/>
            <path class="cls-10" d="M338.01,139.73s.09,0,.14.03h0s.03.05.03.05h0s.03.05.03.05l.09.27v.03s.02.05.02.05h0s0,.03,0,.03c0,.07.01.14.01.21v116.19c0,1.18-.9,2.73-1.92,3.32l-66.75,38.51c-.13.08-.23.1-.3.1h0s-.03,0-.06,0l-.05-.03-.07-.05h0s-.05-.05-.05-.05c-.08-.07-.15-.17-.21-.3-.11-.25-.17-.53-.17-.81v-115.6c0-1.18.9-2.73,1.92-3.32l66.75-38.47c.3-.17.49-.19.58-.19M338.01,138.73c-.32,0-.68.11-1.07.33l-66.75,38.47c-1.33.77-2.42,2.65-2.42,4.18v115.6c0,.44.1.86.25,1.22.11.25.25.46.44.63.04.05.09.08.13.12.05.03.1.06.14.1.04.02.08.05.13.07.06.03.13.06.21.07.1.02.21.04.31.04.01,0,.02,0,.03,0,.24,0,.5-.08.77-.23l66.75-38.51c1.33-.77,2.42-2.64,2.42-4.18v-116.19c0-.1,0-.21-.02-.3,0-.08-.02-.15-.04-.22,0-.02,0-.03,0-.05,0-.08-.03-.15-.06-.21-.03-.11-.08-.21-.14-.31-.02-.05-.05-.09-.08-.13-.02-.03-.04-.06-.07-.09-.05-.06-.09-.11-.16-.16,0,0,0,0-.02-.02-.06-.05-.13-.09-.21-.12-.17-.08-.35-.12-.55-.12h0Z"/>
          </g>
          <g class="cls-11">
            <path class="cls-10" d="M339.35,140.45v116.19c0,1.54-1.09,3.41-2.42,4.18l-66.75,38.51c-.28.16-.55.24-.8.23-.1,0-.21-.02-.31-.04-.07-.02-.14-.04-.21-.07-.05-.02-.09-.05-.13-.07-.05-.03-.09-.06-.14-.1-.05-.04-.1-.07-.13-.12-.19-.17-.33-.39-.44-.63-.16-.36-.25-.78-.25-1.22v-115.61c0-1.54,1.09-3.41,2.42-4.18l66.75-38.47c.63-.36,1.19-.41,1.62-.21.07.03.14.07.21.12l.02.02c.06.05.11.1.16.16.03.02.05.06.07.09.03.04.06.08.08.13.06.1.11.2.14.31.02.06.05.13.06.21,0,.02.02.03,0,.05.02.07.03.14.04.22,0,.1.02.2.02.3Z"/>
          </g>
        </g>
        <g>
          <path class="cls-4" d="M338.56,138.85c-.44-.21-1-.15-1.62.21l-66.75,38.47c-1.33.77-2.42,2.65-2.42,4.18v7.89l-3.08-1.81v-7.83c0-1.54,1.08-3.41,2.41-4.17l66.76-38.47c.69-.4,1.31-.41,1.75-.14.44.26,2.44,1.41,2.95,1.68Z"/>
          <path class="cls-14" d="M339.35,140.44c0-1.52-1.08-2.14-2.41-1.37l-66.75,38.47c-1.33.77-2.41,2.64-2.41,4.18v7.89s71.58-41.25,71.58-41.25v-7.92Z"/>
          <path class="cls-7" d="M336.93,139.06l-66.75,38.47c-.66.39-1.27,1.04-1.7,1.79l-3.07-1.78c.43-.74,1.03-1.39,1.68-1.76l66.75-38.47c.69-.4,1.31-.41,1.75-.14.43.27,2.44,1.4,2.94,1.68-.42-.2-.99-.14-1.62.21Z"/>
          <path class="cls-5" d="M264.68,187.81v-7.84c0-.78.29-1.65.74-2.41l3.07,1.77c-.45.76-.72,1.62-.72,2.4v7.89l-3.09-1.8Z"/>
        </g>
        <g>
          <path class="cls-10" d="M324.81,149.42c-.75.43-1.36,1.73-1.36,2.89s.61,1.75,1.36,1.31c.75-.43,1.36-1.73,1.36-2.89s-.61-1.75-1.36-1.31Z"/>
          <path class="cls-10" d="M329.72,146.58c-.75.43-1.36,1.73-1.36,2.89s.61,1.75,1.36,1.31c.75-.43,1.36-1.73,1.36-2.89s-.61-1.75-1.36-1.31Z"/>
          <path class="cls-10" d="M334.63,143.74c-.75.43-1.36,1.73-1.36,2.89s.61,1.75,1.36,1.31c.75-.43,1.36-1.73,1.36-2.89s-.61-1.75-1.36-1.31Z"/>
        </g>
        <path class="cls-1" d="M268.66,299.35c-.09-.06-.19-.11-.3-.17-.22-.13-.48-.28-.74-.42h0c-.13-.09-.27-.17-.4-.24,0,0-.02-.02-.03-.02-.22-.13-.44-.25-.63-.36-.21-.12-.39-.22-.53-.3-.14-.09-.25-.14-.3-.17-.15-.08-.29-.19-.41-.33-.13-.13-.24-.3-.32-.49-.17-.36-.28-.81-.28-1.28v-107.77l3.08,1.81v107.72c.02.48.11.88.25,1.22.11.25.25.46.44.63.03.05.08.09.13.12.02.02.03.04.06.06Z"/>
      </g>
      <g>
        <g>
          <path class="cls-14" d="M273.7,196.16c0-.14.04-.3.12-.45l1.73-3.59c.03-.05.05-.09.08-.11.02-.02.04-.03.04-.03.05-.03.1-.03.14,0,.04.04.06.1.06.18v1.21c0,.15-.01.28-.04.37-.02.09-.06.2-.12.33l-.91,1.9.91.84c.06.06.1.12.12.19.02.07.04.18.04.33v1.21c0,.08-.02.16-.06.24-.04.08-.08.14-.14.17,0,0-.02,0-.04.02-.02,0-.05,0-.08-.02l-1.73-1.59c-.08-.06-.12-.16-.12-.31v-.89Z"/>
          <path class="cls-14" d="M280.04,187.16c.03-.12.07-.23.13-.35.06-.12.14-.21.26-.28l.65-.38c.05-.03.1-.03.14,0,.04.04.06.1.06.18,0,.04,0,.08-.02.13l-2.97,12.68c-.02.1-.06.22-.12.34-.06.12-.15.22-.26.29l-.62.36c-.05.03-.1.03-.14,0-.04-.04-.06-.1-.06-.18,0-.04,0-.08.02-.13l2.95-12.67Z"/>
          <path class="cls-14" d="M284.65,190.73c0,.14-.04.29-.12.45l-1.73,3.59c-.03.05-.06.09-.08.11-.02.02-.04.03-.04.03-.05.03-.1.03-.14,0-.04-.04-.06-.1-.06-.18v-1.21c0-.15.01-.28.03-.37.02-.09.06-.2.12-.33l.92-1.9-.92-.84c-.06-.06-.1-.12-.12-.19-.02-.07-.03-.18-.03-.33v-1.21c0-.08.02-.16.06-.24.04-.08.08-.14.14-.17,0,0,.02,0,.04-.02.02,0,.05,0,.08.01l1.73,1.59c.08.06.12.16.12.31v.89Z"/>
          <path class="cls-14" d="M289.47,189.9c.06-.04.12-.03.17.01.05.05.07.12.07.22v1.33c0,.1-.02.2-.07.3-.05.1-.1.17-.17.2l-.82.47c-.07.04-.12.03-.17-.01-.05-.05-.07-.12-.07-.22v-1.33c0-.1.02-.2.07-.3.05-.1.1-.17.17-.2l.82-.47Z"/>
          <path class="cls-14" d="M292.21,188.32c.06-.04.12-.03.17.01.05.05.07.12.07.22v1.33c0,.1-.02.2-.07.3-.05.1-.1.17-.17.2l-.82.47c-.06.04-.12.03-.17-.01-.05-.05-.07-.12-.07-.22v-1.33c0-.1.02-.2.07-.3.05-.1.1-.17.17-.2l.82-.47Z"/>
          <path class="cls-14" d="M294.94,186.74c.06-.04.12-.03.17.01.05.05.07.12.07.22v1.33c0,.1-.02.2-.07.3-.05.1-.1.17-.17.2l-.82.47c-.06.04-.12.03-.17-.01-.05-.05-.07-.12-.07-.22v-1.33c0-.1.02-.2.07-.3.05-.1.1-.17.17-.2l.82-.47Z"/>
        </g>
        <path class="cls-14" d="M274.43,205.84l40.11-23.16c.47-.27.86-.08.86.43s-.38,1.15-.86,1.42l-40.11,23.16c-.47.27-.86.08-.86-.43,0-.51.38-1.15.86-1.42Z"/>
        <path class="cls-14" d="M287.3,220.7l40.11-23.16c.47-.27.86-.08.86.43s-.38,1.15-.86,1.42l-40.11,23.16c-.47.27-.86.08-.86-.43,0-.51.38-1.15.86-1.42Z"/>
        <path class="cls-14" d="M287.3,228.13l19.2-11.07c.47-.27.86-.08.86.43s-.38,1.15-.86,1.42l-19.2,11.07c-.47.27-.86.08-.86-.43,0-.51.38-1.15.86-1.42Z"/>
        <path class="cls-14" d="M287.3,235.56l19.2-11.07c.47-.27.86-.08.86.43s-.38,1.15-.86,1.42l-19.2,11.07c-.47.27-.86.08-.86-.43,0-.51.38-1.15.86-1.42Z"/>
        <path class="cls-14" d="M317.86,180.77l15.98-9.26c.47-.27.86-.08.86.43s-.38,1.15-.86,1.42l-15.98,9.26c-.47.27-.86.08-.86-.43,0-.51.38-1.15.86-1.42Z"/>
        <path class="cls-14" d="M274.43,287.56l40.11-23.16c.47-.27.86-.08.86.43s-.38,1.15-.86,1.42l-40.11,23.16c-.47.27-.86.08-.86-.43,0-.51.38-1.15.86-1.42Z"/>
        <path class="cls-14" d="M317.86,262.48l15.98-9.26c.47-.27.86-.08.86.43s-.38,1.15-.86,1.42l-15.98,9.26c-.47.27-.86.08-.86-.43,0-.51.38-1.15.86-1.42Z"/>
        <path class="cls-14" d="M317.86,240.23l15.98-9.26c.47-.27.86-.08.86.43s-.38,1.15-.86,1.42l-15.98,9.26c-.47.27-.86.08-.86-.43,0-.51.38-1.15.86-1.42Z"/>
        <path class="cls-14" d="M317.86,247.66l15.98-9.26c.47-.27.86-.08.86.43s-.38,1.15-.86,1.42l-15.98,9.26c-.47.27-.86.08-.86-.43,0-.51.38-1.15.86-1.42Z"/>
        <path class="cls-14" d="M274.43,280.14l40.11-23.16c.47-.27.86-.08.86.43s-.38,1.15-.86,1.42l-40.11,23.16c-.47.27-.86.08-.86-.43,0-.51.38-1.15.86-1.42Z"/>
        <path class="cls-14" d="M304.23,248.08l8.98-5.18c.47-.27.86-.08.86.43s-.38,1.15-.86,1.42l-8.98,5.18c-.47.27-.86.08-.86-.43,0-.51.38-1.15.86-1.42Z"/>
        <g>
          <path class="cls-14" d="M274.43,213.29l23.39-13.52c.47-.27.86-.08.86.43s-.38,1.15-.86,1.42l-23.39,13.52c-.47.27-.86.08-.86-.43,0-.51.38-1.15.86-1.42Z"/>
          <path class="cls-13" d="M274.43,213.29l23.39-13.52c.47-.27.86-.08.86.43s-.38,1.15-.86,1.42l-23.39,13.52c-.47.27-.86.08-.86-.43,0-.51.38-1.15.86-1.42Z"/>
        </g>
        <g>
          <path class="cls-14" d="M274.43,220.7l7.94-4.59c.47-.27.86-.08.86.43s-.38,1.15-.86,1.42l-7.94,4.59c-.47.27-.86.08-.86-.43,0-.51.38-1.15.86-1.42Z"/>
          <path class="cls-13" d="M274.43,220.7l7.94-4.59c.47-.27.86-.08.86.43s-.38,1.15-.86,1.42l-7.94,4.59c-.47.27-.86.08-.86-.43,0-.51.38-1.15.86-1.42Z"/>
        </g>
        <g>
          <path class="cls-14" d="M274.43,228.13l7.94-4.59c.47-.27.86-.08.86.43s-.38,1.15-.86,1.42l-7.94,4.59c-.47.27-.86.08-.86-.43,0-.51.38-1.15.86-1.42Z"/>
          <path class="cls-13" d="M274.43,228.13l7.94-4.59c.47-.27.86-.08.86.43s-.38,1.15-.86,1.42l-7.94,4.59c-.47.27-.86.08-.86-.43,0-.51.38-1.15.86-1.42Z"/>
        </g>
        <g>
          <path class="cls-14" d="M274.43,235.56l7.94-4.59c.47-.27.86-.08.86.43s-.38,1.15-.86,1.42l-7.94,4.59c-.47.27-.86.08-.86-.43,0-.51.38-1.15.86-1.42Z"/>
          <path class="cls-13" d="M274.43,235.56l7.94-4.59c.47-.27.86-.08.86.43s-.38,1.15-.86,1.42l-7.94,4.59c-.47.27-.86.08-.86-.43,0-.51.38-1.15.86-1.42Z"/>
        </g>
        <g>
          <path class="cls-14" d="M274.43,242.99l7.94-4.59c.47-.27.86-.08.86.43s-.38,1.15-.86,1.42l-7.94,4.59c-.47.27-.86.08-.86-.43,0-.51.38-1.15.86-1.42Z"/>
          <path class="cls-13" d="M274.43,242.99l7.94-4.59c.47-.27.86-.08.86.43s-.38,1.15-.86,1.42l-7.94,4.59c-.47.27-.86.08-.86-.43,0-.51.38-1.15.86-1.42Z"/>
        </g>
        <g>
          <path class="cls-14" d="M301.14,197.85l10.17-5.85c.47-.27.86-.08.86.43s-.38,1.15-.86,1.42l-10.17,5.85c-.47.27-.86.08-.86-.43,0-.51.38-1.15.86-1.42Z"/>
          <path class="cls-13" d="M301.14,197.85l10.17-5.85c.47-.27.86-.08.86.43s-.38,1.15-.86,1.42l-10.17,5.85c-.47.27-.86.08-.86-.43,0-.51.38-1.15.86-1.42Z"/>
        </g>
        <path class="cls-14" d="M296.95,237.41l23.39-13.52c.47-.27.86-.08.86.43s-.38,1.15-.86,1.42l-23.39,13.52c-.47.27-.86.08-.86-.43,0-.51.38-1.15.86-1.42Z"/>
        <path class="cls-14" d="M310.44,237.07l23.39-13.52c.47-.27.86-.08.86.43s-.38,1.15-.86,1.42l-23.39,13.52c-.47.27-.86.08-.86-.43,0-.51.38-1.15.86-1.42Z"/>
        <path class="cls-14" d="M323.66,221.97l10.17-5.85c.47-.27.86-.08.86.43s-.38,1.15-.86,1.42l-10.17,5.85c-.47.27-.86.08-.86-.43,0-.51.38-1.15.86-1.42Z"/>
        <g>
          <path class="cls-14" d="M287.3,213.27l23.39-13.52c.47-.27.86-.08.86.43s-.38,1.15-.86,1.42l-23.39,13.52c-.47.27-.86.08-.86-.43,0-.51.38-1.15.86-1.42Z"/>
          <path class="cls-13" d="M287.3,213.27l23.39-13.52c.47-.27.86-.08.86.43s-.38,1.15-.86,1.42l-23.39,13.52c-.47.27-.86.08-.86-.43,0-.51.38-1.15.86-1.42Z"/>
        </g>
        <g>
          <path class="cls-14" d="M314.01,197.84l10.17-5.85c.47-.27.86-.08.86.43s-.38,1.15-.86,1.42l-10.17,5.85c-.47.27-.86.08-.86-.43,0-.51.38-1.15.86-1.42Z"/>
          <path class="cls-13" d="M314.01,197.84l10.17-5.85c.47-.27.86-.08.86.43s-.38,1.15-.86,1.42l-10.17,5.85c-.47.27-.86.08-.86-.43,0-.51.38-1.15.86-1.42Z"/>
        </g>
      </g>
    </g>
  </g>
</svg>