<?xml version="1.0" encoding="UTF-8"?>
<svg id="Capa_1" data-name="Capa 1" xmlns="http://www.w3.org/2000/svg" viewBox="0 0 185.88 98.88">
  <defs>
    <style>
      .cls-1 {
        fill: #fff;
      }
    </style>
  </defs>
  <path class="cls-1" d="M7.78,88.46c.52,0,1.02.03,1.53.06v-.31h14.94c.69,0,.96-1.94.79-2.62h-13.1v-5.24h8.39v-2.62h-8.39v-4.72h12.58c.17-.69-.1-2.62-.79-2.62h-14.41v-.63c-.52.2-1.04.38-1.57.53v18.16s.03,0,.05,0Z"/>
  <path class="cls-1" d="M51.04,90.83c.62-.5,1.23-1,1.85-1.5-1.04-.99-2.08-1.97-3.12-2.96.45-.43,1.05-1.08,1.58-1.98.26-.43,2.96-5.15.36-9.68-2.41-4.21-7.26-4.55-7.67-4.57-.44-.02-5.16-.18-8.01,3.65-2.32,3.12-2.28,7.36-.37,10.47,2.59,4.2,7.47,4.45,7.97,4.47,1.88.07,3.38-.44,4.26-.82,1.05.97,2.1,1.95,3.14,2.92ZM47.83,84.54c-.22,0-2.19-2.57-3.93-1.56l2.1,3.13c-2.95.74-5.98-.13-7.74-2.25-2.42-2.92-2.27-7.99,1.2-10.39,3.58-2.48,8.58-.62,10.14,2.54.75,1.54.94,3.49.19,5.78-.19.58-1.55,2.76-1.95,2.75Z"/>
  <path class="cls-1" d="M102.6,47.33c.58-.78,4.19-1.35,4.19-1.57V12.22c1.72.14,3.49.84,5.12,1.42.66.23,1.52.63,2.6,1.02,2.13.77,4.56,1.27,6.43,2.54v23.32c.52-.2,4.72-.81,4.72-1.05v-20.97l4.74,1.92v21.85s-14.18,5.06-14.18,5.06v-27.25c0-.24-4.18-1.06-4.72-1.05v29.61c-4.38,2.33-9.34,3.76-14.15,4.98V14.05c0-1.1-4.19-1.1-4.19,0v39.57c-4.81-1.21-9.77-2.64-14.15-4.98v-29.61c-.54,0-4.72.81-4.72,1.05v27.25l-14.18-5.06v-21.85s4.74-1.92,4.74-1.92v20.97c0,.24,4.19.85,4.72,1.05v-23.59l14.15-4.72v33.54c0,.25,4.15,1.19,4.72,1.57V10.12c2.37.13,4.81-2.17,7.03-2.07,1.83.09,5.41,1.91,7.12,2.85v36.43Z"/>
  <path class="cls-1" d="M126.19,84.02v-13.63c1.4-.06,2.33-.24,2.62,1.31.42,2.27.32,12.18.02,14.7-.24,2.05-1.17,2.36-2.94,1.31l-11.76-12.61v12.32c0,.69-1.94.96-2.62.79v-17.82l2.62.27,12.06,13.36Z"/>
  <path class="cls-1" d="M177.02,70.4c.23.99-.56,1.24-1.04,1.83-1.78,2.19-3.76,4.3-5.76,6.29.69,1.07,8.8,8.84,7.85,9.69-3.2,1.7-8.67-7.85-9.69-7.85-3.57,2.41-5.25,8.64-10.22,7.84,2.1-3.63,5.68-6.04,8.33-9.24l-6.23-8.57c1.98-1.67,7.12,4.85,8.13,6.29,1.05.27,5.77-8,8.64-6.29Z"/>
  <path class="cls-1" d="M65.39,70.39c.98-.03,2.19-.24,2.55.86,1.36,4.2-3.06,15.19,5.04,14.9,7.31-.26,3.26-10.97,4.54-14.9.36-1.1,1.57-.89,2.55-.86v13.37c0,.37-1.59,2.7-2.12,3.12-2.88,2.33-7.85,2.2-10.59-.23-.37-.33-1.97-2.72-1.97-2.89v-13.37Z"/>
  <rect class="cls-1" x="143.48" y="70.39" width="2.62" height="17.82"/>
  <path class="cls-1" d="M96.31,70.92v16.77c0,.1-2.1.1-2.1,0v-16.77c0-.1,1.72.07,2.1,0Z"/>
</svg>