<?xml version="1.0" encoding="UTF-8"?>
<svg id="Capa_1" data-name="Capa 1" xmlns="http://www.w3.org/2000/svg" viewBox="0 0 297.53 218.29">
  <defs>
    <style>
      .cls-1, .cls-2 {
        stroke: #000;
        stroke-miterlimit: 10;
      }

      .cls-2 {
        fill: none;
        stroke-width: 3px;
      }
    </style>
  </defs>
  <g>
    <path class="cls-1" d="M246.48,51.79H26.81v17.07H9.18v126.68h219.67v-17.07h17.63V51.79ZM12.18,71.86h20.8c.05,2.03-.14,11.32-7.82,17.18-4.78,3.64-10.02,4.09-12.98,3.99v-21.16ZM12.18,192.54v-20.04c2.96-.1,8.21.35,12.98,3.99,6.69,5.1,7.7,12.82,7.81,16.06H12.18ZM225.85,192.54h-22.55c.12-3.22,1.15-10.85,7.82-16.07,5.54-4.33,11.72-4.44,14.73-4.17v20.23ZM225.85,169.3c-3.54-.27-10.4-.01-16.58,4.81-7.68,6-8.84,14.78-8.97,18.43H35.97c-.12-3.68-1.26-12.55-8.99-18.44-5.44-4.15-11.38-4.71-14.8-4.61v-73.47c.22,0,.46.01.7.01,3.49,0,9.02-.74,14.1-4.62,8.69-6.63,9.05-17.02,9-19.56h164.31c-.05,2.52.33,12.79,8.98,19.55,5.19,4.05,10.87,4.89,14.66,4.89.72,0,1.35-.03,1.92-.08v73.08ZM225.85,93.21c-3.01.27-9.19.16-14.73-4.17-7.66-5.98-7.88-15.16-7.83-17.18h22.56v21.35ZM243.48,175.47h-14.63v-106.61H29.81v-14.07h213.67v120.68Z"/>
    <path class="cls-1" d="M119.96,87.75c-24.51,0-44.45,19.94-44.45,44.45s19.94,44.45,44.45,44.45,44.45-19.94,44.45-44.45-19.94-44.45-44.45-44.45ZM119.96,173.65c-22.86,0-41.45-18.6-41.45-41.45s18.6-41.45,41.45-41.45,41.45,18.6,41.45,41.45-18.6,41.45-41.45,41.45Z"/>
    <path class="cls-1" d="M44,123.38c-6.07,0-11.01,4.94-11.01,11.01s4.94,11.01,11.01,11.01,11.01-4.94,11.01-11.01-4.94-11.01-11.01-11.01ZM44,142.41c-4.42,0-8.01-3.59-8.01-8.01s3.59-8.01,8.01-8.01,8.01,3.59,8.01,8.01-3.59,8.01-8.01,8.01Z"/>
    <path class="cls-1" d="M193.51,123.38c-6.07,0-11.01,4.94-11.01,11.01s4.94,11.01,11.01,11.01,11.01-4.94,11.01-11.01-4.94-11.01-11.01-11.01ZM193.51,142.41c-4.42,0-8.01-3.59-8.01-8.01s3.59-8.01,8.01-8.01,8.01,3.59,8.01,8.01-3.59,8.01-8.01,8.01Z"/>
  </g>
  <path class="cls-2" d="M261.43,12.43c-9.81,10.95-19.61,21.91-29.42,32.86,6.51-.01,13.02-.03,19.53-.04,0,10.64,0,21.28.01,31.92h19.82c0-10.64,0-21.28.01-31.92,6.51.01,13.02.03,19.53.04-9.83-10.95-19.65-21.91-29.48-32.86Z"/>
</svg>