<?xml version="1.0" encoding="UTF-8"?>
<svg id="Capa_1" data-name="Capa 1" xmlns="http://www.w3.org/2000/svg" viewBox="0 0 253.63 193.76">
  <g>
    <path d="M173.68,158.55h-94.74l-.23-2.61c-.48-5.36-1.83-32.94,18.57-49.95,3.41-2.84,13.76-11.51,29.39-11.28h0c15.12.2,25.23,8.8,28.56,11.63,19.97,17,19.04,44.27,18.65,49.56l-.2,2.66ZM84.26,152.82h84.01c.16-8.15-1.11-28.8-16.75-42.11-2.94-2.51-11.87-10.1-24.93-10.27-13.49-.22-22.64,7.45-25.64,9.95-15.99,13.34-16.98,34.25-16.69,42.43Z"/>
    <path d="M128.74,93.99c-15.73,0-28.53-12.8-28.53-28.53s12.8-28.53,28.53-28.53,28.53,12.8,28.53,28.53-12.8,28.53-28.53,28.53ZM128.74,42.67c-12.57,0-22.8,10.23-22.8,22.8s10.23,22.8,22.8,22.8,22.8-10.23,22.8-22.8-10.23-22.8-22.8-22.8Z"/>
  </g>
  <g>
    <path d="M78.33,133.04H13.37c-.29-8.18.7-29.09,16.69-42.43,3-2.51,12.15-10.17,25.64-9.95,13.06.17,21.98,7.77,24.93,10.27,5.34,4.55,9.01,9.95,11.52,15.42.9-1.04,1.81-2.06,2.76-3,.48-.48.97-.93,1.47-1.39-2.77-5.46-6.63-10.81-12.03-15.41-3.32-2.83-13.43-11.43-28.56-11.63-15.63-.23-25.99,8.44-29.39,11.28-20.4,17.01-19.05,44.6-18.57,49.95l.23,2.61h69.15c.27-1.91.65-3.82,1.13-5.73Z"/>
    <path d="M57.84,74.21c-15.73,0-28.53-12.8-28.53-28.53s12.8-28.53,28.53-28.53,28.53,12.8,28.53,28.53-12.8,28.53-28.53,28.53ZM57.84,22.89c-12.57,0-22.8,10.23-22.8,22.8s10.23,22.8,22.8,22.8,22.8-10.23,22.8-22.8-10.23-22.8-22.8-22.8Z"/>
  </g>
  <g>
    <path d="M175.3,133.04h64.96c.29-8.18-.7-29.09-16.69-42.43-3-2.51-12.15-10.17-25.64-9.95-13.06.17-21.98,7.77-24.93,10.27-5.34,4.55-9.01,9.95-11.52,15.42-.9-1.04-1.81-2.06-2.76-3-.48-.48-.97-.93-1.47-1.39,2.77-5.46,6.63-10.81,12.03-15.41,3.32-2.83,13.43-11.43,28.56-11.63,15.63-.23,25.99,8.44,29.39,11.28,20.4,17.01,19.05,44.6,18.57,49.95l-.23,2.61h-69.15c-.27-1.91-.65-3.82-1.13-5.73Z"/>
    <path d="M195.79,74.21c15.73,0,28.53-12.8,28.53-28.53s-12.8-28.53-28.53-28.53-28.53,12.8-28.53,28.53,12.8,28.53,28.53,28.53ZM195.79,22.89c12.57,0,22.8,10.23,22.8,22.8s-10.23,22.8-22.8,22.8-22.8-10.23-22.8-22.8,10.23-22.8,22.8-22.8Z"/>
  </g>
</svg>