<?xml version="1.0" encoding="UTF-8"?>
<svg id="Capa_1" data-name="Capa 1" xmlns="http://www.w3.org/2000/svg" xmlns:xlink="http://www.w3.org/1999/xlink" viewBox="0 0 269.78 92.17">
  <defs>
    <style>
      .cls-1 {
        fill: url(#Degradado_sin_nombre_11);
      }

      .cls-2 {
        fill: url(#Degradado_sin_nombre_11-5);
      }

      .cls-3 {
        fill: url(#Degradado_sin_nombre_11-2);
      }

      .cls-4 {
        fill: url(#Degradado_sin_nombre_11-6);
      }

      .cls-5 {
        fill: url(#Degradado_sin_nombre_11-3);
      }

      .cls-6 {
        fill: url(#Degradado_sin_nombre_11-4);
      }
    </style>
    <linearGradient id="Degradado_sin_nombre_11" data-name="Degradado sin nombre 11" x1="215.1" y1="7.47" x2="159.67" y2="50.8" gradientUnits="userSpaceOnUse">
      <stop offset="0" stop-color="#f39719"/>
      <stop offset=".98" stop-color="#eb671c"/>
    </linearGradient>
    <linearGradient id="Degradado_sin_nombre_11-2" data-name="Degradado sin nombre 11" x1="213.6" y1="5.55" x2="158.16" y2="48.88" xlink:href="#Degradado_sin_nombre_11"/>
    <linearGradient id="Degradado_sin_nombre_11-3" data-name="Degradado sin nombre 11" x1="221.67" y1="15.88" x2="166.23" y2="59.2" xlink:href="#Degradado_sin_nombre_11"/>
    <linearGradient id="Degradado_sin_nombre_11-4" data-name="Degradado sin nombre 11" x1="217.85" y1="10.99" x2="162.42" y2="54.32" xlink:href="#Degradado_sin_nombre_11"/>
    <linearGradient id="Degradado_sin_nombre_11-5" data-name="Degradado sin nombre 11" x1="235.27" y1="33.49" x2="179.73" y2="76.91" xlink:href="#Degradado_sin_nombre_11"/>
    <linearGradient id="Degradado_sin_nombre_11-6" data-name="Degradado sin nombre 11" x1="248.51" y1="51.49" x2="193.07" y2="94.82" xlink:href="#Degradado_sin_nombre_11"/>
  </defs>
  <g>
    <path d="M11.33,74.2v-34.23h10.37v34.23h-10.37Z"/>
    <path d="M50.26,74.2l-12.65-19.45v19.45h-10.37v-34.23h10.73l11.86,18.48v-18.48h10.37v34.23h-9.93Z"/>
    <path d="M90.53,48.18l-8.11-.05v26.07h-10.37v-26.07l-8.16.05v-8.26h26.64v8.26Z"/>
    <path d="M118.6,48.18l-8.11-.05v26.07h-10.37v-26.07l-8.16.05v-8.26h26.64v8.26Z"/>
    <path d="M122.35,74.2v-34.28h25.97v8.26l-15.6-.05v4.93h15.24v7.7l-15.24-.05v5.29h15.6v8.21h-25.97Z"/>
    <path d="M152.94,74.2v-34.23h10.37v26.02h12.99v8.21h-23.35Z"/>
  </g>
  <path d="M268.34,64.34c-.96,2.21-2.28,4.11-3.95,5.72-1.68,1.61-3.65,2.87-5.93,3.77-2.28.91-4.73,1.36-7.36,1.36s-5.14-.45-7.42-1.36c-2.28-.91-4.25-2.16-5.93-3.77-1.68-1.61-2.99-3.52-3.95-5.72-.96-2.21-1.44-4.63-1.44-7.26s.48-5.06,1.44-7.29c.96-2.22,2.27-4.14,3.95-5.75,1.68-1.61,3.65-2.87,5.93-3.77,2.28-.91,4.75-1.36,7.42-1.36s5.09.45,7.36,1.36c2.28.91,4.25,2.16,5.93,3.77,1.68,1.61,2.99,3.52,3.95,5.75.96,2.22,1.44,4.65,1.44,7.29s-.48,5.06-1.44,7.26ZM258.74,53.36c-.34-1.18-.85-2.22-1.51-3.13-.67-.91-1.51-1.62-2.54-2.16-1.03-.53-2.22-.8-3.59-.8s-2.62.27-3.64.8-1.88,1.25-2.57,2.16c-.68.91-1.19,1.95-1.51,3.13-.33,1.18-.49,2.42-.49,3.72s.16,2.54.49,3.72c.32,1.18.83,2.22,1.51,3.11.68.89,1.54,1.6,2.57,2.13,1.03.53,2.24.8,3.64.8s2.57-.27,3.59-.8c1.03-.53,1.87-1.24,2.54-2.13.67-.89,1.17-1.93,1.51-3.11.34-1.18.51-2.42.51-3.72s-.17-2.54-.51-3.72Z"/>
  <g>
    <g>
      <path class="cls-1" d="M201.86,28.04v-13.73c0-.37-.3-.66-.66-.66h-6.82c-.37,0-.66.3-.66.66v16.32c2.58-1.25,5.32-2.13,8.15-2.59Z"/>
      <path class="cls-3" d="M183.58,38.53c2.19-2.59,4.73-4.77,7.52-6.48v-12.03c0-.37-.3-.66-.66-.66h-6.82c-.37,0-.66.3-.66.66v19.29c.21-.26.41-.52.63-.78Z"/>
      <path class="cls-5" d="M223.37,32.91V2.87c0-.37-.3-.66-.66-.66h-6.82c-.37,0-.66.3-.66.66v26.03c3.07.89,5.79,2.23,8.15,4Z"/>
      <path class="cls-6" d="M206.56,27.65c.97,0,1.94.05,2.9.15,1.08.11,2.14.27,3.15.47V8.59c0-.37-.3-.66-.66-.66h-6.82c-.37,0-.66.3-.66.66v19.14c.69-.05,1.39-.08,2.09-.08Z"/>
    </g>
    <path class="cls-2" d="M225.91,52.1c-.63-.51-1.64-.43-1.64-.43l-12.45.75s-12.64.94-13.23.98c-.59.04-1,.25-.87,1.13.3,2.62.11,9.47,10.01,8.75,4.9-.26,7.99-.7,9.88-1.07.66-.15.57,1.83-.27,3.53-.13.26-.34.64-.64,1.01-.37.46-.85.9-1.17,1.15-5.56,4.56-13.5,4.83-18.9.28-6.14-5.18-6.68-14.64-1.21-21.13,2.74-3.25,6.46-5.14,10.27-5.57,6.12-.8,10.46.47,15.22,2.37.6.25.99.04,1.29-.45,1.05-1.68,2.37-6,1.18-7.39-3.96-3.34-9.24-5.19-14.13-5.7-8.65-.89-17.8,2.57-24.06,9.99-9.79,11.62-8.82,28.54,2.17,37.81,10.99,9.26,27.84,7.36,37.63-4.26,5.89-6.99,6-17.07.92-21.76Z"/>
    <path class="cls-4" d="M218.9,84.61c0-.99-1.05-1.62-1.93-1.16-3.17,1.65-6.62,2.72-10.22,3.13-5.48.62-10.8-.35-15.46-2.76-.88-.46-1.94.17-1.94,1.16v2.76c0,.48.26.93.69,1.16,4.12,2.15,8.71,3.28,13.49,3.28,1.16,0,2.32-.07,3.5-.2,3.94-.45,7.71-1.63,11.18-3.45.43-.23.69-.68.69-1.16v-2.75Z"/>
  </g>
</svg>