<?xml version="1.0" encoding="UTF-8"?>
<svg id="Capa_1" data-name="Capa 1" xmlns="http://www.w3.org/2000/svg" viewBox="0 0 295.71 37.68">
  <defs>
    <style>
      .cls-1 {
        fill: #502382;
      }
    </style>
  </defs>
  <path class="cls-1" d="M16.18.9c25.61-3.27,29.17,34.48,4.98,37.13C-3.77,40.76-8.22,4.01,16.18.9ZM16.14,11.29c-10.02,2.23-6.82,19.8,5.59,15.96,10.08-3.11,5.94-18.53-5.59-15.96Z"/>
  <path class="cls-1" d="M295.71,36.35c-1.71-.32-5.74.59-6.91-.13-1.61-1-8.59-22.83-11.15-25.98-2.39,2.92-9.94,25.23-11.16,25.97-1.2.73-5.17-.18-6.9.14,3.28-4.22,12.5-32.04,14.97-33.51,1.6-.95,5.94-.96,6.99.95l14.17,32.56Z"/>
  <path class="cls-1" d="M170.59,36.35c-1.93-.22-5.21.8-6.61-.86l-10.14-25.24c-1.23.08-1.36,1.32-1.78,2.14-1.73,3.37-8.7,23.15-9.8,23.82-1.2.73-5.17-.18-6.9.14,3.01-4.32,12.48-32.03,14.97-33.51,1.44-.85,5.53-.88,6.63.43l13.65,33.08Z"/>
  <path class="cls-1" d="M76.3,37.23v-6.1c26.8,3.91,26.8-27.4,0-23.49V1.53c16.09-3.05,32.18,8.83,24.56,25.57-4.5,9.88-14.71,10.84-24.56,10.13Z"/>
  <path class="cls-1" d="M230.51,2.41v5.23c-2.06.25-12.34-.89-12.34,1.3v27.42h-6.17V7.63h-11.46s0-5.22,0-5.22h29.96Z"/>
  <rect class="cls-1" x="70.13" y="16.33" width="6.18" height="6.1"/>
</svg>