<?xml version="1.0" encoding="UTF-8"?>
<svg id="Capa_1" data-name="Capa 1" xmlns="http://www.w3.org/2000/svg" viewBox="0 0 169.28 29.56">
  <defs>
    <style>
      .cls-1 {
        fill: #fff;
      }
    </style>
  </defs>
  <path class="cls-1" d="M9.26,2.79c14.66-1.87,16.7,19.74,2.85,21.26C-2.16,25.61-4.71,4.57,9.26,2.79ZM9.24,8.74c-5.74,1.28-3.9,11.33,3.2,9.14,5.77-1.78,3.4-10.61-3.2-9.14Z"/>
  <path class="cls-1" d="M169.28,23.08c-.98-.18-3.28.34-3.95-.08-.92-.57-4.92-13.07-6.39-14.87-1.37,1.67-5.69,14.45-6.39,14.87s-2.96-.11-3.95.08c1.88-2.42,7.16-18.34,8.57-19.18.92-.54,3.4-.55,4,.54l8.11,18.64Z"/>
  <path class="cls-1" d="M97.65,23.08c-1.11-.13-2.98.46-3.78-.49l-5.8-14.45c-.7.04-.78.76-1.02,1.23-.99,1.93-4.98,13.25-5.61,13.64-.69.42-2.96-.11-3.95.08,1.72-2.47,7.14-18.33,8.57-19.18.82-.49,3.17-.5,3.79.25l7.81,18.93Z"/>
  <path class="cls-1" d="M43.68,23.59v-3.49c15.34,2.24,15.34-15.68,0-13.45v-3.49c9.21-1.75,18.42,5.05,14.06,14.64-2.57,5.66-8.42,6.2-14.06,5.8Z"/>
  <path class="cls-1" d="M131.96,3.65v2.99c-1.18.14-7.06-.51-7.06.74v15.7h-3.53V6.64h-6.56s0-2.99,0-2.99h17.15Z"/>
  <rect class="cls-1" x="40.15" y="11.62" width="3.54" height="3.49"/>
</svg>