<?xml version="1.0" encoding="UTF-8"?>
<svg id="Capa_1" data-name="Capa 1" xmlns="http://www.w3.org/2000/svg" viewBox="0 0 113.7 149.6">
  <defs>
    <style>
      .cls-1 {
        fill: #55428b;
      }

      .cls-2 {
        fill: #6f6e70;
      }

      .cls-3 {
        fill: #aaaaa8;
      }

      .cls-4 {
        fill: #54408a;
      }

      .cls-5 {
        fill: #c0d36f;
      }
    </style>
  </defs>
  <path class="cls-4" d="M15.55,120.99H4.77v-52.58h22.08c1.98,0,6.88,1.76,8.71,2.75,9.68,5.29,10.3,20.68,1.92,27.42-1.9,1.52-7.62,4.21-9.95,4.21-3.99-.06-7.98-.11-11.97-.17v18.37ZM15.55,94.36h8.49c4.81-.63,8.24-4.93,7.85-9.51-.36-4.22-3.89-7.7-8.33-8.02h-8.01v17.53Z"/>
  <path class="cls-4" d="M110.27,68.41v8.76h-14.33s-.51.47-.51.51v43.31h-10.45v-43.31s-.47-.51-.51-.51h-14.33v-8.76h40.11Z"/>
  <rect class="cls-1" x="51.62" y="68.41" width="11.46" height="52.58"/>
  <path class="cls-2" d="M56.67,139.19c.07-.07,1.79-.25,2.05-.2.67.13.64.89.83.89.59,0,1.39-.82,2.09-.96,2.65-.52,3.41,1.6,3.63,1.61.24,0,1.75-1.94,4.34-1.66,1.02.11,3.24,1.55,3.24,2.51v9.27h-3.03v-8.26c0-1.77-3.37-.97-3.37,0v8.26h-3.03v-7.92c0-1.93-3.71-1.44-3.71-.34v8.26h-3.03c.31-1.44-.41-11.06,0-11.46Z"/>
  <path class="cls-2" d="M22.9,138.11c-.92.53-2.38-.74-3.5-.91-8.17-1.2-8.21,11.65-.3,10.76,1.29-.14,3.9-2.49,4.51-.11.49,1.92-4.79,3.21-6.19,3.15-9.39-.38-10.23-15.81.02-16.83,1.67-.16,4.88.31,5.89,1.8.43.64.07,1.85-.43,2.14Z"/>
  <path class="cls-2" d="M78.25,133.8v6.4c9.36-6.53,10.87,12.53,1.59,10.38-.65-.15-1.33-.94-1.42-.93-.28.02-.35.92-.74,1.01-.6.15-1.47-.1-2.12,0v-16.85h2.7ZM79.85,141.3c-2.07.53-1.93,4.06-1.59,5.81.39,2.07,3.89,1.99,4.56-.14.74-2.37.51-6.55-2.97-5.66Z"/>
  <path class="cls-2" d="M29.63,138.94c8.78-1.14,8.9,11.64,1.21,12.02-7.24.36-8.37-11.1-1.21-12.02ZM29.61,141.28c-2.39.71-2.68,7.65,1.2,7.27,3.67-.35,3.52-8.69-1.2-7.27Z"/>
  <path class="cls-2" d="M44.99,140.32c2.56-2.55,8.21-1.74,9.49,1.91,1.94,5.52-2.84,10.73-8.28,7.94-3.41-1.75-3.77-7.3-1.21-9.85ZM48.15,141.28c-2.27.68-2.67,7.65,1.2,7.28,3.87-.38,3.47-8.67-1.2-7.28Z"/>
  <path class="cls-2" d="M103.19,150.65c-.66-.09-1.53.15-2.12,0-.39-.1-.45-.98-.74-1.01-.14-.01-1.79,1.06-2.52,1.2-2.12.41-4.43-.65-4.43-3.06,0-3.28,4.2-4.08,6.77-3.88.12-4.78-3.74-1.35-5.15-1.73-.75-.2-1.29-1.37-.7-2.01,1.19-1.3,5.24-1.67,6.83-.78.7.39,2.05,2.3,2.05,3.01v8.26ZM100.16,145.93c-1.64-.11-4.08-.18-3.9,2.02,1.72,1.66,4.36.43,3.9-2.02Z"/>
  <path class="cls-2" d="M41.17,133.8v16.85h-2.7v-16.35c0-.65,2.15-.54,2.7-.51Z"/>
  <path class="cls-2" d="M91.05,139.19v11.46c-.56,0-3.03.2-3.03-.51v-10.95h3.03Z"/>
  <path class="cls-2" d="M89.59,133.87c2.13-.2,2.99,3.82.26,3.97-2.78.16-2.69-3.74-.26-3.97Z"/>
  <g>
    <path class="cls-5" d="M32.21,29.61c1.21-1.47,1.93-3.36,1.93-5.41,0-4.72-3.83-8.55-8.55-8.55s-8.55,3.83-8.55,8.55,3.83,8.55,8.55,8.55c1.46,0,2.83-.37,4.03-1.01l20.65,20.15c.2-.3,1.9-2.26,2.02-2.36l-20.08-19.92Z"/>
    <path class="cls-3" d="M65.56,8.55c0-4.72-3.83-8.55-8.55-8.55s-8.55,3.83-8.55,8.55c0,4.15,2.96,7.62,6.89,8.39l-.02,31.24c.55-.12,2.4-.08,3.03,0l.32-31.24c3.93-.78,6.89-4.24,6.89-8.39Z"/>
    <path class="cls-4" d="M88.37,15.65c-4.72,0-8.55,3.83-8.55,8.55,0,2.07.74,3.97,1.96,5.45l-19.72,19.55c.08.06.42,1.14,1.18,1.7.46.34,1.14.28,1.18.32l19.76-19.5s-.06-.07-.09-.11c1.26.73,2.72,1.15,4.28,1.15,4.72,0,8.55-3.83,8.55-8.55s-3.83-8.55-8.55-8.55Z"/>
    <path class="cls-4" d="M49.26,54.59l-32.32.02c-.78-3.92-4.24-6.88-8.39-6.88-4.72,0-8.55,3.83-8.55,8.55s3.83,8.55,8.55,8.55c4.16,0,7.62-2.96,8.39-6.89l31.98.02c-.04-.54.22-2.78.34-3.37Z"/>
    <path class="cls-5" d="M105.14,47.72c-4.14,0-7.6,2.95-8.39,6.86h-30.98c.12.65.09,2.66,0,3.37l30.98-.02c.77,3.93,4.24,6.89,8.39,6.89,4.72,0,8.55-3.83,8.55-8.55s-3.83-8.55-8.55-8.55Z"/>
    <circle class="cls-2" cx="56.91" cy="56.56" r="8.79"/>
  </g>
</svg>