<?xml version="1.0" encoding="UTF-8"?>
<svg id="Capa_1" data-name="Capa 1" xmlns="http://www.w3.org/2000/svg" xmlns:xlink="http://www.w3.org/1999/xlink" viewBox="0 0 471.66 511.06">
  <defs>
    <style>
      .cls-1 {
        fill: #37474f;
      }

      .cls-2 {
        fill: #005d82;
      }

      .cls-3, .cls-4 {
        fill: #a46ba9;
      }

      .cls-5 {
        fill: #263238;
      }

      .cls-6, .cls-7, .cls-8, .cls-9 {
        fill: #fff;
      }

      .cls-10 {
        fill: #91d4f5;
      }

      .cls-11 {
        fill: #009ee2;
      }

      .cls-7, .cls-4 {
        opacity: .8;
      }

      .cls-8 {
        opacity: .35;
      }

      .cls-12 {
        fill: #455a64;
      }

      .cls-13 {
        fill: #edf3fc;
      }

      .cls-14 {
        fill: #f4f4f4;
      }

      .cls-15 {
        fill: url(#Degradado_sin_nombre_18);
      }

      .cls-16 {
        opacity: .1;
      }

      .cls-9 {
        opacity: .7;
      }

      .cls-17 {
        fill: #d1d9e8;
      }
    </style>
    <linearGradient id="Degradado_sin_nombre_18" data-name="Degradado sin nombre 18" x1="294.75" y1="212.06" x2="381.81" y2="158.21" gradientUnits="userSpaceOnUse">
      <stop offset=".02" stop-color="#009ee2"/>
      <stop offset=".09" stop-color="#068cd3"/>
      <stop offset=".26" stop-color="#146ab6"/>
      <stop offset=".44" stop-color="#1f509f"/>
      <stop offset=".61" stop-color="#263d8e"/>
      <stop offset=".8" stop-color="#2b3185"/>
      <stop offset=".99" stop-color="#2d2e82"/>
    </linearGradient>
  </defs>
  <g>
    <g>
      <g id="Conection">
        <path class="cls-15" d="M262.38,235.06l-1.27-2.21,97.39-56.21c1.5-.87,2.43-2.48,2.43-4.22v-8.3h2.55v8.3c0,2.64-1.42,5.1-3.71,6.42l-97.39,56.21Z"/>
        <g>
          <path class="cls-12" d="M365.23,157.92c0-.45-.3-.89-.89-1.24-1.18-.68-3.1-.68-4.28,0-.59.34-.89.79-.89,1.24h0v7.96h0c0,.45.3.89.89,1.24,1.18.68,3.1.68,4.28,0,.59-.34.89-.79.89-1.24h0v-7.96h0Z"/>
          <path class="cls-1" d="M367.08,149.96c0-.72-.48-1.44-1.43-1.99-1.9-1.1-4.99-1.1-6.9,0-.95.55-1.43,1.27-1.43,1.99h0v7.83h.02c-.06.77.39,1.54,1.41,2.13,1.9,1.1,4.99,1.1,6.9,0,1.01-.58,1.47-1.36,1.41-2.13h.02v-7.83h0Z"/>
        </g>
      </g>
      <g id="Cloud">
        <g id="Cloud-2" data-name="Cloud">
          <path class="cls-4" d="M409.91,105.82h0s-.28-.17-.28-.17c-.06-.03-.11-.07-.17-.1l-6.14-3.55c0-.14,0-.29,0-.43,0-7.54-2.54-12.82-6.53-15.04h0s-11.81-6.82-11.81-6.82h0c-3.25-1.86-7.47-1.68-12.1.99-2.04,1.18-4,2.76-5.84,4.63-.78-.8-1.63-1.48-2.55-2.03h0s-11.41-6.57-11.41-6.57h0c-4.17-2.76-9.77-2.7-15.92.85-12.92,7.46-23.39,27.47-23.39,44.7,0,2.04.15,3.94.43,5.7l-1.61.93c-8.22,4.75-14.88,17.48-14.88,28.44h0c0,6.05,2.03,10.37,5.24,12.22h0s11.95,6.9,11.95,6.9h0c2.59,1.48,5.95,1.36,9.62-.75l21.65-12.5,57.66-33.29c4.93-2.85,8.93-10.49,8.93-17.06h0c0-3.44-1.1-5.9-2.85-7.06Z"/>
          <path class="cls-11" d="M409.91,105.82h0s-.28-.17-.28-.17c-.06-.03-.11-.07-.17-.1l-6.14-3.55c0-.14,0-.29,0-.43,0-7.54-2.54-12.82-6.53-15.04h0s-11.81-6.82-11.81-6.82h0c-3.25-1.86-7.47-1.68-12.1.99-2.04,1.18-4,2.76-5.84,4.63-.78-.8-1.63-1.48-2.55-2.03h0s-11.41-6.57-11.41-6.57h0c-4.17-2.76-9.77-2.7-15.92.85-12.92,7.46-23.39,27.47-23.39,44.7,0,2.04.15,3.94.43,5.7l-1.61.93c-8.22,4.75-14.88,17.48-14.88,28.44h0c0,6.05,2.03,10.37,5.24,12.22h0s11.95,6.9,11.95,6.9h0c2.59,1.48,5.95,1.36,9.62-.75l21.65-12.5,57.66-33.29c4.93-2.85,8.93-10.49,8.93-17.06h0c0-3.44-1.1-5.9-2.85-7.06Z"/>
          <path class="cls-8" d="M396.82,86.53h-.01c-3.23-1.8-7.42-1.59-11.98,1.05-2.15,1.24-4.21,2.92-6.12,4.92l-10.82-6.29-1.06-.62c.09-.09.18-.18.26-.27,1.84-1.87,3.8-3.45,5.84-4.63,4.63-2.67,8.86-2.84,12.11-.98h0s11.81,6.81,11.81,6.81Z"/>
          <path class="cls-7" d="M367.07,85.33c.28.28.54.57.8.88l-1.06-.62c.09-.09.18-.18.26-.27Z"/>
          <path class="cls-8" d="M364.23,83.14h0c-4.07-2.26-9.35-2-15.12,1.33-5.86,3.38-11.22,9.35-15.33,16.48l-11.9-6.87c4.1-7.12,9.46-13.09,15.32-16.48,6.15-3.55,11.75-3.6,15.92-.84h0s11.12,6.38,11.12,6.38Z"/>
          <path class="cls-8" d="M326.14,134.88l-1.62.93c-5.57,3.21-10.43,10.1-12.97,17.62l-11.91-6.88c2.03-5.99,5.53-11.58,9.69-15.23l4.9-3.32,11.91,6.88Z"/>
          <path class="cls-11" d="M403.84,106.13l-.85.49c.23-1.7.36-3.39.36-5.05,0-13.64-8.29-19.9-18.52-14-4.74,2.74-9.07,7.62-12.35,13.42-.46-16.42-10.75-23.82-23.37-16.53-12.92,7.46-23.39,27.47-23.39,44.7,0,2.04.15,3.94.43,5.7l-1.61.93c-8.22,4.75-14.88,17.48-14.88,28.44h0c0,10.96,6.66,16.24,14.88,11.49l21.65-12.5h0l57.66-33.29c4.93-2.85,8.93-10.49,8.93-17.06h0c0-6.58-4-9.6-8.93-6.75Z"/>
          <path class="cls-9" d="M403.84,106.13l-.85.49c.23-1.7.36-3.39.36-5.05,0-13.64-8.29-19.9-18.52-14-4.74,2.74-9.07,7.62-12.35,13.42-.46-16.42-10.75-23.82-23.37-16.53-12.92,7.46-23.39,27.47-23.39,44.7,0,2.04.15,3.94.43,5.7l-1.61.93c-8.22,4.75-14.88,17.48-14.88,28.44h0c0,10.96,6.66,16.24,14.88,11.49l21.65-12.5h0l57.66-33.29c4.93-2.85,8.93-10.49,8.93-17.06h0c0-6.58-4-9.6-8.93-6.75Z"/>
          <path class="cls-10" d="M319.73,174.43c-3.67,0-6.03-4-6.03-10.19,0-9.8,6.12-21.62,13.36-25.8l1.61-.93c1.09-.63,1.68-1.87,1.49-3.12h0c-.26-1.65-.39-3.4-.39-5.23,0-16.23,9.81-35.1,21.87-42.06,2.76-1.59,5.37-2.4,7.76-2.4,6.53,0,10.76,6.27,11.04,16.37h0c.09,3.09,4.18,4.1,5.7,1.41h0c3.14-5.55,7.12-9.91,11.22-12.28,2.08-1.2,4.04-1.81,5.83-1.81,4.93,0,8.12,5.17,8.12,13.17,0,1.48-.11,3.04-.33,4.63h0c-.34,2.51,2.35,4.32,4.55,3.06l.85-.49c.75-.43,1.45-.66,2.02-.66,1.61,0,2.34,2.4,2.34,4.77,0,5.5-3.39,12.1-7.41,14.42l-79.31,45.79c-1.54.89-2.98,1.34-4.27,1.34h0Z"/>
        </g>
      </g>
    </g>
    <g id="Server">
      <g>
        <path class="cls-13" d="M199.36,134.63l64.73,37.37c1.2.69,2.17,2.37,2.17,3.75v205.67c0,1.38-.97,3.06-2.17,3.75l-70.02,40.42c-1.2.69-3.13.69-4.33,0l-64.73-37.37c-1.2-.69-2.17-2.37-2.17-3.75v-205.67c0-1.38.97-3.06,2.17-3.75l70.02-40.42c1.2-.69,3.13-.69,4.33,0Z"/>
        <path class="cls-17" d="M122.85,178.8v205.68c0,1.38.97,3.06,2.16,3.75l64.74,37.37c.59.35,1.38.52,2.16.52v-210.68c-.78,0-1.56-.18-2.16-.52l-64.74-37.37-.59-.49-.77-.64c-.49.74-.8,1.6-.8,2.38Z"/>
        <path class="cls-13" d="M125.01,175.05l70.02-40.42c1.2-.69,3.13-.69,4.33,0l64.73,37.37c1.2.69,1.2,1.81,0,2.5l-70.02,40.42c-1.2.69-3.13.69-4.33,0l-64.73-37.37c-1.2-.69-1.2-1.81,0-2.5Z"/>
      </g>
      <g>
        <path class="cls-12" d="M201.57,321.87c-.28,0-.54-.07-.77-.2-.55-.31-.85-.94-.85-1.77v-18.45c0-1.54,1.04-3.35,2.38-4.12l53.77-31.04c.71-.41,1.41-.47,1.96-.15.55.32.85.94.85,1.77v18.45c0,1.54-1.05,3.35-2.38,4.12l-53.77,31.04c-.41.24-.81.35-1.18.35ZM256.52,267.02l-53.77,31.04c-1.06.61-1.95,2.16-1.95,3.38v18.45c0,.5.15.88.42,1.03.27.15.67.1,1.11-.15l53.77-31.04c1.06-.61,1.95-2.16,1.95-3.38v-18.45c0-.5-.15-.88-.42-1.03-.27-.15-.67-.1-1.11.15h0Z"/>
        <path class="cls-11" d="M254.41,274.78c0,1.3-.97,2.91-2.17,3.6l-45.64,26.35c-1.2.69-2.17.2-2.17-1.1s.97-2.91,2.17-3.6l45.64-26.35c1.2-.69,2.17-.2,2.17,1.1Z"/>
        <path class="cls-5" d="M254.41,284.17c0,1.3-.97,2.91-2.17,3.6l-45.64,26.35c-1.2.69-2.17.2-2.17-1.1s.97-2.91,2.17-3.6l45.64-26.35c1.2-.69,2.17-.2,2.17,1.1Z"/>
        <path class="cls-11" d="M252.25,283.07l-19.37,11.18v4.69s19.37-11.18,19.37-11.18c1.2-.69,2.17-2.3,2.17-3.6s-.97-1.79-2.17-1.1Z"/>
      </g>
      <g>
        <path class="cls-2" d="M181.75,218.86c-2.24-1.3-4.06-.12-4.06,2.65v108.86c0,2.76,1.82,6.06,4.06,7.36,2.24,1.3,4.06.12,4.06-2.65v-108.86c0-2.76-1.82-6.05-4.06-7.36Z"/>
        <path class="cls-1" d="M181.75,335.34c-1.12-.65-2.03-2.29-2.03-3.67v-109.16c0-1.38.91-1.98,2.03-1.33,1.12.65,2.03,2.29,2.03,3.67v109.16c0,1.38-.91,1.98-2.03,1.33Z"/>
        <path class="cls-3" d="M181.75,335.34c-1.12-.65-2.03-2.29-2.03-3.67v-58.23s4.06,2.35,4.06,2.35v58.23c0,1.38-.91,1.98-2.03,1.33Z"/>
        <path class="cls-11" d="M181.75,335.34c-1.12-.65-2.03-2.29-2.03-3.67v-58.23s4.06,2.35,4.06,2.35v58.23c0,1.38-.91,1.98-2.03,1.33Z"/>
        <path class="cls-2" d="M169.56,211.82c-2.24-1.3-4.06-.12-4.06,2.65v108.86c0,2.76,1.82,6.06,4.06,7.36,2.24,1.3,4.06.12,4.06-2.65v-108.86c0-2.76-1.82-6.06-4.06-7.36Z"/>
        <path class="cls-3" d="M169.56,328.3c-1.12-.65-2.03-2.29-2.03-3.67v-109.16c0-1.38.91-1.98,2.03-1.33,1.12.65,2.03,2.29,2.03,3.67v109.16c0,1.38-.91,1.98-2.03,1.33Z"/>
        <path class="cls-11" d="M169.56,328.3c-1.12-.65-2.03-2.29-2.03-3.67v-109.16c0-1.38.91-1.98,2.03-1.33,1.12.65,2.03,2.29,2.03,3.67v109.16c0,1.38-.91,1.98-2.03,1.33Z"/>
        <path class="cls-2" d="M157.37,204.78c-2.24-1.3-4.06-.12-4.06,2.65v108.86c0,2.76,1.82,6.06,4.06,7.36,2.24,1.3,4.06.12,4.06-2.65v-108.86c0-2.76-1.82-6.06-4.06-7.36Z"/>
        <path class="cls-1" d="M157.37,321.26c-1.12-.65-2.03-2.29-2.03-3.67v-109.16c0-1.38.91-1.98,2.03-1.33,1.12.65,2.03,2.29,2.03,3.67v109.16c0,1.38-.91,1.98-2.03,1.33Z"/>
        <path class="cls-3" d="M157.37,321.26c-1.12-.65-2.03-2.29-2.03-3.67v-81.88s4.06,2.35,4.06,2.35v81.88c0,1.38-.91,1.98-2.03,1.33Z"/>
        <path class="cls-11" d="M157.37,321.26c-1.12-.65-2.03-2.29-2.03-3.67v-81.88s4.06,2.35,4.06,2.35v81.88c0,1.38-.91,1.98-2.03,1.33Z"/>
        <path class="cls-2" d="M145.19,197.75c-2.24-1.3-4.06-.12-4.06,2.65v108.85c0,2.76,1.82,6.06,4.06,7.36,2.24,1.3,4.06.12,4.06-2.65v-108.86c0-2.76-1.82-6.06-4.06-7.36Z"/>
        <path class="cls-1" d="M145.19,314.23c-1.12-.65-2.03-2.29-2.03-3.67v-109.16c0-1.38.91-1.98,2.03-1.33,1.12.65,2.03,2.29,2.03,3.67v109.16c0,1.38-.91,1.98-2.03,1.33Z"/>
        <path class="cls-3" d="M145.19,314.23c-1.12-.65-2.03-2.29-2.03-3.67v-23.39s4.06,2.35,4.06,2.35v23.39c0,1.38-.91,1.98-2.03,1.33Z"/>
        <path class="cls-11" d="M145.19,314.23c-1.12-.65-2.03-2.29-2.03-3.67v-23.39s4.06,2.35,4.06,2.35v23.39c0,1.38-.91,1.98-2.03,1.33Z"/>
        <path class="cls-2" d="M133,190.71c-2.24-1.3-4.06-.12-4.06,2.65v108.86c0,2.76,1.82,6.06,4.06,7.36,2.24,1.3,4.06.12,4.06-2.65v-108.86c0-2.76-1.82-6.05-4.06-7.36Z"/>
        <path class="cls-1" d="M133,307.19c-1.12-.65-2.03-2.29-2.03-3.67v-109.15c0-1.38.91-1.98,2.03-1.33,1.12.65,2.03,2.29,2.03,3.67v109.16c0,1.38-.91,1.98-2.03,1.33Z"/>
        <path class="cls-3" d="M133,307.19c-1.12-.65-2.03-2.29-2.03-3.67v-62.93s4.06,2.35,4.06,2.35v62.93c0,1.38-.91,1.98-2.03,1.33Z"/>
        <path class="cls-11" d="M133,307.19c-1.12-.65-2.03-2.29-2.03-3.67v-62.93s4.06,2.35,4.06,2.35v62.93c0,1.38-.91,1.98-2.03,1.33Z"/>
      </g>
      <g>
        <path class="cls-12" d="M256.31,187.45l-53.77,31.04c-1.2.69-2.17,2.37-2.17,3.75v61.84c0,1.38.97,1.94,2.17,1.25l53.77-31.04c1.2-.69,2.17-2.37,2.17-3.75v-61.84c0-1.38-.97-1.94-2.16-1.25Z"/>
        <path class="cls-5" d="M200.96,220.2c-.36.66-.59,1.38-.59,2.04v61.84c0,1.38.97,1.94,2.17,1.25l53.77-31.04c.62-.36,1.18-.99,1.57-1.7l-56.92-32.39Z"/>
        <path class="cls-1" d="M202.54,218.5c-1.2.69-2.17,2.37-2.17,3.75v59.44s51.71-29.85,51.71-29.85c1.2-.69,2.17-2.37,2.17-3.75v-59.44s-51.71,29.85-51.71,29.85Z"/>
      </g>
      <g id="Server-2" data-name="Server">
        <g>
          <path class="cls-1" d="M137.87,388.45c.53.31.96,1.05.96,1.66s-.43.86-.96.55c-.53-.31-.96-1.05-.96-1.66s.43-.86.96-.55Z"/>
          <path class="cls-1" d="M145.85,393.07c.53.3.96,1.05.96,1.65s-.43.86-.95.55c-.53-.3-.96-1.04-.96-1.65s.43-.86.95-.55Z"/>
          <path class="cls-1" d="M153.7,397.6c.53.3.95,1.04.95,1.65s-.43.85-.95.55c-.53-.3-.95-1.04-.95-1.65s.43-.85.95-.55Z"/>
          <path class="cls-1" d="M161.62,402.17c.52.3.95,1.04.95,1.64s-.42.85-.95.55c-.52-.3-.95-1.04-.95-1.64s.42-.85.95-.55Z"/>
        </g>
        <g>
          <path class="cls-14" d="M128.55,341.5l8.11,4.66c1.27.73,2.3,2.52,2.3,3.98v4.66c0,1.47-1.03,2.06-2.3,1.33l-8.11-4.66c-1.27-.73-2.3-2.52-2.3-3.99v-4.66c0-1.47,1.03-2.06,2.3-1.33Z"/>
          <g>
            <path class="cls-1" d="M145.48,349.52l39.35,22.7c.7.41,1.27,1.4,1.27,2.21v10.87c0,.81-.57,1.14-1.28.74l-39.35-22.7c-.7-.41-1.28-1.4-1.28-2.21v-10.87c0-.81.57-1.14,1.27-.74Z"/>
            <path class="cls-11" d="M146.6,354.31c0,.76.57,1.71,1.27,2.12l34.57,19.94c.7.41,1.28.12,1.27-.64,0-.76-.57-1.71-1.27-2.12l-34.57-19.94c-.7-.41-1.27-.12-1.27.64Z"/>
            <path class="cls-5" d="M146.6,359.83c0,.76.57,1.71,1.27,2.12l34.57,19.94c.7.41,1.28.12,1.27-.64,0-.76-.57-1.71-1.27-2.12l-34.57-19.94c-.7-.41-1.27-.12-1.27.64Z"/>
            <path class="cls-11" d="M147.88,359.19l23.88,13.77v2.76s-23.88-13.77-23.88-13.77c-.7-.41-1.27-1.35-1.27-2.12s.57-1.05,1.27-.64Z"/>
          </g>
        </g>
        <g>
          <path class="cls-12" d="M217.22,330.79c-.31,0-.61-.07-.87-.23-.61-.35-.95-1.07-.95-2v-5.11c0-1.77,1.2-3.86,2.74-4.74l37.6-21.71c.81-.47,1.6-.53,2.21-.18.61.35.95,1.07.95,2v5.11c0,1.77-1.2,3.86-2.74,4.74l-37.6,21.71c-.47.27-.92.4-1.34.4ZM257.07,297.45c-.27,0-.58.1-.91.29l-37.6,21.71c-1.25.72-2.31,2.56-2.31,4.01v5.11c0,.62.19,1.07.53,1.27.34.2.82.13,1.36-.18l37.6-21.71c1.25-.72,2.31-2.56,2.31-4.01v-5.11c0-.62-.19-1.07-.53-1.27-.13-.08-.28-.11-.45-.11Z"/>
          <g>
            <path class="cls-11" d="M255.81,301.7v2.48c0,.32-.23.71-.51.88l-.57.33c-.28.16-.51.03-.51-.29v-2.48c0-.32.23-.71.51-.88l.57-.33c.28-.16.51-.03.51.29Z"/>
            <path class="cls-11" d="M253.26,303.17v2.48c0,.32-.23.71-.51.87l-.57.33c-.28.16-.51.03-.51-.29v-2.48c0-.32.23-.71.51-.87l.57-.33c.28-.16.51-.03.51.29Z"/>
            <path class="cls-11" d="M250.7,304.64v2.48c0,.32-.23.71-.51.88l-.57.33c-.28.16-.51.03-.51-.29v-2.48c0-.32.23-.71.51-.88l.57-.33c.28-.16.51-.03.51.29Z"/>
            <path class="cls-11" d="M248.15,306.11v2.48c0,.32-.23.71-.51.88l-.57.33c-.28.16-.51.03-.51-.29v-2.48c0-.32.23-.71.51-.87l.57-.33c.28-.16.51-.03.51.29Z"/>
            <path class="cls-1" d="M245.6,307.58v2.48c0,.32-.23.71-.51.87l-.57.33c-.28.16-.51.03-.51-.29v-2.48c0-.32.23-.71.51-.88l.57-.33c.28-.16.51-.03.51.29Z"/>
            <path class="cls-1" d="M243.04,309.06v2.48c0,.32-.23.71-.51.88l-.57.33c-.28.16-.51.03-.51-.29v-2.48c0-.32.23-.71.51-.88l.57-.33c.28-.16.51-.03.51.29Z"/>
            <path class="cls-11" d="M240.49,310.53v2.48c0,.32-.23.71-.51.87l-.57.33c-.28.16-.51.03-.51-.29v-2.48c0-.32.23-.71.51-.88l.57-.33c.28-.16.51-.03.51.29Z"/>
            <path class="cls-11" d="M237.94,312v2.48c0,.32-.23.71-.51.88l-.57.33c-.28.16-.51.03-.51-.29v-2.48c0-.32.23-.71.51-.87l.57-.33c.28-.16.51-.03.51.29Z"/>
            <path class="cls-11" d="M235.38,313.47v2.48c0,.32-.23.71-.51.88l-.57.33c-.28.16-.51.03-.51-.29v-2.48c0-.32.23-.71.51-.88l.57-.33c.28-.16.51-.03.51.29Z"/>
            <path class="cls-1" d="M232.83,314.94v2.48c0,.32-.23.71-.51.88l-.57.33c-.28.16-.51.03-.51-.29v-2.48c0-.32.23-.71.51-.87l.57-.33c.28-.16.51-.03.51.29Z"/>
            <path class="cls-11" d="M230.28,316.41v2.48c0,.32-.23.71-.51.87l-.57.33c-.28.16-.51.03-.51-.29v-2.48c0-.32.23-.71.51-.87l.57-.33c.28-.16.51-.03.51.29Z"/>
            <path class="cls-11" d="M227.72,317.89v2.48c0,.32-.23.71-.51.88l-.57.33c-.28.16-.51.03-.51-.29v-2.48c0-.32.23-.71.51-.88l.57-.33c.28-.16.51-.03.51.29Z"/>
            <path class="cls-1" d="M225.17,319.36v2.48c0,.32-.23.71-.51.88l-.57.33c-.28.16-.51.03-.51-.29v-2.48c0-.32.23-.71.51-.87l.57-.33c.28-.16.51-.03.51.29Z"/>
            <path class="cls-11" d="M222.62,320.83v2.48c0,.32-.23.71-.51.88l-.57.33c-.28.16-.51.03-.51-.29v-2.48c0-.32.23-.71.51-.88l.57-.33c.28-.16.51-.03.51.29Z"/>
            <path class="cls-1" d="M220.07,322.3v2.48c0,.32-.23.71-.51.88l-.57.33c-.28.16-.51.03-.51-.29v-2.48c0-.32.23-.71.51-.88l.57-.33c.28-.16.51-.03.51.29Z"/>
          </g>
        </g>
        <g>
          <g>
            <path class="cls-1" d="M212.02,327.27l-1.05-.61h0s0,0,0,0h0c-.36-.2-.86-.17-1.41.14-1.1.64-2,2.19-2,3.46,0,.64.22,1.08.58,1.29h0s0,0,0,0h0s.98.56.98.56l.18-.3c.18-.04.37-.11.57-.22,1.1-.64,2-2.19,2-3.46,0-.19-.03-.36-.06-.51l.21-.36Z"/>
            <path class="cls-12" d="M210.57,327.38c-1.1.64-2,2.19-2,3.46s.9,1.79,2,1.15c1.1-.64,2-2.19,2-3.46,0-1.28-.9-1.79-2-1.15Z"/>
          </g>
          <g>
            <path class="cls-1" d="M203.34,332.28l-1.05-.61h0s0,0,0,0h0c-.36-.2-.86-.17-1.41.14-1.1.64-2,2.19-2,3.46,0,.64.22,1.08.58,1.29h0s0,0,0,0h0s.98.56.98.56l.18-.3c.18-.04.37-.11.57-.22,1.1-.64,2-2.19,2-3.46,0-.19-.03-.36-.06-.51l.21-.36Z"/>
            <path class="cls-12" d="M201.89,332.39c-1.1.64-2,2.19-2,3.46s.9,1.79,2,1.15c1.1-.64,2-2.19,2-3.46,0-1.28-.9-1.79-2-1.15Z"/>
          </g>
        </g>
        <g>
          <g>
            <path class="cls-12" d="M145.48,327.04l39.35,22.7c.7.41,1.27,1.4,1.27,2.21v10.87c0,.81-.57,1.14-1.28.74l-39.35-22.7c-.7-.41-1.28-1.4-1.28-2.21v-10.87c0-.81.57-1.14,1.27-.74Z"/>
            <path class="cls-3" d="M146.6,331.83c0,.76.57,1.71,1.27,2.12l34.57,19.94c.7.41,1.28.12,1.27-.64,0-.76-.57-1.71-1.27-2.12l-34.57-19.94c-.7-.41-1.27-.12-1.27.65Z"/>
            <path class="cls-5" d="M146.6,337.36c0,.76.57,1.71,1.27,2.12l34.57,19.94c.7.41,1.28.12,1.27-.65,0-.76-.57-1.71-1.27-2.12l-34.57-19.94c-.7-.41-1.27-.12-1.27.65Z"/>
            <path class="cls-3" d="M147.88,336.71l19.1,11.01v2.76s-19.1-11.01-19.1-11.01c-.7-.41-1.27-1.35-1.27-2.12s.57-1.05,1.27-.65Z"/>
          </g>
          <g>
            <path class="cls-14" d="M128.55,319.08l8.11,4.66c1.27.73,2.3,2.52,2.3,3.98v4.66c0,1.47-1.03,2.06-2.3,1.33l-8.11-4.66c-1.27-.73-2.3-2.52-2.3-3.98v-4.66c0-1.47,1.03-2.06,2.3-1.33Z"/>
            <g>
              <path class="cls-3" d="M130.74,324.33l1.05-.61h0s0,0,0,0h0c.36-.2.86-.17,1.41.14,1.1.64,2,2.19,2,3.46,0,.64-.22,1.08-.58,1.29h0s0,0,0,0h0s-.98.56-.98.56l-.18-.3c-.18-.04-.37-.11-.57-.22-1.1-.64-2-2.19-2-3.46,0-.19.03-.36.06-.51l-.21-.36Z"/>
              <path class="cls-2" d="M130.74,324.33l1.05-.61h0s0,0,0,0h0c.36-.2.86-.17,1.41.14,1.1.64,2,2.19,2,3.46,0,.64-.22,1.08-.58,1.29h0s0,0,0,0h0s-.98.56-.98.56l-.18-.3c-.18-.04-.37-.11-.57-.22-1.1-.64-2-2.19-2-3.46,0-.19.03-.36.06-.51l-.21-.36Z"/>
              <path class="cls-11" d="M132.19,324.45c1.1.64,2,2.19,2,3.46s-.9,1.79-2,1.15c-1.1-.64-2-2.19-2-3.46,0-1.28.9-1.79,2-1.15Z"/>
            </g>
            <g>
              <path class="cls-3" d="M130.74,347.21l1.05-.61h0s0,0,0,0h0c.36-.2.86-.17,1.41.14,1.1.64,2,2.19,2,3.46,0,.64-.22,1.08-.58,1.29h0s0,0,0,0h0s-.98.56-.98.56l-.18-.3c-.18-.04-.37-.11-.57-.22-1.1-.64-2-2.19-2-3.46,0-.19.03-.36.06-.51l-.21-.36Z"/>
              <path class="cls-2" d="M130.74,347.21l1.05-.61h0s0,0,0,0h0c.36-.2.86-.17,1.41.14,1.1.64,2,2.19,2,3.46,0,.64-.22,1.08-.58,1.29h0s0,0,0,0h0s-.98.56-.98.56l-.18-.3c-.18-.04-.37-.11-.57-.22-1.1-.64-2-2.19-2-3.46,0-.19.03-.36.06-.51l-.21-.36Z"/>
              <path class="cls-11" d="M132.19,347.33c1.1.64,2,2.19,2,3.46s-.9,1.79-2,1.15c-1.1-.64-2-2.19-2-3.46,0-1.28.9-1.79,2-1.15Z"/>
            </g>
          </g>
          <g>
            <path class="cls-1" d="M145.48,327.04l39.35,22.7c.7.41,1.27,1.4,1.27,2.21v10.87c0,.81-.57,1.14-1.28.74l-39.35-22.7c-.7-.41-1.28-1.4-1.28-2.21v-10.87c0-.81.57-1.14,1.27-.74Z"/>
            <path class="cls-11" d="M146.6,331.83c0,.76.57,1.71,1.27,2.12l34.57,19.94c.7.41,1.28.12,1.27-.64,0-.76-.57-1.71-1.27-2.12l-34.57-19.94c-.7-.41-1.27-.12-1.27.65Z"/>
            <path class="cls-5" d="M146.6,337.36c0,.76.57,1.71,1.27,2.12l34.57,19.94c.7.41,1.28.12,1.27-.65,0-.76-.57-1.71-1.27-2.12l-34.57-19.94c-.7-.41-1.27-.12-1.27.65Z"/>
            <path class="cls-11" d="M147.88,336.71l19.1,11.01v2.76s-19.1-11.01-19.1-11.01c-.7-.41-1.27-1.35-1.27-2.12s.57-1.05,1.27-.65Z"/>
          </g>
        </g>
        <path class="cls-14" d="M128.55,364.04l8.11,4.66c1.27.73,2.3,2.52,2.3,3.98v4.66c0,1.47-1.03,2.06-2.3,1.33l-8.11-4.66c-1.27-.73-2.3-2.52-2.3-3.98v-4.66c0-1.47,1.03-2.06,2.3-1.33Z"/>
        <g>
          <path class="cls-1" d="M145.48,372l39.35,22.7c.7.41,1.27,1.4,1.27,2.21v10.87c0,.81-.57,1.14-1.28.74l-39.35-22.7c-.7-.41-1.28-1.4-1.28-2.21v-10.87c0-.81.57-1.14,1.27-.74Z"/>
          <path class="cls-11" d="M146.6,376.79c0,.76.57,1.71,1.27,2.12l34.57,19.94c.7.41,1.28.12,1.27-.64,0-.76-.57-1.71-1.27-2.12l-34.57-19.94c-.7-.41-1.27-.12-1.27.64Z"/>
          <path class="cls-5" d="M146.6,382.31c0,.76.57,1.71,1.27,2.12l34.57,19.94c.7.41,1.28.12,1.27-.65,0-.76-.57-1.71-1.27-2.12l-34.57-19.94c-.7-.41-1.27-.12-1.27.65Z"/>
          <path class="cls-11" d="M147.88,381.67l19.1,11.01v2.76s-19.1-11.01-19.1-11.01c-.7-.41-1.27-1.35-1.27-2.12s.57-1.05,1.27-.65Z"/>
        </g>
      </g>
      <g>
        <path class="cls-16" d="M247.75,176.67l-52.47,30.3c-.75.43-1.97.43-2.72,0l-52.47-30.3c-.75-.43-.75-1.13,0-1.57l52.47-29.25c.75-.43,1.97-.43,2.72,0l52.47,29.25c.75.43.75,1.13,0,1.57Z"/>
        <path class="cls-3" d="M195.22,205.3l50.21-28.99c.72-.41,1.3-1.42,1.3-2.25v-1.69c0-.83-.58-1.84-1.3-2.25l-50.21-28.99c-.72-.41-1.88-.41-2.6,0l-50.21,28.99c-.72.41-1.3,1.42-1.3,2.25v1.69c0,.83.58,1.84,1.3,2.25l50.21,28.99c.72.41,1.88.41,2.6,0Z"/>
        <path class="cls-17" d="M195.22,205.3l50.21-28.99c.72-.41,1.3-1.42,1.3-2.25v-1.69c0-.83-.58-1.84-1.3-2.25l-50.21-28.99c-.72-.41-1.88-.41-2.6,0l-50.21,28.99c-.72.41-1.3,1.42-1.3,2.25v1.69c0,.83.58,1.84,1.3,2.25l50.21,28.99c.72.41,1.88.41,2.6,0Z"/>
        <path class="cls-13" d="M245.44,171.62l-50.21,28.99c-.72.41-1.88.41-2.6,0l-50.21-28.99c-.72-.41-.72-1.09,0-1.5l50.21-27.99c.72-.41,1.88-.41,2.6,0l50.21,27.99c.72.41.72,1.09,0,1.5Z"/>
        <path class="cls-3" d="M193.92,200.92v4.69c.47,0,.94-.1,1.3-.31l50.22-28.99c.72-.41,1.3-1.42,1.3-2.25v-1.69c0-.73-.45-1.6-1.06-2.08.47.41.39.97-.24,1.33l-50.22,28.99c-.36.21-.83.31-1.3.31Z"/>
        <path class="cls-17" d="M193.92,200.92v4.69c.47,0,.94-.1,1.3-.31l50.22-28.99c.72-.41,1.3-1.42,1.3-2.25v-1.69c0-.73-.45-1.6-1.06-2.08.47.41.39.97-.24,1.33l-50.22,28.99c-.36.21-.83.31-1.3.31Z"/>
      </g>
      <g>
        <g>
          <path class="cls-6" d="M198.78,408.34l-.02-7.89c0-.81.57-1.8,1.28-2.21l9.41-5.43c.7-.41,1.27-.08,1.28.74l.02,7.89c0,.81-.57,1.8-1.27,2.21l-9.41,5.43c-.7.41-1.28.08-1.28-.74Z"/>
          <g>
            <path class="cls-3" d="M204.52,403.51l-1.05-.61h0s0,0,0,0h0c-.36-.21-.58-.66-.58-1.29,0-1.28.9-2.83,2-3.46.55-.32,1.05-.35,1.41-.14h0s0,0,0,0h0l.98.57-.17.3c.05.18.09.38.09.61,0,1.28-.9,2.83-2,3.46-.16.09-.32.16-.47.2l-.2.36Z"/>
            <path class="cls-2" d="M204.52,403.51l-1.05-.61h0s0,0,0,0h0c-.36-.21-.58-.66-.58-1.29,0-1.28.9-2.83,2-3.46.55-.32,1.05-.35,1.41-.14h0s0,0,0,0h0l.98.57-.17.3c.05.18.09.38.09.61,0,1.28-.9,2.83-2,3.46-.16.09-.32.16-.47.2l-.2.36Z"/>
            <path class="cls-11" d="M203.89,402.2c0-1.28.9-2.83,2-3.46,1.1-.64,2-.12,2,1.15,0,1.28-.9,2.83-2,3.46-1.1.64-2,.12-2-1.15Z"/>
          </g>
        </g>
        <g>
          <path class="cls-12" d="M198.78,393.54l-.02-39.72c0-.81.57-1.8,1.28-2.21l9.41-5.43c.7-.41,1.27-.08,1.28.74l.02,39.72c0,.81-.57,1.8-1.27,2.21l-9.41,5.43c-.7.41-1.28.08-1.28-.74Z"/>
          <path class="cls-11" d="M202.37,390.18c.66-.38,1.2-1.35,1.2-2.16l-.02-34.19c0-.81-.54-1.16-1.2-.78-.66.38-1.2,1.35-1.2,2.16l.02,34.19c0,.81.54,1.16,1.2.78Z"/>
          <path class="cls-5" d="M207.15,387.41c.66-.38,1.2-1.35,1.2-2.16l-.02-34.19c0-.81-.54-1.16-1.2-.78-.66.38-1.2,1.35-1.2,2.16l.02,34.19c0,.81.54,1.16,1.2.78Z"/>
          <path class="cls-11" d="M205.95,386.63l-.02-24.4,2.39-1.38.02,24.4c0,.81-.54,1.78-1.2,2.16-.66.38-1.2.03-1.2-.78Z"/>
        </g>
      </g>
      <g>
        <path class="cls-6" d="M214.95,399.02l-.02-7.89c0-.81.57-1.8,1.28-2.21l9.41-5.43c.7-.41,1.27-.08,1.27.74l.02,7.89c0,.81-.57,1.8-1.27,2.21l-9.41,5.43c-.7.41-1.28.08-1.27-.74Z"/>
        <g>
          <path class="cls-12" d="M214.95,384.21l-.02-39.72c0-.81.57-1.8,1.28-2.21l9.41-5.43c.7-.41,1.27-.08,1.27.74l.02,39.72c0,.81-.57,1.8-1.27,2.21l-9.41,5.43c-.7.41-1.28.08-1.27-.74Z"/>
          <path class="cls-5" d="M219.72,344.5c0-.81-.54-1.16-1.2-.78-.66.38-1.2,1.35-1.2,2.16l.02,34.19c0,.81.54,1.16,1.2.78.66-.38,1.2-1.35,1.2-2.16l-.02-34.19Z"/>
          <path class="cls-11" d="M219.72,371.14l-2.39,1.38.02,7.55c0,.81.54,1.16,1.2.78.66-.38,1.2-1.35,1.2-2.16l-.02-7.55Z"/>
          <path class="cls-5" d="M223.33,378.09c.66-.38,1.2-1.35,1.2-2.16l-.02-34.19c0-.81-.54-1.16-1.2-.78-.66.38-1.2,1.35-1.2,2.16l.02,34.19c0,.81.54,1.16,1.2.78Z"/>
          <path class="cls-11" d="M222.13,377.31l-.02-24.4,2.39-1.38.02,24.4c0,.81-.54,1.78-1.2,2.16-.66.38-1.2.03-1.2-.78Z"/>
        </g>
      </g>
      <g>
        <path class="cls-6" d="M231.13,389.68l-.02-7.89c0-.81.57-1.8,1.28-2.21l9.41-5.43c.7-.41,1.27-.08,1.28.74l.02,7.89c0,.81-.57,1.8-1.27,2.21l-9.41,5.43c-.7.41-1.28.08-1.27-.74Z"/>
        <g>
          <path class="cls-12" d="M231.13,374.87l-.02-39.72c0-.81.57-1.8,1.28-2.21l9.41-5.43c.7-.41,1.27-.08,1.28.74l.02,39.72c0,.81-.57,1.8-1.27,2.21l-9.41,5.43c-.7.41-1.28.08-1.27-.74Z"/>
          <path class="cls-11" d="M234.72,371.51c.66-.38,1.2-1.35,1.2-2.16l-.02-34.19c0-.81-.54-1.16-1.2-.78-.66.38-1.2,1.35-1.2,2.16l.02,34.19c0,.81.54,1.16,1.2.78Z"/>
          <path class="cls-5" d="M239.5,368.75c.66-.38,1.2-1.35,1.2-2.16l-.02-34.19c0-.81-.54-1.16-1.2-.78-.66.38-1.2,1.35-1.2,2.16l.02,34.19c0,.81.54,1.16,1.2.78Z"/>
          <path class="cls-11" d="M238.31,367.97l-.02-24.4,2.39-1.38.02,24.4c0,.81-.54,1.78-1.2,2.16-.66.38-1.2.03-1.2-.78Z"/>
        </g>
      </g>
      <g>
        <path class="cls-6" d="M247.31,380.34l-.02-7.89c0-.81.57-1.8,1.28-2.21l9.41-5.43c.7-.41,1.27-.08,1.27.74l.02,7.89c0,.81-.57,1.8-1.27,2.21l-9.41,5.43c-.7.41-1.28.08-1.27-.74Z"/>
        <g>
          <path class="cls-12" d="M247.31,365.54l-.02-39.72c0-.81.57-1.8,1.28-2.21l9.41-5.43c.7-.41,1.27-.08,1.27.74l.02,39.72c0,.81-.57,1.8-1.27,2.21l-9.41,5.43c-.7.41-1.28.08-1.27-.74Z"/>
          <path class="cls-11" d="M250.9,362.17c.66-.38,1.2-1.35,1.2-2.16l-.02-34.19c0-.81-.54-1.16-1.2-.78-.66.38-1.2,1.35-1.2,2.16l.02,34.19c0,.81.54,1.16,1.2.78Z"/>
          <path class="cls-5" d="M255.68,359.41c.66-.38,1.2-1.35,1.2-2.16l-.02-34.19c0-.81-.54-1.16-1.2-.78-.66.38-1.2,1.35-1.2,2.16l.02,34.19c0,.81.54,1.16,1.2.78Z"/>
          <path class="cls-11" d="M254.48,358.63l-.02-11.99,2.39-1.38.02,11.99c0,.81-.54,1.78-1.2,2.16s-1.2.03-1.2-.78Z"/>
        </g>
      </g>
      <g>
        <path class="cls-1" d="M245.94,388.45c-.53.31-.96,1.05-.96,1.66s.43.86.96.55c.53-.31.96-1.05.96-1.66s-.43-.86-.96-.55Z"/>
        <path class="cls-1" d="M237.96,393.07c-.53.3-.96,1.05-.96,1.65s.43.86.95.55c.53-.3.95-1.04.95-1.65,0-.61-.43-.86-.95-.55Z"/>
        <path class="cls-1" d="M230.11,397.6c-.53.3-.95,1.04-.95,1.65s.43.85.95.55c.53-.3.95-1.04.95-1.65s-.43-.85-.95-.55Z"/>
        <path class="cls-1" d="M222.19,402.17c-.52.3-.95,1.04-.95,1.64s.42.85.95.55c.52-.3.95-1.04.95-1.64s-.42-.85-.95-.55Z"/>
      </g>
      <g>
        <g>
          <path class="cls-3" d="M214.7,260.84c-.2,0-.39-.05-.57-.15-.35-.2-.57-.58-.57-.99v-8.44c0-.63.51-1.14,1.14-1.14s1.14.51,1.14,1.14v6.46l25.36-14.64v-7.78c0-.63.51-1.14,1.14-1.14s1.14.51,1.14,1.14v8.44c0,.41-.22.79-.57.99l-27.64,15.96c-.18.1-.37.15-.57.15Z"/>
          <path class="cls-3" d="M219.81,240.55c-.14,0-.28-.02-.41-.08-.59-.23-.88-.89-.65-1.48l8.29-21.5c.15-.39.51-.67.93-.72.42-.05.83.14,1.07.48l8.29,11.93c.36.52.23,1.23-.29,1.59-.52.36-1.23.23-1.59-.29l-7.06-10.16-7.51,19.49c-.17.45-.61.73-1.07.73Z"/>
          <path class="cls-3" d="M228.09,246.41c-.63,0-1.14-.51-1.14-1.14v-24.87c0-.63.51-1.14,1.14-1.14s1.14.51,1.14,1.14v24.87c0,.63-.51,1.14-1.14,1.14Z"/>
        </g>
        <g>
          <path class="cls-11" d="M214.7,260.84c-.2,0-.39-.05-.57-.15-.35-.2-.57-.58-.57-.99v-8.44c0-.63.51-1.14,1.14-1.14s1.14.51,1.14,1.14v6.46l25.36-14.64v-7.78c0-.63.51-1.14,1.14-1.14s1.14.51,1.14,1.14v8.44c0,.41-.22.79-.57.99l-27.64,15.96c-.18.1-.37.15-.57.15Z"/>
          <path class="cls-11" d="M219.81,240.55c-.14,0-.28-.02-.41-.08-.59-.23-.88-.89-.65-1.48l8.29-21.5c.15-.39.51-.67.93-.72.42-.05.83.14,1.07.48l8.29,11.93c.36.52.23,1.23-.29,1.59-.52.36-1.23.23-1.59-.29l-7.06-10.16-7.51,19.49c-.17.45-.61.73-1.07.73Z"/>
          <path class="cls-11" d="M228.09,246.41c-.63,0-1.14-.51-1.14-1.14v-24.87c0-.63.51-1.14,1.14-1.14s1.14.51,1.14,1.14v24.87c0,.63-.51,1.14-1.14,1.14Z"/>
        </g>
      </g>
    </g>
  </g>
  <g>
    <path class="cls-3" d="M130.23,369.01l1.05-.61h0s0,0,0,0h0c.36-.2.86-.17,1.41.14,1.1.64,2,2.19,2,3.46,0,.64-.22,1.08-.58,1.29h0s0,0,0,0h0s-.98.56-.98.56l-.18-.3c-.18-.04-.37-.11-.57-.22-1.1-.64-2-2.19-2-3.46,0-.19.03-.36.06-.51l-.21-.36Z"/>
    <path class="cls-2" d="M130.23,369.01l1.05-.61h0s0,0,0,0h0c.36-.2.86-.17,1.41.14,1.1.64,2,2.19,2,3.46,0,.64-.22,1.08-.58,1.29h0s0,0,0,0h0s-.98.56-.98.56l-.18-.3c-.18-.04-.37-.11-.57-.22-1.1-.64-2-2.19-2-3.46,0-.19.03-.36.06-.51l-.21-.36Z"/>
    <path class="cls-11" d="M131.68,369.12c1.1.64,2,2.19,2,3.46s-.9,1.79-2,1.15c-1.1-.64-2-2.19-2-3.46,0-1.28.9-1.79,2-1.15Z"/>
  </g>
  <g>
    <path class="cls-3" d="M220.94,394.68l-1.05-.61h0s0,0,0,0h0c-.36-.21-.58-.66-.58-1.29,0-1.28.9-2.83,2-3.46.55-.32,1.05-.35,1.41-.14h0s0,0,0,0h0l.98.57-.17.3c.05.18.09.38.09.61,0,1.28-.9,2.83-2,3.46-.16.09-.32.16-.47.2l-.2.36Z"/>
    <path class="cls-2" d="M220.94,394.68l-1.05-.61h0s0,0,0,0h0c-.36-.21-.58-.66-.58-1.29,0-1.28.9-2.83,2-3.46.55-.32,1.05-.35,1.41-.14h0s0,0,0,0h0l.98.57-.17.3c.05.18.09.38.09.61,0,1.28-.9,2.83-2,3.46-.16.09-.32.16-.47.2l-.2.36Z"/>
    <path class="cls-11" d="M220.31,393.36c0-1.28.9-2.83,2-3.46,1.1-.64,2-.12,2,1.15,0,1.28-.9,2.83-2,3.46-1.1.64-2,.12-2-1.15Z"/>
  </g>
  <g>
    <path class="cls-3" d="M236.35,385.45l-1.05-.61h0s0,0,0,0h0c-.36-.21-.58-.66-.58-1.29,0-1.28.9-2.83,2-3.46.55-.32,1.05-.35,1.41-.14h0s0,0,0,0h0l.98.57-.17.3c.05.18.09.38.09.61,0,1.28-.9,2.83-2,3.46-.16.09-.32.16-.47.2l-.2.36Z"/>
    <path class="cls-2" d="M236.35,385.45l-1.05-.61h0s0,0,0,0h0c-.36-.21-.58-.66-.58-1.29,0-1.28.9-2.83,2-3.46.55-.32,1.05-.35,1.41-.14h0s0,0,0,0h0l.98.57-.17.3c.05.18.09.38.09.61,0,1.28-.9,2.83-2,3.46-.16.09-.32.16-.47.2l-.2.36Z"/>
    <path class="cls-11" d="M235.72,384.13c0-1.28.9-2.83,2-3.46,1.1-.64,2-.12,2,1.15,0,1.28-.9,2.83-2,3.46-1.1.64-2,.12-2-1.15Z"/>
  </g>
  <g>
    <path class="cls-3" d="M253.51,375.71l-1.05-.61h0s0,0,0,0h0c-.36-.21-.58-.66-.58-1.29,0-1.28.9-2.83,2-3.46.55-.32,1.05-.35,1.41-.14h0s0,0,0,0h0l.98.57-.17.3c.05.18.09.38.09.61,0,1.28-.9,2.83-2,3.46-.16.09-.32.16-.47.2l-.2.36Z"/>
    <path class="cls-2" d="M253.51,375.71l-1.05-.61h0s0,0,0,0h0c-.36-.21-.58-.66-.58-1.29,0-1.28.9-2.83,2-3.46.55-.32,1.05-.35,1.41-.14h0s0,0,0,0h0l.98.57-.17.3c.05.18.09.38.09.61,0,1.28-.9,2.83-2,3.46-.16.09-.32.16-.47.2l-.2.36Z"/>
    <path class="cls-11" d="M252.88,374.39c0-1.28.9-2.83,2-3.46,1.1-.64,2-.12,2,1.15,0,1.28-.9,2.83-2,3.46-1.1.64-2,.12-2-1.15Z"/>
  </g>
</svg>