<?xml version="1.0" encoding="UTF-8"?>
<svg id="Capa_1" data-name="Capa 1" xmlns="http://www.w3.org/2000/svg" viewBox="0 0 1175.29 266.82">
  <defs>
    <style>
      .cls-1 {
        fill: #323a8e;
      }
    </style>
  </defs>
  <path class="cls-1" d="M9.96,142.36c-.1-2.8-.1-5.96,0-8.76C13.83,29.28,132.32-30.2,218.08,30.94c72.61,51.76,73.44,160.09,1.51,212.88-85.49,62.74-205.74,3.66-209.63-101.45ZM134.77,24.02C50.99,28.4.68,121.09,42.26,194.23c43.58,76.66,154.68,76.87,198.45.3,45.15-79-15.68-175.22-105.94-170.51Z"/>
  <path class="cls-1" d="M874.41,150.22c7.78.25,15.67-.33,23.45-.01,6.23.26,15.21.73,17.46,7.93,1.88,6.03-2.17,9.87-7.36,11.86-.47.18-2.4.33-2.1.92,5.88,4.47,10.46,10.43,15.42,15.86h-11.34c-4.01-3.66-7.32-8.63-11.5-12.08-1.76-1.45-4.28-3.03-6.64-3.03h-8.31v15.11h-9.07v-36.56ZM883.48,165.02h16.48c.81,0,3.73-.8,4.49-1.25,3.27-1.94,2.33-4.98-.93-6.23-.35-.13-2.15-.67-2.35-.67h-17.69v8.16Z"/>
  <path class="cls-1" d="M509.76,150.22c7.69.24,15.46-.32,23.14-.01,5.42.22,12.5.4,16.11,5.05,3.96,5.09,1.95,11.07-3.56,13.86-1.29.65-2.56.85-3.83,1.31-.33.12-.51-.15-.41.48,5.88,4.47,10.41,10.47,15.42,15.86h-11.79c-.05,0-.09-.56-.43-.91-3.94-4.04-11.51-14.19-17.25-14.19h-8.31v15.11h-9.07v-36.56ZM518.83,165.02h16.48c.65,0,3.85-.88,4.49-1.25,3.07-1.79,2.47-4.94-.72-6.14-.37-.14-2.65-.76-2.86-.76h-17.39v8.16Z"/>
  <polygon class="cls-1" points="577.04 150.22 600.47 174.69 600.47 150.67 600.92 150.22 609.09 150.22 609.54 150.67 609.54 186.77 600.92 186.77 577.49 162.6 577.49 186.77 568.72 186.77 568.72 150.22 577.04 150.22"/>
  <path d="M331.07,83.75v1.51c-2.07-.15-5.44-.04-6.61,2-.12.2-.64,1.67-.64,1.77v18.28h23.13c.43-.27.42-.6.47-1.04.4-3.43.31-14.79-.45-18.01-.63-2.72-4.54-3.27-6.83-3v-1.51h21.47v1.51c-5.17-.26-6.92.67-7.27,5.88-.84,12.43.38,26.17.35,38.65.65,3.25,4.2,3.37,6.92,3.21v1.51h-21.47v-1.51c2.2.07,4.8.26,6.18-1.83.82-1.24,1-4.28,1.09-5.86.27-5-.23-10.25-.01-15.27h-23.58v19.18c0,.11.53,1.57.64,1.77,1.18,2.04,4.54,2.16,6.61,2v1.51h-21.77v-1.51c4.21.23,6.73-.06,7.22-4.72-.58-12.32.89-25.52.05-37.74-.34-4.95-2.67-5.44-7.27-5.27v-1.51h21.77Z"/>
  <path class="cls-1" d="M375.82,174.69v-24.47h8.31l.45.45v36.1h-8.62c-7.33-8.07-15.24-15.61-22.58-23.66-.27-.3-.27-.65-.85-.51v24.17h-8.77v-36.56h8.31l23.74,24.47Z"/>
  <polygon class="cls-1" points="1114.48 150.22 1114.48 157.16 1086.06 157.16 1086.06 164.26 1086.51 164.72 1112.67 164.72 1112.67 171.36 1086.06 171.36 1086.06 179.67 1086.51 180.13 1115.69 180.13 1115.69 186.77 1076.99 186.77 1076.99 150.67 1077.44 150.22 1114.48 150.22"/>
  <polygon class="cls-1" points="637.05 157.16 637.05 164.72 663.66 164.72 663.66 171.36 637.05 171.36 637.05 180.13 666.38 180.13 666.38 186.77 627.98 186.77 627.98 150.22 665.02 150.22 665.48 150.67 665.48 156.71 665.02 157.16 637.05 157.16"/>
  <path d="M423.59,134.51l.04-1.02.46-.45c3.12.2,6.15-.29,6.73-3.85-.66-12.68.97-26.4.04-38.96-.18-2.39-.89-4.46-3.56-4.9-1.58-.26-4.08.71-3.71-1.58,9.15.46,19.18-.9,28.19.68,8.77,1.54,14.46,10.1,9.85,18.44-2.26,4.09-6.55,5.73-10.82,7.01,4.56,5.58,8.35,12.69,13.15,17.98,2.73,3.02,5.89,5.08,10.13,5.13v1.51h-13.46l-17.06-23.44c-1.16-.94-3.81.41-5.47-.43v17.67c0,.16.43,1.91.53,2.19,1.05,2.87,4.21,2.56,6.73,2.49v1.51h-21.77ZM438.1,108.52c8.87.75,18.44-3.59,16.26-13.98-1.63-7.77-9.65-8.81-16.26-7.17v21.15Z"/>
  <polygon class="cls-1" points="491.92 150.22 491.92 157.16 463.8 157.16 463.8 164.72 490.11 164.72 490.11 171.36 463.8 171.36 463.8 180.13 493.13 180.13 493.13 186.77 454.73 186.77 454.73 150.22 491.92 150.22"/>
  <polygon class="cls-1" points="856.57 150.22 856.57 157.16 828.45 157.16 828.45 164.72 854.75 164.72 854.75 171.36 828.45 171.36 828.45 180.13 857.78 180.13 857.78 186.77 819.38 186.77 819.38 150.22 856.57 150.22"/>
  <path d="M476.8,134.51v-1.51c2.33.06,4.68.34,6.21-1.8.8-1.11.97-3.55,1.06-4.98.59-9.87.52-23.36,0-33.26-.06-1.16-.2-3.05-.39-4.14-.64-3.62-3.77-3.7-6.88-3.55v-1.51c9.09.44,18.93-.85,27.88.69,8.08,1.4,13.64,8.4,10.75,16.61-1.85,5.25-6.68,7.48-11.72,8.83l13.75,18.59c2.44,2.78,5.8,4.4,9.53,4.53v1.51s-13.45,0-13.45,0l-17.39-23.72-4.65-.12-.43.46c.18,5.11-.4,10.59-.04,15.66s1.72,6.61,7.26,6.19v1.51h-21.47ZM491.01,87.38v20.69c1.55.88,4.37.39,6.16.11,7.24-1.15,12.06-6.64,10.03-14.17s-9.74-8.17-16.19-6.63Z"/>
  <path d="M1041.91,134.51v-1.51c2.91.28,5.96-.03,6.88-3.25.11-12.31,1.14-25.73.39-38-.32-5.32-1.64-6.85-7.27-6.48v-1.51c9.09.44,18.93-.85,27.88.69,8.36,1.45,13.98,8.93,10.53,17.29-2.01,4.87-6.75,6.84-11.5,8.15l13.75,18.59c2.44,2.78,5.8,4.4,9.53,4.53v1.51s-13.6,0-13.6,0l-17.24-23.72-4.65-.12-.43.46c.15,4.94-.36,10.17-.06,15.07.08,1.25.29,3.59.8,4.64,1.18,2.43,4.15,2.23,6.47,2.15v1.51h-21.47ZM1056.12,87.83v20.24c1.55.88,4.37.39,6.16.11,7.26-1.15,12.07-6.62,10.03-14.17-1.92-7.13-10.11-8.82-16.19-6.18Z"/>
  <path class="cls-1" d="M1169.49,162.28l-8.75.62c.15-3.01-1.65-4.86-4.37-5.75-3.18-1.04-11.95-1.15-14.53,1.23-3.6,3.32,2.66,4.52,4.93,5.04,7.42,1.68,27.88,2.52,23.73,15.14-3.39,10.29-24.06,9.9-32.14,6.55-4.88-2.02-8.83-6.34-8.17-11.93l8.45-.29c.18,8.09,12.8,8.43,18.46,7.09,4.14-.98,7.63-4.36,2.11-6.64-7.49-3.09-28.93-1.84-27.18-14.48.69-4.97,7.04-7.78,11.4-8.55,9.13-1.61,26.08-.55,26.05,11.98Z"/>
  <path class="cls-1" d="M800.9,162.27l-8.39.6c-.44-2.27-1.13-4.23-3.36-5.25-2.95-1.35-9.66-1.46-12.76-.66-3.28.84-6.19,3.62-1.75,5.5,7.54,3.18,29.22,1.5,27.81,14.51-1.18,10.93-20.92,11.19-28.73,9.37-6.57-1.54-12.45-5.75-12.09-13.15l8.43-.26c.47,8.28,14,8.61,19.7,6.76,3.2-1.04,5.92-3.86,1.81-6.04-6.84-3.63-29.35-1.74-28.08-14.17.57-5.59,6.85-8.31,11.7-9.16,9.08-1.59,25.98-.52,25.73,11.96Z"/>
  <path d="M709.62,121.52v-31.87c0-.15-.55-2.1-.67-2.35-1.11-2.33-4.44-2.1-6.59-2.03v-1.51h17.84v1.51c-2.47-.11-5.62-.16-6.72,2.5-.09.23-.54,1.78-.54,1.88v45.77l-1.2-.16-33.57-40.63v34.29c0,.1.45,1.69.53,1.88,1.13,2.45,4.47,2.29,6.73,2.19v1.51h-17.84v-1.51c4.9.34,6.89-.53,7.27-5.58.88-11.69-.69-24.47,0-36.27-1.37-3.78-5.96-6.25-9.99-5.88v-1.51h13.46l31.29,37.76Z"/>
  <path class="cls-1" d="M1060.96,162l-8.87,1.22c-2.72-8.68-17.66-8.7-23.34-3.64-4.32,3.85-4.61,12.13-1.18,16.6,4.16,5.41,16,5.95,21.26,1.96,2.21-1.67,3-3.71,4.13-6.13l8.9,1.47c-1.99,6.75-7.13,11.19-13.91,12.84-6.12,1.49-15.25,1.19-21.07-1.31-13.15-5.64-15.04-24.38-2.22-31.63,10.78-6.1,32.14-5.59,36.29,8.61Z"/>
  <path d="M930.49,83.75l.45.76.3,10.42-1.5-.02c-.37-3.09-1.43-7.05-4.91-7.94-.55-.14-2.68-.51-3.12-.51h-15.57v20.24c3.54-.16,7.21.21,10.75.01,1.18-.07,3.22-.26,4.32-.52,3.07-.73,3.84-3.96,3.99-6.74h1.51s0,17.52,0,17.52l-1.5-.02c-.47-2.59-.42-5.43-3.07-6.75-.3-.15-2.08-.78-2.24-.78h-13.76v20.09c0,1.54,2.25,2.14,3.48,2.26,3.69.37,14.02.34,17.06-1.38,2.88-1.62,5.36-5.61,6.72-8.54l1.77-.05-4.23,12.69h-39.31v-1.51c3.4.2,6.75-.12,7.22-4.11-.59-12.52.9-25.94.05-38.35-.36-5.19-2.44-5.44-7.27-5.27v-1.51h38.85Z"/>
  <path d="M833.13,83.75l.45.76.3,10.42h-1.51c-.23-3.1-1.47-7.08-4.89-7.95-.55-.14-2.68-.51-3.12-.51h-15.57v20.24c3.54-.16,7.21.21,10.75.01,1.18-.07,3.22-.26,4.32-.52,3.1-.74,3.86-3.92,3.99-6.74h1.51s0,17.52,0,17.52l-1.5-.02c-.42-2.71-.34-5.33-3.07-6.75-.26-.13-1.83-.78-1.94-.78h-14.06v20.09c0,1.54,2.25,2.14,3.48,2.26,3.69.37,14.02.34,17.06-1.38,2.88-1.62,5.36-5.61,6.72-8.54l1.77-.05-4.23,12.69h-39.31v-1.51c3.4.2,6.75-.12,7.22-4.11-.59-12.52.9-25.94.05-38.35-.36-5.19-2.44-5.44-7.27-5.27v-1.51h38.85Z"/>
  <path d="M763.74,83.75l.6,11.18-1.47-.04c-.8-3.23-1.66-7.17-5.46-7.98-.49-.11-2.53-.43-2.89-.43h-15.57v19.79c.27.43.6.42,1.04.47,3.09.36,10.76.18,13.79-.45,3.25-.68,4.29-3.78,4.22-6.81h1.51v17.52h-1.51c-.14-2.57-.35-5.31-2.81-6.71-.33-.19-1.95-.84-2.18-.84h-14.06v19.18c0,.16.55,2,.69,2.18.37.46,1.9.88,2.52.96,3.5.43,13.67.29,16.76-1.01,2.15-.91,3.44-2.47,4.77-4.3.66-.89,2.18-3.94,2.62-4.33.5-.45,1.07-.3,1.67-.3l-4.23,12.69h-39v-1.51c2.72.21,6.24-.02,6.89-3.24.19-.96.33-2.8.38-3.84.55-9.92.54-23.33,0-33.26-.08-1.45-.28-4.56-.97-5.68-1.28-2.11-4.18-1.7-6.31-1.71v-1.51h39.01Z"/>
  <path d="M387.31,83.75v1.51c-2.2-.07-4.8-.26-6.18,1.83-.77,1.16-1,3.8-1.09,5.26-.45,7.51-.78,26.08,1.44,32.73,3.6,10.8,22.49,8.93,26.23-.54.8-2.03,1.25-5.19,1.38-7.38.45-7.55.49-18.48,0-26.01-.34-5.25-2.03-6.2-7.27-5.88v-1.51h17.84v1.51c-4.68-.46-6.93,1.23-7.27,5.88-1.24,17.11,6.8,43.98-18.87,44.59-27.41.65-19.26-25.23-20.41-43.38-.33-5.21-1.38-7.71-7.27-7.09v-1.51h21.47Z"/>
  <path d="M609.24,134.51c-.37-2.05,2.42-1.59,3.92-2.58,1.11-.73,1.84-2.38,2.59-3.45l19.95-45.63c.37-.37,1.36-.61,1.44.08,5.4,12.6,10.3,25.43,15.8,37.98,2.05,4.67,4.15,12.5,10.42,12.09v1.51h-19.96v-1.51c10.21.4,1.97-10.49.62-15.27l-20,.05c-.77,3.13-5.78,10.66-4.17,13.52.76,1.34,3.97,1.78,5.41,1.69v1.51h-16.03ZM625.56,114.87h17.23l-8.32-20.24-8.92,20.24Z"/>
  <path class="cls-1" d="M937.6,150.22l14.36,27.8,14.82-27.8h9.22l-19.94,36.12c-1.1,1.03-6.32.12-8.04.46l-20.4-36.58h9.98Z"/>
  <path d="M985.98,99.76l-1.17-.04c-2.52-10.92-12.36-17.47-23.31-13.1-15.26,6.09-15.99,40.02,1.88,44.94,9.98,2.75,17.36-1.57,22.76-9.73l.94.58c.27.32,0,.54-.1.82-.35.91-2.51,3.77-3.24,4.63-12.81,15.02-37.73,7.6-41.43-11.78-4.1-21.47,13.46-39.46,34.92-31.26,1.64.63,3.26,2.29,5.01.75.4-.35,2.51-5.39,2.88-1.99.58,5.34.6,10.82.89,16.18Z"/>
  <path d="M1168,99.76l-1.17-.04c-2.52-10.92-12.36-17.47-23.31-13.1-15.27,6.09-15.98,40.02,1.88,44.94,9.98,2.75,17.36-1.57,22.76-9.73l.94.58c.27.32,0,.54-.1.82-.35.91-2.51,3.77-3.24,4.63-12.8,15.02-37.73,7.59-41.43-11.78-4.1-21.47,13.47-39.45,34.92-31.26,1.64.63,3.26,2.29,5.01.75.4-.35,2.51-5.39,2.88-1.99.58,5.34.6,10.82.89,16.18Z"/>
  <path d="M602.89,99.76l-1.17-.04c-2.46-10.54-11.66-17.08-22.48-13.48-8.05,2.68-11.48,11.55-12.02,19.41-.8,11.55,1.87,24.05,15.05,26.34,9.36,1.63,15.61-2.56,20.61-10.05l1.19.88c-5.24,9.54-13.99,14.08-24.91,12.58-32.48-4.46-24.34-59.54,10.43-52.11,2.1.45,6.96,3.03,8.29,2.86,2.29-.29,2.18-4.05,3.65-3.62.83.24,1.21,15.31,1.36,17.22Z"/>
  <polygon class="cls-1" points="720.2 150.22 720.2 157.16 704.48 157.16 704.48 186.77 695.41 186.77 695.41 157.16 679.38 157.16 679.38 150.22 720.2 150.22"/>
  <polygon class="cls-1" points="439.92 150.22 439.92 157.16 424.19 157.16 424.19 186.77 415.12 186.77 415.12 157.16 399.55 157.16 399.1 156.71 399.1 150.67 399.55 150.22 439.92 150.22"/>
  <path d="M1035.72,83.75l.45.76.3,11.33-1.38-.29c-.2-2.8-1.32-5.85-3.85-7.33-.44-.26-2.75-1.15-3.09-1.15h-9.52v37.93c.59,1.95-.19,5.33,1.35,6.79,1.63,1.55,3.9,1.05,5.91,1.34.62.43.14,1.37-.16,1.37h-21.32v-1.51c2.48.16,5.95.19,6.81-2.71.07-.25.44-2.15.44-2.28v-40.94h-9.52c-2.34,0-5.02,2.66-5.83,4.75-.62,1.61-.2,4.44-2.18,4.01l.6-12.09h40.97Z"/>
  <path d="M865.94,83.75v1.51c-4.91-.23-8.09.44-8.48,5.88-.82,11.44.65,23.83,0,35.37.19,2.7.44,4.33,3.49,4.67,3.38.38,12.85.29,15.94-.69,4.34-1.37,6.8-5.89,8.45-9.83l1.16-.05-4.38,13.9h-39.16l.28-1.38c3.58-.05,6.61-.26,6.98-4.5,1.1-12.48-.82-26.6-.05-39.25-.49-4.09-3.49-4.15-6.93-4.26-.62-.43-.14-1.37.16-1.37h22.53Z"/>
  <path d="M1117.2,83.75l-.28,1.38c-4.27.08-6.63.35-6.99,5.1-.94,12.65.71,26.48.04,39.26.06,1.59,2.09,3.15,3.52,3.43,1.56.31,4.08-.77,3.71,1.58h-21.77v-1.51c5.2.37,6.92-.7,7.27-5.88.81-12.03-.6-25.01-.05-37.14-.48-4.41-3.23-4.96-7.22-4.72v-1.51h21.77Z"/>
  <path d="M552.09,134.51h-21.77v-1.51c5.5.4,6.94-.87,7.27-6.18.78-12.38-.34-25.93-.35-38.35-.69-3.17-4.2-3.42-6.92-3.21v-1.51h21.32c.3,0,.78.94.16,1.37-3.19.07-6.3.18-6.93,3.95.77,12.88-1.12,27.14-.04,39.86.18,2.15,1.65,3.73,3.81,4.05,1.51.22,3.81-.77,3.46,1.53Z"/>
  <rect class="cls-1" x="315.65" y="150.22" width="9.07" height="36.56"/>
  <path class="cls-1" d="M998.68,150.52v36.25h-9.07v-36.1c.49-.75,1.18-.15,1.95-.14,2.37.05,4.75-.07,7.12-.01Z"/>
  <path d="M115.48,67.14v2.42c-4.35-.01-11.13.39-12.61,5.37-.24.79-.69,3.13-.69,3.84v31.27h43.24v-32.78c0-.57-.65-2.67-.95-3.29-1.9-3.96-8.52-4.5-12.36-4.42v-2.42h39.91v2.42c-3.94-.06-10.65.44-12.45,4.62-.26.61-.85,3.13-.85,3.68v32.17h45.05l.91,20.24-2.98-.04c-1.32-5.44-2.27-11.79-8.3-13.91-.74-.26-3.03-.85-3.69-.85h-30.99v36.25c6.92-.29,14.15.39,21.03.01,2.2-.12,5.46-.48,7.47-1.29,4.71-1.91,5.51-7.83,5.98-12.3l2.4-.02v32.33l-2.38-.04c-1.06-4.08-.68-8.65-4.43-11.44-2.58-1.92-6.81-2.27-9.96-2.43-6.56-.33-13.26.17-19.84.14l-.3.91c.51,10.73-.63,22,0,32.66.24,4.13.62,6.62,5.31,7.08,5.94.59,24.14.57,29.48-1.05s9.09-6.43,11.92-10.75c.61-.93,2.94-5.46,3.33-5.74.8-.58,2.23-.17,3.2-.28l-7.9,23.22-71.64-.09-.28-2.59h5.29c1.2,0,4.95-1.71,5.91-2.56s2.11-3.36,2.11-4.54v-77.79h-43.24v32.78c0,.81.51,3.48.82,4.32.72,1.97,2.45,3.09,4.33,3.83.78.31,3.07,1.06,3.77,1.06h4.38v2.42h-39.91v-2.42h4.69c.84,0,3.45-.74,4.29-1.15,3.25-1.6,3.93-4.13,4.33-7.46-.09-22.25,1.29-44.87,0-67.07-.14-2.42.2-4.79-.69-7.17-1.52-4.08-8.85-4.97-12.62-4.76v-2.42h39.91Z"/>
</svg>